solid OpenSCAD_Model
  facet normal -1 0 -1.22465e-16
    outer loop
      vertex -1 -1 29
      vertex -1 57.6 29
      vertex -1 -1 12
    endloop
  endfacet
  facet normal -1 0 -1.22465e-16
    outer loop
      vertex -1 -1 12
      vertex -1 57.6 29
      vertex -1 57.6 12
    endloop
  endfacet
  facet normal -1.22465e-16 0 1
    outer loop
      vertex -1 57.6 29
      vertex -1 -1 29
      vertex 137.6 -1 29
    endloop
  endfacet
  facet normal -1.22465e-16 0 1
    outer loop
      vertex 137.6 57.6 29
      vertex -1 57.6 29
      vertex 137.6 -1 29
    endloop
  endfacet
  facet normal 0 -1 0
    outer loop
      vertex 137.6 -1 29
      vertex -1 -1 29
      vertex -1 -1 12
    endloop
  endfacet
  facet normal 0 -1 0
    outer loop
      vertex 78 -1 15
      vertex 137.6 -1 29
      vertex -1 -1 12
    endloop
  endfacet
  facet normal 0 -1 0
    outer loop
      vertex 78 -1 12
      vertex 78 -1 15
      vertex -1 -1 12
    endloop
  endfacet
  facet normal 0 -1 0
    outer loop
      vertex 93 -1 12
      vertex 137.6 -1 29
      vertex 93 -1 15
    endloop
  endfacet
  facet normal 0 -1 0
    outer loop
      vertex 137.6 -1 12
      vertex 137.6 -1 29
      vertex 93 -1 12
    endloop
  endfacet
  facet normal 0 -1 0
    outer loop
      vertex 78 -1 15
      vertex 93 -1 15
      vertex 137.6 -1 29
    endloop
  endfacet
  facet normal 1.22465e-16 0 -1
    outer loop
      vertex 14 57.6 12
      vertex 14 56.8 12
      vertex -1 57.6 12
    endloop
  endfacet
  facet normal 1.22465e-16 0 -1
    outer loop
      vertex -1 57.6 12
      vertex 14 56.8 12
      vertex -0.2 56.8 12
    endloop
  endfacet
  facet normal 1.22465e-16 0 -1
    outer loop
      vertex -1 57.6 12
      vertex -0.2 56.8 12
      vertex -0.2 -0.2 12
    endloop
  endfacet
  facet normal 1.22465e-16 0 -1
    outer loop
      vertex -0.2 -0.2 12
      vertex 78 -0.2 12
      vertex 78 -1 12
    endloop
  endfacet
  facet normal 1.22465e-16 0 -1
    outer loop
      vertex -0.2 -0.2 12
      vertex 78 -1 12
      vertex -1 -1 12
    endloop
  endfacet
  facet normal 1.22465e-16 0 -1
    outer loop
      vertex -0.2 -0.2 12
      vertex -1 -1 12
      vertex -1 57.6 12
    endloop
  endfacet
  facet normal 0 1 0
    outer loop
      vertex 14 57.6 12
      vertex -1 57.6 12
      vertex 14 57.6 25
    endloop
  endfacet
  facet normal 0 1 0
    outer loop
      vertex 29 57.6 12
      vertex 137.6 57.6 29
      vertex 137.6 57.6 12
    endloop
  endfacet
  facet normal 0 1 0
    outer loop
      vertex -1 57.6 29
      vertex 137.6 57.6 29
      vertex 29 57.6 25
    endloop
  endfacet
  facet normal 0 1 0
    outer loop
      vertex -1 57.6 29
      vertex 29 57.6 25
      vertex 14 57.6 25
    endloop
  endfacet
  facet normal 0 1 0
    outer loop
      vertex -1 57.6 29
      vertex 14 57.6 25
      vertex -1 57.6 12
    endloop
  endfacet
  facet normal 0 1 0
    outer loop
      vertex 29 57.6 25
      vertex 137.6 57.6 29
      vertex 29 57.6 12
    endloop
  endfacet
  facet normal 1 0 1.22465e-16
    outer loop
      vertex 137.6 57.6 29
      vertex 137.6 -1 29
      vertex 137.6 -1 12
    endloop
  endfacet
  facet normal 1 0 1.22465e-16
    outer loop
      vertex 137.6 57.6 12
      vertex 137.6 57.6 29
      vertex 137.6 -1 12
    endloop
  endfacet
  facet normal 1.22465e-16 0 -1
    outer loop
      vertex 29 56.8 12
      vertex 29 57.6 12
      vertex 136.8 56.8 12
    endloop
  endfacet
  facet normal 1.22465e-16 0 -1
    outer loop
      vertex 93 -0.2 12
      vertex 137.6 -1 12
      vertex 93 -1 12
    endloop
  endfacet
  facet normal 1.22465e-16 0 -1
    outer loop
      vertex 137.6 57.6 12
      vertex 137.6 -1 12
      vertex 136.8 -0.2 12
    endloop
  endfacet
  facet normal 1.22465e-16 0 -1
    outer loop
      vertex 137.6 57.6 12
      vertex 136.8 -0.2 12
      vertex 136.8 56.8 12
    endloop
  endfacet
  facet normal 1.22465e-16 0 -1
    outer loop
      vertex 137.6 57.6 12
      vertex 136.8 56.8 12
      vertex 29 57.6 12
    endloop
  endfacet
  facet normal 1.22465e-16 0 -1
    outer loop
      vertex 136.8 -0.2 12
      vertex 137.6 -1 12
      vertex 93 -0.2 12
    endloop
  endfacet
  facet normal -1 0 0
    outer loop
      vertex 93 -0.2 15
      vertex 93 -0.2 12
      vertex 93 -1 15
    endloop
  endfacet
  facet normal -1 0 0
    outer loop
      vertex 93 -1 15
      vertex 93 -0.2 12
      vertex 93 -1 12
    endloop
  endfacet
  facet normal 0 0 -1
    outer loop
      vertex 93 -0.2 15
      vertex 93 -1 15
      vertex 78 -0.2 15
    endloop
  endfacet
  facet normal 0 0 -1
    outer loop
      vertex 78 -0.2 15
      vertex 93 -1 15
      vertex 78 -1 15
    endloop
  endfacet
  facet normal 1 0 0
    outer loop
      vertex 78 -0.2 12
      vertex 78 -0.2 15
      vertex 78 -1 15
    endloop
  endfacet
  facet normal 1 0 0
    outer loop
      vertex 78 -1 12
      vertex 78 -0.2 12
      vertex 78 -1 15
    endloop
  endfacet
  facet normal 0 1 0
    outer loop
      vertex 136.8 -0.2 12
      vertex 93 -0.2 12
      vertex 136.8 -0.2 28.2
    endloop
  endfacet
  facet normal 0 1 0
    outer loop
      vertex 136.8 -0.2 28.2
      vertex 93 -0.2 12
      vertex 93 -0.2 15
    endloop
  endfacet
  facet normal 0 1 0
    outer loop
      vertex 136.8 -0.2 28.2
      vertex 93 -0.2 15
      vertex 78 -0.2 15
    endloop
  endfacet
  facet normal 0 1 0
    outer loop
      vertex 78 -0.2 15
      vertex 78 -0.2 12
      vertex -0.2 -0.2 12
    endloop
  endfacet
  facet normal 0 1 0
    outer loop
      vertex 78 -0.2 15
      vertex -0.2 -0.2 12
      vertex 136.8 -0.2 28.2
    endloop
  endfacet
  facet normal 0 1 0
    outer loop
      vertex 136.8 -0.2 28.2
      vertex -0.2 -0.2 12
      vertex -0.2 -0.2 28.2
    endloop
  endfacet
  facet normal 1 0 1.22465e-16
    outer loop
      vertex -0.2 -0.2 12
      vertex -0.2 56.8 12
      vertex -0.2 56.8 28.2
    endloop
  endfacet
  facet normal 1 0 1.22465e-16
    outer loop
      vertex -0.2 -0.2 28.2
      vertex -0.2 -0.2 12
      vertex -0.2 56.8 28.2
    endloop
  endfacet
  facet normal 0 -1 0
    outer loop
      vertex 29 56.8 25
      vertex 136.8 56.8 28.2
      vertex 14 56.8 25
    endloop
  endfacet
  facet normal 0 -1 0
    outer loop
      vertex -0.2 56.8 12
      vertex 14 56.8 12
      vertex 14 56.8 25
    endloop
  endfacet
  facet normal 0 -1 0
    outer loop
      vertex -0.2 56.8 28.2
      vertex -0.2 56.8 12
      vertex 14 56.8 25
    endloop
  endfacet
  facet normal 0 -1 0
    outer loop
      vertex 29 56.8 12
      vertex 136.8 56.8 12
      vertex 29 56.8 25
    endloop
  endfacet
  facet normal 0 -1 0
    outer loop
      vertex 136.8 56.8 12
      vertex 136.8 56.8 28.2
      vertex 29 56.8 25
    endloop
  endfacet
  facet normal 0 -1 0
    outer loop
      vertex 136.8 56.8 28.2
      vertex -0.2 56.8 28.2
      vertex 14 56.8 25
    endloop
  endfacet
  facet normal 1 0 0
    outer loop
      vertex 14 57.6 12
      vertex 14 57.6 25
      vertex 14 56.8 25
    endloop
  endfacet
  facet normal 1 0 0
    outer loop
      vertex 14 56.8 12
      vertex 14 57.6 12
      vertex 14 56.8 25
    endloop
  endfacet
  facet normal 0 0 -1
    outer loop
      vertex 29 57.6 25
      vertex 29 56.8 25
      vertex 14 57.6 25
    endloop
  endfacet
  facet normal 0 0 -1
    outer loop
      vertex 14 57.6 25
      vertex 29 56.8 25
      vertex 14 56.8 25
    endloop
  endfacet
  facet normal -1 0 0
    outer loop
      vertex 29 57.6 25
      vertex 29 57.6 12
      vertex 29 56.8 25
    endloop
  endfacet
  facet normal -1 0 0
    outer loop
      vertex 29 56.8 25
      vertex 29 57.6 12
      vertex 29 56.8 12
    endloop
  endfacet
  facet normal -1 0 -1.22465e-16
    outer loop
      vertex 136.8 56.8 12
      vertex 136.8 -0.2 12
      vertex 136.8 56.8 28.2
    endloop
  endfacet
  facet normal -1 0 -1.22465e-16
    outer loop
      vertex 136.8 56.8 28.2
      vertex 136.8 -0.2 12
      vertex 136.8 -0.2 28.2
    endloop
  endfacet
  facet normal 1.22465e-16 0 -1
    outer loop
      vertex 136.8 56.8 28.2
      vertex 136.8 -0.2 28.2
      vertex -0.2 56.8 28.2
    endloop
  endfacet
  facet normal 1.22465e-16 0 -1
    outer loop
      vertex -0.2 56.8 28.2
      vertex 136.8 -0.2 28.2
      vertex -0.2 -0.2 28.2
    endloop
  endfacet
endsolid OpenSCAD_Model
