  0
SECTION
  2
HEADER
  9
$ACADVER
  1
AC1014
  9
$HANDSEED
  5
FFFF
  9
$MEASUREMENT
 70
     1
  0
ENDSEC
  0
SECTION
  2
TABLES
  0
TABLE
  2
VPORT
  5
8
330
0
100
AcDbSymbolTable
 70
     4
  0
VPORT
  5
2E
330
8
100
AcDbSymbolTableRecord
100
AcDbViewportTableRecord
  2
*ACTIVE
 70
     0
 10
0.0
 20
0.0
 11
1.0
 21
1.0
 12
210.0
 22
148.5
 13
0.0
 23
0.0
 14
10.0
 24
10.0
 15
10.0
 25
10.0
 16
0.0
 26
0.0
 36
1.0
 17
0.0
 27
0.0
 37
0.0
 40
341.0
 41
1.24
 42
50.0
 43
0.0
 44
0.0
 50
0.0
 51
0.0
 71
     0
 72
   100
 73
     1
 74
     3
 75
     0
 76
     0
 77
     0
 78
     0
  0
ENDTAB
  0
TABLE
  2
LTYPE
  5
5
330
0
100
AcDbSymbolTable
 70
     1
  0
LTYPE
  5
14
330
5
100
AcDbSymbolTableRecord
100
AcDbLinetypeTableRecord
  2
BYBLOCK
 70
     0
  3

 72
    65
 73
     0
 40
0.0
  0
LTYPE
  5
15
330
5
100
AcDbSymbolTableRecord
100
AcDbLinetypeTableRecord
  2
BYLAYER
 70
     0
  3

 72
    65
 73
     0
 40
0.0
  0
LTYPE
  5
16
330
5
100
AcDbSymbolTableRecord
100
AcDbLinetypeTableRecord
  2
CONTINUOUS
 70
     0
  3
Solid line
 72
    65
 73
     0
 40
0.0
  0
ENDTAB
  0
TABLE
  2
LAYER
  5
2
100
AcDbSymbolTable
 70
1
  0
LAYER
  5
50
100
AcDbSymbolTableRecord
100
AcDbLayerTableRecord
  2
0
 70
0
  6
CONTINUOUS
  0
ENDTAB
  0
TABLE
  2
STYLE
  5
3
330
0
100
AcDbSymbolTable
 70
     1
  0
STYLE
  5
11
330
3
100
AcDbSymbolTableRecord
100
AcDbTextStyleTableRecord
  2
STANDARD
 70
     0
 40
0.0
 41
1.0
 50
0.0
 71
     0
 42
2.5
  3
txt
  4

  0
ENDTAB
  0
TABLE
  2
VIEW
  5
6
330
0
100
AcDbSymbolTable
 70
     0
  0
ENDTAB
  0
TABLE
  2
UCS
  5
7
330
0
100
AcDbSymbolTable
 70
     0
  0
ENDTAB
  0
TABLE
  2
APPID
  5
9
330
0
100
AcDbSymbolTable
 70
     2
  0
APPID
  5
12
330
9
100
AcDbSymbolTableRecord
100
AcDbRegAppTableRecord
  2
ACAD
 70
     0
  0
ENDTAB
  0
TABLE
  2
DIMSTYLE
  5
A
330
0
100
AcDbSymbolTable
 70
     1
  0
DIMSTYLE
105
27
330
A
100
AcDbSymbolTableRecord
100
AcDbDimStyleTableRecord
  2
ISO-25
 70
     0
  3

  4

  5

  6

  7

 40
1.0
 41
2.5
 42
0.625
 43
3.75
 44
1.25
 45
0.0
 46
0.0
 47
0.0
 48
0.0
140
2.5
141
2.5
142
0.0
143
0.03937007874016
144
1.0
145
0.0
146
1.0
147
0.625
 71
     0
 72
     0
 73
     0
 74
     0
 75
     0
 76
     0
 77
     1
 78
     8
170
     0
171
     3
172
     1
173
     0
174
     0
175
     0
176
     0
177
     0
178
     0
270
     2
271
     2
272
     2
273
     2
274
     3
340
11
275
     0
280
     0
281
     0
282
     0
283
     0
284
     8
285
     0
286
     0
287
     3
288
     0
  0
ENDTAB
  0
TABLE
  2
BLOCK_RECORD
  5
1
330
0
100
AcDbSymbolTable
 70
     1
  0
BLOCK_RECORD
  5
1F
330
1
100
AcDbSymbolTableRecord
100
AcDbBlockTableRecord
  2
*MODEL_SPACE
  0
BLOCK_RECORD
  5
1B
330
1
100
AcDbSymbolTableRecord
100
AcDbBlockTableRecord
  2
*PAPER_SPACE
  0
ENDTAB
  0
ENDSEC
  0
SECTION
  2
BLOCKS
  0
BLOCK
  5
20
330
1F
100
AcDbEntity
  8
0
100
AcDbBlockBegin
  2
*MODEL_SPACE
 70
     0
 10
0.0
 20
0.0
 30
0.0
  3
*MODEL_SPACE
  1

  0
ENDBLK
  5
21
330
1F
100
AcDbEntity
  8
0
100
AcDbBlockEnd
  0
BLOCK
  5
1C
330
1B
100
AcDbEntity
 67
     1
  8
0
100
AcDbBlockBegin
  2
*PAPER_SPACE
  1

  0
ENDBLK
  5
1D
330
1B
100
AcDbEntity
 67
     1
  8
0
100
AcDbBlockEnd
  0
ENDSEC
  0
SECTION
  2
ENTITIES
  0
LWPOLYLINE
  5
100
100
AcDbEntity
  8
0
 62
7
100
AcDbPolyline
 90
761
 70
0
 10
-0.775016
 20
0.000001
 30
0.0
 10
-0.777829
 20
0.095451
 30
0.0
 10
-0.780643
 20
0.190902
 30
0.0
 10
-0.783456
 20
0.286352
 30
0.0
 10
-0.789341
 20
0.442135
 30
0.0
 10
-0.797467
 20
0.592087
 30
0.0
 10
-0.807468
 20
0.732597
 30
0.0
 10
-0.818976
 20
0.860053
 30
0.0
 10
-0.831628
 20
0.970840
 30
0.0
 10
-0.845055
 20
1.061349
 30
0.0
 10
-0.858891
 20
1.127966
 30
0.0
 10
-0.872773
 20
1.167078
 30
0.0
 10
-0.903247
 20
1.194343
 30
0.0
 10
-0.960677
 20
1.215582
 30
0.0
 10
-1.045908
 20
1.230837
 30
0.0
 10
-1.159787
 20
1.240150
 30
0.0
 10
-1.303158
 20
1.243563
 30
0.0
 10
-1.476867
 20
1.241118
 30
0.0
 10
-1.681760
 20
1.232858
 30
0.0
 10
-1.918681
 20
1.218821
 30
0.0
 10
-2.116841
 20
1.206898
 30
0.0
 10
-2.304565
 20
1.198115
 30
0.0
 10
-2.477540
 20
1.192496
 30
0.0
 10
-2.631452
 20
1.190066
 30
0.0
 10
-2.761990
 20
1.190853
 30
0.0
 10
-2.864840
 20
1.194878
 30
0.0
 10
-2.935689
 20
1.202167
 30
0.0
 10
-2.970225
 20
1.212746
 30
0.0
 10
-2.995388
 20
1.306792
 30
0.0
 10
-3.020239
 20
1.523052
 30
0.0
 10
-3.043021
 20
1.823459
 30
0.0
 10
-3.061979
 20
2.169946
 30
0.0
 10
-3.075357
 20
2.524447
 30
0.0
 10
-3.081397
 20
2.848891
 30
0.0
 10
-3.078346
 20
3.105215
 30
0.0
 10
-3.064446
 20
3.255348
 30
0.0
 10
-3.048084
 20
3.276652
 30
0.0
 10
-3.010110
 20
3.298325
 30
0.0
 10
-2.952350
 20
3.319918
 30
0.0
 10
-2.876626
 20
3.340983
 30
0.0
 10
-2.784764
 20
3.361072
 30
0.0
 10
-2.678587
 20
3.379737
 30
0.0
 10
-2.559918
 20
3.396532
 30
0.0
 10
-2.430583
 20
3.411006
 30
0.0
 10
-2.304922
 20
3.424700
 30
0.0
 10
-2.182154
 20
3.440633
 30
0.0
 10
-2.065361
 20
3.458232
 30
0.0
 10
-1.957627
 20
3.476922
 30
0.0
 10
-1.862034
 20
3.496129
 30
0.0
 10
-1.781664
 20
3.515276
 30
0.0
 10
-1.719602
 20
3.533792
 30
0.0
 10
-1.678930
 20
3.551098
 30
0.0
 10
-1.635897
 20
3.578398
 30
0.0
 10
-1.608582
 20
3.607002
 30
0.0
 10
-1.599193
 20
3.642787
 30
0.0
 10
-1.609938
 20
3.691628
 30
0.0
 10
-1.643031
 20
3.759399
 30
0.0
 10
-1.700670
 20
3.851980
 30
0.0
 10
-1.785072
 20
3.975245
 30
0.0
 10
-1.898443
 20
4.135068
 30
0.0
 10
-2.390328
 20
4.891946
 30
0.0
 10
-2.787659
 20
5.652876
 30
0.0
 10
-3.090535
 20
6.418320
 30
0.0
 10
-3.299051
 20
7.188737
 30
0.0
 10
-3.413302
 20
7.964592
 30
0.0
 10
-3.433387
 20
8.746343
 30
0.0
 10
-3.359400
 20
9.534453
 30
0.0
 10
-3.191438
 20
10.329383
 30
0.0
 10
-3.138611
 20
10.531966
 30
0.0
 10
-3.100924
 20
10.698310
 30
0.0
 10
-3.078402
 20
10.839418
 30
0.0
 10
-3.071068
 20
10.966287
 30
0.0
 10
-3.078946
 20
11.089920
 30
0.0
 10
-3.102059
 20
11.221317
 30
0.0
 10
-3.140433
 20
11.371477
 30
0.0
 10
-3.194090
 20
11.551402
 30
0.0
 10
-3.281512
 20
11.833097
 30
0.0
 10
-3.353313
 20
12.041351
 30
0.0
 10
-3.421698
 20
12.185354
 30
0.0
 10
-3.498872
 20
12.274295
 30
0.0
 10
-3.597040
 20
12.317364
 30
0.0
 10
-3.728410
 20
12.323749
 30
0.0
 10
-3.905186
 20
12.302642
 30
0.0
 10
-4.139575
 20
12.263229
 30
0.0
 10
-4.266222
 20
12.243564
 30
0.0
 10
-4.385164
 20
12.228752
 30
0.0
 10
-4.493738
 20
12.218865
 30
0.0
 10
-4.589286
 20
12.213973
 30
0.0
 10
-4.669149
 20
12.214149
 30
0.0
 10
-4.730666
 20
12.219464
 30
0.0
 10
-4.771178
 20
12.229988
 30
0.0
 10
-4.788027
 20
12.245794
 30
0.0
 10
-4.765203
 20
12.322158
 30
0.0
 10
-4.692015
 20
12.506239
 30
0.0
 10
-4.573776
 20
12.785942
 30
0.0
 10
-4.415798
 20
13.149169
 30
0.0
 10
-4.223394
 20
13.583820
 30
0.0
 10
-4.001877
 20
14.077799
 30
0.0
 10
-3.756560
 20
14.619008
 30
0.0
 10
-3.492755
 20
15.195349
 30
0.0
 10
-3.227895
 20
15.772224
 30
0.0
 10
-2.979555
 20
16.314962
 30
0.0
 10
-2.753260
 20
16.811358
 30
0.0
 10
-2.554534
 20
17.249207
 30
0.0
 10
-2.388903
 20
17.616304
 30
0.0
 10
-2.261890
 20
17.900445
 30
0.0
 10
-2.179019
 20
18.089425
 30
0.0
 10
-2.145816
 20
18.171037
 30
0.0
 10
-2.141503
 20
18.203055
 30
0.0
 10
-2.145595
 20
18.237993
 30
0.0
 10
-2.158419
 20
18.276390
 30
0.0
 10
-2.180290
 20
18.318793
 30
0.0
 10
-2.211534
 20
18.365741
 30
0.0
 10
-2.252471
 20
18.417777
 30
0.0
 10
-2.303424
 20
18.475443
 30
0.0
 10
-2.364716
 20
18.539281
 30
0.0
 10
-2.422292
 20
18.602793
 30
0.0
 10
-2.490016
 20
18.686747
 30
0.0
 10
-2.565405
 20
18.787539
 30
0.0
 10
-2.645972
 20
18.901566
 30
0.0
 10
-2.729236
 20
19.025222
 30
0.0
 10
-2.812712
 20
19.154905
 30
0.0
 10
-2.893912
 20
19.287013
 30
0.0
 10
-2.970357
 20
19.417938
 30
0.0
 10
-3.113885
 20
19.688704
 30
0.0
 10
-3.236533
 20
19.958096
 30
0.0
 10
-3.338329
 20
20.226222
 30
0.0
 10
-3.419300
 20
20.493191
 30
0.0
 10
-3.479475
 20
20.759110
 30
0.0
 10
-3.518885
 20
21.024088
 30
0.0
 10
-3.537557
 20
21.288232
 30
0.0
 10
-3.535518
 20
21.551651
 30
0.0
 10
-3.532372
 20
21.643970
 30
0.0
 10
-3.531577
 20
21.733851
 30
0.0
 10
-3.532999
 20
21.819055
 30
0.0
 10
-3.536502
 20
21.897348
 30
0.0
 10
-3.541949
 20
21.966494
 30
0.0
 10
-3.549205
 20
22.024258
 30
0.0
 10
-3.558135
 20
22.068404
 30
0.0
 10
-3.568600
 20
22.096698
 30
0.0
 10
-3.591524
 20
22.120284
 30
0.0
 10
-3.636152
 20
22.150940
 30
0.0
 10
-3.699847
 20
22.187376
 30
0.0
 10
-3.779969
 20
22.228303
 30
0.0
 10
-3.873880
 20
22.272431
 30
0.0
 10
-3.978940
 20
22.318471
 30
0.0
 10
-4.092511
 20
22.365134
 30
0.0
 10
-4.211955
 20
22.411127
 30
0.0
 10
-4.330225
 20
22.457074
 30
0.0
 10
-4.440431
 20
22.503600
 30
0.0
 10
-4.540171
 20
22.549425
 30
0.0
 10
-4.627042
 20
22.593270
 30
0.0
 10
-4.698640
 20
22.633853
 30
0.0
 10
-4.752564
 20
22.669895
 30
0.0
 10
-4.786412
 20
22.700116
 30
0.0
 10
-4.797778
 20
22.723236
 30
0.0
 10
-4.790708
 20
22.756936
 30
0.0
 10
-4.764031
 20
22.791800
 30
0.0
 10
-4.705835
 20
22.833771
 30
0.0
 10
-4.604210
 20
22.888799
 30
0.0
 10
-4.447244
 20
22.962822
 30
0.0
 10
-4.223026
 20
23.061787
 30
0.0
 10
-3.919643
 20
23.191637
 30
0.0
 10
-3.525185
 20
23.358318
 30
0.0
 10
-3.362452
 20
23.428338
 30
0.0
 10
-3.223660
 20
23.491286
 30
0.0
 10
-3.107594
 20
23.547862
 30
0.0
 10
-3.013034
 20
23.598760
 30
0.0
 10
-2.938766
 20
23.644681
 30
0.0
 10
-2.883574
 20
23.686325
 30
0.0
 10
-2.846242
 20
23.724386
 30
0.0
 10
-2.825552
 20
23.759563
 30
0.0
 10
-2.820809
 20
23.799055
 30
0.0
 10
-2.828093
 20
23.858423
 30
0.0
 10
-2.846889
 20
23.936166
 30
0.0
 10
-2.876683
 20
24.030783
 30
0.0
 10
-2.916961
 20
24.140774
 30
0.0
 10
-2.967210
 20
24.264639
 30
0.0
 10
-3.026914
 20
24.400876
 30
0.0
 10
-3.095561
 20
24.547985
 30
0.0
 10
-3.291140
 20
24.965114
 30
0.0
 10
-3.426726
 20
25.285026
 30
0.0
 10
-3.500524
 20
25.517293
 30
0.0
 10
-3.510744
 20
25.671486
 30
0.0
 10
-3.455592
 20
25.757175
 30
0.0
 10
-3.333275
 20
25.783930
 30
0.0
 10
-3.141999
 20
25.761325
 30
0.0
 10
-2.879974
 20
25.698928
 30
0.0
 10
-2.774049
 20
25.672753
 30
0.0
 10
-2.672512
 20
25.651369
 30
0.0
 10
-2.577780
 20
25.635024
 30
0.0
 10
-2.492268
 20
25.623972
 30
0.0
 10
-2.418394
 20
25.618463
 30
0.0
 10
-2.358575
 20
25.618747
 30
0.0
 10
-2.315227
 20
25.625077
 30
0.0
 10
-2.290766
 20
25.637702
 30
0.0
 10
-2.281910
 20
25.677358
 30
0.0
 10
-2.283283
 20
25.761157
 30
0.0
 10
-2.294166
 20
25.883917
 30
0.0
 10
-2.313841
 20
26.040459
 30
0.0
 10
-2.341588
 20
26.225600
 30
0.0
 10
-2.376689
 20
26.434161
 30
0.0
 10
-2.418423
 20
26.660961
 30
0.0
 10
-2.466073
 20
26.900819
 30
0.0
 10
-2.690511
 20
28.248333
 30
0.0
 10
-2.804053
 20
29.577972
 30
0.0
 10
-2.805974
 20
30.895440
 30
0.0
 10
-2.695546
 20
32.206444
 30
0.0
 10
-2.472043
 20
33.516685
 30
0.0
 10
-2.134737
 20
34.831872
 30
0.0
 10
-1.682902
 20
36.157709
 30
0.0
 10
-1.115811
 20
37.499900
 30
0.0
 10
-0.972934
 20
37.833044
 30
0.0
 10
-0.837453
 20
38.195402
 30
0.0
 10
-0.712033
 20
38.577054
 30
0.0
 10
-0.599339
 20
38.968084
 30
0.0
 10
-0.502036
 20
39.358574
 30
0.0
 10
-0.422788
 20
39.738606
 30
0.0
 10
-0.364262
 20
40.098263
 30
0.0
 10
-0.329121
 20
40.427626
 30
0.0
 10
-0.315747
 20
40.674113
 30
0.0
 10
-0.307046
 20
40.979422
 30
0.0
 10
-0.303006
 20
41.342009
 30
0.0
 10
-0.303618
 20
41.760330
 30
0.0
 10
-0.308872
 20
42.232841
 30
0.0
 10
-0.318758
 20
42.758000
 30
0.0
 10
-0.333266
 20
43.334263
 30
0.0
 10
-0.352385
 20
43.960086
 30
0.0
 10
-0.359164
 20
44.171980
 30
0.0
 10
-0.366148
 20
44.401698
 30
0.0
 10
-0.373139
 20
44.641922
 30
0.0
 10
-0.379937
 20
44.885332
 30
0.0
 10
-0.386341
 20
45.124610
 30
0.0
 10
-0.392151
 20
45.352438
 30
0.0
 10
-0.397166
 20
45.561496
 30
0.0
 10
-0.401187
 20
45.744465
 30
0.0
 10
-0.406169
 20
45.908912
 30
0.0
 10
-0.413937
 20
46.064880
 30
0.0
 10
-0.424098
 20
46.208775
 30
0.0
 10
-0.436260
 20
46.337000
 30
0.0
 10
-0.450028
 20
46.445959
 30
0.0
 10
-0.465010
 20
46.532054
 30
0.0
 10
-0.480814
 20
46.591691
 30
0.0
 10
-0.497046
 20
46.621272
 30
0.0
 10
-0.531694
 20
46.632720
 30
0.0
 10
-0.600283
 20
46.640384
 30
0.0
 10
-0.698717
 20
46.644312
 30
0.0
 10
-0.822905
 20
46.644553
 30
0.0
 10
-0.968748
 20
46.641155
 30
0.0
 10
-1.132155
 20
46.634163
 30
0.0
 10
-1.309031
 20
46.623628
 30
0.0
 10
-1.495281
 20
46.609597
 30
0.0
 10
-1.680296
 20
46.596084
 30
0.0
 10
-1.853632
 20
46.587035
 30
0.0
 10
-2.011443
 20
46.582395
 30
0.0
 10
-2.149882
 20
46.582105
 30
0.0
 10
-2.265105
 20
46.586111
 30
0.0
 10
-2.353264
 20
46.594356
 30
0.0
 10
-2.410514
 20
46.606782
 30
0.0
 10
-2.433007
 20
46.623335
 30
0.0
 10
-2.428179
 20
46.659480
 30
0.0
 10
-2.407125
 20
46.728056
 30
0.0
 10
-2.371488
 20
46.825071
 30
0.0
 10
-2.322913
 20
46.946532
 30
0.0
 10
-2.263045
 20
47.088445
 30
0.0
 10
-2.193527
 20
47.246817
 30
0.0
 10
-2.116003
 20
47.417654
 30
0.0
 10
-2.032119
 20
47.596963
 30
0.0
 10
-1.669386
 20
48.406173
 30
0.0
 10
-1.353073
 20
49.208593
 30
0.0
 10
-1.082799
 20
50.005711
 30
0.0
 10
-0.858185
 20
50.799019
 30
0.0
 10
-0.678850
 20
51.590007
 30
0.0
 10
-0.544415
 20
52.380167
 30
0.0
 10
-0.454499
 20
53.170987
 30
0.0
 10
-0.408723
 20
53.963959
 30
0.0
 10
-0.405533
 20
54.142863
 30
0.0
 10
-0.404526
 20
54.384462
 30
0.0
 10
-0.405581
 20
54.678125
 30
0.0
 10
-0.408581
 20
55.013227
 30
0.0
 10
-0.413406
 20
55.379135
 30
0.0
 10
-0.419939
 20
55.765220
 30
0.0
 10
-0.428059
 20
56.160856
 30
0.0
 10
-0.437650
 20
56.555412
 30
0.0
 10
-0.492456
 20
58.728005
 30
0.0
 10
-0.531445
 20
60.507847
 30
0.0
 10
-0.554593
 20
61.929297
 30
0.0
 10
-0.561876
 20
63.026710
 30
0.0
 10
-0.553271
 20
63.834440
 30
0.0
 10
-0.528754
 20
64.386846
 30
0.0
 10
-0.488300
 20
64.718283
 30
0.0
 10
-0.431885
 20
64.863106
 30
0.0
 10
-0.407951
 20
64.883562
 30
0.0
 10
-0.378612
 20
64.903807
 30
0.0
 10
-0.345012
 20
64.923311
 30
0.0
 10
-0.308296
 20
64.941553
 30
0.0
 10
-0.269606
 20
64.958004
 30
0.0
 10
-0.230086
 20
64.972140
 30
0.0
 10
-0.190879
 20
64.983434
 30
0.0
 10
-0.153128
 20
64.991360
 30
0.0
 10
-0.027754
 20
65.000001
 30
0.0
 10
0.071462
 20
64.971015
 30
0.0
 10
0.148098
 20
64.891394
 30
0.0
 10
0.205728
 20
64.748129
 30
0.0
 10
0.247929
 20
64.528210
 30
0.0
 10
0.278277
 20
64.218628
 30
0.0
 10
0.300348
 20
63.806372
 30
0.0
 10
0.317717
 20
63.278435
 30
0.0
 10
0.327130
 20
62.934607
 30
0.0
 10
0.337995
 20
62.535605
 30
0.0
 10
0.349928
 20
62.095758
 30
0.0
 10
0.362541
 20
61.629392
 30
0.0
 10
0.375447
 20
61.150835
 30
0.0
 10
0.388259
 20
60.674414
 30
0.0
 10
0.400590
 20
60.214456
 30
0.0
 10
0.412054
 20
59.785289
 30
0.0
 10
0.452781
 20
58.305773
 30
0.0
 10
0.489876
 20
57.071628
 30
0.0
 10
0.524512
 20
56.056828
 30
0.0
 10
0.557865
 20
55.235349
 30
0.0
 10
0.591109
 20
54.581165
 30
0.0
 10
0.625418
 20
54.068248
 30
0.0
 10
0.661967
 20
53.670575
 30
0.0
 10
0.701931
 20
53.362119
 30
0.0
 10
0.826448
 20
52.648639
 30
0.0
 10
0.975950
 20
51.964419
 30
0.0
 10
1.152362
 20
51.303913
 30
0.0
 10
1.357608
 20
50.661577
 30
0.0
 10
1.593609
 20
50.031864
 30
0.0
 10
1.862291
 20
49.409229
 30
0.0
 10
2.165577
 20
48.788126
 30
0.0
 10
2.505391
 20
48.163010
 30
0.0
 10
2.608593
 20
47.979253
 30
0.0
 10
2.704690
 20
47.802708
 30
0.0
 10
2.791590
 20
47.637602
 30
0.0
 10
2.867208
 20
47.488170
 30
0.0
 10
2.929451
 20
47.358639
 30
0.0
 10
2.976230
 20
47.253241
 30
0.0
 10
3.005453
 20
47.176202
 30
0.0
 10
3.015030
 20
47.131755
 30
0.0
 10
3.004849
 20
47.095250
 30
0.0
 10
2.974059
 20
47.063568
 30
0.0
 10
2.918133
 20
47.035631
 30
0.0
 10
2.832551
 20
47.010358
 30
0.0
 10
2.712787
 20
46.986671
 30
0.0
 10
2.554318
 20
46.963491
 30
0.0
 10
2.352619
 20
46.939741
 30
0.0
 10
2.103167
 20
46.914341
 30
0.0
 10
1.919333
 20
46.895812
 30
0.0
 10
1.744780
 20
46.876786
 30
0.0
 10
1.583549
 20
46.857804
 30
0.0
 10
1.439676
 20
46.839405
 30
0.0
 10
1.317201
 20
46.822132
 30
0.0
 10
1.220161
 20
46.806526
 30
0.0
 10
1.152597
 20
46.793127
 30
0.0
 10
1.118547
 20
46.782471
 30
0.0
 10
1.083572
 20
46.729252
 30
0.0
 10
1.055379
 20
46.613989
 30
0.0
 10
1.034009
 20
46.437649
 30
0.0
 10
1.019500
 20
46.201195
 30
0.0
 10
1.011895
 20
45.905595
 30
0.0
 10
1.011232
 20
45.551813
 30
0.0
 10
1.017552
 20
45.140814
 30
0.0
 10
1.030895
 20
44.673566
 30
0.0
 10
1.039094
 20
44.423109
 30
0.0
 10
1.048343
 20
44.123573
 30
0.0
 10
1.058323
 20
43.786225
 30
0.0
 10
1.068718
 20
43.422333
 30
0.0
 10
1.079213
 20
43.043162
 30
0.0
 10
1.089488
 20
42.659980
 30
0.0
 10
1.099229
 20
42.284052
 30
0.0
 10
1.108118
 20
41.926646
 30
0.0
 10
1.116906
 20
41.564513
 30
0.0
 10
1.126356
 20
41.175038
 30
0.0
 10
1.136175
 20
40.770438
 30
0.0
 10
1.146063
 20
40.362929
 30
0.0
 10
1.155726
 20
39.964727
 30
0.0
 10
1.164865
 20
39.588050
 30
0.0
 10
1.173187
 20
39.245114
 30
0.0
 10
1.180392
 20
38.948136
 30
0.0
 10
1.194845
 20
38.359379
 30
0.0
 10
1.212237
 20
37.923069
 30
0.0
 10
1.242561
 20
37.616913
 30
0.0
 10
1.295810
 20
37.418615
 30
0.0
 10
1.381977
 20
37.305881
 30
0.0
 10
1.511055
 20
37.256419
 30
0.0
 10
1.693038
 20
37.247933
 30
0.0
 10
1.937918
 20
37.258129
 30
0.0
 10
2.088588
 20
37.262667
 30
0.0
 10
2.219913
 20
37.262280
 30
0.0
 10
2.332823
 20
37.256826
 30
0.0
 10
2.428245
 20
37.246161
 30
0.0
 10
2.507106
 20
37.230143
 30
0.0
 10
2.570335
 20
37.208632
 30
0.0
 10
2.618861
 20
37.181484
 30
0.0
 10
2.653609
 20
37.148557
 30
0.0
 10
2.676769
 20
37.115912
 30
0.0
 10
2.693229
 20
37.085450
 30
0.0
 10
2.703038
 20
37.057231
 30
0.0
 10
2.706175
 20
37.031278
 30
0.0
 10
2.702638
 20
37.007625
 30
0.0
 10
2.692428
 20
36.986304
 30
0.0
 10
2.675545
 20
36.967350
 30
0.0
 10
2.651987
 20
36.950802
 30
0.0
 10
2.631575
 20
36.936826
 30
0.0
 10
2.615155
 20
36.920771
 30
0.0
 10
2.602900
 20
36.903203
 30
0.0
 10
2.594982
 20
36.884689
 30
0.0
 10
2.591572
 20
36.865799
 30
0.0
 10
2.592842
 20
36.847098
 30
0.0
 10
2.598960
 20
36.829152
 30
0.0
 10
2.610105
 20
36.812532
 30
0.0
 10
2.621375
 20
36.796496
 30
0.0
 10
2.627855
 20
36.780227
 30
0.0
 10
2.629691
 20
36.764174
 30
0.0
 10
2.627028
 20
36.748787
 30
0.0
 10
2.620015
 20
36.734515
 30
0.0
 10
2.608796
 20
36.721812
 30
0.0
 10
2.593521
 20
36.711122
 30
0.0
 10
2.574336
 20
36.702897
 30
0.0
 10
2.555321
 20
36.695400
 30
0.0
 10
2.540539
 20
36.686786
 30
0.0
 10
2.530088
 20
36.677384
 30
0.0
 10
2.524090
 20
36.667484
 30
0.0
 10
2.522657
 20
36.657387
 30
0.0
 10
2.525901
 20
36.647399
 30
0.0
 10
2.533935
 20
36.637822
 30
0.0
 10
2.546870
 20
36.628958
 30
0.0
 10
2.560791
 20
36.617837
 30
0.0
 10
2.571642
 20
36.601780
 30
0.0
 10
2.579338
 20
36.581549
 30
0.0
 10
2.583796
 20
36.557899
 30
0.0
 10
2.584928
 20
36.531586
 30
0.0
 10
2.582650
 20
36.503369
 30
0.0
 10
2.576879
 20
36.474007
 30
0.0
 10
2.567530
 20
36.444257
 30
0.0
 10
2.543951
 20
36.363889
 30
0.0
 10
2.540970
 20
36.296293
 30
0.0
 10
2.561539
 20
36.239300
 30
0.0
 10
2.608604
 20
36.190741
 30
0.0
 10
2.685116
 20
36.148451
 30
0.0
 10
2.794024
 20
36.110260
 30
0.0
 10
2.938275
 20
36.074001
 30
0.0
 10
3.120820
 20
36.037504
 30
0.0
 10
3.307262
 20
35.998413
 30
0.0
 10
3.457021
 20
35.955235
 30
0.0
 10
3.572857
 20
35.905434
 30
0.0
 10
3.657529
 20
35.846471
 30
0.0
 10
3.713797
 20
35.775807
 30
0.0
 10
3.744421
 20
35.690907
 30
0.0
 10
3.752160
 20
35.589230
 30
0.0
 10
3.739773
 20
35.468239
 30
0.0
 10
3.735221
 20
35.440436
 30
0.0
 10
3.730668
 20
35.412634
 30
0.0
 10
3.726116
 20
35.384831
 30
0.0
 10
3.721563
 20
35.357028
 30
0.0
 10
3.717011
 20
35.329225
 30
0.0
 10
3.712459
 20
35.301422
 30
0.0
 10
3.707906
 20
35.273620
 30
0.0
 10
3.703354
 20
35.245817
 30
0.0
 10
3.602443
 20
35.208894
 30
0.0
 10
3.501533
 20
35.171972
 30
0.0
 10
3.400622
 20
35.135050
 30
0.0
 10
3.299711
 20
35.098127
 30
0.0
 10
3.198800
 20
35.061204
 30
0.0
 10
3.097890
 20
35.024282
 30
0.0
 10
2.996979
 20
34.987360
 30
0.0
 10
2.896069
 20
34.950437
 30
0.0
 10
2.501131
 20
34.794900
 30
0.0
 10
2.152978
 20
34.632160
 30
0.0
 10
1.843460
 20
34.455888
 30
0.0
 10
1.564475
 20
34.259664
 30
0.0
 10
1.307875
 20
34.037158
 30
0.0
 10
1.065523
 20
33.782012
 30
0.0
 10
0.829285
 20
33.487865
 30
0.0
 10
0.591028
 20
33.148358
 30
0.0
 10
0.461690
 20
32.948626
 30
0.0
 10
0.351620
 20
32.766282
 30
0.0
 10
0.257568
 20
32.594034
 30
0.0
 10
0.176284
 20
32.424596
 30
0.0
 10
0.104522
 20
32.250676
 30
0.0
 10
0.039029
 20
32.064986
 30
0.0
 10
-0.023442
 20
31.860235
 30
0.0
 10
-0.086140
 20
31.629136
 30
0.0
 10
-0.130212
 20
31.464897
 30
0.0
 10
-0.174142
 20
31.312271
 30
0.0
 10
-0.216768
 20
31.174553
 30
0.0
 10
-0.256925
 20
31.055044
 30
0.0
 10
-0.293453
 20
30.957039
 30
0.0
 10
-0.325187
 20
30.883838
 30
0.0
 10
-0.350965
 20
30.838739
 30
0.0
 10
-0.369625
 20
30.825039
 30
0.0
 10
-0.382223
 20
30.827032
 30
0.0
 10
-0.390625
 20
30.826906
 30
0.0
 10
-0.394905
 20
30.824831
 30
0.0
 10
-0.395088
 20
30.820901
 30
0.0
 10
-0.391246
 20
30.815288
 30
0.0
 10
-0.383431
 20
30.808132
 30
0.0
 10
-0.371700
 20
30.799582
 30
0.0
 10
-0.356110
 20
30.789779
 30
0.0
 10
-0.340375
 20
30.772106
 30
0.0
 10
-0.328216
 20
30.741003
 30
0.0
 10
-0.319723
 20
30.698195
 30
0.0
 10
-0.314982
 20
30.645408
 30
0.0
 10
-0.314078
 20
30.584366
 30
0.0
 10
-0.317096
 20
30.516797
 30
0.0
 10
-0.324122
 20
30.444425
 30
0.0
 10
-0.335243
 20
30.368978
 30
0.0
 10
-0.376155
 20
29.984620
 30
0.0
 10
-0.373722
 20
29.568733
 30
0.0
 10
-0.329753
 20
29.129405
 30
0.0
 10
-0.246061
 20
28.674727
 30
0.0
 10
-0.124458
 20
28.212787
 30
0.0
 10
0.033246
 20
27.751673
 30
0.0
 10
0.225237
 20
27.299476
 30
0.0
 10
0.449704
 20
26.864284
 30
0.0
 10
0.774063
 20
26.346915
 30
0.0
 10
1.135006
 20
25.877155
 30
0.0
 10
1.534637
 20
25.453373
 30
0.0
 10
1.975056
 20
25.073942
 30
0.0
 10
2.458366
 20
24.737231
 30
0.0
 10
2.986666
 20
24.441612
 30
0.0
 10
3.562061
 20
24.185454
 30
0.0
 10
4.186650
 20
23.967128
 30
0.0
 10
4.482397
 20
23.872570
 30
0.0
 10
4.693287
 20
23.792609
 30
0.0
 10
4.819134
 20
23.720731
 30
0.0
 10
4.859777
 20
23.650440
 30
0.0
 10
4.814974
 20
23.575190
 30
0.0
 10
4.684566
 20
23.488485
 30
0.0
 10
4.468364
 20
23.383811
 30
0.0
 10
4.166183
 20
23.254657
 30
0.0
 10
4.026726
 20
23.195951
 30
0.0
 10
3.921288
 20
23.147647
 30
0.0
 10
3.844715
 20
23.104154
 30
0.0
 10
3.791902
 20
23.059799
 30
0.0
 10
3.757693
 20
23.008991
 30
0.0
 10
3.736953
 20
22.946111
 30
0.0
 10
3.724543
 20
22.865541
 30
0.0
 10
3.715325
 20
22.761663
 30
0.0
 10
3.708935
 20
22.697270
 30
0.0
 10
3.700377
 20
22.635419
 30
0.0
 10
3.690024
 20
22.577592
 30
0.0
 10
3.678249
 20
22.525270
 30
0.0
 10
3.665424
 20
22.479932
 30
0.0
 10
3.651924
 20
22.443061
 30
0.0
 10
3.638120
 20
22.416137
 30
0.0
 10
3.624384
 20
22.400643
 30
0.0
 10
3.600861
 20
22.383510
 30
0.0
 10
3.558999
 20
22.351901
 30
0.0
 10
3.501138
 20
22.307626
 30
0.0
 10
3.429618
 20
22.252495
 30
0.0
 10
3.346780
 20
22.188314
 30
0.0
 10
3.254966
 20
22.116894
 30
0.0
 10
3.156515
 20
22.040043
 30
0.0
 10
3.053768
 20
21.959569
 30
0.0
 10
2.990667
 20
21.910065
 30
0.0
 10
2.927567
 20
21.860562
 30
0.0
 10
2.864466
 20
21.811058
 30
0.0
 10
2.801366
 20
21.761554
 30
0.0
 10
2.738266
 20
21.712051
 30
0.0
 10
2.675166
 20
21.662547
 30
0.0
 10
2.612065
 20
21.613043
 30
0.0
 10
2.548965
 20
21.563539
 30
0.0
 10
2.573936
 20
21.486348
 30
0.0
 10
2.598906
 20
21.409157
 30
0.0
 10
2.623876
 20
21.331966
 30
0.0
 10
2.648847
 20
21.254774
 30
0.0
 10
2.673817
 20
21.177583
 30
0.0
 10
2.698788
 20
21.100393
 30
0.0
 10
2.723758
 20
21.023201
 30
0.0
 10
2.748729
 20
20.946010
 30
0.0
 10
2.871634
 20
20.510565
 30
0.0
 10
2.970586
 20
20.043271
 30
0.0
 10
3.044879
 20
19.553968
 30
0.0
 10
3.093811
 20
19.052500
 30
0.0
 10
3.116679
 20
18.548711
 30
0.0
 10
3.112780
 20
18.052441
 30
0.0
 10
3.081412
 20
17.573535
 30
0.0
 10
3.021870
 20
17.121834
 30
0.0
 10
2.985081
 20
16.890250
 30
0.0
 10
2.961012
 20
16.699632
 30
0.0
 10
2.950000
 20
16.546133
 30
0.0
 10
2.952383
 20
16.425906
 30
0.0
 10
2.968497
 20
16.335105
 30
0.0
 10
2.998681
 20
16.269882
 30
0.0
 10
3.043270
 20
16.226390
 30
0.0
 10
3.102601
 20
16.200783
 30
0.0
 10
3.150312
 20
16.193311
 30
0.0
 10
3.230500
 20
16.187087
 30
0.0
 10
3.338860
 20
16.182193
 30
0.0
 10
3.471085
 20
16.178713
 30
0.0
 10
3.622868
 20
16.176729
 30
0.0
 10
3.789905
 20
16.176323
 30
0.0
 10
3.967889
 20
16.177581
 30
0.0
 10
4.152512
 20
16.180582
 30
0.0
 10
4.335263
 20
16.182454
 30
0.0
 10
4.507879
 20
16.180473
 30
0.0
 10
4.666430
 20
16.174950
 30
0.0
 10
4.806988
 20
16.166193
 30
0.0
 10
4.925621
 20
16.154513
 30
0.0
 10
5.018400
 20
16.140220
 30
0.0
 10
5.081395
 20
16.123624
 30
0.0
 10
5.110675
 20
16.105034
 30
0.0
 10
5.117242
 20
16.076258
 30
0.0
 10
5.106210
 20
16.041500
 30
0.0
 10
5.076275
 20
15.999580
 30
0.0
 10
5.026130
 20
15.949320
 30
0.0
 10
4.954474
 20
15.889541
 30
0.0
 10
4.859998
 20
15.819063
 30
0.0
 10
4.741400
 20
15.736710
 30
0.0
 10
4.597373
 20
15.641300
 30
0.0
 10
4.380210
 20
15.497542
 30
0.0
 10
4.223938
 20
15.380488
 30
0.0
 10
4.127510
 20
15.277173
 30
0.0
 10
4.089885
 20
15.174628
 30
0.0
 10
4.110017
 20
15.059886
 30
0.0
 10
4.186864
 20
14.919979
 30
0.0
 10
4.319381
 20
14.741941
 30
0.0
 10
4.506524
 20
14.512803
 30
0.0
 10
4.640133
 20
14.347335
 30
0.0
 10
4.733408
 20
14.213999
 30
0.0
 10
4.784706
 20
14.101300
 30
0.0
 10
4.792388
 20
13.997746
 30
0.0
 10
4.754814
 20
13.891842
 30
0.0
 10
4.670344
 20
13.772094
 30
0.0
 10
4.537338
 20
13.627009
 30
0.0
 10
4.354154
 20
13.445093
 30
0.0
 10
4.303870
 20
13.395931
 30
0.0
 10
4.253587
 20
13.346769
 30
0.0
 10
4.203304
 20
13.297607
 30
0.0
 10
4.153021
 20
13.248445
 30
0.0
 10
4.102739
 20
13.199284
 30
0.0
 10
4.052456
 20
13.150122
 30
0.0
 10
4.002173
 20
13.100960
 30
0.0
 10
3.951889
 20
13.051798
 30
0.0
 10
3.974441
 20
13.029058
 30
0.0
 10
3.996994
 20
13.006319
 30
0.0
 10
4.019546
 20
12.983580
 30
0.0
 10
4.042099
 20
12.960841
 30
0.0
 10
4.064650
 20
12.938103
 30
0.0
 10
4.087203
 20
12.915364
 30
0.0
 10
4.109755
 20
12.892625
 30
0.0
 10
4.132307
 20
12.869886
 30
0.0
 10
4.175798
 20
12.820668
 30
0.0
 10
4.230382
 20
12.750251
 30
0.0
 10
4.293862
 20
12.661926
 30
0.0
 10
4.364043
 20
12.558988
 30
0.0
 10
4.438728
 20
12.444730
 30
0.0
 10
4.515718
 20
12.322442
 30
0.0
 10
4.592818
 20
12.195421
 30
0.0
 10
4.667838
 20
12.066962
 30
0.0
 10
4.774412
 20
11.877808
 30
0.0
 10
4.857381
 20
11.721935
 30
0.0
 10
4.919562
 20
11.590802
 30
0.0
 10
4.963771
 20
11.475868
 30
0.0
 10
4.992825
 20
11.368595
 30
0.0
 10
5.009542
 20
11.260439
 30
0.0
 10
5.016736
 20
11.142860
 30
0.0
 10
5.017226
 20
11.007319
 30
0.0
 10
5.005039
 20
10.774349
 30
0.0
 10
4.974740
 20
10.541004
 30
0.0
 10
4.926621
 20
10.308182
 30
0.0
 10
4.860973
 20
10.076788
 30
0.0
 10
4.778085
 20
9.847725
 30
0.0
 10
4.678251
 20
9.621892
 30
0.0
 10
4.561760
 20
9.400194
 30
0.0
 10
4.428904
 20
9.183533
 30
0.0
 10
4.388470
 20
9.122185
 30
0.0
 10
4.348037
 20
9.060837
 30
0.0
 10
4.307602
 20
8.999488
 30
0.0
 10
4.267169
 20
8.938141
 30
0.0
 10
4.226735
 20
8.876793
 30
0.0
 10
4.186301
 20
8.815444
 30
0.0
 10
4.145867
 20
8.754096
 30
0.0
 10
4.105434
 20
8.692749
 30
0.0
 10
4.147114
 20
8.645379
 30
0.0
 10
4.188794
 20
8.598009
 30
0.0
 10
4.230474
 20
8.550639
 30
0.0
 10
4.272154
 20
8.503269
 30
0.0
 10
4.313835
 20
8.455899
 30
0.0
 10
4.355515
 20
8.408529
 30
0.0
 10
4.397195
 20
8.361160
 30
0.0
 10
4.438875
 20
8.313790
 30
0.0
 10
4.744191
 20
7.881849
 30
0.0
 10
4.951537
 20
7.402224
 30
0.0
 10
5.061867
 20
6.890129
 30
0.0
 10
5.076136
 20
6.360780
 30
0.0
 10
4.995300
 20
5.829394
 30
0.0
 10
4.820312
 20
5.311184
 30
0.0
 10
4.552129
 20
4.821367
 30
0.0
 10
4.191705
 20
4.375157
 30
0.0
 10
4.127229
 20
4.305930
 30
0.0
 10
4.071060
 20
4.240217
 30
0.0
 10
4.023928
 20
4.179192
 30
0.0
 10
3.986564
 20
4.124030
 30
0.0
 10
3.959699
 20
4.075906
 30
0.0
 10
3.944062
 20
4.035995
 30
0.0
 10
3.940386
 20
4.005471
 30
0.0
 10
3.949401
 20
3.985511
 30
0.0
 10
3.977120
 20
3.972601
 30
0.0
 10
4.028748
 20
3.961070
 30
0.0
 10
4.101314
 20
3.951136
 30
0.0
 10
4.191847
 20
3.943013
 30
0.0
 10
4.297371
 20
3.936916
 30
0.0
 10
4.414917
 20
3.933061
 30
0.0
 10
4.541508
 20
3.931664
 30
0.0
 10
4.674174
 20
3.932942
 30
0.0
 10
4.841887
 20
3.934632
 30
0.0
 10
4.982110
 20
3.932229
 30
0.0
 10
5.096658
 20
3.925413
 30
0.0
 10
5.187350
 20
3.913863
 30
0.0
 10
5.255998
 20
3.897257
 30
0.0
 10
5.304417
 20
3.875275
 30
0.0
 10
5.334425
 20
3.847598
 30
0.0
 10
5.347834
 20
3.813901
 30
0.0
 10
5.370033
 20
3.599392
 30
0.0
 10
5.384516
 20
3.312967
 30
0.0
 10
5.391594
 20
2.984948
 30
0.0
 10
5.391580
 20
2.645661
 30
0.0
 10
5.384788
 20
2.325427
 30
0.0
 10
5.371530
 20
2.054571
 30
0.0
 10
5.352121
 20
1.863417
 30
0.0
 10
5.326870
 20
1.782288
 30
0.0
 10
5.289683
 20
1.770416
 30
0.0
 10
5.218126
 20
1.756364
 30
0.0
 10
5.116401
 20
1.740654
 30
0.0
 10
4.988710
 20
1.723807
 30
0.0
 10
4.839257
 20
1.706341
 30
0.0
 10
4.672242
 20
1.688778
 30
0.0
 10
4.491868
 20
1.671638
 30
0.0
 10
4.302337
 20
1.655441
 30
0.0
 10
4.112853
 20
1.639270
 30
0.0
 10
3.932613
 20
1.622206
 30
0.0
 10
3.765809
 20
1.604764
 30
0.0
 10
3.616635
 20
1.587458
 30
0.0
 10
3.489283
 20
1.570803
 30
0.0
 10
3.387946
 20
1.555315
 30
0.0
 10
3.316818
 20
1.541508
 30
0.0
 10
3.280089
 20
1.529896
 30
0.0
 10
3.262579
 20
1.512908
 30
0.0
 10
3.246532
 20
1.483682
 30
0.0
 10
3.232278
 20
1.443817
 30
0.0
 10
3.220147
 20
1.394909
 30
0.0
 10
3.210471
 20
1.338554
 30
0.0
 10
3.203580
 20
1.276347
 30
0.0
 10
3.199804
 20
1.209887
 30
0.0
 10
3.199474
 20
1.140766
 30
0.0
 10
3.200973
 20
1.063925
 30
0.0
 10
3.202438
 20
0.975335
 30
0.0
 10
3.203831
 20
0.878145
 30
0.0
 10
3.205117
 20
0.775500
 30
0.0
 10
3.206259
 20
0.670550
 30
0.0
 10
3.207219
 20
0.566441
 30
0.0
 10
3.207960
 20
0.466323
 30
0.0
 10
3.208447
 20
0.373341
 30
0.0
 10
3.209998
 20
0.285150
 30
0.0
 10
3.213791
 20
0.198764
 30
0.0
 10
3.219575
 20
0.116367
 30
0.0
 10
3.227100
 20
0.040142
 30
0.0
 10
-0.775016
 20
0.000001
 30
0.0
  0
LWPOLYLINE
  5
101
100
AcDbEntity
  8
0
 62
7
100
AcDbPolyline
 90
97
 70
0
 10
3.405436
 20
4.892019
 30
0.0
 10
3.418803
 20
4.929234
 30
0.0
 10
3.421777
 20
4.973045
 30
0.0
 10
3.413684
 20
5.025218
 30
0.0
 10
3.393852
 20
5.087518
 30
0.0
 10
3.361605
 20
5.161709
 30
0.0
 10
3.316273
 20
5.249560
 30
0.0
 10
3.257182
 20
5.352835
 30
0.0
 10
3.183651
 20
5.473294
 30
0.0
 10
3.012373
 20
5.784182
 30
0.0
 10
2.890601
 20
6.090106
 30
0.0
 10
2.818345
 20
6.392511
 30
0.0
 10
2.795612
 20
6.692844
 30
0.0
 10
2.822414
 20
6.992554
 30
0.0
 10
2.898760
 20
7.293087
 30
0.0
 10
3.024660
 20
7.595890
 30
0.0
 10
3.200125
 20
7.902409
 30
0.0
 10
3.314715
 20
8.085076
 30
0.0
 10
3.394457
 20
8.233201
 30
0.0
 10
3.438238
 20
8.356107
 30
0.0
 10
3.444945
 20
8.463113
 30
0.0
 10
3.413463
 20
8.563542
 30
0.0
 10
3.342682
 20
8.666714
 30
0.0
 10
3.231485
 20
8.781950
 30
0.0
 10
3.078761
 20
8.918572
 30
0.0
 10
2.938958
 20
9.050315
 30
0.0
 10
2.817441
 20
9.188063
 30
0.0
 10
2.713876
 20
9.332499
 30
0.0
 10
2.627929
 20
9.484304
 30
0.0
 10
2.559253
 20
9.644150
 30
0.0
 10
2.507517
 20
9.812722
 30
0.0
 10
2.472383
 20
9.990697
 30
0.0
 10
2.453514
 20
10.178758
 30
0.0
 10
2.446997
 20
10.361003
 30
0.0
 10
2.450618
 20
10.521428
 30
0.0
 10
2.466235
 20
10.666825
 30
0.0
 10
2.495705
 20
10.803986
 30
0.0
 10
2.540889
 20
10.939701
 30
0.0
 10
2.603642
 20
11.080762
 30
0.0
 10
2.685824
 20
11.233961
 30
0.0
 10
2.789292
 20
11.406090
 30
0.0
 10
2.889760
 20
11.582610
 30
0.0
 10
2.949886
 20
11.728965
 30
0.0
 10
2.968123
 20
11.847849
 30
0.0
 10
2.942925
 20
11.941956
 30
0.0
 10
2.872745
 20
12.013980
 30
0.0
 10
2.756038
 20
12.066614
 30
0.0
 10
2.591255
 20
12.102553
 30
0.0
 10
2.376852
 20
12.124490
 30
0.0
 10
1.897620
 20
12.130000
 30
0.0
 10
1.421374
 20
12.084875
 30
0.0
 10
0.954510
 20
11.991458
 30
0.0
 10
0.503428
 20
11.852091
 30
0.0
 10
0.074523
 20
11.669120
 30
0.0
 10
-0.325803
 20
11.444886
 30
0.0
 10
-0.691156
 20
11.181736
 30
0.0
 10
-1.015136
 20
10.882011
 30
0.0
 10
-1.230876
 20
10.646973
 30
0.0
 10
-1.417859
 20
10.425413
 30
0.0
 10
-1.579298
 20
10.212089
 30
0.0
 10
-1.718405
 20
10.001756
 30
0.0
 10
-1.838394
 20
9.789171
 30
0.0
 10
-1.942475
 20
9.569089
 30
0.0
 10
-2.033862
 20
9.336268
 30
0.0
 10
-2.115768
 20
9.085464
 30
0.0
 10
-2.247607
 20
8.496929
 30
0.0
 10
-2.288009
 20
7.924780
 30
0.0
 10
-2.238509
 20
7.373344
 30
0.0
 10
-2.100637
 20
6.846946
 30
0.0
 10
-1.875927
 20
6.349912
 30
0.0
 10
-1.565912
 20
5.886569
 30
0.0
 10
-1.172123
 20
5.461242
 30
0.0
 10
-0.696094
 20
5.078257
 30
0.0
 10
-0.320539
 20
4.850326
 30
0.0
 10
0.085111
 20
4.666783
 30
0.0
 10
0.513483
 20
4.528739
 30
0.0
 10
0.957206
 20
4.437308
 30
0.0
 10
1.408908
 20
4.393603
 30
0.0
 10
1.861219
 20
4.398734
 30
0.0
 10
2.306769
 20
4.453814
 30
0.0
 10
2.738184
 20
4.559958
 30
0.0
 10
2.930624
 20
4.620491
 30
0.0
 10
3.076848
 20
4.668091
 30
0.0
 10
3.184388
 20
4.706508
 30
0.0
 10
3.260775
 20
4.739489
 30
0.0
 10
3.313542
 20
4.770785
 30
0.0
 10
3.350222
 20
4.804140
 30
0.0
 10
3.378346
 20
4.843304
 30
0.0
 10
3.405446
 20
4.892026
 30
0.0
 10
3.405446
 20
4.892026
 30
0.0
 10
3.405445
 20
4.892026
 30
0.0
 10
3.405445
 20
4.892026
 30
0.0
 10
3.405445
 20
4.892026
 30
0.0
 10
3.405445
 20
4.892026
 30
0.0
 10
3.405444
 20
4.892025
 30
0.0
 10
3.405444
 20
4.892025
 30
0.0
 10
3.405436
 20
4.892019
 30
0.0
  0
LWPOLYLINE
  5
102
100
AcDbEntity
  8
0
 62
7
100
AcDbPolyline
 90
73
 70
0
 10
0.793127
 20
15.716674
 30
0.0
 10
1.099443
 20
16.033839
 30
0.0
 10
1.370197
 20
16.379307
 30
0.0
 10
1.602798
 20
16.747144
 30
0.0
 10
1.794653
 20
17.131417
 30
0.0
 10
1.943170
 20
17.526191
 30
0.0
 10
2.045755
 20
17.925532
 30
0.0
 10
2.099817
 20
18.323509
 30
0.0
 10
2.102762
 20
18.714184
 30
0.0
 10
2.036100
 20
19.214321
 30
0.0
 10
1.903040
 20
19.699598
 30
0.0
 10
1.711891
 20
20.157567
 30
0.0
 10
1.470961
 20
20.575776
 30
0.0
 10
1.188559
 20
20.941776
 30
0.0
 10
0.872996
 20
21.243117
 30
0.0
 10
0.532577
 20
21.467347
 30
0.0
 10
0.175612
 20
21.602016
 30
0.0
 10
-0.154185
 20
21.640585
 30
0.0
 10
-0.483061
 20
21.606767
 30
0.0
 10
-0.799749
 20
21.507971
 30
0.0
 10
-1.092984
 20
21.351607
 30
0.0
 10
-1.351501
 20
21.145085
 30
0.0
 10
-1.564034
 20
20.895813
 30
0.0
 10
-1.719317
 20
20.611201
 30
0.0
 10
-1.806084
 20
20.298659
 30
0.0
 10
-1.814258
 20
20.126518
 30
0.0
 10
-1.791125
 20
19.944042
 30
0.0
 10
-1.739650
 20
19.757324
 30
0.0
 10
-1.662803
 20
19.572462
 30
0.0
 10
-1.563550
 20
19.395551
 30
0.0
 10
-1.444859
 20
19.232687
 30
0.0
 10
-1.309697
 20
19.089967
 30
0.0
 10
-1.161031
 20
18.973486
 30
0.0
 10
-1.123412
 20
18.948803
 30
0.0
 10
-1.085794
 20
18.924119
 30
0.0
 10
-1.048176
 20
18.899436
 30
0.0
 10
-1.010558
 20
18.874753
 30
0.0
 10
-0.972939
 20
18.850069
 30
0.0
 10
-0.935321
 20
18.825386
 30
0.0
 10
-0.897703
 20
18.800703
 30
0.0
 10
-0.860084
 20
18.776020
 30
0.0
 10
-0.957076
 20
18.561031
 30
0.0
 10
-1.054066
 20
18.346042
 30
0.0
 10
-1.151058
 20
18.131053
 30
0.0
 10
-1.248049
 20
17.916065
 30
0.0
 10
-1.345040
 20
17.701076
 30
0.0
 10
-1.442031
 20
17.486087
 30
0.0
 10
-1.539021
 20
17.271099
 30
0.0
 10
-1.636012
 20
17.056109
 30
0.0
 10
-1.794654
 20
16.704837
 30
0.0
 10
-1.948014
 20
16.365960
 30
0.0
 10
-2.092354
 20
16.047694
 30
0.0
 10
-2.223933
 20
15.758254
 30
0.0
 10
-2.339012
 20
15.505857
 30
0.0
 10
-2.433850
 20
15.298716
 30
0.0
 10
-2.504707
 20
15.145049
 30
0.0
 10
-2.547844
 20
15.053071
 30
0.0
 10
-2.610548
 20
14.902143
 30
0.0
 10
-2.638449
 20
14.779391
 30
0.0
 10
-2.629660
 20
14.683146
 30
0.0
 10
-2.582293
 20
14.611735
 30
0.0
 10
-2.494460
 20
14.563490
 30
0.0
 10
-2.364274
 20
14.536740
 30
0.0
 10
-2.189848
 20
14.529814
 30
0.0
 10
-1.969294
 20
14.541042
 30
0.0
 10
-1.578425
 20
14.588592
 30
0.0
 10
-1.195266
 20
14.666803
 30
0.0
 10
-0.822471
 20
14.774544
 30
0.0
 10
-0.462694
 20
14.910688
 30
0.0
 10
-0.118592
 20
15.074101
 30
0.0
 10
0.207183
 20
15.263653
 30
0.0
 10
0.511973
 20
15.478219
 30
0.0
 10
0.793127
 20
15.716674
 30
0.0
  0
ENDSEC
  0
SECTION
  2
OBJECTS
  0
DICTIONARY
  5
C
330
0
100
AcDbDictionary
  3
ACAD_GROUP
350
D
  3
ACAD_MLINESTYLE
350
17
  0
DICTIONARY
  5
D
330
C
100
AcDbDictionary
  0
DICTIONARY
  5
1A
330
C
100
AcDbDictionary
  0
DICTIONARY
  5
17
330
C
100
AcDbDictionary
  3
STANDARD
350
18
  0
DICTIONARY
  5
19
330
C
100
AcDbDictionary
  0
ENDSEC
  0
EOF
