  0
SECTION
  2
HEADER
  9
$ACADVER
  1
AC1014
  9
$HANDSEED
  5
FFFF
  9
$MEASUREMENT
 70
     1
  0
ENDSEC
  0
SECTION
  2
TABLES
  0
TABLE
  2
VPORT
  5
8
330
0
100
AcDbSymbolTable
 70
     4
  0
VPORT
  5
2E
330
8
100
AcDbSymbolTableRecord
100
AcDbViewportTableRecord
  2
*ACTIVE
 70
     0
 10
0.0
 20
0.0
 11
1.0
 21
1.0
 12
210.0
 22
148.5
 13
0.0
 23
0.0
 14
10.0
 24
10.0
 15
10.0
 25
10.0
 16
0.0
 26
0.0
 36
1.0
 17
0.0
 27
0.0
 37
0.0
 40
341.0
 41
1.24
 42
50.0
 43
0.0
 44
0.0
 50
0.0
 51
0.0
 71
     0
 72
   100
 73
     1
 74
     3
 75
     0
 76
     0
 77
     0
 78
     0
  0
ENDTAB
  0
TABLE
  2
LTYPE
  5
5
330
0
100
AcDbSymbolTable
 70
     1
  0
LTYPE
  5
14
330
5
100
AcDbSymbolTableRecord
100
AcDbLinetypeTableRecord
  2
BYBLOCK
 70
     0
  3

 72
    65
 73
     0
 40
0.0
  0
LTYPE
  5
15
330
5
100
AcDbSymbolTableRecord
100
AcDbLinetypeTableRecord
  2
BYLAYER
 70
     0
  3

 72
    65
 73
     0
 40
0.0
  0
LTYPE
  5
16
330
5
100
AcDbSymbolTableRecord
100
AcDbLinetypeTableRecord
  2
CONTINUOUS
 70
     0
  3
Solid line
 72
    65
 73
     0
 40
0.0
  0
ENDTAB
  0
TABLE
  2
LAYER
  5
2
100
AcDbSymbolTable
 70
2
  0
LAYER
  5
50
100
AcDbSymbolTableRecord
100
AcDbLayerTableRecord
  2
0
 70
0
  6
CONTINUOUS
  0
LAYER
  5
51
100
AcDbSymbolTableRecord
100
AcDbLayerTableRecord
  2
Layer_1
 70
0
  6
CONTINUOUS
  0
ENDTAB
  0
TABLE
  2
STYLE
  5
3
330
0
100
AcDbSymbolTable
 70
     1
  0
STYLE
  5
11
330
3
100
AcDbSymbolTableRecord
100
AcDbTextStyleTableRecord
  2
STANDARD
 70
     0
 40
0.0
 41
1.0
 50
0.0
 71
     0
 42
2.5
  3
txt
  4

  0
ENDTAB
  0
TABLE
  2
VIEW
  5
6
330
0
100
AcDbSymbolTable
 70
     0
  0
ENDTAB
  0
TABLE
  2
UCS
  5
7
330
0
100
AcDbSymbolTable
 70
     0
  0
ENDTAB
  0
TABLE
  2
APPID
  5
9
330
0
100
AcDbSymbolTable
 70
     2
  0
APPID
  5
12
330
9
100
AcDbSymbolTableRecord
100
AcDbRegAppTableRecord
  2
ACAD
 70
     0
  0
ENDTAB
  0
TABLE
  2
DIMSTYLE
  5
A
330
0
100
AcDbSymbolTable
 70
     1
  0
DIMSTYLE
105
27
330
A
100
AcDbSymbolTableRecord
100
AcDbDimStyleTableRecord
  2
ISO-25
 70
     0
  3

  4

  5

  6

  7

 40
1.0
 41
2.5
 42
0.625
 43
3.75
 44
1.25
 45
0.0
 46
0.0
 47
0.0
 48
0.0
140
2.5
141
2.5
142
0.0
143
0.03937007874016
144
1.0
145
0.0
146
1.0
147
0.625
 71
     0
 72
     0
 73
     0
 74
     0
 75
     0
 76
     0
 77
     1
 78
     8
170
     0
171
     3
172
     1
173
     0
174
     0
175
     0
176
     0
177
     0
178
     0
270
     2
271
     2
272
     2
273
     2
274
     3
340
11
275
     0
280
     0
281
     0
282
     0
283
     0
284
     8
285
     0
286
     0
287
     3
288
     0
  0
ENDTAB
  0
TABLE
  2
BLOCK_RECORD
  5
1
330
0
100
AcDbSymbolTable
 70
     1
  0
BLOCK_RECORD
  5
1F
330
1
100
AcDbSymbolTableRecord
100
AcDbBlockTableRecord
  2
*MODEL_SPACE
  0
BLOCK_RECORD
  5
1B
330
1
100
AcDbSymbolTableRecord
100
AcDbBlockTableRecord
  2
*PAPER_SPACE
  0
ENDTAB
  0
ENDSEC
  0
SECTION
  2
BLOCKS
  0
BLOCK
  5
20
330
1F
100
AcDbEntity
  8
0
100
AcDbBlockBegin
  2
*MODEL_SPACE
 70
     0
 10
0.0
 20
0.0
 30
0.0
  3
*MODEL_SPACE
  1

  0
ENDBLK
  5
21
330
1F
100
AcDbEntity
  8
0
100
AcDbBlockEnd
  0
BLOCK
  5
1C
330
1B
100
AcDbEntity
 67
     1
  8
0
100
AcDbBlockBegin
  2
*PAPER_SPACE
  1

  0
ENDBLK
  5
1D
330
1B
100
AcDbEntity
 67
     1
  8
0
100
AcDbBlockEnd
  0
ENDSEC
  0
SECTION
  2
ENTITIES
  0
LWPOLYLINE
  5
100
100
AcDbEntity
  8
Layer_1
 62
7
100
AcDbPolyline
 90
480
 70
0
 10
-2.657184
 20
1.065208
 30
0.0
 10
-2.727673
 20
1.138855
 30
0.0
 10
-2.733405
 20
1.176029
 30
0.0
 10
-2.747587
 20
1.221599
 30
0.0
 10
-2.769444
 20
1.273922
 30
0.0
 10
-2.798214
 20
1.331310
 30
0.0
 10
-2.833129
 20
1.392121
 30
0.0
 10
-2.873420
 20
1.454665
 30
0.0
 10
-2.918321
 20
1.517285
 30
0.0
 10
-3.038130
 20
1.695732
 30
0.0
 10
-3.154936
 20
1.907032
 30
0.0
 10
-3.265452
 20
2.142395
 30
0.0
 10
-3.366396
 20
2.392983
 30
0.0
 10
-3.454478
 20
2.649974
 30
0.0
 10
-3.526416
 20
2.904548
 30
0.0
 10
-3.578922
 20
3.147880
 30
0.0
 10
-3.608712
 20
3.371151
 30
0.0
 10
-3.618061
 20
3.467295
 30
0.0
 10
-3.629655
 20
3.558100
 30
0.0
 10
-3.643014
 20
3.641497
 30
0.0
 10
-3.657682
 20
3.715404
 30
0.0
 10
-3.673209
 20
3.777781
 30
0.0
 10
-3.689134
 20
3.826560
 30
0.0
 10
-3.705000
 20
3.859657
 30
0.0
 10
-3.720345
 20
3.875004
 30
0.0
 10
-3.759369
 20
3.884891
 30
0.0
 10
-3.843098
 20
3.902459
 30
0.0
 10
-3.966311
 20
3.926674
 30
0.0
 10
-4.123795
 20
3.956577
 30
0.0
 10
-4.310334
 20
3.991165
 30
0.0
 10
-4.520708
 20
4.029479
 30
0.0
 10
-4.749705
 20
4.070547
 30
0.0
 10
-4.992106
 20
4.113364
 30
0.0
 10
-5.443973
 20
4.193993
 30
0.0
 10
-5.800297
 20
4.261450
 30
0.0
 10
-6.071106
 20
4.318671
 30
0.0
 10
-6.266424
 20
4.368606
 30
0.0
 10
-6.396279
 20
4.414191
 30
0.0
 10
-6.470696
 20
4.458377
 30
0.0
 10
-6.499700
 20
4.504114
 30
0.0
 10
-6.493324
 20
4.554338
 30
0.0
 10
-6.472588
 20
4.583952
 30
0.0
 10
-6.428015
 20
4.630511
 30
0.0
 10
-6.362391
 20
4.691625
 30
0.0
 10
-6.278493
 20
4.764923
 30
0.0
 10
-6.179098
 20
4.848047
 30
0.0
 10
-6.066988
 20
4.938624
 30
0.0
 10
-5.944945
 20
5.034266
 30
0.0
 10
-5.815742
 20
5.132600
 30
0.0
 10
-5.293629
 20
5.543077
 30
0.0
 10
-4.800620
 20
5.969191
 30
0.0
 10
-4.337588
 20
6.409953
 30
0.0
 10
-3.905401
 20
6.864434
 30
0.0
 10
-3.504931
 20
7.331631
 30
0.0
 10
-3.137048
 20
7.810615
 30
0.0
 10
-2.802621
 20
8.300413
 30
0.0
 10
-2.502521
 20
8.800051
 30
0.0
 10
-2.208033
 20
9.370306
 30
0.0
 10
-1.938705
 20
9.977300
 30
0.0
 10
-1.702167
 20
10.595203
 30
0.0
 10
-1.506049
 20
11.198185
 30
0.0
 10
-1.357983
 20
11.760415
 30
0.0
 10
-1.265595
 20
12.256064
 30
0.0
 10
-1.236519
 20
12.659298
 30
0.0
 10
-1.278381
 20
12.944293
 30
0.0
 10
-1.340336
 20
13.060392
 30
0.0
 10
-1.433041
 20
13.152662
 30
0.0
 10
-1.558076
 20
13.221405
 30
0.0
 10
-1.717011
 20
13.266918
 30
0.0
 10
-1.911423
 20
13.289513
 30
0.0
 10
-2.142884
 20
13.289491
 30
0.0
 10
-2.412971
 20
13.267152
 30
0.0
 10
-2.723255
 20
13.222802
 30
0.0
 10
-3.320659
 20
13.126945
 30
0.0
 10
-3.818139
 20
13.057134
 30
0.0
 10
-4.231611
 20
13.013076
 30
0.0
 10
-4.576995
 20
12.994462
 30
0.0
 10
-4.870210
 20
13.001063
 30
0.0
 10
-5.127176
 20
13.032442
 30
0.0
 10
-5.363811
 20
13.088365
 30
0.0
 10
-5.596035
 20
13.168531
 30
0.0
 10
-5.935335
 20
13.328212
 30
0.0
 10
-6.240079
 20
13.526272
 30
0.0
 10
-6.507740
 20
13.759300
 30
0.0
 10
-6.735788
 20
14.023895
 30
0.0
 10
-6.921692
 20
14.316650
 30
0.0
 10
-7.062925
 20
14.634161
 30
0.0
 10
-7.156955
 20
14.973018
 30
0.0
 10
-7.201254
 20
15.329818
 30
0.0
 10
-7.204069
 20
15.384959
 30
0.0
 10
-7.206885
 20
15.440101
 30
0.0
 10
-7.209700
 20
15.495242
 30
0.0
 10
-7.212516
 20
15.550384
 30
0.0
 10
-7.215331
 20
15.605524
 30
0.0
 10
-7.218146
 20
15.660667
 30
0.0
 10
-7.220962
 20
15.715809
 30
0.0
 10
-7.223777
 20
15.770949
 30
0.0
 10
-7.312074
 20
15.827515
 30
0.0
 10
-7.400370
 20
15.884082
 30
0.0
 10
-7.488668
 20
15.940649
 30
0.0
 10
-7.576965
 20
15.997216
 30
0.0
 10
-7.665262
 20
16.053781
 30
0.0
 10
-7.753558
 20
16.110349
 30
0.0
 10
-7.841856
 20
16.166914
 30
0.0
 10
-7.930153
 20
16.223481
 30
0.0
 10
-8.301788
 20
16.480661
 30
0.0
 10
-8.654470
 20
16.763121
 30
0.0
 10
-8.985828
 20
17.068172
 30
0.0
 10
-9.293493
 20
17.393137
 30
0.0
 10
-9.575090
 20
17.735323
 30
0.0
 10
-9.828252
 20
18.092049
 30
0.0
 10
-10.050608
 20
18.460635
 30
0.0
 10
-10.239785
 20
18.838393
 30
0.0
 10
-10.363624
 20
19.134753
 30
0.0
 10
-10.482363
 20
19.457973
 30
0.0
 10
-10.591279
 20
19.790687
 30
0.0
 10
-10.685663
 20
20.115524
 30
0.0
 10
-10.760798
 20
20.415119
 30
0.0
 10
-10.811970
 20
20.672103
 30
0.0
 10
-10.834464
 20
20.869110
 30
0.0
 10
-10.823560
 20
20.988771
 30
0.0
 10
-10.822997
 20
21.009113
 30
0.0
 10
-10.833892
 20
21.035174
 30
0.0
 10
-10.855184
 20
21.065880
 30
0.0
 10
-10.885819
 20
21.100150
 30
0.0
 10
-10.924745
 20
21.136912
 30
0.0
 10
-10.970905
 20
21.175087
 30
0.0
 10
-11.023246
 20
21.213596
 30
0.0
 10
-11.080712
 20
21.251364
 30
0.0
 10
-11.223889
 20
21.359776
 30
0.0
 10
-11.355987
 20
21.497085
 30
0.0
 10
-11.473400
 20
21.656039
 30
0.0
 10
-11.572514
 20
21.829390
 30
0.0
 10
-11.649718
 20
22.009893
 30
0.0
 10
-11.701400
 20
22.190299
 30
0.0
 10
-11.723949
 20
22.363361
 30
0.0
 10
-11.713754
 20
22.521832
 30
0.0
 10
-11.672817
 20
22.675761
 30
0.0
 10
-11.610122
 20
22.814662
 30
0.0
 10
-11.525370
 20
22.938791
 30
0.0
 10
-11.418259
 20
23.048408
 30
0.0
 10
-11.288489
 20
23.143773
 30
0.0
 10
-11.135763
 20
23.225143
 30
0.0
 10
-10.959781
 20
23.292779
 30
0.0
 10
-10.760242
 20
23.346940
 30
0.0
 10
-10.615439
 20
23.382043
 30
0.0
 10
-10.496839
 20
23.419418
 30
0.0
 10
-10.396680
 20
23.465359
 30
0.0
 10
-10.307205
 20
23.526154
 30
0.0
 10
-10.220651
 20
23.608102
 30
0.0
 10
-10.129257
 20
23.717492
 30
0.0
 10
-10.025266
 20
23.860619
 30
0.0
 10
-9.900913
 20
24.043776
 30
0.0
 10
-9.484262
 20
24.574153
 30
0.0
 10
-8.982066
 20
25.055536
 30
0.0
 10
-8.408860
 20
25.480637
 30
0.0
 10
-7.779177
 20
25.842173
 30
0.0
 10
-7.107554
 20
26.132858
 30
0.0
 10
-6.408524
 20
26.345409
 30
0.0
 10
-5.696624
 20
26.472540
 30
0.0
 10
-4.986385
 20
26.506967
 30
0.0
 10
-4.864077
 20
26.506511
 30
0.0
 10
-4.746512
 20
26.509887
 30
0.0
 10
-4.636509
 20
26.516762
 30
0.0
 10
-4.536892
 20
26.526801
 30
0.0
 10
-4.450480
 20
26.539638
 30
0.0
 10
-4.380091
 20
26.554946
 30
0.0
 10
-4.328551
 20
26.572374
 30
0.0
 10
-4.298676
 20
26.591572
 30
0.0
 10
-4.285688
 20
26.619650
 30
0.0
 10
-4.282538
 20
26.662531
 30
0.0
 10
-4.288661
 20
26.718080
 30
0.0
 10
-4.303476
 20
26.784170
 30
0.0
 10
-4.326416
 20
26.858665
 30
0.0
 10
-4.356905
 20
26.939437
 30
0.0
 10
-4.394375
 20
27.024351
 30
0.0
 10
-4.438249
 20
27.111279
 30
0.0
 10
-4.660477
 20
27.552037
 30
0.0
 10
-4.844359
 20
27.977447
 30
0.0
 10
-4.990649
 20
28.390826
 30
0.0
 10
-5.100100
 20
28.795487
 30
0.0
 10
-5.173468
 20
29.194752
 30
0.0
 10
-5.211506
 20
29.591932
 30
0.0
 10
-5.214966
 20
29.990345
 30
0.0
 10
-5.184604
 20
30.393306
 30
0.0
 10
-5.142264
 20
30.673103
 30
0.0
 10
-5.079062
 20
30.956534
 30
0.0
 10
-4.993905
 20
31.246372
 30
0.0
 10
-4.885704
 20
31.545383
 30
0.0
 10
-4.753362
 20
31.856337
 30
0.0
 10
-4.595788
 20
32.182006
 30
0.0
 10
-4.411893
 20
32.525156
 30
0.0
 10
-4.200582
 20
32.888558
 30
0.0
 10
-3.952832
 20
33.342478
 30
0.0
 10
-3.673689
 20
33.924244
 30
0.0
 10
-3.378727
 20
34.594608
 30
0.0
 10
-3.083517
 20
35.314319
 30
0.0
 10
-2.803632
 20
36.044127
 30
0.0
 10
-2.554644
 20
36.744779
 30
0.0
 10
-2.352125
 20
37.377031
 30
0.0
 10
-2.211650
 20
37.901627
 30
0.0
 10
-2.109826
 20
38.375376
 30
0.0
 10
-2.016731
 20
38.877371
 30
0.0
 10
-1.927009
 20
39.450665
 30
0.0
 10
-1.835297
 20
40.138318
 30
0.0
 10
-1.736238
 20
40.983387
 30
0.0
 10
-1.624472
 20
42.028929
 30
0.0
 10
-1.494641
 20
43.317998
 30
0.0
 10
-1.341385
 20
44.893657
 30
0.0
 10
-1.257713
 20
45.746177
 30
0.0
 10
-1.175407
 20
46.552456
 30
0.0
 10
-1.096571
 20
47.294068
 30
0.0
 10
-1.023309
 20
47.952579
 30
0.0
 10
-0.957727
 20
48.509563
 30
0.0
 10
-0.901929
 20
48.946587
 30
0.0
 10
-0.858023
 20
49.245224
 30
0.0
 10
-0.828111
 20
49.387041
 30
0.0
 10
-0.714100
 20
49.594857
 30
0.0
 10
-0.558646
 20
49.753924
 30
0.0
 10
-0.372016
 20
49.862771
 30
0.0
 10
-0.164474
 20
49.919923
 30
0.0
 10
0.053712
 20
49.923908
 30
0.0
 10
0.272278
 20
49.873248
 30
0.0
 10
0.480959
 20
49.766467
 30
0.0
 10
0.669491
 20
49.602098
 30
0.0
 10
0.759953
 20
49.504939
 30
0.0
 10
0.831316
 20
49.387355
 30
0.0
 10
0.895367
 20
49.165190
 30
0.0
 10
0.963892
 20
48.754292
 30
0.0
 10
1.048675
 20
48.070510
 30
0.0
 10
1.161503
 20
47.029684
 30
0.0
 10
1.314161
 20
45.547666
 30
0.0
 10
1.518435
 20
43.540300
 30
0.0
 10
1.747419
 20
41.466867
 30
0.0
 10
1.987701
 20
39.700031
 30
0.0
 10
2.255773
 20
38.178373
 30
0.0
 10
2.568116
 20
36.840476
 30
0.0
 10
2.941220
 20
35.624928
 30
0.0
 10
3.391570
 20
34.470309
 30
0.0
 10
3.935653
 20
33.315206
 30
0.0
 10
4.589955
 20
32.098204
 30
0.0
 10
4.778539
 20
31.744022
 30
0.0
 10
4.939166
 20
31.399038
 30
0.0
 10
5.072875
 20
31.059570
 30
0.0
 10
5.180701
 20
30.721936
 30
0.0
 10
5.263684
 20
30.382452
 30
0.0
 10
5.322863
 20
30.037429
 30
0.0
 10
5.359276
 20
29.683190
 30
0.0
 10
5.373959
 20
29.316046
 30
0.0
 10
5.372350
 20
29.138293
 30
0.0
 10
5.361163
 20
28.972467
 30
0.0
 10
5.337126
 20
28.805923
 30
0.0
 10
5.296979
 20
28.626012
 30
0.0
 10
5.237451
 20
28.420092
 30
0.0
 10
5.155277
 20
28.175511
 30
0.0
 10
5.047189
 20
27.879627
 30
0.0
 10
4.909923
 20
27.519796
 30
0.0
 10
4.748156
 20
27.093406
 30
0.0
 10
4.630808
 20
26.761012
 30
0.0
 10
4.557180
 20
26.511945
 30
0.0
 10
4.526586
 20
26.335527
 30
0.0
 10
4.538337
 20
26.221082
 30
0.0
 10
4.591728
 20
26.157937
 30
0.0
 10
4.686076
 20
26.135418
 30
0.0
 10
4.820688
 20
26.142856
 30
0.0
 10
4.991328
 20
26.144742
 30
0.0
 10
5.233067
 20
26.121688
 30
0.0
 10
5.526251
 20
26.077704
 30
0.0
 10
5.851219
 20
26.016792
 30
0.0
 10
6.188310
 20
25.942951
 30
0.0
 10
6.517865
 20
25.860183
 30
0.0
 10
6.820229
 20
25.772490
 30
0.0
 10
7.075738
 20
25.683873
 30
0.0
 10
7.469253
 20
25.504782
 30
0.0
 10
7.892145
 20
25.268950
 30
0.0
 10
8.317496
 20
24.996866
 30
0.0
 10
8.718386
 20
24.709011
 30
0.0
 10
9.067896
 20
24.425870
 30
0.0
 10
9.339107
 20
24.167923
 30
0.0
 10
9.505098
 20
23.955657
 30
0.0
 10
9.538952
 20
23.809555
 30
0.0
 10
9.534898
 20
23.791064
 30
0.0
 10
9.536343
 20
23.771784
 30
0.0
 10
9.542903
 20
23.752278
 30
0.0
 10
9.554156
 20
23.733119
 30
0.0
 10
9.569696
 20
23.714869
 30
0.0
 10
9.589121
 20
23.698098
 30
0.0
 10
9.612024
 20
23.683374
 30
0.0
 10
9.637998
 20
23.671267
 30
0.0
 10
9.671183
 20
23.650911
 30
0.0
 10
9.714760
 20
23.612577
 30
0.0
 10
9.766871
 20
23.558482
 30
0.0
 10
9.825662
 20
23.490845
 30
0.0
 10
9.889273
 20
23.411894
 30
0.0
 10
9.955851
 20
23.323849
 30
0.0
 10
10.023539
 20
23.228931
 30
0.0
 10
10.090482
 20
23.129367
 30
0.0
 10
10.191883
 20
22.976746
 30
0.0
 10
10.277786
 20
22.857416
 30
0.0
 10
10.355471
 20
22.765802
 30
0.0
 10
10.432217
 20
22.696331
 30
0.0
 10
10.515309
 20
22.643430
 30
0.0
 10
10.612024
 20
22.601521
 30
0.0
 10
10.729644
 20
22.565033
 30
0.0
 10
10.875451
 20
22.528389
 30
0.0
 10
11.008665
 20
22.494438
 30
0.0
 10
11.120775
 20
22.459916
 30
0.0
 10
11.215855
 20
22.422322
 30
0.0
 10
11.298020
 20
22.379241
 30
0.0
 10
11.371346
 20
22.328163
 30
0.0
 10
11.439920
 20
22.266612
 30
0.0
 10
11.507835
 20
22.192116
 30
0.0
 10
11.579175
 20
22.102193
 30
0.0
 10
11.723476
 20
21.878676
 30
0.0
 10
11.817913
 20
21.657615
 30
0.0
 10
11.862783
 20
21.441124
 30
0.0
 10
11.858384
 20
21.231316
 30
0.0
 10
11.805011
 20
21.030299
 30
0.0
 10
11.702964
 20
20.840194
 30
0.0
 10
11.552539
 20
20.663111
 30
0.0
 10
11.354032
 20
20.501162
 30
0.0
 10
11.308612
 20
20.469782
 30
0.0
 10
11.263192
 20
20.438403
 30
0.0
 10
11.217768
 20
20.407024
 30
0.0
 10
11.172348
 20
20.375644
 30
0.0
 10
11.126927
 20
20.344267
 30
0.0
 10
11.081505
 20
20.312888
 30
0.0
 10
11.036085
 20
20.281510
 30
0.0
 10
10.990663
 20
20.250128
 30
0.0
 10
10.977029
 20
20.162096
 30
0.0
 10
10.963394
 20
20.074061
 30
0.0
 10
10.949760
 20
19.986029
 30
0.0
 10
10.936125
 20
19.897995
 30
0.0
 10
10.922491
 20
19.809961
 30
0.0
 10
10.908856
 20
19.721926
 30
0.0
 10
10.895222
 20
19.633894
 30
0.0
 10
10.881588
 20
19.545860
 30
0.0
 10
10.825974
 20
19.229830
 30
0.0
 10
10.759795
 20
18.935307
 30
0.0
 10
10.681550
 20
18.658387
 30
0.0
 10
10.589742
 20
18.395170
 30
0.0
 10
10.482865
 20
18.141754
 30
0.0
 10
10.359425
 20
17.894240
 30
0.0
 10
10.217918
 20
17.648726
 30
0.0
 10
10.056845
 20
17.401309
 30
0.0
 10
9.905836
 20
17.200367
 30
0.0
 10
9.718468
 20
16.980096
 30
0.0
 10
9.508485
 20
16.753768
 30
0.0
 10
9.289640
 20
16.534652
 30
0.0
 10
9.075680
 20
16.336017
 30
0.0
 10
8.880350
 20
16.171135
 30
0.0
 10
8.717404
 20
16.053273
 30
0.0
 10
8.600586
 20
15.995704
 30
0.0
 10
8.578622
 20
15.989148
 30
0.0
 10
8.560709
 20
15.981954
 30
0.0
 10
8.547057
 20
15.974394
 30
0.0
 10
8.537874
 20
15.966683
 30
0.0
 10
8.533363
 20
15.959032
 30
0.0
 10
8.533667
 20
15.951701
 30
0.0
 10
8.539123
 20
15.944902
 30
0.0
 10
8.549890
 20
15.938878
 30
0.0
 10
8.555562
 20
15.919869
 30
0.0
 10
8.523749
 20
15.885218
 30
0.0
 10
8.457838
 20
15.836921
 30
0.0
 10
8.361223
 20
15.776966
 30
0.0
 10
8.237300
 20
15.707355
 30
0.0
 10
8.089460
 20
15.630073
 30
0.0
 10
7.921098
 20
15.547118
 30
0.0
 10
7.735608
 20
15.460487
 30
0.0
 10
7.639917
 20
15.415069
 30
0.0
 10
7.565583
 20
15.372227
 30
0.0
 10
7.508610
 20
15.325008
 30
0.0
 10
7.464998
 20
15.266464
 30
0.0
 10
7.430757
 20
15.189643
 30
0.0
 10
7.401883
 20
15.087601
 30
0.0
 10
7.374379
 20
14.953386
 30
0.0
 10
7.344251
 20
14.780049
 30
0.0
 10
7.291717
 20
14.497617
 30
0.0
 10
7.234207
 20
14.254509
 30
0.0
 10
7.168627
 20
14.044331
 30
0.0
 10
7.091891
 20
13.860688
 30
0.0
 10
7.000902
 20
13.697184
 30
0.0
 10
6.892577
 20
13.547422
 30
0.0
 10
6.763820
 20
13.405008
 30
0.0
 10
6.611547
 20
13.263546
 30
0.0
 10
6.301714
 20
13.012763
 30
0.0
 10
6.010743
 20
12.825316
 30
0.0
 10
5.716020
 20
12.698510
 30
0.0
 10
5.394931
 20
12.629639
 30
0.0
 10
5.024866
 20
12.616011
 30
0.0
 10
4.583207
 20
12.654922
 30
0.0
 10
4.047342
 20
12.743676
 30
0.0
 10
3.394660
 20
12.879572
 30
0.0
 10
2.712887
 20
13.023203
 30
0.0
 10
2.194728
 20
13.107281
 30
0.0
 10
1.822041
 20
13.121016
 30
0.0
 10
1.576679
 20
13.053650
 30
0.0
 10
1.440500
 20
12.894397
 30
0.0
 10
1.395360
 20
12.632482
 30
0.0
 10
1.423114
 20
12.257126
 30
0.0
 10
1.505619
 20
11.757550
 30
0.0
 10
1.603365
 20
11.319426
 30
0.0
 10
1.741773
 20
10.835238
 30
0.0
 10
1.914358
 20
10.321172
 30
0.0
 10
2.114635
 20
9.793418
 30
0.0
 10
2.336119
 20
9.268165
 30
0.0
 10
2.572328
 20
8.761601
 30
0.0
 10
2.816777
 20
8.289918
 30
0.0
 10
3.062982
 20
7.869296
 30
0.0
 10
3.382697
 20
7.396365
 30
0.0
 10
3.753636
 20
6.909000
 30
0.0
 10
4.163554
 20
6.420068
 30
0.0
 10
4.600209
 20
5.942406
 30
0.0
 10
5.051353
 20
5.488838
 30
0.0
 10
5.504744
 20
5.072230
 30
0.0
 10
5.948135
 20
4.705421
 30
0.0
 10
6.369284
 20
4.401262
 30
0.0
 10
6.421891
 20
4.365290
 30
0.0
 10
6.470277
 20
4.329957
 30
0.0
 10
6.513434
 20
4.296145
 30
0.0
 10
6.550350
 20
4.264781
 30
0.0
 10
6.580015
 20
4.236734
 30
0.0
 10
6.601420
 20
4.212914
 30
0.0
 10
6.613566
 20
4.194236
 30
0.0
 10
6.615415
 20
4.181612
 30
0.0
 10
6.575337
 20
4.140727
 30
0.0
 10
6.487149
 20
4.097864
 30
0.0
 10
6.352657
 20
4.053466
 30
0.0
 10
6.173668
 20
4.007911
 30
0.0
 10
5.951988
 20
3.961627
 30
0.0
 10
5.689424
 20
3.915038
 30
0.0
 10
5.387779
 20
3.868555
 30
0.0
 10
5.048864
 20
3.822575
 30
0.0
 10
4.841634
 20
3.795683
 30
0.0
 10
4.643406
 20
3.769172
 30
0.0
 10
4.458869
 20
3.743710
 30
0.0
 10
4.292711
 20
3.719982
 30
0.0
 10
4.149622
 20
3.698673
 30
0.0
 10
4.034288
 20
3.680466
 30
0.0
 10
3.951403
 20
3.666016
 30
0.0
 10
3.905652
 20
3.656130
 30
0.0
 10
3.872912
 20
3.636356
 30
0.0
 10
3.840548
 20
3.595593
 30
0.0
 10
3.808143
 20
3.532577
 30
0.0
 10
3.775305
 20
3.446077
 30
0.0
 10
3.741558
 20
3.334860
 30
0.0
 10
3.706523
 20
3.197694
 30
0.0
 10
3.669777
 20
3.033332
 30
0.0
 10
3.630902
 20
2.840543
 30
0.0
 10
3.587858
 20
2.629760
 30
0.0
 10
3.544247
 20
2.442462
 30
0.0
 10
3.498494
 20
2.274161
 30
0.0
 10
3.449016
 20
2.120340
 30
0.0
 10
3.394244
 20
1.976497
 30
0.0
 10
3.332595
 20
1.838145
 30
0.0
 10
3.262494
 20
1.700751
 30
0.0
 10
3.182363
 20
1.559844
 30
0.0
 10
3.122470
 20
1.456810
 30
0.0
 10
3.066523
 20
1.356270
 30
0.0
 10
3.015755
 20
1.260735
 30
0.0
 10
2.971393
 20
1.172713
 30
0.0
 10
2.934672
 20
1.094731
 30
0.0
 10
2.906815
 20
1.029296
 30
0.0
 10
2.890301
 20
1.038879
 30
0.0
 10
2.754335
 20
0.859033
 30
0.0
 10
2.484140
 20
0.711981
 30
0.0
 10
2.214259
 20
0.579926
 30
0.0
 10
1.928452
 20
0.403214
 30
0.0
 10
1.551800
 20
0.183442
 30
0.0
 10
1.148318
 20
0.114144
 30
0.0
 10
0.685529
 20
0.076057
 30
0.0
 10
0.283617
 20
0.081685
 30
0.0
 10
-0.007906
 20
0.079404
 30
0.0
 10
-0.343754
 20
0.107984
 30
0.0
 10
-0.738595
 20
0.182787
 30
0.0
 10
-1.147479
 20
0.302857
 30
0.0
 10
-1.556362
 20
0.422911
 30
0.0
 10
-1.919981
 20
0.557019
 30
0.0
 10
-2.446854
 20
0.769506
 30
0.0
 10
-2.657180
 20
1.065284
 30
0.0
  0
LWPOLYLINE
  5
101
100
AcDbEntity
  8
Layer_1
 62
7
100
AcDbPolyline
 90
73
 70
0
 10
0.088917
 20
1.488264
 30
0.0
 10
0.264948
 20
1.482484
 30
0.0
 10
0.419225
 20
1.484614
 30
0.0
 10
0.556932
 20
1.495869
 30
0.0
 10
0.683245
 20
1.517331
 30
0.0
 10
0.803344
 20
1.550155
 30
0.0
 10
0.922408
 20
1.595481
 30
0.0
 10
1.045616
 20
1.654451
 30
0.0
 10
1.178149
 20
1.728190
 30
0.0
 10
1.359085
 20
1.838495
 30
0.0
 10
1.509070
 20
1.940951
 30
0.0
 10
1.633709
 20
2.041962
 30
0.0
 10
1.738608
 20
2.147946
 30
0.0
 10
1.829367
 20
2.265278
 30
0.0
 10
1.911593
 20
2.400360
 30
0.0
 10
1.990888
 20
2.559580
 30
0.0
 10
2.072854
 20
2.749343
 30
0.0
 10
2.133478
 20
2.924762
 30
0.0
 10
2.168365
 20
3.112015
 30
0.0
 10
2.174662
 20
3.332015
 30
0.0
 10
2.149541
 20
3.605677
 30
0.0
 10
2.090154
 20
3.953900
 30
0.0
 10
1.993662
 20
4.397612
 30
0.0
 10
1.857220
 20
4.957728
 30
0.0
 10
1.677988
 20
5.655131
 30
0.0
 10
1.600506
 20
5.953662
 30
0.0
 10
1.521999
 20
6.258718
 30
0.0
 10
1.444630
 20
6.561720
 30
0.0
 10
1.370561
 20
6.854091
 30
0.0
 10
1.301956
 20
7.127251
 30
0.0
 10
1.240979
 20
7.372637
 30
0.0
 10
1.189793
 20
7.581671
 30
0.0
 10
1.150561
 20
7.745774
 30
0.0
 10
1.054264
 20
8.132320
 30
0.0
 10
0.959438
 20
8.461163
 30
0.0
 10
0.864090
 20
8.736331
 30
0.0
 10
0.766229
 20
8.961856
 30
0.0
 10
0.663862
 20
9.141771
 30
0.0
 10
0.555000
 20
9.280111
 30
0.0
 10
0.437651
 20
9.380906
 30
0.0
 10
0.309823
 20
9.448190
 30
0.0
 10
0.154703
 20
9.493173
 30
0.0
 10
0.002565
 20
9.508292
 30
0.0
 10
-0.143497
 20
9.494816
 30
0.0
 10
-0.280387
 20
9.454013
 30
0.0
 10
-0.405004
 20
9.387168
 30
0.0
 10
-0.514255
 20
9.295547
 30
0.0
 10
-0.605044
 20
9.180433
 30
0.0
 10
-0.674269
 20
9.043095
 30
0.0
 10
-0.769863
 20
8.732716
 30
0.0
 10
-0.939454
 20
8.124637
 30
0.0
 10
-1.157632
 20
7.315781
 30
0.0
 10
-1.398985
 20
6.403047
 30
0.0
 10
-1.638100
 20
5.483362
 30
0.0
 10
-1.849567
 20
4.653645
 30
0.0
 10
-2.007974
 20
4.010801
 30
0.0
 10
-2.087909
 20
3.651764
 30
0.0
 10
-2.096067
 20
3.451111
 30
0.0
 10
-2.061184
 20
3.220874
 30
0.0
 10
-1.989198
 20
2.973739
 30
0.0
 10
-1.886055
 20
2.722390
 30
0.0
 10
-1.757703
 20
2.479544
 30
0.0
 10
-1.610081
 20
2.257870
 30
0.0
 10
-1.449138
 20
2.070070
 30
0.0
 10
-1.280819
 20
1.928828
 30
0.0
 10
-1.096439
 20
1.808591
 30
0.0
 10
-0.937183
 20
1.713847
 30
0.0
 10
-0.792365
 20
1.641157
 30
0.0
 10
-0.651315
 20
1.587055
 30
0.0
 10
-0.503340
 20
1.548162
 30
0.0
 10
-0.337766
 20
1.521012
 30
0.0
 10
-0.143911
 20
1.502166
 30
0.0
 10
0.088913
 20
1.488173
 30
0.0
  0
LWPOLYLINE
  5
102
100
AcDbEntity
  8
Layer_1
 62
7
100
AcDbPolyline
 90
57
 70
0
 10
0.659221
 20
13.990761
 30
0.0
 10
0.944162
 20
14.274701
 30
0.0
 10
1.189166
 20
14.530366
 30
0.0
 10
1.393957
 20
14.757418
 30
0.0
 10
1.558266
 20
14.955504
 30
0.0
 10
1.681819
 20
15.124277
 30
0.0
 10
1.764344
 20
15.263393
 30
0.0
 10
1.805575
 20
15.372504
 30
0.0
 10
1.805225
 20
15.451260
 30
0.0
 10
1.706621
 20
15.641595
 30
0.0
 10
1.511777
 20
15.945063
 30
0.0
 10
1.252085
 20
16.319394
 30
0.0
 10
0.958942
 20
16.722320
 30
0.0
 10
0.663738
 20
17.111573
 30
0.0
 10
0.397866
 20
17.444882
 30
0.0
 10
0.192722
 20
17.679977
 30
0.0
 10
0.079697
 20
17.774591
 30
0.0
 10
0.029313
 20
17.768415
 30
0.0
 10
-0.036237
 20
17.732682
 30
0.0
 10
-0.118910
 20
17.665319
 30
0.0
 10
-0.220669
 20
17.564246
 30
0.0
 10
-0.343470
 20
17.427389
 30
0.0
 10
-0.489274
 20
17.252671
 30
0.0
 10
-0.660041
 20
17.038017
 30
0.0
 10
-0.857730
 20
16.781349
 30
0.0
 10
-1.014909
 20
16.572309
 30
0.0
 10
-1.163340
 20
16.370171
 30
0.0
 10
-1.299645
 20
16.179872
 30
0.0
 10
-1.420445
 20
16.006340
 30
0.0
 10
-1.522366
 20
15.854512
 30
0.0
 10
-1.602030
 20
15.729321
 30
0.0
 10
-1.656058
 20
15.635699
 30
0.0
 10
-1.681079
 20
15.578581
 30
0.0
 10
-1.680531
 20
15.520709
 30
0.0
 10
-1.653925
 20
15.441854
 30
0.0
 10
-1.600095
 20
15.340342
 30
0.0
 10
-1.517870
 20
15.214498
 30
0.0
 10
-1.406079
 20
15.062647
 30
0.0
 10
-1.263554
 20
14.883114
 30
0.0
 10
-1.089123
 20
14.674226
 30
0.0
 10
-0.881617
 20
14.434306
 30
0.0
 10
-0.709819
 20
14.241083
 30
0.0
 10
-0.545562
 20
14.061563
 30
0.0
 10
-0.392723
 20
13.899622
 30
0.0
 10
-0.255187
 20
13.759134
 30
0.0
 10
-0.136833
 20
13.643981
 30
0.0
 10
-0.041537
 20
13.558032
 30
0.0
 10
0.026817
 20
13.505168
 30
0.0
 10
0.064352
 20
13.489258
 30
0.0
 10
0.094719
 20
13.502871
 30
0.0
 10
0.142536
 20
13.534624
 30
0.0
 10
0.205361
 20
13.582452
 30
0.0
 10
0.280754
 20
13.644302
 30
0.0
 10
0.366276
 20
13.718112
 30
0.0
 10
0.459487
 20
13.801829
 30
0.0
 10
0.557947
 20
13.893395
 30
0.0
 10
0.659215
 20
13.990750
 30
0.0
  0
LWPOLYLINE
  5
103
100
AcDbEntity
  8
Layer_1
 62
7
100
AcDbPolyline
 90
105
 70
0
 10
-6.672477
 20
17.649044
 30
0.0
 10
-6.656411
 20
17.670439
 30
0.0
 10
-6.640681
 20
17.708878
 30
0.0
 10
-6.625629
 20
17.762172
 30
0.0
 10
-6.611695
 20
17.828172
 30
0.0
 10
-6.599259
 20
17.904719
 30
0.0
 10
-6.588732
 20
17.989651
 30
0.0
 10
-6.580524
 20
18.080806
 30
0.0
 10
-6.575015
 20
18.176022
 30
0.0
 10
-6.531043
 20
18.506679
 30
0.0
 10
-6.431309
 20
18.813713
 30
0.0
 10
-6.281572
 20
19.091156
 30
0.0
 10
-6.087583
 20
19.333044
 30
0.0
 10
-5.855093
 20
19.533408
 30
0.0
 10
-5.589859
 20
19.686284
 30
0.0
 10
-5.297631
 20
19.785707
 30
0.0
 10
-4.984163
 20
19.825710
 30
0.0
 10
-4.802097
 20
19.816067
 30
0.0
 10
-4.602037
 20
19.780641
 30
0.0
 10
-4.392342
 20
19.722833
 30
0.0
 10
-4.181366
 20
19.646056
 30
0.0
 10
-3.977467
 20
19.553707
 30
0.0
 10
-3.789000
 20
19.449198
 30
0.0
 10
-3.624322
 20
19.335935
 30
0.0
 10
-3.491786
 20
19.217324
 30
0.0
 10
-3.390133
 20
19.092795
 30
0.0
 10
-3.297971
 20
18.946533
 30
0.0
 10
-3.217225
 20
18.784182
 30
0.0
 10
-3.149821
 20
18.611385
 30
0.0
 10
-3.097688
 20
18.433790
 30
0.0
 10
-3.062745
 20
18.257036
 30
0.0
 10
-3.046921
 20
18.086774
 30
0.0
 10
-3.052135
 20
17.928644
 30
0.0
 10
-3.055596
 20
17.871662
 30
0.0
 10
-3.054181
 20
17.812368
 30
0.0
 10
-3.048225
 20
17.752495
 30
0.0
 10
-3.038105
 20
17.693782
 30
0.0
 10
-3.024197
 20
17.637965
 30
0.0
 10
-3.006851
 20
17.586778
 30
0.0
 10
-2.986435
 20
17.541961
 30
0.0
 10
-2.963316
 20
17.505248
 30
0.0
 10
-2.926869
 20
17.463734
 30
0.0
 10
-2.888613
 20
17.435440
 30
0.0
 10
-2.845823
 20
17.420670
 30
0.0
 10
-2.795767
 20
17.419758
 30
0.0
 10
-2.735723
 20
17.432960
 30
0.0
 10
-2.662963
 20
17.460593
 30
0.0
 10
-2.574759
 20
17.502965
 30
0.0
 10
-2.468385
 20
17.560382
 30
0.0
 10
-2.383852
 20
17.610717
 30
0.0
 10
-2.287931
 20
17.673181
 30
0.0
 10
-2.183939
 20
17.745297
 30
0.0
 10
-2.075196
 20
17.824593
 30
0.0
 10
-1.965021
 20
17.908588
 30
0.0
 10
-1.856733
 20
17.994809
 30
0.0
 10
-1.753653
 20
18.080780
 30
0.0
 10
-1.659097
 20
18.164024
 30
0.0
 10
-1.528175
 20
18.286781
 30
0.0
 10
-1.418869
 20
18.400360
 30
0.0
 10
-1.325162
 20
18.514633
 30
0.0
 10
-1.241032
 20
18.639473
 30
0.0
 10
-1.160459
 20
18.784755
 30
0.0
 10
-1.077423
 20
18.960356
 30
0.0
 10
-0.985905
 20
19.176146
 30
0.0
 10
-0.879881
 20
19.442001
 30
0.0
 10
-0.732889
 20
19.848531
 30
0.0
 10
-0.626299
 20
20.220555
 30
0.0
 10
-0.559938
 20
20.567100
 30
0.0
 10
-0.533627
 20
20.897184
 30
0.0
 10
-0.547195
 20
21.219833
 30
0.0
 10
-0.600459
 20
21.544076
 30
0.0
 10
-0.693247
 20
21.878931
 30
0.0
 10
-0.825380
 20
22.233425
 30
0.0
 10
-1.020770
 20
22.652789
 30
0.0
 10
-1.245315
 20
23.032933
 30
0.0
 10
-1.501669
 20
23.376375
 30
0.0
 10
-1.792488
 20
23.685630
 30
0.0
 10
-2.120422
 20
23.963215
 30
0.0
 10
-2.488126
 20
24.211649
 30
0.0
 10
-2.898252
 20
24.433446
 30
0.0
 10
-3.353455
 20
24.631122
 30
0.0
 10
-3.824698
 20
24.789480
 30
0.0
 10
-4.292630
 20
24.896068
 30
0.0
 10
-4.757391
 20
24.950877
 30
0.0
 10
-5.219125
 20
24.953904
 30
0.0
 10
-5.677974
 20
24.905134
 30
0.0
 10
-6.134077
 20
24.804561
 30
0.0
 10
-6.587577
 20
24.652182
 30
0.0
 10
-7.038617
 20
24.447990
 30
0.0
 10
-7.732503
 20
23.990173
 30
0.0
 10
-8.288064
 20
23.412738
 30
0.0
 10
-8.698999
 20
22.742041
 30
0.0
 10
-8.958995
 20
22.004440
 30
0.0
 10
-9.061745
 20
21.226283
 30
0.0
 10
-9.000946
 20
20.433933
 30
0.0
 10
-8.770287
 20
19.653740
 30
0.0
 10
-8.363462
 20
18.912059
 30
0.0
 10
-8.159628
 20
18.649290
 30
0.0
 10
-7.924515
 20
18.394738
 30
0.0
 10
-7.672687
 20
18.159280
 30
0.0
 10
-7.418708
 20
17.953794
 30
0.0
 10
-7.177140
 20
17.789154
 30
0.0
 10
-6.962543
 20
17.676241
 30
0.0
 10
-6.789483
 20
17.625931
 30
0.0
 10
-6.672485
 20
17.649084
 30
0.0
  0
LWPOLYLINE
  5
104
100
AcDbEntity
  8
Layer_1
 62
7
100
AcDbPolyline
 90
113
 70
0
 10
3.104098
 20
17.386939
 30
0.0
 10
3.115280
 20
17.431970
 30
0.0
 10
3.126927
 20
17.489758
 30
0.0
 10
3.138715
 20
17.557909
 30
0.0
 10
3.150290
 20
17.634030
 30
0.0
 10
3.161312
 20
17.715727
 30
0.0
 10
3.171427
 20
17.800611
 30
0.0
 10
3.180311
 20
17.886285
 30
0.0
 10
3.187609
 20
17.970357
 30
0.0
 10
3.214685
 20
18.168613
 30
0.0
 10
3.264017
 20
18.355111
 30
0.0
 10
3.335225
 20
18.529288
 30
0.0
 10
3.427930
 20
18.690568
 30
0.0
 10
3.541751
 20
18.838387
 30
0.0
 10
3.676307
 20
18.972172
 30
0.0
 10
3.831221
 20
19.091360
 30
0.0
 10
4.006112
 20
19.195376
 30
0.0
 10
4.193173
 20
19.282698
 30
0.0
 10
4.376169
 20
19.346852
 30
0.0
 10
4.557593
 20
19.387921
 30
0.0
 10
4.739945
 20
19.406001
 30
0.0
 10
4.925712
 20
19.401195
 30
0.0
 10
5.117394
 20
19.373559
 30
0.0
 10
5.317484
 20
19.323203
 30
0.0
 10
5.528478
 20
19.250214
 30
0.0
 10
5.804237
 20
19.123476
 30
0.0
 10
6.040170
 20
18.972322
 30
0.0
 10
6.236678
 20
18.796123
 30
0.0
 10
6.394165
 20
18.594255
 30
0.0
 10
6.513034
 20
18.366088
 30
0.0
 10
6.593685
 20
18.110998
 30
0.0
 10
6.636521
 20
17.828360
 30
0.0
 10
6.641953
 20
17.517547
 30
0.0
 10
6.645447
 20
17.337877
 30
0.0
 10
6.672530
 20
17.199884
 30
0.0
 10
6.723788
 20
17.103340
 30
0.0
 10
6.799802
 20
17.048019
 30
0.0
 10
6.901152
 20
17.033691
 30
0.0
 10
7.028423
 20
17.060123
 30
0.0
 10
7.182191
 20
17.127095
 30
0.0
 10
7.363040
 20
17.234371
 30
0.0
 10
7.639609
 20
17.426382
 30
0.0
 10
7.884162
 20
17.620730
 30
0.0
 10
8.100189
 20
17.821666
 30
0.0
 10
8.291181
 20
18.033440
 30
0.0
 10
8.460624
 20
18.260292
 30
0.0
 10
8.612011
 20
18.506469
 30
0.0
 10
8.748830
 20
18.776222
 30
0.0
 10
8.874570
 20
19.073796
 30
0.0
 10
8.953470
 20
19.283968
 30
0.0
 10
9.017363
 20
19.470900
 30
0.0
 10
9.067494
 20
19.640640
 30
0.0
 10
9.105103
 20
19.799241
 30
0.0
 10
9.131428
 20
19.952752
 30
0.0
 10
9.147717
 20
20.107224
 30
0.0
 10
9.155193
 20
20.268707
 30
0.0
 10
9.155107
 20
20.443252
 30
0.0
 10
9.149541
 20
20.688839
 30
0.0
 10
9.140412
 20
20.885594
 30
0.0
 10
9.123423
 20
21.051245
 30
0.0
 10
9.094296
 20
21.203516
 30
0.0
 10
9.048743
 20
21.360138
 30
0.0
 10
8.982481
 20
21.538834
 30
0.0
 10
8.891220
 20
21.757335
 30
0.0
 10
8.770678
 20
22.033362
 30
0.0
 10
8.449980
 20
22.623620
 30
0.0
 10
8.041628
 20
23.147391
 30
0.0
 10
7.556524
 20
23.598466
 30
0.0
 10
7.005572
 20
23.970628
 30
0.0
 10
6.399673
 20
24.257669
 30
0.0
 10
5.749730
 20
24.453373
 30
0.0
 10
5.066648
 20
24.551526
 30
0.0
 10
4.361327
 20
24.545913
 30
0.0
 10
4.016654
 20
24.502782
 30
0.0
 10
3.674123
 20
24.431882
 30
0.0
 10
3.336993
 20
24.334569
 30
0.0
 10
3.008516
 20
24.212201
 30
0.0
 10
2.691943
 20
24.066127
 30
0.0
 10
2.390532
 20
23.897703
 30
0.0
 10
2.107535
 20
23.708284
 30
0.0
 10
1.846205
 20
23.499223
 30
0.0
 10
1.687591
 20
23.357733
 30
0.0
 10
1.560458
 20
23.234378
 30
0.0
 10
1.456089
 20
23.115121
 30
0.0
 10
1.365762
 20
22.985909
 30
0.0
 10
1.280757
 20
22.832699
 30
0.0
 10
1.192355
 20
22.641443
 30
0.0
 10
1.091841
 20
22.398098
 30
0.0
 10
0.970486
 20
22.088615
 30
0.0
 10
0.856380
 20
21.790230
 30
0.0
 10
0.768667
 20
21.547534
 30
0.0
 10
0.704620
 20
21.347532
 30
0.0
 10
0.661508
 20
21.177233
 30
0.0
 10
0.636607
 20
21.023637
 30
0.0
 10
0.627184
 20
20.873753
 30
0.0
 10
0.630514
 20
20.714584
 30
0.0
 10
0.643868
 20
20.533138
 30
0.0
 10
0.675336
 20
20.258484
 30
0.0
 10
0.720105
 20
19.996730
 30
0.0
 10
0.778583
 20
19.746673
 30
0.0
 10
0.851178
 20
19.507109
 30
0.0
 10
0.938302
 20
19.276839
 30
0.0
 10
1.040359
 20
19.054657
 30
0.0
 10
1.157761
 20
18.839361
 30
0.0
 10
1.290916
 20
18.629754
 30
0.0
 10
1.554953
 20
18.277845
 30
0.0
 10
1.837716
 20
17.961944
 30
0.0
 10
2.124498
 20
17.692121
 30
0.0
 10
2.400600
 20
17.478462
 30
0.0
 10
2.651318
 20
17.331034
 30
0.0
 10
2.861949
 20
17.259923
 30
0.0
 10
3.017793
 20
17.275202
 30
0.0
 10
3.104133
 20
17.386954
 30
0.0
  0
LWPOLYLINE
  5
105
100
AcDbEntity
  8
Layer_1
 62
7
100
AcDbPolyline
 90
129
 70
0
 10
0.289252
 20
23.624592
 30
0.0
 10
0.341073
 20
23.650706
 30
0.0
 10
0.395289
 20
23.683952
 30
0.0
 10
0.450296
 20
23.722971
 30
0.0
 10
0.504485
 20
23.766398
 30
0.0
 10
0.556250
 20
23.812870
 30
0.0
 10
0.603984
 20
23.861024
 30
0.0
 10
0.646081
 20
23.909497
 30
0.0
 10
0.680935
 20
23.956927
 30
0.0
 10
0.940522
 20
24.322748
 30
0.0
 10
1.239644
 20
24.698464
 30
0.0
 10
1.566209
 20
25.071913
 30
0.0
 10
1.908120
 20
25.430918
 30
0.0
 10
2.253284
 20
25.763312
 30
0.0
 10
2.589605
 20
26.056921
 30
0.0
 10
2.904991
 20
26.299579
 30
0.0
 10
3.187345
 20
26.479111
 30
0.0
 10
3.291113
 20
26.560451
 30
0.0
 10
3.432650
 20
26.704360
 30
0.0
 10
3.597876
 20
26.892917
 30
0.0
 10
3.772710
 20
27.108202
 30
0.0
 10
3.943075
 20
27.332296
 30
0.0
 10
4.094888
 20
27.547271
 30
0.0
 10
4.214072
 20
27.735212
 30
0.0
 10
4.286543
 20
27.878197
 30
0.0
 10
4.319706
 20
27.983910
 30
0.0
 10
4.334544
 20
28.082175
 30
0.0
 10
4.331234
 20
28.172538
 30
0.0
 10
4.309943
 20
28.254545
 30
0.0
 10
4.270856
 20
28.327741
 30
0.0
 10
4.214148
 20
28.391668
 30
0.0
 10
4.139998
 20
28.445873
 30
0.0
 10
4.048579
 20
28.489894
 30
0.0
 10
3.991312
 20
28.507743
 30
0.0
 10
3.938687
 20
28.513691
 30
0.0
 10
3.888566
 20
28.506511
 30
0.0
 10
3.838815
 20
28.484963
 30
0.0
 10
3.787297
 20
28.447805
 30
0.0
 10
3.731874
 20
28.393798
 30
0.0
 10
3.670409
 20
28.321703
 30
0.0
 10
3.600770
 20
28.230283
 30
0.0
 10
3.456386
 20
28.042354
 30
0.0
 10
3.319674
 20
27.884904
 30
0.0
 10
3.185819
 20
27.754602
 30
0.0
 10
3.050013
 20
27.648123
 30
0.0
 10
2.907434
 20
27.562138
 30
0.0
 10
2.753275
 20
27.493323
 30
0.0
 10
2.582717
 20
27.438343
 30
0.0
 10
2.390953
 20
27.393876
 30
0.0
 10
2.140919
 20
27.360871
 30
0.0
 10
1.895723
 20
27.361175
 30
0.0
 10
1.656489
 20
27.394533
 30
0.0
 10
1.424344
 20
27.460466
 30
0.0
 10
1.200409
 20
27.558567
 30
0.0
 10
0.985813
 20
27.688435
 30
0.0
 10
0.781679
 20
27.849662
 30
0.0
 10
0.589130
 20
28.041844
 30
0.0
 10
0.484541
 20
28.156339
 30
0.0
 10
0.398560
 20
28.244482
 30
0.0
 10
0.326532
 20
28.308899
 30
0.0
 10
0.263805
 20
28.352216
 30
0.0
 10
0.205721
 20
28.377060
 30
0.0
 10
0.147630
 20
28.386065
 30
0.0
 10
0.084875
 20
28.381836
 30
0.0
 10
0.012804
 20
28.367022
 30
0.0
 10
-0.038496
 20
28.350032
 30
0.0
 10
-0.095092
 20
28.323572
 30
0.0
 10
-0.155123
 20
28.288976
 30
0.0
 10
-0.216719
 20
28.247585
 30
0.0
 10
-0.278020
 20
28.200734
 30
0.0
 10
-0.337165
 20
28.149764
 30
0.0
 10
-0.392286
 20
28.096009
 30
0.0
 10
-0.441522
 20
28.040810
 30
0.0
 10
-0.574612
 20
27.909607
 30
0.0
 10
-0.743286
 20
27.791591
 30
0.0
 10
-0.939912
 20
27.689279
 30
0.0
 10
-1.156856
 20
27.605194
 30
0.0
 10
-1.386487
 20
27.541856
 30
0.0
 10
-1.621171
 20
27.501780
 30
0.0
 10
-1.853277
 20
27.487482
 30
0.0
 10
-2.075171
 20
27.501506
 30
0.0
 10
-2.282653
 20
27.541602
 30
0.0
 10
-2.482211
 20
27.604166
 30
0.0
 10
-2.672505
 20
27.688321
 30
0.0
 10
-2.852205
 20
27.793182
 30
0.0
 10
-3.019971
 20
27.917866
 30
0.0
 10
-3.174473
 20
28.061496
 30
0.0
 10
-3.314373
 20
28.223188
 30
0.0
 10
-3.438339
 20
28.402058
 30
0.0
 10
-3.526444
 20
28.527273
 30
0.0
 10
-3.618135
 20
28.624774
 30
0.0
 10
-3.711786
 20
28.694102
 30
0.0
 10
-3.805772
 20
28.734795
 30
0.0
 10
-3.898459
 20
28.746416
 30
0.0
 10
-3.988223
 20
28.728491
 30
0.0
 10
-4.073437
 20
28.680571
 30
0.0
 10
-4.152471
 20
28.602197
 30
0.0
 10
-4.176384
 20
28.567045
 30
0.0
 10
-4.196190
 20
28.526858
 30
0.0
 10
-4.211653
 20
28.483019
 30
0.0
 10
-4.222523
 20
28.436897
 30
0.0
 10
-4.228543
 20
28.389886
 30
0.0
 10
-4.229471
 20
28.343356
 30
0.0
 10
-4.225052
 20
28.298687
 30
0.0
 10
-4.215027
 20
28.257257
 30
0.0
 10
-4.139936
 20
28.088320
 30
0.0
 10
-4.017213
 20
27.883874
 30
0.0
 10
-3.855227
 20
27.654063
 30
0.0
 10
-3.662346
 20
27.409039
 30
0.0
 10
-3.446938
 20
27.158945
 30
0.0
 10
-3.217371
 20
26.913934
 30
0.0
 10
-2.982014
 20
26.684151
 30
0.0
 10
-2.749235
 20
26.479745
 30
0.0
 10
-2.466444
 20
26.234881
 30
0.0
 10
-2.169792
 20
25.956257
 30
0.0
 10
-1.868217
 20
25.653668
 30
0.0
 10
-1.570657
 20
25.336902
 30
0.0
 10
-1.286045
 20
25.015754
 30
0.0
 10
-1.023318
 20
24.700011
 30
0.0
 10
-0.791414
 20
24.399474
 30
0.0
 10
-0.599270
 20
24.123930
 30
0.0
 10
-0.473332
 20
23.939922
 30
0.0
 10
-0.359124
 20
23.794856
 30
0.0
 10
-0.252911
 20
23.686631
 30
0.0
 10
-0.150947
 20
23.613144
 30
0.0
 10
-0.049490
 20
23.572293
 30
0.0
 10
0.055199
 20
23.561980
 30
0.0
 10
0.166864
 20
23.580083
 30
0.0
 10
0.289240
 20
23.624526
 30
0.0
  0
LWPOLYLINE
  5
106
100
AcDbEntity
  8
Layer_1
 62
7
100
AcDbPolyline
 90
121
 70
0
 10
-2.794524
 20
30.429687
 30
0.0
 10
-2.513513
 20
30.566189
 30
0.0
 10
-2.202712
 20
30.645819
 30
0.0
 10
-1.875113
 20
30.670682
 30
0.0
 10
-1.543714
 20
30.642893
 30
0.0
 10
-1.221506
 20
30.564556
 30
0.0
 10
-0.921485
 20
30.437785
 30
0.0
 10
-0.656645
 20
30.264691
 30
0.0
 10
-0.439980
 20
30.047380
 30
0.0
 10
-0.362272
 20
29.951528
 30
0.0
 10
-0.295371
 20
29.876543
 30
0.0
 10
-0.235432
 20
29.820231
 30
0.0
 10
-0.178612
 20
29.780386
 30
0.0
 10
-0.121063
 20
29.754813
 30
0.0
 10
-0.058939
 20
29.741306
 30
0.0
 10
0.011604
 20
29.737686
 30
0.0
 10
0.094412
 20
29.741732
 30
0.0
 10
0.152442
 20
29.749824
 30
0.0
 10
0.211535
 20
29.764532
 30
0.0
 10
0.270045
 20
29.785019
 30
0.0
 10
0.326323
 20
29.810454
 30
0.0
 10
0.378721
 20
29.839999
 30
0.0
 10
0.425594
 20
29.872824
 30
0.0
 10
0.465290
 20
29.908095
 30
0.0
 10
0.496164
 20
29.944977
 30
0.0
 10
0.588249
 20
30.052786
 30
0.0
 10
0.710905
 20
30.158503
 30
0.0
 10
0.857681
 20
30.258870
 30
0.0
 10
1.022130
 20
30.350636
 30
0.0
 10
1.197800
 20
30.430543
 30
0.0
 10
1.378245
 20
30.495337
 30
0.0
 10
1.557012
 20
30.541763
 30
0.0
 10
1.727657
 20
30.566565
 30
0.0
 10
1.838549
 20
30.571143
 30
0.0
 10
1.950093
 20
30.566991
 30
0.0
 10
2.064947
 20
30.553530
 30
0.0
 10
2.185772
 20
30.530111
 30
0.0
 10
2.315231
 20
30.496133
 30
0.0
 10
2.455981
 20
30.450990
 30
0.0
 10
2.610686
 20
30.394072
 30
0.0
 10
2.782004
 20
30.324768
 30
0.0
 10
2.939663
 20
30.260619
 30
0.0
 10
3.078726
 20
30.208270
 30
0.0
 10
3.199651
 20
30.167606
 30
0.0
 10
3.302893
 20
30.138516
 30
0.0
 10
3.388907
 20
30.120886
 30
0.0
 10
3.458152
 20
30.114604
 30
0.0
 10
3.511085
 20
30.119548
 30
0.0
 10
3.548162
 20
30.135620
 30
0.0
 10
3.618632
 20
30.191633
 30
0.0
 10
3.664992
 20
30.246883
 30
0.0
 10
3.684338
 20
30.312504
 30
0.0
 10
3.673764
 20
30.399638
 30
0.0
 10
3.630369
 20
30.519421
 30
0.0
 10
3.551244
 20
30.682993
 30
0.0
 10
3.433487
 20
30.901492
 30
0.0
 10
3.274191
 20
31.186056
 30
0.0
 10
2.880003
 20
31.902683
 30
0.0
 10
2.528449
 20
32.579923
 30
0.0
 10
2.213701
 20
33.231539
 30
0.0
 10
1.929936
 20
33.871299
 30
0.0
 10
1.671329
 20
34.512960
 30
0.0
 10
1.432053
 20
35.170286
 30
0.0
 10
1.206284
 20
35.857042
 30
0.0
 10
0.988197
 20
36.586986
 30
0.0
 10
0.901041
 20
36.884608
 30
0.0
 10
0.824620
 20
37.127305
 30
0.0
 10
0.755699
 20
37.321958
 30
0.0
 10
0.691043
 20
37.475434
 30
0.0
 10
0.627418
 20
37.594610
 30
0.0
 10
0.561593
 20
37.686358
 30
0.0
 10
0.490331
 20
37.757554
 30
0.0
 10
0.410398
 20
37.815071
 30
0.0
 10
0.335834
 20
37.857946
 30
0.0
 10
0.265059
 20
37.891159
 30
0.0
 10
0.196477
 20
37.914945
 30
0.0
 10
0.128489
 20
37.929547
 30
0.0
 10
0.059500
 20
37.935190
 30
0.0
 10
-0.012088
 20
37.932117
 30
0.0
 10
-0.087874
 20
37.920573
 30
0.0
 10
-0.169456
 20
37.900786
 30
0.0
 10
-0.262709
 20
37.871865
 30
0.0
 10
-0.338535
 20
37.839589
 30
0.0
 10
-0.401027
 20
37.798800
 30
0.0
 10
-0.454279
 20
37.744341
 30
0.0
 10
-0.502383
 20
37.671048
 30
0.0
 10
-0.549433
 20
37.573771
 30
0.0
 10
-0.599518
 20
37.447348
 30
0.0
 10
-0.656734
 20
37.286617
 30
0.0
 10
-0.708821
 20
37.139504
 30
0.0
 10
-0.787051
 20
36.923250
 30
0.0
 10
-0.887594
 20
36.648240
 30
0.0
 10
-1.006622
 20
36.324859
 30
0.0
 10
-1.140297
 20
35.963484
 30
0.0
 10
-1.284791
 20
35.574503
 30
0.0
 10
-1.436263
 20
35.168290
 30
0.0
 10
-1.590891
 20
34.755234
 30
0.0
 10
-1.813877
 20
34.165542
 30
0.0
 10
-2.003121
 20
33.678170
 30
0.0
 10
-2.168025
 20
33.272338
 30
0.0
 10
-2.318006
 20
32.927267
 30
0.0
 10
-2.462472
 20
32.622174
 30
0.0
 10
-2.610837
 20
32.336283
 30
0.0
 10
-2.772509
 20
32.048812
 30
0.0
 10
-2.956899
 20
31.738983
 30
0.0
 10
-3.080416
 20
31.532292
 30
0.0
 10
-3.195668
 20
31.333573
 30
0.0
 10
-3.300131
 20
31.147600
 30
0.0
 10
-3.391281
 20
30.979142
 30
0.0
 10
-3.466592
 20
30.832969
 30
0.0
 10
-3.523544
 20
30.713850
 30
0.0
 10
-3.559604
 20
30.626557
 30
0.0
 10
-3.572259
 20
30.575863
 30
0.0
 10
-3.552484
 20
30.484389
 30
0.0
 10
-3.496971
 20
30.411267
 30
0.0
 10
-3.412526
 20
30.357782
 30
0.0
 10
-3.305954
 20
30.325214
 30
0.0
 10
-3.184065
 20
30.314841
 30
0.0
 10
-3.053659
 20
30.327937
 30
0.0
 10
-2.921545
 20
30.365786
 30
0.0
 10
-2.794523
 20
30.429664
 30
0.0
  0
ENDSEC
  0
SECTION
  2
OBJECTS
  0
DICTIONARY
  5
C
330
0
100
AcDbDictionary
  3
ACAD_GROUP
350
D
  3
ACAD_MLINESTYLE
350
17
  0
DICTIONARY
  5
D
330
C
100
AcDbDictionary
  0
DICTIONARY
  5
1A
330
C
100
AcDbDictionary
  0
DICTIONARY
  5
17
330
C
100
AcDbDictionary
  3
STANDARD
350
18
  0
DICTIONARY
  5
19
330
C
100
AcDbDictionary
  0
ENDSEC
  0
EOF
