<?xml version="1.0" encoding="UTF-8" standalone="no"?>
<!-- Created with Inkscape (http://www.inkscape.org/) -->

<svg
   xmlns:slic3r="http://slic3r.org/namespaces/slic3r"
   xmlns:dc="http://purl.org/dc/elements/1.1/"
   xmlns:cc="http://creativecommons.org/ns#"
   xmlns:rdf="http://www.w3.org/1999/02/22-rdf-syntax-ns#"
   xmlns:svg="http://www.w3.org/2000/svg"
   xmlns="http://www.w3.org/2000/svg"
   xmlns:sodipodi="http://sodipodi.sourceforge.net/DTD/sodipodi-0.dtd"
   xmlns:inkscape="http://www.inkscape.org/namespaces/inkscape"
   width="1800"
   height="1080"
   id="svg3606"
   version="1.1"
   inkscape:version="0.48.4 r9939"
   sodipodi:docname="GearClock4_layers11_12.svg">
  <defs
     id="defs3608" />
  <sodipodi:namedview
     id="base"
     pagecolor="#ffffff"
     bordercolor="#666666"
     borderopacity="1.0"
     inkscape:pageopacity="0.0"
     inkscape:pageshadow="2"
     inkscape:zoom="0.49497475"
     inkscape:cx="1326.3019"
     inkscape:cy="56.335393"
     inkscape:document-units="px"
     inkscape:current-layer="layer1"
     showgrid="false"
     units="in"
     inkscape:window-width="1855"
     inkscape:window-height="1056"
     inkscape:window-x="65"
     inkscape:window-y="24"
     inkscape:window-maximized="1" />
  <metadata
     id="metadata3611">
    <rdf:RDF>
      <cc:Work
         rdf:about="">
        <dc:format>image/svg+xml</dc:format>
        <dc:type
           rdf:resource="http://purl.org/dc/dcmitype/StillImage" />
        <dc:title></dc:title>
      </cc:Work>
    </rdf:RDF>
  </metadata>
  <g
     inkscape:label="Layer 1"
     inkscape:groupmode="layer"
     id="layer1"
     transform="translate(0,27.64025)">
    <path
       transform="matrix(1.4906997,0,0,2.5772313,260.03376,-151.11213)"
       d="m 50.66218,289.46429 a 0.86680394,0.53571427 0 1 1 -1.733608,0 0.86680394,0.53571427 0 1 1 1.733608,0 z"
       sodipodi:ry="0.53571427"
       sodipodi:rx="0.86680394"
       sodipodi:cy="289.46429"
       sodipodi:cx="49.795376"
       id="path7100"
       style="fill:none;stroke:#000000;stroke-width:0.04847284;stroke-miterlimit:4;stroke-opacity:1;stroke-dasharray:none"
       sodipodi:type="arc" />
    <g
       id="g7102"
       transform="translate(131.33446,323.79497)">
      <path
         style="fill:none;stroke:#000000;stroke-width:0.1;stroke-linecap:butt;stroke-linejoin:miter;stroke-miterlimit:4;stroke-opacity:1;stroke-dasharray:none"
         d="m 202.86672,718.00913 -0.99319,0 c -62.81227,0 -124.084741,-32.56989 -186.500023,-27.13281 -39.27465,3.42127 -73.38045,42.77638 -112.39077,37.05945 -13.711697,-2.00943 -34.177297,-23.82393 -34.177297,-23.82393 l 0,-176.0324 -0.0774,-258.52668 c 0,-184.4631 149.5369,-333.99999 334,-333.99998"
         id="path7104"
         inkscape:connector-curvature="0"
         sodipodi:nodetypes="ccsscccc" />
      <path
         sodipodi:nodetypes="ccsscccc"
         inkscape:connector-curvature="0"
         id="path7106"
         d="m 202.99172,718.00913 0.99319,0 c 62.81227,0 124.08474,-32.56989 186.50002,-27.13281 39.27465,3.42127 73.38045,42.77638 112.39077,37.05945 13.7117,-2.00943 34.1773,-23.82393 34.1773,-23.82393 l 0,-176.0324 0.0774,-258.52668 c 0,-184.4631 -149.5369,-333.99999 -334,-333.99998"
         style="fill:none;stroke:#000000;stroke-width:0.1;stroke-linecap:butt;stroke-linejoin:miter;stroke-miterlimit:4;stroke-opacity:1;stroke-dasharray:none" />
    </g>
    <path
       sodipodi:type="arc"
       style="fill:none;stroke:#000000;stroke-width:0.04847284;stroke-miterlimit:4;stroke-opacity:1;stroke-dasharray:none"
       id="path7288"
       sodipodi:cx="49.795376"
       sodipodi:cy="289.46429"
       sodipodi:rx="0.86680394"
       sodipodi:ry="0.53571427"
       d="m 50.66218,289.46429 a 0.86680394,0.53571427 0 1 1 -1.733608,0 0.86680394,0.53571427 0 1 1 1.733608,0 z"
       transform="matrix(1.4906997,0,0,2.5772313,986.27406,-151.11213)" />
    <g
       transform="translate(857.57476,323.79497)"
       id="g7290">
      <path
         sodipodi:nodetypes="ccsscccc"
         inkscape:connector-curvature="0"
         id="path7292"
         d="m 202.86672,718.00913 -0.99319,0 c -62.81227,0 -124.084741,-32.56989 -186.500023,-27.13281 -39.27465,3.42127 -73.38045,42.77638 -112.39077,37.05945 -13.711697,-2.00943 -34.177297,-23.82393 -34.177297,-23.82393 l 0,-176.0324 -0.0774,-258.52668 c 0,-184.4631 149.5369,-333.99999 334,-333.99998"
         style="fill:none;stroke:#000000;stroke-width:0.1;stroke-linecap:butt;stroke-linejoin:miter;stroke-miterlimit:4;stroke-opacity:1;stroke-dasharray:none" />
      <path
         style="fill:none;stroke:#000000;stroke-width:0.1;stroke-linecap:butt;stroke-linejoin:miter;stroke-miterlimit:4;stroke-opacity:1;stroke-dasharray:none"
         d="m 202.99172,718.00913 0.99319,0 c 62.81227,0 124.08474,-32.56989 186.50002,-27.13281 39.27465,3.42127 73.38045,42.77638 112.39077,37.05945 13.7117,-2.00943 34.1773,-23.82393 34.1773,-23.82393 l 0,-176.0324 0.0774,-258.52668 c 0,-184.4631 -149.5369,-333.99999 -334,-333.99998"
         id="path7294"
         inkscape:connector-curvature="0"
         sodipodi:nodetypes="ccsscccc" />
    </g>
    <g
       id="g7467"
       transform="translate(-1192.5009,1238.2188)">
      <path
         transform="matrix(0.8679352,0,0,0.8679352,3230.0518,-866.31105)"
         d="m -868.32712,256.9277 c 0,142.15085 -115.23603,257.38688 -257.38688,257.38688 -142.1508,0 -257.3869,-115.23603 -257.3869,-257.38688 0,-142.15084 115.2361,-257.38686748 257.3869,-257.38686748 142.15085,0 257.38688,115.23602748 257.38688,257.38686748 z"
         sodipodi:ry="257.38687"
         sodipodi:rx="257.38687"
         sodipodi:cy="256.9277"
         sodipodi:cx="-1125.714"
         id="path5592"
         style="fill:none;stroke:#000000;stroke-width:0.11521597;stroke-miterlimit:4;stroke-opacity:1;stroke-dasharray:none"
         sodipodi:type="arc" />
      <g
         id="g5594"
         transform="matrix(-0.91793177,0,0,0.91793177,2709.1432,-1285.261)">
        <text
           inkscape:transform-center-y="-312.715"
           xml:space="preserve"
           style="font-size:24px;font-style:normal;font-variant:normal;font-weight:normal;font-stretch:normal;line-height:125%;letter-spacing:0px;word-spacing:0px;fill:#000000;fill-opacity:1;stroke:none;font-family:cmex10;-inkscape-font-specification:cmex10"
           x="460.25473"
           y="408.36887"
           id="text5596"
           sodipodi:linespacing="125%"><tspan
             sodipodi:role="line"
             id="tspan5598"
             x="460.25473"
             y="408.36887"
             style="font-size:64px;font-style:normal;font-variant:normal;font-weight:500;font-stretch:normal;fill:#000000;fill-opacity:1;stroke:none;font-family:Century Schoolbook L;-inkscape-font-specification:Century Schoolbook L Medium">12</tspan></text>
        <text
           inkscape:transform-center-x="-156.35745"
           transform="matrix(0.8660254,0.5,-0.5,0.8660254,0,0)"
           inkscape:transform-center-y="-270.81911"
           xml:space="preserve"
           style="font-size:24px;font-style:normal;font-variant:normal;font-weight:normal;font-stretch:normal;line-height:125%;letter-spacing:0px;word-spacing:0px;fill:#000000;fill-opacity:1;stroke:none;font-family:cmex10;-inkscape-font-specification:cmex10"
           x="760.99048"
           y="66.066589"
           id="text5600"
           sodipodi:linespacing="125%"><tspan
             sodipodi:role="line"
             id="tspan5602"
             x="760.99048"
             y="66.066589"
             style="font-size:64px;font-style:normal;font-variant:normal;font-weight:500;font-stretch:normal;fill:#000000;fill-opacity:1;stroke:none;font-family:Century Schoolbook L;-inkscape-font-specification:Century Schoolbook L Medium">1</tspan></text>
        <text
           transform="matrix(0.5,0.8660254,-0.8660254,0.5,0,0)"
           inkscape:transform-center-x="-270.81902"
           xml:space="preserve"
           style="font-size:24px;font-style:normal;font-variant:normal;font-weight:normal;font-stretch:normal;line-height:125%;letter-spacing:0px;word-spacing:0px;fill:#000000;fill-opacity:1;stroke:none;font-family:cmex10;-inkscape-font-specification:cmex10"
           x="837.66772"
           y="-370.42645"
           id="text5604"
           sodipodi:linespacing="125%"
           inkscape:transform-center-y="-156.35757"><tspan
             sodipodi:role="line"
             id="tspan5606"
             x="837.66772"
             y="-370.42645"
             style="font-size:64px;font-style:normal;font-variant:normal;font-weight:500;font-stretch:normal;fill:#000000;fill-opacity:1;stroke:none;font-family:Century Schoolbook L;-inkscape-font-specification:Century Schoolbook L Medium">2</tspan></text>
        <text
           inkscape:transform-center-x="-312.71487"
           transform="matrix(0,1,-1,0,0,0)"
           xml:space="preserve"
           style="font-size:24px;font-style:normal;font-variant:normal;font-weight:normal;font-stretch:normal;line-height:125%;letter-spacing:0px;word-spacing:0px;fill:#000000;fill-opacity:1;stroke:none;font-family:cmex10;-inkscape-font-specification:cmex10"
           x="682.88257"
           y="-788.09393"
           id="text5608"
           sodipodi:linespacing="125%"
           inkscape:transform-center-y="-5.5352868e-05"><tspan
             sodipodi:role="line"
             id="tspan5610"
             x="682.88257"
             y="-788.09393"
             style="font-size:64px;font-style:normal;font-variant:normal;font-weight:500;font-stretch:normal;fill:#000000;fill-opacity:1;stroke:none;font-family:Century Schoolbook L;-inkscape-font-specification:Century Schoolbook L Medium">3</tspan></text>
        <text
           inkscape:transform-center-x="-270.81907"
           transform="matrix(-0.5,0.8660254,-0.8660254,-0.5,0,0)"
           xml:space="preserve"
           style="font-size:24px;font-style:normal;font-variant:normal;font-weight:normal;font-stretch:normal;line-height:125%;letter-spacing:0px;word-spacing:0px;fill:#000000;fill-opacity:1;stroke:none;font-family:cmex10;-inkscape-font-specification:cmex10"
           x="340.36508"
           y="-1071.5327"
           id="text5612"
           sodipodi:linespacing="125%"
           inkscape:transform-center-y="156.35751"><tspan
             sodipodi:role="line"
             id="tspan5614"
             x="340.36508"
             y="-1071.5327"
             style="font-size:64px;font-style:normal;font-variant:normal;font-weight:500;font-stretch:normal;fill:#000000;fill-opacity:1;stroke:none;font-family:Century Schoolbook L;-inkscape-font-specification:Century Schoolbook L Medium">4</tspan></text>
        <text
           inkscape:transform-center-x="-156.35761"
           transform="matrix(-0.8660254,0.5,-0.5,-0.8660254,0,0)"
           xml:space="preserve"
           style="font-size:24px;font-style:normal;font-variant:normal;font-weight:normal;font-stretch:normal;line-height:125%;letter-spacing:0px;word-spacing:0px;fill:#000000;fill-opacity:1;stroke:none;font-family:cmex10;-inkscape-font-specification:cmex10"
           x="-97.807549"
           y="-1145.4349"
           id="text5616"
           sodipodi:linespacing="125%"
           inkscape:transform-center-y="270.81917"><tspan
             sodipodi:role="line"
             id="tspan5618"
             x="-97.807549"
             y="-1145.4349"
             style="font-size:64px;font-style:normal;font-variant:normal;font-weight:500;font-stretch:normal;fill:#000000;fill-opacity:1;stroke:none;font-family:Century Schoolbook L;-inkscape-font-specification:Century Schoolbook L Medium">5</tspan></text>
        <text
           inkscape:transform-center-y="312.71502"
           inkscape:transform-center-x="2.9716272e-05"
           transform="scale(-1,-1)"
           xml:space="preserve"
           style="font-size:24px;font-style:normal;font-variant:normal;font-weight:normal;font-stretch:normal;line-height:125%;letter-spacing:0px;word-spacing:0px;fill:#000000;fill-opacity:1;stroke:none;font-family:cmex10;-inkscape-font-specification:cmex10"
           x="-514.32117"
           y="-990.31146"
           id="text5620"
           sodipodi:linespacing="125%"><tspan
             sodipodi:role="line"
             id="tspan5622"
             x="-514.32117"
             y="-990.31146"
             style="font-size:64px;font-style:normal;font-variant:normal;font-weight:500;font-stretch:normal;fill:#000000;fill-opacity:1;stroke:none;font-family:Century Schoolbook L;-inkscape-font-specification:Century Schoolbook L Medium">6</tspan></text>
        <text
           inkscape:transform-center-x="156.35742"
           transform="matrix(-0.8660254,-0.5,0.5,-0.8660254,0,0)"
           xml:space="preserve"
           style="font-size:24px;font-style:normal;font-variant:normal;font-weight:normal;font-stretch:normal;line-height:125%;letter-spacing:0px;word-spacing:0px;fill:#000000;fill-opacity:1;stroke:none;font-family:cmex10;-inkscape-font-specification:cmex10"
           x="-797.80145"
           y="-648.57758"
           id="text5624"
           sodipodi:linespacing="125%"
           inkscape:transform-center-y="270.81913"><tspan
             sodipodi:role="line"
             id="tspan5626"
             x="-797.80145"
             y="-648.57758"
             style="font-size:64px;font-style:normal;font-variant:normal;font-weight:500;font-stretch:normal;fill:#000000;fill-opacity:1;stroke:none;font-family:Century Schoolbook L;-inkscape-font-specification:Century Schoolbook L Medium">7</tspan></text>
        <text
           inkscape:transform-center-y="156.35743"
           inkscape:transform-center-x="270.81908"
           transform="matrix(-0.5,-0.8660254,0.8660254,-0.5,0,0)"
           xml:space="preserve"
           style="font-size:24px;font-style:normal;font-variant:normal;font-weight:normal;font-stretch:normal;line-height:125%;letter-spacing:0px;word-spacing:0px;fill:#000000;fill-opacity:1;stroke:none;font-family:cmex10;-inkscape-font-specification:cmex10"
           x="-871.66669"
           y="-210.48135"
           id="text5628"
           sodipodi:linespacing="125%"><tspan
             sodipodi:role="line"
             id="tspan5630"
             x="-871.66669"
             y="-210.48135"
             style="font-size:64px;font-style:normal;font-variant:normal;font-weight:500;font-stretch:normal;fill:#000000;fill-opacity:1;stroke:none;font-family:Century Schoolbook L;-inkscape-font-specification:Century Schoolbook L Medium">8</tspan></text>
        <text
           transform="matrix(0,-1,1,0,0,0)"
           inkscape:transform-center-x="312.715"
           xml:space="preserve"
           style="font-size:24px;font-style:normal;font-variant:normal;font-weight:normal;font-stretch:normal;line-height:125%;letter-spacing:0px;word-spacing:0px;fill:#000000;fill-opacity:1;stroke:none;font-family:cmex10;-inkscape-font-specification:cmex10"
           x="-717.03986"
           y="205.7451"
           id="text5632"
           sodipodi:linespacing="125%"
           inkscape:transform-center-y="-4.0510994e-05"><tspan
             sodipodi:role="line"
             id="tspan5634"
             x="-717.03986"
             y="205.7451"
             style="font-size:64px;font-style:normal;font-variant:normal;font-weight:500;font-stretch:normal;fill:#000000;fill-opacity:1;stroke:none;font-family:Century Schoolbook L;-inkscape-font-specification:Century Schoolbook L Medium">9</tspan></text>
        <text
           inkscape:transform-center-x="156.35748"
           transform="matrix(0.8660254,-0.5,0.5,0.8660254,0,0)"
           sodipodi:linespacing="125%"
           id="text5636"
           y="563.24432"
           x="44.478233"
           style="font-size:24px;font-style:normal;font-variant:normal;font-weight:normal;font-stretch:normal;line-height:125%;letter-spacing:0px;word-spacing:0px;fill:#000000;fill-opacity:1;stroke:none;font-family:cmex10;-inkscape-font-specification:cmex10"
           xml:space="preserve"
           inkscape:transform-center-y="-270.81912"><tspan
             style="font-size:64px;font-style:normal;font-variant:normal;font-weight:500;font-stretch:normal;fill:#000000;fill-opacity:1;stroke:none;font-family:Century Schoolbook L;-inkscape-font-specification:Century Schoolbook L Medium"
             y="563.24432"
             x="44.478233"
             id="tspan5638"
             sodipodi:role="line">11</tspan></text>
        <text
           transform="matrix(0.5,-0.8660254,0.8660254,0.5,0,0)"
           inkscape:transform-center-x="270.81924"
           inkscape:transform-center-y="-156.59747"
           xml:space="preserve"
           style="font-size:24px;font-style:normal;font-variant:normal;font-weight:normal;font-stretch:normal;line-height:125%;letter-spacing:0px;word-spacing:0px;fill:#000000;fill-opacity:1;stroke:none;font-family:cmex10;-inkscape-font-specification:cmex10"
           x="-394.27377"
           y="489.40491"
           id="text5640"
           sodipodi:linespacing="125%"><tspan
             sodipodi:role="line"
             id="tspan5642"
             x="-394.27377"
             y="489.40491"
             style="font-size:64px;font-style:normal;font-variant:normal;font-weight:500;font-stretch:normal;fill:#000000;fill-opacity:1;stroke:none;font-family:Century Schoolbook L;-inkscape-font-specification:Century Schoolbook L Medium">10</tspan></text>
      </g>
      <path
         sodipodi:type="arc"
         style="fill:none;stroke:#000000;stroke-width:0.1;stroke-miterlimit:4;stroke-opacity:1;stroke-dasharray:none"
         id="path5646"
         sodipodi:cx="-1152"
         sodipodi:cy="442"
         sodipodi:rx="334"
         sodipodi:ry="334"
         d="m -818,442 c 0,184.46311 -149.53689,334 -334,334 -184.4631,0 -334,-149.53689 -334,-334 0,-184.46311 149.5369,-334 334,-334 184.46311,0 334,149.53689 334,334 z"
         transform="translate(3405.005,-1085.3145)" />
    </g>
    <g
       transform="translate(1390.4309,323.79497)"
       id="g7976">
      <path
         inkscape:transform-center-x="321.41046"
         transform="matrix(0,-0.56052315,0.56052315,0,-1487.4401,-138.63307)"
         d="m -720,196 c 0,6.07513 -4.92487,11 -11,11 -6.07513,0 -11,-4.92487 -11,-11 0,-6.07513 4.92487,-11 11,-11 6.07513,0 11,4.92487 11,11 z"
         sodipodi:ry="11"
         sodipodi:rx="11"
         sodipodi:cy="196"
         sodipodi:cx="-731"
         id="path7978"
         style="fill:none;stroke:#000000;stroke-width:0.17840476;stroke-miterlimit:4;stroke-opacity:1;stroke-dasharray:none"
         sodipodi:type="arc" />
      <path
         inkscape:transform-center-x="-321.41046"
         transform="matrix(0,0.56052315,-0.56052315,0,-624.89412,680.85178)"
         d="m -720,196 c 0,6.07513 -4.92487,11 -11,11 -6.07513,0 -11,-4.92487 -11,-11 0,-6.07513 4.92487,-11 11,-11 6.07513,0 11,4.92487 11,11 z"
         sodipodi:ry="11"
         sodipodi:rx="11"
         sodipodi:cy="196"
         sodipodi:cx="-731"
         id="path7980"
         style="fill:none;stroke:#000000;stroke-width:0.17840476;stroke-miterlimit:4;stroke-opacity:1;stroke-dasharray:none"
         sodipodi:type="arc" />
      <path
         inkscape:transform-center-y="-321.41046"
         sodipodi:type="arc"
         style="fill:none;stroke:#000000;stroke-width:0.17840476;stroke-miterlimit:4;stroke-opacity:1;stroke-dasharray:none"
         id="path7982"
         sodipodi:cx="-731"
         sodipodi:cy="196"
         sodipodi:rx="11"
         sodipodi:ry="11"
         d="m -720,196 c 0,6.07513 -4.92487,11 -11,11 -6.07513,0 -11,-4.92487 -11,-11 0,-6.07513 4.92487,-11 11,-11 6.07513,0 11,4.92487 11,11 z"
         transform="matrix(0.56052315,0,0,0.56052315,-646.4247,-160.16364)" />
      <path
         sodipodi:type="arc"
         style="fill:none;stroke:#000000;stroke-width:0.17840476;stroke-miterlimit:4;stroke-opacity:1;stroke-dasharray:none"
         id="path7984"
         sodipodi:cx="-731"
         sodipodi:cy="196"
         sodipodi:rx="11"
         sodipodi:ry="11"
         d="m -720,196 c 0,6.07513 -4.92487,11 -11,11 -6.07513,0 -11,-4.92487 -11,-11 0,-6.07513 4.92487,-11 11,-11 6.07513,0 11,4.92487 11,11 z"
         transform="matrix(0,-0.56052315,0.56052315,0,-1453.499,279.97414)"
         inkscape:transform-center-x="321.41046" />
      <path
         inkscape:transform-center-x="-321.41046"
         transform="matrix(0,-0.56052315,-0.56052315,0,-658.7582,279.97414)"
         d="m -720,196 c 0,6.07513 -4.92487,11 -11,11 -6.07513,0 -11,-4.92487 -11,-11 0,-6.07513 4.92487,-11 11,-11 6.07513,0 11,4.92487 11,11 z"
         sodipodi:ry="11"
         sodipodi:rx="11"
         sodipodi:cy="196"
         sodipodi:cx="-731"
         id="path7986"
         style="fill:none;stroke:#000000;stroke-width:0.17840476;stroke-miterlimit:4;stroke-opacity:1;stroke-dasharray:none"
         sodipodi:type="arc" />
    </g>
    <g
       id="g7988"
       transform="translate(2116.6712,323.79497)">
      <path
         sodipodi:type="arc"
         style="fill:none;stroke:#000000;stroke-width:0.17840476;stroke-miterlimit:4;stroke-opacity:1;stroke-dasharray:none"
         id="path7990"
         sodipodi:cx="-731"
         sodipodi:cy="196"
         sodipodi:rx="11"
         sodipodi:ry="11"
         d="m -720,196 c 0,6.07513 -4.92487,11 -11,11 -6.07513,0 -11,-4.92487 -11,-11 0,-6.07513 4.92487,-11 11,-11 6.07513,0 11,4.92487 11,11 z"
         transform="matrix(0,-0.56052315,0.56052315,0,-1487.4401,-138.63307)"
         inkscape:transform-center-x="321.41046" />
      <path
         sodipodi:type="arc"
         style="fill:none;stroke:#000000;stroke-width:0.17840476;stroke-miterlimit:4;stroke-opacity:1;stroke-dasharray:none"
         id="path7992"
         sodipodi:cx="-731"
         sodipodi:cy="196"
         sodipodi:rx="11"
         sodipodi:ry="11"
         d="m -720,196 c 0,6.07513 -4.92487,11 -11,11 -6.07513,0 -11,-4.92487 -11,-11 0,-6.07513 4.92487,-11 11,-11 6.07513,0 11,4.92487 11,11 z"
         transform="matrix(0,0.56052315,-0.56052315,0,-624.89412,680.85178)"
         inkscape:transform-center-x="-321.41046" />
      <path
         transform="matrix(0.56052315,0,0,0.56052315,-646.4247,-160.16364)"
         d="m -720,196 c 0,6.07513 -4.92487,11 -11,11 -6.07513,0 -11,-4.92487 -11,-11 0,-6.07513 4.92487,-11 11,-11 6.07513,0 11,4.92487 11,11 z"
         sodipodi:ry="11"
         sodipodi:rx="11"
         sodipodi:cy="196"
         sodipodi:cx="-731"
         id="path7994"
         style="fill:none;stroke:#000000;stroke-width:0.17840476;stroke-miterlimit:4;stroke-opacity:1;stroke-dasharray:none"
         sodipodi:type="arc"
         inkscape:transform-center-y="-321.41046" />
      <path
         inkscape:transform-center-x="321.41046"
         transform="matrix(0,-0.56052315,0.56052315,0,-1453.499,279.97414)"
         d="m -720,196 c 0,6.07513 -4.92487,11 -11,11 -6.07513,0 -11,-4.92487 -11,-11 0,-6.07513 4.92487,-11 11,-11 6.07513,0 11,4.92487 11,11 z"
         sodipodi:ry="11"
         sodipodi:rx="11"
         sodipodi:cy="196"
         sodipodi:cx="-731"
         id="path7996"
         style="fill:none;stroke:#000000;stroke-width:0.17840476;stroke-miterlimit:4;stroke-opacity:1;stroke-dasharray:none"
         sodipodi:type="arc" />
      <path
         sodipodi:type="arc"
         style="fill:none;stroke:#000000;stroke-width:0.17840476;stroke-miterlimit:4;stroke-opacity:1;stroke-dasharray:none"
         id="path7998"
         sodipodi:cx="-731"
         sodipodi:cy="196"
         sodipodi:rx="11"
         sodipodi:ry="11"
         d="m -720,196 c 0,6.07513 -4.92487,11 -11,11 -6.07513,0 -11,-4.92487 -11,-11 0,-6.07513 4.92487,-11 11,-11 6.07513,0 11,4.92487 11,11 z"
         transform="matrix(0,-0.56052315,-0.56052315,0,-658.7582,279.97414)"
         inkscape:transform-center-x="-321.41046" />
    </g>
    <path
       transform="matrix(1.4906997,0,0,2.5772313,260.03376,-151.11213)"
       d="m 50.66218,289.46429 a 0.86680394,0.53571427 0 1 1 -1.733608,0 0.86680394,0.53571427 0 1 1 1.733608,0 z"
       sodipodi:ry="0.53571427"
       sodipodi:rx="0.86680394"
       sodipodi:cy="289.46429"
       sodipodi:cx="49.795376"
       id="path6196"
       style="fill:#ff0000;stroke:#000000;stroke-width:0.04847284;stroke-miterlimit:4;stroke-opacity:1;stroke-dasharray:none"
       sodipodi:type="arc" />
    <polygon
       transform="matrix(3.54331,0,0,3.54331,80.91706,341.55767)"
       slic3r:type="hole"
       points="72.228558,7.127296 70.771442,7.127296 70.763041,7.109609 70.758001,7.099001 70.662374,6.905248 70.605,6.789 70.504375,6.591497 70.444,6.473 70.338375,6.271129 70.275001,6.150001 70.16375,5.944376 70.097,5.821 69.981374,5.612872 69.912001,5.488001 69.790751,5.275497 69.718,5.148 69.5905,4.932376 69.514,4.803 69.381501,4.584249 69.302001,4.453001 69.163874,4.231128 69.081001,4.098001 68.851001,3.738 68.129124,3.772377 67.696,3.793 67.574125,4.030504 67.501001,4.173 67.384749,4.406752 67.314999,4.547 67.217363,4.749405 67.137003,4.916 67.030751,5.142872 66.967,5.279001 66.866375,5.502128 66.806,5.636001 66.710375,5.854128 66.653,5.985001 66.56175,6.200625 66.507001,6.33 66.370001,6.667 66.288748,6.873249 66.239997,6.997 66.169205,7.182872 66.126732,7.294401 65.204536,7.410905 64.65122,7.4808 64.644208,7.469048 64.640001,7.462001 64.526248,7.277624 64.458,7.167 64.338624,6.979496 64.267001,6.867001 64.143248,6.677 64.069001,6.563001 63.938376,6.368624 63.86,6.252 63.725625,6.055753 63.645,5.938 63.503749,5.738001 63.419,5.618 63.2715,5.415496 63.183001,5.294001 63.030501,5.088377 62.939,4.965 62.780249,4.757497 62.685001,4.633001 62.520624,4.423 62.422001,4.297 61.706377,4.399504 61.277,4.461 61.178248,4.709129 61.119001,4.858 61.025248,5.101753 60.969001,5.248 60.880248,5.488001 60.827001,5.632 60.743248,5.867625 60.693001,6.009 60.613624,6.240873 60.566001,6.38 60.492249,6.606872 60.448,6.743001 60.377377,6.965504 60.335001,7.099 60.27,7.317129 60.231001,7.448 60.169124,7.661129 60.132001,7.789 60.085688,7.959065 60.0579,8.061096 59.655405,8.111976 59.413905,8.142504 58.937895,8.264695 58.937895,8.264694 58.552601,8.3636 58.441601,8.216353 58.375001,8.128001 58.238124,7.953 58.156001,7.848001 58.014748,7.669872 57.93,7.563 57.781876,7.382376 57.693,7.274 57.539876,7.090872 57.448,6.981 57.288625,6.795377 57.193,6.684 57.027376,6.496496 56.928001,6.384001 56.756124,6.194 56.653001,6.080001 56.475501,5.888753 56.369,5.774 56.185249,5.580249 56.075,5.464 55.334378,5.643884 54.951001,5.737 54.886503,5.957365 54.831001,6.147 54.761,6.398249 54.719001,6.549 54.653996,6.796505 54.614997,6.945 54.553124,7.187505 54.516001,7.333 54.459752,7.571129 54.426004,7.714009 54.3735,7.947137 54.342,8.087009 54.293249,8.31512 54.264,8.451992 54.219625,8.67512 54.193,8.809001 54.152376,9.027129 54.128001,9.158 54.090501,9.371128 54.068001,9.499 54.066313,9.509504 54.0653,9.5158 53.160048,9.748177 52.616897,9.887601 52.487584,9.747216 52.41,9.662992 52.2575,9.50112 52.166,9.404 52.0085,9.240248 51.914001,9.142001 51.749,8.976376 51.650001,8.877001 51.480624,8.709496 51.378997,8.609001 51.202125,8.439009 51.096,8.337008 50.9135,8.166376 50.804,8.063992 50.615249,7.891489 50.502,7.787992 50.307005,7.613625 50.190004,7.509 49.988129,7.334625 49.867,7.230001 49.1845,7.466249 48.775,7.608 48.725001,7.869872 48.695,8.027001 48.638206,8.343218 48.621004,8.438993 48.579753,8.691496 48.555001,8.843 48.516877,9.089872 48.494,9.238001 48.460253,9.480504 48.440005,9.626 48.41,9.862881 48.392001,10.005008 48.365124,10.236881 48.349,10.376001 48.325877,10.602248 48.312,10.738001 48.292001,10.959248 48.28,11.091992 48.263749,11.307624 48.253997,11.437 48.252684,11.457561 48.2519,11.469896 47.404589,11.8054 46.896204,12.006696 46.883576,11.995008 46.876001,11.988001 46.715376,11.843624 46.619,11.757 46.451496,11.610744 46.350996,11.522992 46.1785,11.375496 46.075001,11.287001 45.895004,11.137 45.787005,11.047001 45.602628,10.896376 45.492,10.806 45.300124,10.654128 45.184997,10.563001 44.986873,10.410497 44.868,10.319 44.663624,10.164624 44.541,10.072 44.330376,9.917624 44.204005,9.825001 43.986504,9.669992 43.856004,9.576992 43.199129,9.877 42.805,10.057 42.779377,10.322624 42.764,10.481993 42.743377,10.742624 42.731004,10.899001 42.713501,11.154 42.703,11.307001 42.688625,11.557 42.68,11.707001 42.669377,11.951376 42.663004,12.098001 42.655501,12.336752 42.651,12.480001 42.646625,12.713752 42.643996,12.854001 42.642748,13.080873 42.642,13.216993 42.642372,13.350496 42.642996,13.573 42.645508,13.696192 42.6497,13.901505 41.838201,14.347568 41.3513,14.6152 41.337989,14.605073 41.33,14.599 41.156249,14.470257 41.052,14.393008 40.872001,14.263001 40.764,14.185 40.577748,14.054376 40.466,13.976 40.273501,13.844129 40.158,13.765 39.959249,13.633129 39.84,13.554 39.635001,13.420249 39.512,13.34 39.300125,13.206873 39.173,13.127 38.954877,12.993249 38.824,12.912992 38.599624,12.779248 38.465001,12.699009 38.233748,12.565256 38.095,12.485 37.469376,12.846249 37.094,13.063 37.094,13.490008 37.096249,13.646761 37.1,13.908008 37.104124,14.061376 37.111,14.317001 37.116624,14.467 37.126,14.716992 37.133876,14.863992 37.147,15.109 37.156001,15.251497 37.171,15.489 37.181876,15.628872 37.200001,15.862001 37.212,15.997752 37.232,16.224 37.2455,16.356752 37.268001,16.578001 37.279288,16.67756 37.2981,16.843488 37.073788,16.966809 36.939201,17.0408 36.368264,17.455681 36.0257,17.704608 35.860888,17.60548 35.762001,17.546009 35.570125,17.434137 35.455,17.367008 35.2575,17.254504 35.139,17.187 34.934005,17.073873 34.811004,17.006 34.601,16.892872 34.475,16.825 34.258125,16.711873 34.128001,16.644001 33.904253,16.531505 33.770004,16.464008 33.540629,16.351505 33.403,16.284 33.166749,16.172121 33.025001,16.104993 32.782496,15.994368 32.637,15.928 32.048249,16.346752 31.695,16.598 31.710377,16.757369 31.736,17.022992 31.753249,17.178993 31.782001,17.438993 31.800752,17.591248 31.832001,17.845001 31.851872,17.99388 31.884992,18.242008 31.906369,18.387129 31.942001,18.629001 31.964872,18.770376 32.003001,19.006001 32.026624,19.144 32.066,19.374 32.091121,19.508249 32.132992,19.731992 32.158865,19.862873 32.201992,20.081 32.228992,20.207744 32.274,20.418992 32.274825,20.422633 32.2762,20.428696 31.515448,20.981449 31.059,21.313096 30.894001,21.234289 30.795,21.187 30.593128,21.093872 30.472001,21.037993 30.265129,20.944873 30.141,20.889 29.926632,20.79588 29.798009,20.740009 29.578001,20.647497 29.446,20.591992 29.219128,20.50012 29.083,20.445 28.849873,20.354377 28.71,20.3 28.470616,20.21 28.326992,20.156 28.080745,20.066625 27.933,20.013 27.681129,19.925497 27.53,19.873 26.966522,20.361052 26.656,20.630009 26.686753,20.787129 26.738,21.048992 26.769873,21.202745 26.823,21.459 26.856001,21.609001 26.910993,21.859001 26.953671,22.043927 27.001001,22.249001 27.045628,22.429414 27.095001,22.629001 27.131376,22.767376 27.192,22.998 27.228752,23.133376 27.29,23.359 27.327497,23.490249 27.390001,23.709001 27.428256,23.836496 27.492008,24.048992 27.531009,24.172745 27.596001,24.379001 27.600048,24.391336 27.6068,24.411896 26.976923,25.003424 26.5426,25.411304 26.529096,25.406112 26.521,25.403 26.318497,25.328625 26.197,25.284 25.987,25.210248 25.861001,25.166001 25.646,25.092872 25.517,25.048992 25.294497,24.977121 25.160992,24.934 24.933496,24.862752 24.797001,24.820001 24.562625,24.750001 24.422001,24.708001 24.181376,24.639872 24.037001,24.599001 23.789496,24.532128 23.641,24.492008 23.388497,24.427001 23.237,24.388 22.977625,24.324873 22.822001,24.287 22.323248,24.809505 22.024,25.123 22.069376,25.276752 22.145008,25.533008 22.191137,25.682633 22.268008,25.932 22.315257,26.078249 22.394,26.322 22.441625,26.464497 22.521001,26.701993 22.569752,26.840368 22.651001,27.071001 22.700128,27.205624 22.782001,27.430001 22.831497,27.560873 22.914,27.779 22.963872,27.906128 23.047001,28.118001 23.097249,28.241377 23.181,28.447 23.230272,28.564336 23.3124,28.759905 22.725336,29.469529 22.373104,29.895304 22.354288,29.890112 22.343001,29.887001 22.134248,29.832624 22.009,29.8 21.793376,29.746256 21.664001,29.714009 21.442752,29.662128 21.310001,29.631001 21.081872,29.580376 20.945001,29.550001 20.711872,29.500624 20.572,29.471 20.331377,29.423505 20.187,29.395008 19.940753,29.350633 19.793001,29.324009 19.541128,29.280256 19.390001,29.254001 19.13188,29.213368 18.977008,29.188992 18.712625,29.150873 18.554,29.128 18.107753,29.695496 17.84,30.035993 17.899624,30.184872 17.999,30.433 18.059376,30.577376 18.16,30.818001 18.220753,30.959001 18.322,31.194 18.383129,31.331249 18.485,31.56 18.546497,31.693497 18.649,31.916 18.710497,32.045001 18.813001,32.259993 18.874872,32.385992 18.978001,32.596001 19.03988,32.717496 19.143008,32.92 19.204505,33.038125 19.307001,33.235001 19.351888,33.318212 19.426696,33.456901 19.359017,33.538776 19.318408,33.587901 18.5842,34.744796 18.3872,34.712424 18.269001,34.693001 18.049625,34.660501 17.918,34.641 17.692376,34.609752 17.557001,34.591005 17.325128,34.562252 17.186009,34.545001 16.949129,34.518749 16.807,34.503 16.563248,34.478628 16.417001,34.464004 16.167633,34.442753 16.018009,34.430001 15.763,34.410628 15.61,34.399004 15.349369,34.382753 15.192992,34.373 14.92612,34.359876 14.766,34.352004 14.375377,34.960124 14.141,35.324996 14.214505,35.467121 14.337009,35.703997 14.41088,35.842372 14.534001,36.073001 14.608248,36.207624 14.731992,36.432 14.805497,36.562501 14.928001,36.780001 15.002248,36.907124 15.126001,37.119001 15.199496,37.241624 15.322,37.446 15.395505,37.565249 15.518009,37.764001 15.591128,37.879124 15.713001,38.071001 15.785376,38.182748 15.906001,38.369001 16.098,38.657 16.098673,38.657977 16.0998,38.6596 15.592857,39.458412 15.288696,39.9377 15.115137,39.926637 15.011,39.92 14.789128,39.908124 14.656001,39.901001 14.429129,39.891625 14.293001,39.886001 14.059248,39.879124 13.919,39.875 13.680873,39.871249 13.537993,39.869 13.293,39.867748 13.146001,39.867 12.896001,39.869504 12.746001,39.871004 12.489753,39.876624 12.336001,39.879996 12.075377,39.888748 11.919,39.893997 11.652129,39.905876 11.492008,39.913004 11.160761,40.5555 10.962008,40.941 11.049009,41.075625 11.194,41.3 11.280624,41.4305 11.425001,41.648005 11.511248,41.775128 11.655,41.987 11.740873,42.110001 11.884,42.315004 11.969872,42.434252 12.113,42.633 12.197752,42.748128 12.339009,42.940005 12.423752,43.052128 12.565001,43.239001 12.648624,43.346624 12.787992,43.526 12.870873,43.630249 13.009,43.804 13.090753,43.904501 13.227008,44.072 13.235664,44.082276 13.250097,44.0994 12.861153,44.9259 12.627792,45.4218 12.617297,45.421924 12.611001,45.422 12.394752,45.428253 12.265001,45.432 12.043128,45.442001 11.910001,45.448 11.683129,45.459876 11.547,45.467001 11.313873,45.482624 11.173992,45.492 10.936496,45.510753 10.794001,45.522 10.549624,45.543877 10.403001,45.557 10.154256,45.583253 10.005009,45.599 9.751256,45.629001 9.599,45.647001 9.339625,45.680124 9.184,45.700001 8.919624,45.738125 8.761,45.761 8.492873,46.431624 8.332,46.834001 8.431,46.959624 8.596001,47.169001 8.694625,47.290877 8.859,47.494 8.957249,47.612125 9.121001,47.809001 9.218128,47.923376 9.380009,48.114001 9.476752,48.224624 9.638001,48.409001 9.733248,48.5155 9.892,48.693 9.986881,48.796501 10.145008,48.969 10.23876,49.068 10.395009,49.233001 10.487256,49.329 10.641,49.489 10.732129,49.581249 10.884,49.735 10.884673,49.735677 10.8858,49.736801 10.601993,50.6103 10.431704,51.1344 10.411265,51.136652 10.399001,51.138 10.184625,51.164876 10.056,51.181001 9.835992,51.211625 9.703993,51.23 9.479,51.263753 9.344,51.284001 9.113377,51.3215 8.975001,51.344 8.740001,51.385252 8.599,51.410001 8.358377,51.455004 8.214008,51.482005 7.969,51.532001 7.822,51.562001 7.571377,51.615752 7.421001,51.648004 7.166624,51.706125 7.014,51.740997 6.754624,51.803501 6.599001,51.841 6.395248,52.534125 6.273,52.95 6.383625,53.065877 6.568,53.259004 6.677873,53.370753 6.861,53.557 6.969753,53.665377 7.151001,53.846001 7.258624,53.950624 7.438,54.125 7.544873,54.225873 7.723,54.393996 7.828,54.491124 8.003,54.653 8.107248,54.746748 8.281001,54.903001 8.383752,54.993 8.555001,55.142997 8.655881,55.229625 8.824009,55.374001 8.894768,55.433064 9.012696,55.5315 8.832632,56.475253 8.7246,57.0415 8.522976,57.086813 8.402,57.114001 8.186377,57.165252 8.057,57.196001 7.836368,57.251001 7.703993,57.284 7.477744,57.343373 7.342,57.378997 7.112,57.442125 6.974001,57.48 6.739,57.548125 6.598,57.589001 6.358625,57.6615 6.215001,57.705 5.970625,57.782504 5.824,57.829005 5.575873,57.910876 5.427,57.960001 5.175129,58.046876 5.024,58.099 4.887129,58.808376 4.805,59.234 4.926128,59.338624 5.128001,59.513001 5.248,59.614248 5.448001,59.783001 5.566497,59.880125 5.764001,60.042001 5.881376,60.136124 6.077001,60.293001 6.192873,60.383377 6.386001,60.534001 6.499624,60.620624 6.689,60.765 6.801872,60.848248 6.990001,60.987001 7.100624,61.066876 7.285001,61.200001 7.393752,61.276876 7.575001,61.405001 7.680225,61.476997 7.855601,61.596988 7.676977,62.533288 7.5698,63.095068 7.414296,63.146277 7.321,63.177001 7.110376,63.248253 6.984001,63.291 6.769624,63.366625 6.641,63.412001 6.421625,63.492624 6.29,63.541001 6.067496,63.626001 5.934001,63.677 5.705872,63.767001 5.569,63.821001 5.337752,63.916625 5.199001,63.974 4.963376,64.074001 4.822001,64.134 4.653237,64.20822 4.440001,64.302 4.196872,64.412625 4.051001,64.479 3.982248,65.198377 3.941,65.630001 4.071496,65.722624 4.289001,65.877001 4.418001,65.966249 4.633001,66.114997 4.760496,66.200496 4.973001,66.343001 5.098624,66.4255 5.308001,66.563001 5.431752,66.64175 5.638001,66.772999 5.759497,66.848375 5.962,66.974 6.082376,67.046374 6.283,67.167 6.400753,67.236001 6.597,67.350998 6.712497,67.416999 6.905,67.527 7.208,67.694 7.2194,67.700108 7.2384,67.71029 7.180896,68.624529 7.1464,69.17307 7.140529,69.175526 7.137,69.177001 6.938873,69.26325 6.82,69.315001 6.617497,69.40625 6.496,69.461001 6.289753,69.556626 6.166,69.614001 5.955377,69.71525 5.829,69.776001 5.615249,69.881626 5.487001,69.945 5.268872,70.056251 5.138,70.123001 4.916753,70.239876 4.784,70.310001 4.559001,70.431876 4.424,70.505001 4.195872,70.632501 4.059001,70.709 3.827753,70.842126 3.689,70.922001 3.689,72.078 3.827753,72.157875 4.059001,72.291001 4.195872,72.3675 4.424,72.495 4.559001,72.568125 4.784,72.69 4.916753,72.760125 5.138,72.877 5.268872,72.94375 5.487001,73.055001 5.615249,73.118375 5.829,73.224 5.955376,73.28475 6.166,73.386 6.289753,73.443375 6.496,73.539 6.617497,73.593751 6.82,73.685 6.938873,73.736751 7.137,73.823 7.140529,73.824475 7.1464,73.82693 7.180896,74.375472 7.2384,75.28971 7.2194,75.299893 7.208,75.306001 6.905,75.473001 6.712497,75.583 6.597001,75.649 6.400752,75.764001 6.283,75.833001 6.082376,75.953627 5.962,76.026001 5.759497,76.151626 5.638001,76.227002 5.431752,76.358251 5.308001,76.437 5.098624,76.574501 4.973001,76.657 4.760496,76.799501 4.633001,76.885 4.418001,77.033752 4.289001,77.123002 4.071496,77.277375 3.941,77.369998 3.982248,77.801624 4.051,78.521 4.267439,78.619483 4.440001,78.698001 4.583248,78.761 4.822,78.866002 4.963377,78.926003 5.199,79.026 5.337753,79.083375 5.569,79.179 5.705872,79.233 5.934001,79.323001 6.067496,79.374 6.29,79.459 6.388939,79.495363 6.388939,79.495364 6.641,79.588002 6.769624,79.633376 6.984,79.709 7.110377,79.751751 7.321001,79.823001 7.414297,79.853725 7.5698,79.90493 7.676976,80.46671 7.8556,81.403012 7.680225,81.523006 7.575001,81.595002 7.393752,81.723127 7.285001,81.8 7.100625,81.933126 6.990001,82.013 6.801872,82.151751 6.689,82.235001 6.499625,82.379376 6.386001,82.466 6.192872,82.616627 6.077001,82.707 5.881376,82.863877 5.764001,82.958 5.566497,83.119876 5.448001,83.217 5.128,83.487001 4.926128,83.661375 4.805,83.765999 4.887128,84.191624 5.024,84.901 5.175129,84.953126 5.427,85.04 5.575873,85.089126 5.824001,85.171001 5.970625,85.217501 6.215,85.295001 6.358624,85.338501 6.598001,85.411001 6.739,85.451875 6.974001,85.520002 7.112,85.557876 7.342,85.621 7.477744,85.656625 7.703993,85.716001 7.836368,85.749 8.057001,85.804001 8.186376,85.83475 8.402,85.886 8.522976,85.913187 8.7246,85.9585 8.832632,86.52475 9.012696,87.4685 8.894769,87.566937 8.824008,87.626 8.65588,87.770376 8.555001,87.857 8.383752,88.007001 8.281001,88.097 8.107248,88.253251 8.003001,88.347 7.828001,88.508876 7.723,88.606002 7.544873,88.774125 7.438,88.875001 7.258624,89.049375 7.151001,89.153999 6.969753,89.334625 6.861001,89.443001 6.677872,89.629251 6.568,89.741 6.383625,89.934124 6.273,90.05 6.395248,90.465874 6.599,91.159 6.754624,91.1965 7.014,91.259001 7.166624,91.293875 7.421001,91.352 7.571376,91.384249 7.822001,91.438001 7.969001,91.468001 8.214008,91.518 8.358376,91.545 8.599001,91.590001 8.975001,91.656001 9.113376,91.6785 9.344,91.716 9.479001,91.736251 9.703992,91.770001 9.792972,91.782388 10.056,91.819 10.184624,91.835125 10.399001,91.862001 10.411265,91.863351 10.431704,91.865601 10.601992,92.389701 10.8858,93.263201 10.884673,93.264325 10.884,93.265001 10.732129,93.41875 10.641001,93.511 10.487257,93.671 10.395009,93.767 10.23876,93.932001 10.145008,94.031001 9.986881,94.2035 9.892001,94.306999 9.733248,94.484501 9.638001,94.591 9.476752,94.775376 9.380009,94.886 9.121001,95.191 8.957248,95.387877 8.859,95.506002 8.694625,95.709125 8.596001,95.831 8.431,96.040376 8.332,96.166001 8.492872,96.568375 8.761,97.239001 8.919625,97.261876 9.184,97.3 9.339625,97.319876 9.599,97.353001 9.751256,97.371 10.005009,97.401 10.154257,97.416751 10.403,97.443001 10.549625,97.456127 10.794,97.478001 10.936497,97.489252 11.173992,97.508 11.313873,97.517376 11.547,97.533001 11.683129,97.540127 11.91,97.552 12.043128,97.558001 12.265,97.568001 12.394753,97.571751 12.611,97.577999 12.617297,97.578076 12.627792,97.578202 12.861152,98.074101 13.250097,98.900601 13.235664,98.917726 13.227008,98.928001 13.090753,99.0955 13.009,99.196001 12.870873,99.369751 12.787993,99.474001 12.648624,99.653377 12.565001,99.761 12.423753,99.947875 12.339009,100.06 12.197752,100.25187 12.113001,100.367 11.969872,100.56575 11.884001,100.685 11.740873,100.89 11.655,101.013 11.511249,101.22487 11.425,101.352 11.280625,101.5695 11.194,101.7 11.049008,101.92437 10.962009,102.059 11.16076,102.4445 11.492009,103.087 11.652129,103.09413 11.919,103.106 12.126951,103.11298 12.336001,103.12 12.489753,103.12337 12.746,103.129 13.146001,103.133 13.293,103.13225 13.537992,103.131 13.680873,103.12875 13.919,103.125 14.059248,103.12087 14.293001,103.114 14.429128,103.10837 14.656001,103.099 14.789129,103.09187 15.011,103.08 15.115137,103.07336 15.288696,103.0623 15.592856,103.54159 16.0998,104.3404 16.098672,104.34202 16.098,104.343 15.978001,104.523 15.906001,104.631 15.785377,104.81725 15.713001,104.929 15.591129,105.12087 15.518008,105.236 15.395505,105.43475 15.322,105.554 15.199496,105.75838 15.126001,105.881 15.002248,106.09288 14.928,106.22 14.805497,106.4375 14.731992,106.568 14.608249,106.79237 14.534,106.927 14.410881,107.15762 14.337009,107.296 14.214505,107.53287 14.141,107.675 14.375376,108.03987 14.766,108.648 14.92612,108.64012 15.192993,108.627 15.349369,108.61725 15.610001,108.601 15.763,108.58938 16.018008,108.57 16.167633,108.55725 16.417001,108.536 16.563248,108.52138 16.807,108.497 17.186009,108.455 17.325128,108.43775 17.557001,108.409 17.692376,108.39025 17.918001,108.359 18.049624,108.3395 18.269,108.307 18.5842,108.2552 18.859528,108.68904 19.318409,109.4121 19.359016,109.46122 19.426696,109.5431 19.351888,109.68179 19.307001,109.765 19.204505,109.96188 19.143008,110.08 19.03988,110.2825 18.978001,110.404 18.874872,110.614 18.813001,110.74 18.710497,110.955 18.649001,111.084 18.546496,111.3065 18.485,111.44 18.383129,111.66875 18.322001,111.806 18.220752,112.041 18.16,112.182 18.059377,112.42262 17.999,112.567 17.899624,112.81513 17.84,112.964 18.107753,113.3045 18.554,113.872 18.712625,113.84913 18.977008,113.811 19.131881,113.78662 19.39,113.746 19.541129,113.71975 19.793001,113.676 19.940752,113.64937 20.187001,113.605 20.331376,113.5765 20.572,113.529 20.711872,113.49938 20.945001,113.45 21.081873,113.41962 21.310001,113.369 21.442752,113.33787 21.664001,113.286 21.793376,113.25375 22.009001,113.2 22.134248,113.16738 22.343001,113.113 22.354288,113.10989 22.373104,113.1047 22.725336,113.53047 23.3124,114.2401 23.230273,114.43566 23.181,114.553 23.097249,114.75862 23.047001,114.882 22.963873,115.09387 22.914,115.221 22.831496,115.43913 22.782001,115.57 22.700128,115.79438 22.651,115.929 22.569753,116.15962 22.521,116.298 22.441624,116.5355 22.394001,116.678 22.315257,116.92175 22.268009,117.068 22.191137,117.31737 22.145008,117.467 22.069376,117.72325 22.024,117.877 22.323248,118.1905 22.822,118.713 22.977624,118.67513 23.237,118.612 23.388497,118.573 23.641,118.508 23.789496,118.46788 24.037,118.401 24.181377,118.36012 24.422001,118.292 24.562625,118.25 24.797001,118.18 24.933496,118.13725 25.160993,118.066 25.294497,118.02287 25.517,117.951 25.646001,117.90712 25.861,117.834 26.197001,117.716 26.318497,117.67137 26.521,117.597 26.529096,117.59389 26.5426,117.5887 26.941672,117.96347 27.6068,118.5881 27.600048,118.60866 27.596,118.621 27.531009,118.82725 27.492008,118.951 27.428257,119.1635 27.390001,119.291 27.327497,119.50975 27.29,119.641 27.228752,119.86662 27.192,120.002 27.131377,120.23262 27.095,120.371 27.036249,120.6085 27.001001,120.751 26.944744,120.99475 26.910992,121.141 26.856001,121.391 26.823,121.541 26.769873,121.79725 26.738001,121.951 26.686752,122.21287 26.656,122.37 26.983752,122.65387 27.53,123.127 27.681129,123.0745 27.933,122.987 28.080744,122.93338 28.326992,122.844 28.470616,122.79 28.710001,122.7 28.849872,122.64563 29.083001,122.555 29.219128,122.49988 29.446001,122.408 29.578,122.3525 29.798008,122.26 29.926633,122.20412 30.141001,122.111 30.265128,122.05513 30.472001,121.962 30.593129,121.90613 30.795001,121.813 30.894,121.76571 31.059,121.6869 31.515448,122.01855 32.2762,122.5713 32.274825,122.57737 32.274,122.58101 32.228993,122.79225 32.201993,122.919 32.158864,123.13713 32.132992,123.268 32.091121,123.49175 32.066,123.626 32.026624,123.856 32.003001,123.994 31.964873,124.22962 31.942,124.371 31.906368,124.61287 31.884992,124.758 31.851873,125.00612 31.832,125.155 31.800753,125.40875 31.782,125.561 31.753249,125.821 31.736,125.977 31.710377,126.24263 31.695,126.402 32.048249,126.65325 32.637,127.072 32.782497,127.00562 33.025001,126.895 33.166749,126.82788 33.403,126.716 33.540628,126.6485 33.770005,126.536 33.904253,126.4685 34.128,126.356 34.258125,126.28812 34.475,126.175 34.601,126.10713 34.811005,125.994 34.934005,125.92612 35.139001,125.813 35.455,125.633 35.570125,125.56587 35.762001,125.454 35.860888,125.39452 36.0257,125.2954 36.368264,125.54432 36.9392,125.9592 37.073788,126.03319 37.2981,126.15651 37.279288,126.32244 37.268001,126.422 37.232,126.776 37.200001,127.138 37.181876,127.37113 37.171001,127.511 37.156,127.7485 37.147001,127.891 37.133876,128.136 37.126,128.283 37.116625,128.533 37.111,128.683 37.104124,128.93862 37.1,129.092 37.096249,129.35325 37.094,129.51 37.094,129.937 37.469376,130.15375 38.095,130.515 38.233748,130.43475 38.465001,130.301 38.599624,130.22075 38.824,130.087 38.954877,130.00675 39.173001,129.873 39.300124,129.79313 39.512,129.66 39.840001,129.446 39.959248,129.36688 40.158001,129.235 40.2735,129.15587 40.466001,129.024 40.577749,128.94562 40.764,128.815 41.052001,128.607 41.156249,128.52975 41.33,128.401 41.337989,128.39493 41.3513,128.3848 41.8382,128.65244 42.6497,129.0985 42.645508,129.30381 42.642996,129.427 42.642372,129.6495 42.642,129.783 42.642748,129.91912 42.643996,130.146 42.646625,130.28625 42.651,130.51999 42.655501,130.66325 42.663004,130.902 42.669377,131.04862 42.68,131.293 42.688625,131.443 42.703,131.693 42.713501,131.846 42.731004,132.101 42.743376,132.25737 42.764001,132.518 42.779376,132.67738 42.805,132.943 43.199129,133.123 43.856004,133.423 44.204004,133.175 44.330376,133.08238 44.541,132.928 44.663624,132.83538 44.868001,132.681 44.986872,132.5895 45.184996,132.437 45.300125,132.34588 45.492,132.194 45.602629,132.10362 45.787005,131.953 45.895004,131.863 46.075001,131.713 46.1785,131.6245 46.350996,131.477 46.451496,131.38925 46.619,131.243 46.715377,131.15637 46.876001,131.012 46.883576,131.00499 46.896204,130.9933 47.404588,131.1946 48.2519,131.5301 48.252684,131.54244 48.253997,131.563 48.263748,131.69237 48.28,131.908 48.292,132.04075 48.312001,132.262 48.325876,132.39775 48.349,132.624 48.365125,132.76312 48.392,132.995 48.410001,133.13712 48.440005,133.374 48.466239,133.56252 48.46624,133.56252 48.494001,133.762 48.516876,133.91012 48.555001,134.157 48.579752,134.3085 48.621005,134.561 48.65613,134.75658 48.695001,134.973 48.725,135.13012 48.775,135.392 49.1845,135.53375 49.867,135.76999 49.988129,135.66537 50.190004,135.491 50.307005,135.38637 50.502001,135.212 50.615248,135.1085 50.804001,134.936 50.9135,134.83362 51.096,134.663 51.202125,134.561 51.378996,134.391 51.480624,134.2905 51.650001,134.123 51.749,134.02363 51.914001,133.858 52.0085,133.75975 52.166,133.596 52.257501,133.49887 52.410001,133.337 52.487584,133.25278 52.616896,133.1124 53.160048,133.25182 54.0653,133.4842 54.066313,133.4905 54.068001,133.501 54.0905,133.62887 54.128001,133.842 54.152376,133.97287 54.193,134.191 54.219625,134.32488 54.264,134.548 54.293248,134.68488 54.342,134.913 54.3735,135.05288 54.426005,135.286 54.459752,135.42888 54.516001,135.667 54.553124,135.8125 54.614997,136.055 54.653997,136.2035 54.719,136.451 54.761,136.60174 54.831001,136.853 54.876,137.00675 54.951,137.263 55.372501,137.36538 56.075,137.536 56.185248,137.41975 56.369,137.226 56.475501,137.11125 56.653001,136.92 56.756124,136.806 56.928001,136.61599 57.027376,136.5035 57.193001,136.316 57.288625,136.20462 57.448001,136.01899 57.539877,135.90912 57.693,135.726 57.781877,135.61762 57.930001,135.437 58.014748,135.33012 58.156001,135.152 58.238124,135.047 58.375,134.872 58.4416,134.78365 58.5526,134.6364 58.875588,134.71931 59.413904,134.8575 59.655405,134.88803 60.0579,134.9389 60.085689,135.04094 60.132001,135.211 60.169124,135.33888 60.231,135.552 60.270001,135.68288 60.335,135.901 60.377377,136.0345 60.448,136.257 60.492249,136.39313 60.566,136.62 60.613624,136.75912 60.693001,136.991 60.743248,137.13237 60.827001,137.368 60.880249,137.512 60.969,137.752 61.025248,137.89825 61.119001,138.142 61.178248,138.29087 61.277,138.539 61.706376,138.6005 62.422,138.703 62.520624,138.577 62.685001,138.367 62.780248,138.2425 62.939,138.035 63.030501,137.91163 63.183001,137.706 63.2715,137.5845 63.419001,137.382 63.503748,137.262 63.645,137.062 63.725625,136.94425 63.86,136.748 63.938377,136.63137 64.069001,136.43699 64.143249,136.323 64.267001,136.133 64.338624,136.0205 64.458,135.833 64.526248,135.72238 64.640001,135.538 64.644208,135.53096 64.65122,135.5192 65.204536,135.5891 66.126732,135.7056 66.169205,135.81712 66.239996,136.003 66.288748,136.12675 66.37,136.333 66.421376,136.45937 66.507001,136.67 66.56175,136.79937 66.653,137.015 66.710374,137.14587 66.806001,137.364 66.866375,137.49788 66.967,137.721 66.99747,137.78606 67.137002,138.084 67.20375,138.22237 67.314999,138.453 67.384748,138.59325 67.501,138.827 67.574124,138.9695 67.696001,139.207 68.129124,139.22762 68.851001,139.262 69.081001,138.902 69.163874,138.76887 69.302,138.547 69.381501,138.41575 69.514001,138.197 69.590501,138.06762 69.718,137.852 69.790751,137.72449 69.912001,137.512 69.981374,137.38712 70.097,137.179 70.16375,137.05562 70.275001,136.85 70.338374,136.72888 70.444001,136.527 70.504374,136.4085 70.605001,136.211 70.662374,136.09475 70.758001,135.901 70.763041,135.89039 70.771442,135.8727 72.228558,135.8727 72.233599,135.88332 72.242,135.901 72.299374,136.01725 72.395001,136.211 72.455374,136.3295 72.556001,136.527 72.619374,136.64812 72.725,136.85 72.79175,136.97338 72.903001,137.179 72.972374,137.30388 73.088,137.512 73.160751,137.6395 73.282,137.85199 73.3585,137.98137 73.486001,138.197 73.5655,138.32825 73.698001,138.547 73.780874,138.68012 73.919001,138.902 74.149,139.262 74.582124,139.24138 75.303998,139.207 75.377124,139.0645 75.499001,138.827 75.604618,138.61463 75.604617,138.61463 75.685001,138.453 75.751751,138.31463 75.862998,138.084 75.926749,137.94788 76.033,137.721 76.093374,137.58712 76.194,137.364 76.251374,137.23312 76.347001,137.015 76.40175,136.88562 76.493,136.67 76.544376,136.54362 76.630002,136.333 76.678752,136.20925 76.760001,136.003 76.802477,135.89147 76.87327,135.7056 77.470233,135.63019 78.34878,135.5192 78.352988,135.52625 78.36,135.538 78.42825,135.64863 78.542001,135.833 78.647025,135.99796 78.733001,136.133 78.80725,136.247 78.931001,136.437 79.009374,136.55362 79.140001,136.748 79.220625,136.86575 79.355001,137.062 79.43975,137.182 79.581002,137.382 79.669502,137.5035 79.817002,137.706 79.908503,137.82938 80.061,138.035 80.156251,138.1595 80.314998,138.367 80.413624,138.493 80.578,138.703 81.007374,138.6415 81.723001,138.539 81.78225,138.39012 81.881001,138.142 81.937251,137.99575 82.031001,137.752 82.08425,137.608 82.173,137.368 82.223251,137.22662 82.307,136.991 82.354624,136.85188 82.434001,136.62 82.478251,136.48388 82.552001,136.257 82.594375,136.1235 82.665,135.901 82.704001,135.77012 82.769003,135.552 82.806126,135.42412 82.868,135.211 82.895789,135.10896 82.9421,134.9389 83.183601,134.90838 83.586101,134.8575 83.909088,134.77459 84.4474,134.6364 84.514,134.72475 84.625001,134.872 84.844,135.152 84.92875,135.25887 85.070001,135.437 85.158875,135.54537 85.307001,135.726 85.398875,135.83587 85.552,136.01899 85.647625,136.13037 85.807002,136.316 85.906376,136.4285 86.072001,136.616 86.175125,136.73 86.347002,136.92 86.453502,137.03475 86.631001,137.226 86.74125,137.34225 86.925,137.536 87.346501,137.43363 88.049,137.263 88.094,137.10925 88.169001,136.853 88.211002,136.70225 88.281,136.451 88.32,136.3025 88.385,136.055 88.422126,135.9095 88.483999,135.667 88.517749,135.52412 88.574,135.286 88.605501,135.14612 88.658002,134.913 88.687252,134.77612 88.736001,134.548 88.762626,134.41412 88.806999,134.191 88.831374,134.06013 88.872001,133.842 88.8945,133.71413 88.932,133.501 88.933012,133.4947 88.9347,133.4842 89.477851,133.34477 90.383101,133.1124 90.460688,133.19663 90.590001,133.337 90.6815,133.43412 90.834001,133.596 90.9285,133.69425 91.086001,133.858 91.185,133.95738 91.350001,134.123 91.451625,134.2235 91.621001,134.391 91.727126,134.493 91.904,134.663 92.0135,134.76538 92.196,134.936 92.497999,135.212 92.615,135.31662 92.810001,135.491 93.013644,135.6669 93.133001,135.77 93.542501,135.62825 94.225001,135.392 94.255002,135.23487 94.305002,134.973 94.33275,134.8185 94.379,134.561 94.445,134.157 94.467875,134.00888 94.506002,133.762 94.52625,133.6165 94.56,133.374 94.578,133.23187 94.608001,132.995 94.624126,132.85587 94.651,132.624 94.664874,132.48825 94.688,132.262 94.700001,132.12925 94.720001,131.908 94.72975,131.77863 94.746001,131.563 94.746789,131.55066 94.748101,131.5301 95.256489,131.3288 96.1038,130.9933 96.111376,131.00031 96.124002,131.012 96.220376,131.09862 96.381001,131.243 96.481502,131.33075 96.649001,131.477 96.752501,131.5655 96.925,131.713 97.033,131.803 97.213001,131.953 97.323625,132.04337 97.508001,132.194 97.623125,132.28512 97.815002,132.437 97.933876,132.5285 98.132,132.681 98.234802,132.75865 98.459,132.928 98.585375,133.02062 98.796001,133.175 99.144,133.423 99.538126,133.243 100.195,132.943 100.21037,132.78363 100.236,132.518 100.24837,132.36163 100.269,132.101 100.2795,131.948 100.297,131.693 100.30563,131.543 100.32,131.293 100.32637,131.14638 100.337,130.902 100.3415,130.75875 100.349,130.52 100.35162,130.37975 100.356,130.146 100.35675,130.00987 100.358,129.783 100.35737,129.5605 100.357,129.427 100.35385,129.2726 100.3503,129.0985 100.8372,128.83086 101.6487,128.3848 101.65669,128.39087 101.67,128.401 101.77425,128.47825 101.948,128.607 102.236,128.815 102.34775,128.89337 102.534,129.024 102.6495,129.10312 102.842,129.235 102.96125,129.31412 103.16,129.446 103.283,129.52625 103.488,129.66 103.61513,129.73988 103.827,129.873 103.95787,129.95325 104.176,130.087 104.31062,130.16725 104.535,130.301 104.67375,130.38125 104.905,130.515 105.28037,130.29825 105.906,129.937 105.906,129.51 105.90298,129.29936 105.9,129.092 105.89312,128.83637 105.889,128.683 105.87962,128.433 105.874,128.283 105.86087,128.038 105.853,127.891 105.83504,127.60675 105.829,127.511 105.81087,127.27787 105.8,127.138 105.78,126.91175 105.768,126.776 105.7455,126.55475 105.732,126.422 105.71319,126.25607 105.7019,126.15651 105.83649,126.08252 106.0608,125.9592 106.40336,125.71027 106.9743,125.2954 107.07319,125.35487 107.238,125.454 107.35312,125.52112 107.545,125.633 107.7381,125.74299 107.861,125.813 107.984,125.88087 108.189,125.994 108.315,126.06187 108.525,126.175 108.65513,126.24287 108.872,126.356 109.00625,126.4235 109.23,126.536 109.597,126.716 109.73875,126.78312 109.975,126.895 110.1205,126.96137 110.363,127.072 110.71625,126.82075 111.305,126.402 111.27937,126.13638 111.264,125.977 111.23525,125.717 111.218,125.561 111.18675,125.30725 111.168,125.155 111.13487,124.90687 111.115,124.758 111.07937,124.51612 111.058,124.371 111.01987,124.13537 110.997,123.994 110.95762,123.764 110.934,123.626 110.89212,123.40225 110.867,123.268 110.82388,123.04987 110.798,122.919 110.753,122.70775 110.726,122.58101 110.72463,122.57494 110.7238,122.5713 111.18025,122.23965 111.941,121.6869 112.04,121.73419 112.205,121.813 112.32613,121.86888 112.528,121.962 112.65212,122.01788 112.859,122.111 112.98762,122.16687 113.202,122.26 113.334,122.3155 113.554,122.408 113.69012,122.46312 113.917,122.555 114.05687,122.60937 114.29,122.7 114.43363,122.754 114.673,122.844 114.82075,122.89763 115.067,122.987 115.21813,123.0395 115.47,123.127 115.79775,122.84312 116.344,122.37 116.29275,122.10812 116.262,121.951 116.20887,121.69475 116.177,121.541 116.122,121.291 116.089,121.141 116.03275,120.89725 115.999,120.751 115.94025,120.5135 115.905,120.371 115.84437,120.14037 115.808,120.002 115.74675,119.77637 115.71,119.641 115.6475,119.42225 115.61,119.291 115.54625,119.0785 115.508,118.951 115.443,118.74475 115.404,118.621 115.39725,118.60044 115.3932,118.5881 115.79228,118.21332 116.4574,117.5887 116.4655,117.59181 116.479,117.597 116.6005,117.64162 116.803,117.716 116.929,117.76025 117.139,117.834 117.268,117.87787 117.483,117.951 117.6165,117.99413 117.839,118.066 117.94051,118.09779 117.94051,118.0978 118.203,118.18 118.4078,118.24117 118.578,118.292 118.72238,118.33287 118.963,118.401 119.1115,118.44112 119.359,118.508 119.5105,118.547 119.763,118.612 119.88053,118.6406 120.178,118.713 120.47725,118.3995 120.976,117.877 120.90037,117.62075 120.855,117.467 120.77812,117.21762 120.732,117.068 120.65325,116.82425 120.606,116.678 120.52662,116.4405 120.479,116.298 120.39775,116.06737 120.349,115.929 120.26712,115.70462 120.218,115.57 120.1355,115.35188 120.086,115.221 120.00287,115.00912 119.953,114.882 119.86925,114.67637 119.819,114.553 119.73687,114.35744 119.6876,114.2401 120.03984,113.81432 120.6269,113.1047 120.63819,113.10781 120.657,113.113 120.78225,113.14562 120.991,113.2 121.12038,113.23225 121.336,113.286 121.69,113.369 121.78778,113.3907 122.055,113.45 122.19488,113.47962 122.428,113.529 122.57238,113.5575 122.813,113.605 122.9197,113.62423 123.207,113.676 123.35812,113.70225 123.61,113.746 123.76487,113.77037 124.023,113.811 124.18162,113.83388 124.446,113.872 124.71375,113.5315 125.16,112.964 125.06062,112.71587 125.001,112.567 124.90037,112.32637 124.84,112.182 124.73875,111.947 124.678,111.806 124.57613,111.57725 124.515,111.44 124.4125,111.2175 124.351,111.084 124.2485,110.869 124.187,110.74 124.08387,110.53 124.022,110.404 123.95582,110.27405 123.95582,110.27405 123.857,110.08 123.7545,109.88312 123.693,109.765 123.61819,109.62631 123.5733,109.5431 123.61391,109.49397 123.6816,109.4121 123.95692,108.97826 124.4158,108.2552 124.731,108.307 124.86262,108.3265 125.082,108.359 125.21737,108.37775 125.443,108.409 125.63816,108.4332 125.814,108.455 125.95612,108.47075 126.193,108.497 126.39411,108.51711 126.583,108.536 126.73262,108.54875 126.982,108.57 127.135,108.58163 127.39,108.601 127.49958,108.60783 127.807,108.627 127.96713,108.63487 128.234,108.648 128.46838,108.28312 128.859,107.675 128.7365,107.43812 128.663,107.296 128.53987,107.06537 128.466,106.927 128.34225,106.70262 128.268,106.568 128.1455,106.3505 128.072,106.22 127.94825,106.00812 127.874,105.881 127.79679,105.75218 127.79679,105.75218 127.678,105.554 127.5555,105.35525 127.482,105.236 127.36012,105.04412 127.287,104.929 127.16638,104.74275 127.094,104.631 126.974,104.451 126.902,104.343 126.90087,104.34137 126.9002,104.3404 127.20436,103.86111 127.7113,103.0623 127.81544,103.06894 127.989,103.08 128.12212,103.08712 128.344,103.099 128.48013,103.10462 128.707,103.114 128.84725,103.11812 129.081,103.125 129.22387,103.12725 129.462,103.131 129.609,103.13175 129.854,103.133 130.004,103.1315 130.254,103.129 130.40775,103.12562 130.664,103.12 130.82038,103.11475 131.081,103.106 131.24113,103.09887 131.508,103.087 131.74427,102.62873 132.038,102.059 131.893,101.83462 131.806,101.7 131.66162,101.4825 131.575,101.352 131.43125,101.14012 131.345,101.013 131.20188,100.808 131.116,100.685 130.97287,100.48625 130.887,100.367 130.74575,100.17512 130.661,100.06 130.58021,99.953114 130.435,99.761001 130.29563,99.581626 130.212,99.474002 130.07387,99.30025 129.991,99.196 129.85475,99.028501 129.773,98.928 129.75856,98.910876 129.7499,98.900601 129.98326,98.404702 130.3722,97.578202 130.3785,97.578126 130.389,97.578 130.51875,97.57425 130.735,97.568001 130.86812,97.562002 131.09,97.552 131.22612,97.544876 131.453,97.533002 131.53964,97.527195 131.826,97.508001 131.9685,97.496751 132.206,97.478001 132.35262,97.464877 132.597,97.443002 132.74625,97.42725 132.995,97.400999 133.19129,97.377794 133.401,97.353001 133.5004,97.340307 133.816,97.300001 133.97462,97.277126 134.239,97.239001 134.39987,96.836626 134.668,96.166001 134.503,95.956626 134.404,95.831 134.23962,95.627875 134.141,95.506002 133.97725,95.309125 133.879,95.191001 133.71712,95.000375 133.62,94.886001 133.362,94.591 133.20325,94.413499 133.108,94.306999 132.94987,94.1345 132.855,94.031 132.605,93.767001 132.45125,93.607 132.359,93.511001 132.20712,93.35725 132.116,93.265 132.11488,93.263876 132.1142,93.263202 132.28448,92.739102 132.5683,91.865601 132.58056,91.864251 132.601,91.862001 132.72963,91.845875 132.944,91.819001 133.076,91.800625 133.296,91.770002 133.431,91.749751 133.656,91.716 133.79438,91.6935 134.025,91.656001 134.401,91.590001 134.54538,91.563 134.786,91.518 135.178,91.438 135.32837,91.405751 135.579,91.352 135.73163,91.317125 135.986,91.259001 136.14162,91.221502 136.401,91.159 136.52325,90.743126 136.727,90.049999 136.54262,89.856874 136.432,89.740999 136.24887,89.55475 136.139,89.443001 135.95775,89.262375 135.849,89.154 135.66962,88.979625 135.56199,88.875 135.38387,88.706877 135.277,88.606001 135.102,88.444125 134.997,88.347 134.82325,88.19075 134.719,88.097001 134.54775,87.947001 134.445,87.857001 134.27688,87.712625 134.176,87.625999 134.05806,87.527563 133.9873,87.4685 134.09534,86.902251 134.2754,85.9585 134.33553,85.944986 134.33553,85.944987 134.598,85.886 134.72737,85.855251 134.943,85.804 135.07538,85.771001 135.296,85.716 135.43175,85.680376 135.658,85.621 135.796,85.583125 136.026,85.520001 136.167,85.479126 136.402,85.411001 136.54563,85.3675 136.785,85.295002 136.93163,85.248501 137.176,85.171001 137.32487,85.121876 137.573,85.04 137.72412,84.987875 137.976,84.901001 138.05812,84.475376 138.195,83.765999 137.99312,83.591626 137.872,83.487 137.552,83.217 137.3545,83.055125 137.236,82.958 137.04037,82.801124 136.923,82.707001 136.72987,82.556374 136.614,82.466 136.42462,82.321625 136.31099,82.235 136.01,82.013 135.82562,81.879874 135.715,81.800001 135.53375,81.671876 135.425,81.595003 135.24962,81.475009 135.1444,81.403012 135.25158,80.841232 135.4302,79.90493 135.5235,79.874206 135.679,79.823001 135.80538,79.78025 136.016,79.709 136.14462,79.663626 136.359,79.588003 136.49062,79.539627 136.71,79.459001 137.066,79.323001 137.20288,79.269 137.431,79.179001 137.56975,79.121626 137.801,79.026 137.94237,78.966001 138.178,78.866002 138.35106,78.789892 138.56,78.698 138.70587,78.631626 138.949,78.521 138.99547,78.034727 139.059,77.369998 138.8415,77.215626 138.711,77.123003 138.49599,76.97425 138.367,76.885001 138.1545,76.742501 138.027,76.657 137.81762,76.5195 137.692,76.437 137.48575,76.305752 137.362,76.227003 137.1595,76.101376 137.038,76.026001 136.83738,75.905374 136.717,75.833001 136.52075,75.718 136.403,75.649 136.095,75.473001 135.90562,75.368625 135.792,75.306001 135.773,75.295819 135.7616,75.28971 135.7961,74.741169 135.8536,73.82693 135.85712,73.825457 135.863,73.823001 135.98188,73.77125 136.18,73.685 136.3015,73.63025 136.504,73.539001 136.62775,73.481626 136.834,73.386001 136.96037,73.32525 137.171,73.224001 137.29925,73.160626 137.513,73.055001 137.5713,73.025264 137.862,72.877001 137.99475,72.806876 138.216,72.690001 138.576,72.495001 138.71287,72.4185 138.941,72.291 139.07975,72.211127 139.311,72.078 139.311,70.922 139.07975,70.788874 138.941,70.709001 138.71287,70.581501 138.576,70.505 138.351,70.383124 138.216,70.31 137.99475,70.193125 137.862,70.123 137.5713,69.974737 137.513,69.945 137.29925,69.839375 137.171,69.776 136.96037,69.674751 136.834,69.614 136.62775,69.518375 136.504,69.461 136.3015,69.369751 136.18,69.315 135.98188,69.22875 135.863,69.177 135.85712,69.174544 135.8536,69.173071 135.7961,68.258832 135.7616,67.710291 135.773,67.704182 135.792,67.694 135.90562,67.631376 136.095,67.527 136.2105,67.461001 136.403,67.350999 136.52075,67.281999 136.717,67.167 136.83738,67.094627 137.038,66.974 137.1595,66.898625 137.362,66.772998 137.48575,66.694249 137.692,66.563001 137.81762,66.480501 138.027,66.343001 138.1545,66.257501 138.367,66.114996 138.49599,66.025749 138.711,65.877 138.8415,65.784376 139.059,65.630001 138.99025,64.910624 138.949,64.479 138.70587,64.368376 138.56,64.302001 138.32125,64.197 138.178,64.134001 137.94237,64.034 137.801,63.974001 137.56975,63.878377 137.431,63.821 137.20288,63.731 137.066,63.677 136.71,63.541 136.49062,63.460377 136.359,63.412 136.14462,63.336377 136.016,63.291 135.80537,63.219748 135.679,63.177001 135.5235,63.125793 135.4302,63.095068 135.24384,62.11822 135.1444,61.596988 135.24962,61.524992 135.425,61.405001 135.53375,61.328125 135.715,61.2 135.82562,61.120124 136.01,60.987 136.12288,60.903752 136.31099,60.765001 136.42462,60.678376 136.614,60.534001 136.72987,60.443625 136.923,60.293 137.04037,60.198876 137.236,60.042001 137.3545,59.944877 137.552,59.783 137.672,59.681753 137.872,59.513001 137.95802,59.438698 138.195,59.234 138.05812,58.524624 137.976,58.099 137.72412,58.012125 137.573,57.96 137.32488,57.878129 137.176,57.829004 136.93163,57.751501 136.785,57.705 136.48126,57.613006 136.48126,57.613007 136.402,57.589 136.167,57.520876 136.026,57.480001 135.796,57.416872 135.658,57.378997 135.43175,57.319625 135.296,57.284 135.07538,57.229 134.943,57.196 134.72738,57.144749 134.598,57.114 134.39638,57.068688 134.2754,57.0415 134.09534,56.097748 133.9873,55.5315 134.05806,55.472437 134.176,55.374 134.27687,55.287373 134.445,55.142996 134.54775,55.052997 134.719,54.903 134.82325,54.809252 134.997,54.653 135.102,54.555872 135.277,54.393997 135.38387,54.293124 135.56199,54.125001 135.66962,54.020376 135.849,53.846 135.95775,53.737625 136.139,53.557 136.24887,53.445253 136.432,53.259004 136.54262,53.143128 136.727,52.95 136.52325,52.256876 136.401,51.841 136.14162,51.778496 135.986,51.740996 135.67061,51.668936 135.579,51.648004 135.32837,51.594252 135.178,51.562001 134.933,51.512004 134.786,51.482005 134.54538,51.437001 134.401,51.41 134.166,51.368749 134.025,51.344 133.79438,51.3065 133.656,51.284 133.431,51.250249 133.296,51.23 133.076,51.199376 132.944,51.181001 132.72963,51.154125 132.601,51.138 132.58056,51.135748 132.5683,51.1344 132.28448,50.2609 132.1142,49.7368 132.11488,49.736125 132.116,49.735001 132.20713,49.642752 132.359,49.489 132.45125,49.393001 132.605,49.233 132.855,48.969001 132.94988,48.8655 133.108,48.693 133.20325,48.5865 133.362,48.409001 133.45875,48.298377 133.62,48.114 133.71712,47.999625 133.879,47.809001 133.97725,47.690877 134.141,47.494 134.23962,47.372124 134.404,47.169001 134.503,47.043376 134.668,46.834001 134.39987,46.163376 134.239,45.761 133.97462,45.722876 133.816,45.7 133.55662,45.666877 133.401,45.647 133.14725,45.617 132.995,45.599001 132.74625,45.572748 132.597,45.557001 132.35262,45.535124 132.206,45.522 131.9685,45.503249 131.826,45.492 131.59287,45.476377 131.453,45.467 131.09,45.448 130.86812,45.438001 130.735,45.432 130.51875,45.425748 130.389,45.422 130.3785,45.421876 130.3722,45.4218 129.7499,44.0994 129.75856,44.089125 129.773,44.072001 129.85475,43.9715 129.991,43.804001 130.07388,43.699752 130.212,43.526 130.29563,43.418377 130.435,43.239001 130.51975,43.126876 130.661,42.940004 130.74575,42.824876 130.887,42.633001 130.97288,42.513752 131.116,42.315004 131.20188,42.192004 131.345,41.987 131.43125,41.859876 131.575,41.648005 131.66162,41.517505 131.806,41.300001 131.893,41.165376 132.038,40.941 131.70675,40.298504 131.508,39.913004 131.24113,39.901125 131.081,39.893996 130.82038,39.885245 130.664,39.879996 130.254,39.871005 130.004,39.868501 129.854,39.867 129.609,39.868252 129.462,39.869 129.22387,39.872753 129.081,39.875 128.84725,39.881877 128.707,39.886 128.48012,39.895377 128.344,39.901 128.12212,39.912877 127.989,39.920001 127.81544,39.931064 127.7113,39.9377 127.20436,39.138888 126.9002,38.659601 126.90087,38.658624 126.902,38.657 126.974,38.549001 127.094,38.369 127.16638,38.257253 127.287,38.071001 127.36012,37.955877 127.482,37.764001 127.5555,37.644752 127.678,37.446001 127.7515,37.323377 127.874,37.119 127.94825,36.991876 128.072,36.78 128.1455,36.649501 128.268,36.432 128.34225,36.297376 128.466,36.073001 128.53987,35.934624 128.663,35.703996 128.7365,35.561872 128.859,35.324996 128.46838,34.716876 128.234,34.352004 127.96713,34.365129 127.807,34.373 127.54638,34.389252 127.39,34.399004 127.135,34.418377 126.982,34.43 126.73262,34.451252 126.583,34.464005 126.33925,34.488377 126.193,34.503 125.95612,34.529252 125.814,34.545 125.58212,34.573753 125.443,34.591005 125.21737,34.622252 125.082,34.641001 124.86262,34.6735 124.731,34.693001 124.534,34.725373 124.4158,34.744797 123.95692,34.021736 123.6816,33.5879 123.61391,33.506025 123.5733,33.4569 123.61819,33.373688 123.693,33.235001 123.7545,33.116877 123.857,32.920001 123.91887,32.798505 124.022,32.596 124.08387,32.47 124.187,32.259993 124.2485,32.130992 124.351,31.916 124.4125,31.782505 124.515,31.56 124.57613,31.422752 124.678,31.194001 124.73875,31.053 124.84,30.818001 124.90037,30.673624 125.001,30.433 125.06062,30.284121 125.16,30.035992 124.71375,29.468496 124.446,29.128 124.18162,29.166121 124.023,29.188992 123.76487,29.229624 123.61,29.254 123.35812,29.297752 123.207,29.324009 122.96075,29.368384 122.813,29.395009 122.57238,29.442504 122.428,29.471 122.19487,29.520377 122.055,29.550001 121.82687,29.600624 121.69,29.631 121.336,29.714009 121.12038,29.767752 120.991,29.800001 120.78225,29.854377 120.657,29.887 120.63819,29.892192 120.6269,29.895304 120.03984,29.18568 119.6876,28.759904 119.73687,28.642568 119.819,28.447 119.86925,28.323624 119.953,28.118001 120.00287,27.990872 120.086,27.779001 120.1355,27.648128 120.218,27.430001 120.26712,27.295376 120.349,27.071 120.39775,26.932625 120.479,26.701993 120.52662,26.559496 120.606,26.322001 120.65325,26.175752 120.732,25.932001 120.77812,25.782376 120.855,25.533008 120.91927,25.315232 120.91927,25.315232 120.976,25.123 120.47725,24.600497 120.178,24.287 119.91863,24.350128 119.763,24.388001 119.5105,24.453008 119.359,24.492009 119.1115,24.558881 118.963,24.599001 118.72238,24.667128 118.578,24.708 118.4078,24.758832 118.203,24.82 117.9755,24.891249 117.839,24.934 117.6165,25.005873 117.483,25.048992 117.268,25.122121 117.139,25.166001 116.929,25.239752 116.803,25.284 116.6005,25.358377 116.479,25.403 116.4655,25.408193 116.4574,25.411304 115.79227,24.786672 115.3932,24.411896 115.39725,24.399561 115.404,24.379 115.443,24.255248 115.508,24.048993 115.54625,23.921496 115.61,23.709 115.6475,23.577752 115.71,23.359001 115.74675,23.223624 115.808,22.998001 115.84437,22.859625 115.905,22.629001 115.94025,22.486504 115.999,22.249001 116.03275,22.102752 116.089,21.859001 116.122,21.709 116.177,21.459 116.20887,21.305248 116.262,21.048993 116.29275,20.891873 116.344,20.630009 115.79775,20.15688 115.47,19.873 115.21813,19.960505 115.067,20.013 114.82075,20.102377 114.673,20.156 114.43363,20.246 114.29,20.300001 114.05688,20.390624 113.917,20.445 113.69012,20.536873 113.554,20.591992 113.334,20.684504 113.202,20.740009 112.98763,20.833128 112.859,20.889 112.62271,20.995362 112.528,21.037993 112.32613,21.131121 112.205,21.187001 112.04,21.265808 111.941,21.313096 111.18025,20.760344 110.7238,20.428696 110.72463,20.425057 110.726,20.418993 110.753,20.292248 110.798,20.081001 110.82388,19.95012 110.867,19.731993 110.89212,19.597745 110.934,19.374001 110.95762,19.236 110.997,19.006 111.01988,18.864624 111.058,18.629001 111.07937,18.48388 111.115,18.242008 111.13487,18.093129 111.168,17.845 111.18675,17.692745 111.218,17.438992 111.23525,17.282993 111.264,17.022993 111.27938,16.863624 111.305,16.598 110.71625,16.179248 110.363,15.928 110.1205,16.038624 109.975,16.104993 109.81001,16.183127 109.597,16.284 109.36763,16.396504 109.23,16.464009 109.00625,16.576505 108.872,16.644 108.65513,16.757128 108.525,16.825001 108.315,16.938128 108.189,17.006001 107.984,17.119128 107.861,17.187 107.6635,17.299505 107.545,17.367008 107.35312,17.47888 107.238,17.546009 107.07319,17.645137 106.9743,17.704608 106.40336,17.289728 106.0608,17.0408 105.83649,16.91748 105.7019,16.843488 105.71319,16.743928 105.732,16.578001 105.7455,16.445249 105.768,16.224 105.78,16.088249 105.8,15.862 105.81087,15.722128 105.829,15.489 105.838,15.346504 105.853,15.109001 105.86087,14.962 105.874,14.716992 105.87962,14.566993 105.889,14.317001 105.89312,14.163633 105.9,13.908008 105.90298,13.700641 105.906,13.490008 105.906,13.063 105.28037,12.701752 104.905,12.485 104.67375,12.618752 104.535,12.699009 104.31062,12.832752 104.176,12.912993 103.95787,13.046744 103.827,13.127001 103.61513,13.260128 103.488,13.340001 103.283,13.473753 103.16,13.554 102.96125,13.685873 102.842,13.765 102.6495,13.896873 102.534,13.976 102.34775,14.106624 102.236,14.185001 102.056,14.315008 101.948,14.393008 101.77425,14.521753 101.67,14.599 101.65669,14.609128 101.6487,14.6152 100.8372,14.169137 100.3503,13.901504 100.35385,13.727395 100.357,13.573 100.35738,13.439496 100.358,13.216992 100.35648,12.940495 100.356,12.854 100.35162,12.620249 100.349,12.48 100.33998,12.192915 100.337,12.098 100.32637,11.853624 100.32,11.707 100.30562,11.457 100.297,11.307 100.2795,11.052 100.269,10.899 100.24837,10.638368 100.236,10.481993 100.21037,10.216368 100.195,10.057 99.538126,9.756993 99.144,9.576993 98.9265,9.732001 98.796,9.825001 98.585376,9.979376 98.459,10.072001 98.254626,10.226376 98.132001,10.319 97.933877,10.471504 97.815001,10.563001 97.623126,10.714872 97.508,10.806001 97.323626,10.956624 97.213,11.047001 96.925001,11.287 96.752501,11.434496 96.649002,11.522992 96.481501,11.669249 96.381002,11.757 96.220377,11.901376 96.124002,11.988 96.111375,11.999689 96.1038,12.006696 95.256489,11.671193 94.748101,11.469896 94.746789,11.449337 94.746001,11.437 94.72975,11.221368 94.72,11.091992 94.7,10.870744 94.688,10.738 94.664875,10.511753 94.650999,10.376 94.624125,10.144128 94.608,10.005008 94.560001,9.626001 94.52625,9.383496 94.506001,9.238 94.467876,8.991129 94.445,8.843 94.40375,8.590496 94.379001,8.438993 94.33275,8.181496 94.305001,8.027 94.255002,7.765129 94.225001,7.608 93.5425,7.371752 93.133,7.23 92.931125,7.404377 92.810001,7.509 92.615,7.683368 92.497999,7.787993 92.309249,7.960497 92.196,8.063992 92.013501,8.234624 91.904,8.337009 91.727125,8.507001 91.621001,8.609001 91.451625,8.776505 91.350001,8.877 91.185,9.042625 91.086001,9.142 90.9285,9.305753 90.834001,9.404 90.6815,9.565873 90.590001,9.662992 90.460688,9.803377 90.383101,9.8876 89.477851,9.655225 88.9347,9.515801 88.933012,9.505296 88.932,9.499001 88.8945,9.285872 88.872001,9.158001 88.831374,8.939872 88.806999,8.809 88.762625,8.585872 88.736001,8.451993 88.687251,8.22388 88.658002,8.087009 88.6055,7.85388 88.573999,7.714009 88.517749,7.47588 88.484,7.333001 88.422125,7.090496 88.385001,6.945001 88.336434,6.760072 88.336435,6.760072 88.281001,6.549001 88.211001,6.297752 88.169001,6.147 88.094,5.890752 88.049,5.737 87.346501,5.566377 86.925,5.464001 86.74125,5.657753 86.631,5.774001 86.453502,5.965248 86.347001,6.080001 86.175125,6.270001 86.072001,6.384 85.906377,6.571504 85.807001,6.684001 85.647626,6.869624 85.552001,6.981 85.398875,7.164129 85.307001,7.274 85.158875,7.454625 85.070001,7.563 84.92875,7.741129 84.844,7.848001 84.625001,8.128 84.514,8.275249 84.4474,8.3636 83.909087,8.225416 83.586101,8.142504 82.942101,8.061096 82.895788,7.891032 82.868,7.789 82.806126,7.575872 82.769002,7.448 82.704,7.229872 82.665,7.099 82.583327,6.841693 82.552,6.743 82.478251,6.516129 82.434001,6.380001 82.354624,6.148128 82.307001,6.009001 82.22325,5.773376 82.173,5.632 82.031001,5.248001 81.93725,5.004248 81.881,4.858 81.782251,4.609873 81.723,4.461 81.007374,4.358496 80.578,4.297 80.413625,4.507 80.314999,4.633 80.15625,4.840505 80.061,4.965001 79.908503,5.170624 79.817003,5.294 79.669502,5.496505 79.581003,5.618 79.439751,5.818 79.355,5.938001 79.220625,6.134248 79.140001,6.252 79.009374,6.446377 78.931,6.563 78.733001,6.867 78.613624,7.054505 78.542,7.167001 78.428251,7.351376 78.36,7.462001 78.352988,7.473753 78.34878,7.4808 77.426587,7.364297 76.87327,7.294401 76.802477,7.108529 76.76,6.997 76.678752,6.790752 76.630003,6.667001 76.544376,6.456376 76.493,6.33 76.40175,6.114376 76.347,5.985 76.251375,5.766873 76.194,5.636 76.080122,5.383487 76.033,5.279 75.926749,5.052129 75.862999,4.916001 75.786279,4.756957 75.685001,4.547001 75.604617,4.385369 75.604618,4.385369 75.499001,4.173001 75.377124,3.935496 75.303999,3.793 74.582124,3.758624 74.149,3.738 73.919001,4.098 73.780874,4.319873 73.698001,4.453 73.565501,4.671752 73.486001,4.803 73.3585,5.018625 73.282001,5.148 73.16075,5.360505 73.088,5.488001 72.972375,5.696128 72.903001,5.821 72.79175,6.026625 72.725,6.150001 72.619375,6.351872 72.556,6.473001 72.455375,6.670504 72.395001,6.789 72.299374,6.982753 72.242001,7.099 72.233599,7.116688 "
       style="fill:none;stroke:#000000;stroke-width:0.0282222;stroke-miterlimit:4;stroke-opacity:1;stroke-dasharray:none"
       id="polygon6198" />
  </g>
</svg>
