<?xml version="1.0" encoding="UTF-8" standalone="no"?>
<!-- Created with Inkscape (http://www.inkscape.org/) -->

<svg
   xmlns:dc="http://purl.org/dc/elements/1.1/"
   xmlns:cc="http://creativecommons.org/ns#"
   xmlns:rdf="http://www.w3.org/1999/02/22-rdf-syntax-ns#"
   xmlns:svg="http://www.w3.org/2000/svg"
   xmlns="http://www.w3.org/2000/svg"
   xmlns:sodipodi="http://sodipodi.sourceforge.net/DTD/sodipodi-0.dtd"
   xmlns:inkscape="http://www.inkscape.org/namespaces/inkscape"
   width="1800"
   height="1080"
   id="svg3606"
   version="1.1"
   inkscape:version="0.48.4 r9939"
   sodipodi:docname="New document 2">
  <defs
     id="defs3608" />
  <sodipodi:namedview
     id="base"
     pagecolor="#ffffff"
     bordercolor="#666666"
     borderopacity="1.0"
     inkscape:pageopacity="0.0"
     inkscape:pageshadow="2"
     inkscape:zoom="0.35"
     inkscape:cx="375"
     inkscape:cy="520"
     inkscape:document-units="px"
     inkscape:current-layer="layer1"
     showgrid="false"
     units="in"
     inkscape:window-width="1855"
     inkscape:window-height="1056"
     inkscape:window-x="65"
     inkscape:window-y="24"
     inkscape:window-maximized="1" />
  <metadata
     id="metadata3611">
    <rdf:RDF>
      <cc:Work
         rdf:about="">
        <dc:format>image/svg+xml</dc:format>
        <dc:type
           rdf:resource="http://purl.org/dc/dcmitype/StillImage" />
        <dc:title></dc:title>
      </cc:Work>
    </rdf:RDF>
  </metadata>
  <g
     inkscape:label="Layer 1"
     inkscape:groupmode="layer"
     id="layer1"
     transform="translate(0,27.64025)">
    <path
       sodipodi:type="arc"
       style="fill:#ff0000;stroke:#000000;stroke-width:0.04847284;stroke-miterlimit:4;stroke-opacity:1;stroke-dasharray:none"
       id="path3254"
       sodipodi:cx="49.795376"
       sodipodi:cy="289.46429"
       sodipodi:rx="0.86680394"
       sodipodi:ry="0.53571427"
       d="m 50.66218,289.46429 a 0.86680394,0.53571427 0 1 1 -1.733608,0 0.86680394,0.53571427 0 1 1 1.733608,0 z"
       transform="matrix(1.4906997,0,0,2.5772313,266.25324,-428.86065)" />
    <path
       sodipodi:type="arc"
       style="fill:none;stroke:#000000;stroke-width:0.08278015;stroke-miterlimit:4;stroke-opacity:1;stroke-dasharray:none"
       id="path3257"
       sodipodi:cx="152.86765"
       sodipodi:cy="222.68382"
       sodipodi:rx="3.9705882"
       sodipodi:ry="3.9705882"
       d="m 156.83823,222.68382 a 3.9705882,3.9705882 0 1 1 -7.94117,0 3.9705882,3.9705882 0 1 1 7.94117,0 z"
       transform="matrix(0.85419843,-0.85419843,0.85419843,0.85419843,19.687716,315.14531)" />
    <path
       transform="matrix(0.85419843,-0.85419843,0.85419843,0.85419843,77.314136,257.51901)"
       d="m 156.83823,222.68382 a 3.9705882,3.9705882 0 1 1 -7.94117,0 3.9705882,3.9705882 0 1 1 7.94117,0 z"
       sodipodi:ry="3.9705882"
       sodipodi:rx="3.9705882"
       sodipodi:cy="222.68382"
       sodipodi:cx="152.86765"
       id="path3259"
       style="fill:none;stroke:#000000;stroke-width:0.08278015;stroke-miterlimit:4;stroke-opacity:1;stroke-dasharray:none"
       sodipodi:type="arc" />
    <path
       transform="matrix(0.85419843,-0.85419843,0.85419843,0.85419843,-37.938704,257.51901)"
       d="m 156.83823,222.68382 a 3.9705882,3.9705882 0 1 1 -7.94117,0 3.9705882,3.9705882 0 1 1 7.94117,0 z"
       sodipodi:ry="3.9705882"
       sodipodi:rx="3.9705882"
       sodipodi:cy="222.68382"
       sodipodi:cx="152.86765"
       id="path3261"
       style="fill:none;stroke:#000000;stroke-width:0.08278015;stroke-miterlimit:4;stroke-opacity:1;stroke-dasharray:none"
       sodipodi:type="arc" />
    <path
       sodipodi:type="arc"
       style="fill:none;stroke:#000000;stroke-width:0.08278015;stroke-miterlimit:4;stroke-opacity:1;stroke-dasharray:none"
       id="path3263"
       sodipodi:cx="152.86765"
       sodipodi:cy="222.68382"
       sodipodi:rx="3.9705882"
       sodipodi:ry="3.9705882"
       d="m 156.83823,222.68382 a 3.9705882,3.9705882 0 1 1 -7.94117,0 3.9705882,3.9705882 0 1 1 7.94117,0 z"
       transform="matrix(0.85419843,-0.85419843,0.85419843,0.85419843,19.687716,199.89251)" />
    <path
       sodipodi:type="arc"
       style="fill:none;stroke:#000000;stroke-width:0.33976623;stroke-miterlimit:4;stroke-opacity:1;stroke-dasharray:none"
       id="path3265"
       sodipodi:cx="225.71428"
       sodipodi:cy="215.21933"
       sodipodi:rx="65.714287"
       sodipodi:ry="65.714287"
       d="m 291.42857,215.21933 a 65.714287,65.714287 0 1 1 -131.42858,0 65.714287,65.714287 0 1 1 131.42858,0 z"
       transform="matrix(0.58964071,0,0,0.58964071,207.39286,190.25371)" />
    <path
       transform="matrix(0.08026909,0,0,0.08026909,322.36532,508.93541)"
       d="m 291.42857,215.21933 a 65.714287,65.714287 0 1 1 -131.42858,0 65.714287,65.714287 0 1 1 131.42858,0 z"
       sodipodi:ry="65.714287"
       sodipodi:rx="65.714287"
       sodipodi:cy="215.21933"
       sodipodi:cx="225.71428"
       id="path3267"
       style="fill:none;stroke:#000000;stroke-width:1.24580956;stroke-miterlimit:4;stroke-opacity:1;stroke-dasharray:none"
       sodipodi:type="arc" />
    <path
       sodipodi:type="arc"
       style="fill:none;stroke:#000000;stroke-width:0.33976623;stroke-miterlimit:4;stroke-opacity:1;stroke-dasharray:none"
       id="path3269"
       sodipodi:cx="225.71428"
       sodipodi:cy="215.21933"
       sodipodi:rx="65.714287"
       sodipodi:ry="65.714287"
       d="m 291.42857,215.21933 a 65.714287,65.714287 0 1 1 -131.42858,0 65.714287,65.714287 0 1 1 131.42858,0 z"
       transform="matrix(0.58964071,0,0,0.58964071,903.56935,190.25371)" />
    <g
       id="g3271"
       transform="translate(105.02482,46.046509)">
      <path
         transform="matrix(1.56126,-1.56126,1.56126,1.56126,345.30136,104.48173)"
         d="m 156.83823,222.68382 c 0,2.1929 -1.77769,3.97059 -3.97058,3.97059 -2.1929,0 -3.97059,-1.77769 -3.97059,-3.97059 0,-2.19289 1.77769,-3.97059 3.97059,-3.97059 2.19289,0 3.97058,1.7777 3.97058,3.97059 z"
         sodipodi:ry="3.9705882"
         sodipodi:rx="3.9705882"
         sodipodi:cy="222.68382"
         sodipodi:cx="152.86765"
         id="path3273"
         style="fill:none;stroke:#000000;stroke-width:0.08278015;stroke-miterlimit:4;stroke-opacity:1;stroke-dasharray:none"
         sodipodi:type="arc" />
      <path
         sodipodi:type="arc"
         style="fill:none;stroke:#000000;stroke-width:0.08278015;stroke-miterlimit:4;stroke-opacity:1;stroke-dasharray:none"
         id="path3275"
         sodipodi:cx="152.86765"
         sodipodi:cy="222.68382"
         sodipodi:rx="3.9705882"
         sodipodi:ry="3.9705882"
         d="m 156.83823,222.68382 c 0,2.1929 -1.77769,3.97059 -3.97058,3.97059 -2.1929,0 -3.97059,-1.77769 -3.97059,-3.97059 0,-2.19289 1.77769,-3.97059 3.97059,-3.97059 2.19289,0 3.97058,1.7777 3.97058,3.97059 z"
         transform="matrix(1.56126,-1.56126,1.56126,1.56126,402.92778,162.10815)" />
      <path
         transform="matrix(1.56126,-1.56126,1.56126,1.56126,345.30136,219.73457)"
         d="m 156.83823,222.68382 c 0,2.1929 -1.77769,3.97059 -3.97058,3.97059 -2.1929,0 -3.97059,-1.77769 -3.97059,-3.97059 0,-2.19289 1.77769,-3.97059 3.97059,-3.97059 2.19289,0 3.97058,1.7777 3.97058,3.97059 z"
         sodipodi:ry="3.9705882"
         sodipodi:rx="3.9705882"
         sodipodi:cy="222.68382"
         sodipodi:cx="152.86765"
         id="path3277"
         style="fill:none;stroke:#000000;stroke-width:0.08278015;stroke-miterlimit:4;stroke-opacity:1;stroke-dasharray:none"
         sodipodi:type="arc" />
      <path
         sodipodi:type="arc"
         style="fill:none;stroke:#000000;stroke-width:0.08278015;stroke-miterlimit:4;stroke-opacity:1;stroke-dasharray:none"
         id="path3279"
         sodipodi:cx="152.86765"
         sodipodi:cy="222.68382"
         sodipodi:rx="3.9705882"
         sodipodi:ry="3.9705882"
         d="m 156.83823,222.68382 c 0,2.1929 -1.77769,3.97059 -3.97058,3.97059 -2.1929,0 -3.97059,-1.77769 -3.97059,-3.97059 0,-2.19289 1.77769,-3.97059 3.97059,-3.97059 2.19289,0 3.97058,1.7777 3.97058,3.97059 z"
         transform="matrix(1.56126,-1.56126,1.56126,1.56126,287.67494,162.10815)" />
    </g>
    <path
       transform="matrix(1.4906997,0,0,2.5772313,962.42975,-428.86065)"
       d="m 50.66218,289.46429 a 0.86680394,0.53571427 0 1 1 -1.733608,0 0.86680394,0.53571427 0 1 1 1.733608,0 z"
       sodipodi:ry="0.53571427"
       sodipodi:rx="0.86680394"
       sodipodi:cy="289.46429"
       sodipodi:cx="49.795376"
       id="path3281"
       style="fill:#ff0000;stroke:#000000;stroke-width:0.04847284;stroke-miterlimit:4;stroke-opacity:1;stroke-dasharray:none"
       sodipodi:type="arc" />
    <g
       transform="translate(137.55397,46.046509)"
       id="g3285">
      <path
         sodipodi:nodetypes="ccsscccc"
         inkscape:connector-curvature="0"
         id="path3287"
         d="m 202.86672,718.00913 -0.99319,0 c -62.81227,0 -124.084741,-32.56989 -186.500023,-27.13281 -39.27465,3.42127 -73.38045,42.77638 -112.39077,37.05945 -13.711697,-2.00943 -34.177297,-23.82393 -34.177297,-23.82393 l 0,-176.0324 -0.0774,-258.52668 c 0,-184.4631 149.5369,-333.99999 334,-333.99998"
         style="fill:none;stroke:#000000;stroke-width:0.1;stroke-linecap:butt;stroke-linejoin:miter;stroke-miterlimit:4;stroke-opacity:1;stroke-dasharray:none" />
      <path
         style="fill:none;stroke:#000000;stroke-width:0.1;stroke-linecap:butt;stroke-linejoin:miter;stroke-miterlimit:4;stroke-opacity:1;stroke-dasharray:none"
         d="m 202.99172,718.00913 0.99319,0 c 62.81227,0 124.08474,-32.56989 186.50002,-27.13281 39.27465,3.42127 73.38045,42.77638 112.39077,37.05945 13.7117,-2.00943 34.1773,-23.82393 34.1773,-23.82393 l 0,-176.0324 0.0774,-258.52668 c 0,-184.4631 -149.5369,-333.99999 -334,-333.99998"
         id="path3289"
         inkscape:connector-curvature="0"
         sodipodi:nodetypes="ccsscccc" />
    </g>
    <g
       id="g3291"
       transform="translate(833.73045,46.046509)">
      <path
         style="fill:none;stroke:#000000;stroke-width:0.1;stroke-linecap:butt;stroke-linejoin:miter;stroke-miterlimit:4;stroke-opacity:1;stroke-dasharray:none"
         d="m 202.86672,718.00913 -0.99319,0 c -62.81227,0 -124.084741,-32.56989 -186.500023,-27.13281 -39.27465,3.42127 -73.38045,42.77638 -112.39077,37.05945 -13.711697,-2.00943 -34.177297,-23.82393 -34.177297,-23.82393 l 0,-176.0324 -0.0774,-258.52668 c 0,-184.4631 149.5369,-333.99999 334,-333.99998"
         id="path3294"
         inkscape:connector-curvature="0"
         sodipodi:nodetypes="ccsscccc" />
      <path
         sodipodi:nodetypes="ccsscccc"
         inkscape:connector-curvature="0"
         id="path3296"
         d="m 202.99172,718.00913 0.99319,0 c 62.81227,0 124.08474,-32.56989 186.50002,-27.13281 39.27465,3.42127 73.38045,42.77638 112.39077,37.05945 13.7117,-2.00943 34.1773,-23.82393 34.1773,-23.82393 l 0,-176.0324 0.0774,-258.52668 c 0,-184.4631 -149.5369,-333.99999 -334,-333.99998"
         style="fill:none;stroke:#000000;stroke-width:0.1;stroke-linecap:butt;stroke-linejoin:miter;stroke-miterlimit:4;stroke-opacity:1;stroke-dasharray:none" />
    </g>
    <path
       transform="matrix(0.16113241,0,0,0.16113241,1000.2898,491.53211)"
       d="m 291.42857,215.21933 a 65.714287,65.714287 0 1 1 -131.42858,0 65.714287,65.714287 0 1 1 131.42858,0 z"
       sodipodi:ry="65.714287"
       sodipodi:rx="65.714287"
       sodipodi:cy="215.21933"
       sodipodi:cx="225.71428"
       id="path3436"
       style="fill:none;stroke:#000000;stroke-width:0.62060761;stroke-miterlimit:4;stroke-opacity:1;stroke-dasharray:none"
       sodipodi:type="arc" />
    <g
       id="g3552"
       transform="translate(2092.8268,46.046509)">
      <path
         sodipodi:type="arc"
         style="fill:none;stroke:#000000;stroke-width:0.17840476;stroke-miterlimit:4;stroke-opacity:1;stroke-dasharray:none"
         id="path3554"
         sodipodi:cx="-731"
         sodipodi:cy="196"
         sodipodi:rx="11"
         sodipodi:ry="11"
         d="m -720,196 c 0,6.07513 -4.92487,11 -11,11 -6.07513,0 -11,-4.92487 -11,-11 0,-6.07513 4.92487,-11 11,-11 6.07513,0 11,4.92487 11,11 z"
         transform="matrix(0,-0.56052315,0.56052315,0,-1487.4401,-138.63307)"
         inkscape:transform-center-x="321.41046" />
      <path
         sodipodi:type="arc"
         style="fill:none;stroke:#000000;stroke-width:0.17840476;stroke-miterlimit:4;stroke-opacity:1;stroke-dasharray:none"
         id="path3556"
         sodipodi:cx="-731"
         sodipodi:cy="196"
         sodipodi:rx="11"
         sodipodi:ry="11"
         d="m -720,196 c 0,6.07513 -4.92487,11 -11,11 -6.07513,0 -11,-4.92487 -11,-11 0,-6.07513 4.92487,-11 11,-11 6.07513,0 11,4.92487 11,11 z"
         transform="matrix(0,0.56052315,-0.56052315,0,-624.89412,680.85178)"
         inkscape:transform-center-x="-321.41046" />
      <path
         transform="matrix(0.56052315,0,0,0.56052315,-646.4247,-160.16364)"
         d="m -720,196 c 0,6.07513 -4.92487,11 -11,11 -6.07513,0 -11,-4.92487 -11,-11 0,-6.07513 4.92487,-11 11,-11 6.07513,0 11,4.92487 11,11 z"
         sodipodi:ry="11"
         sodipodi:rx="11"
         sodipodi:cy="196"
         sodipodi:cx="-731"
         id="path3558"
         style="fill:none;stroke:#000000;stroke-width:0.17840476;stroke-miterlimit:4;stroke-opacity:1;stroke-dasharray:none"
         sodipodi:type="arc"
         inkscape:transform-center-y="-321.41046" />
      <path
         inkscape:transform-center-x="321.41046"
         transform="matrix(0,-0.56052315,0.56052315,0,-1453.499,279.97414)"
         d="m -720,196 c 0,6.07513 -4.92487,11 -11,11 -6.07513,0 -11,-4.92487 -11,-11 0,-6.07513 4.92487,-11 11,-11 6.07513,0 11,4.92487 11,11 z"
         sodipodi:ry="11"
         sodipodi:rx="11"
         sodipodi:cy="196"
         sodipodi:cx="-731"
         id="path3560"
         style="fill:none;stroke:#000000;stroke-width:0.17840476;stroke-miterlimit:4;stroke-opacity:1;stroke-dasharray:none"
         sodipodi:type="arc" />
      <path
         sodipodi:type="arc"
         style="fill:none;stroke:#000000;stroke-width:0.17840476;stroke-miterlimit:4;stroke-opacity:1;stroke-dasharray:none"
         id="path3562"
         sodipodi:cx="-731"
         sodipodi:cy="196"
         sodipodi:rx="11"
         sodipodi:ry="11"
         d="m -720,196 c 0,6.07513 -4.92487,11 -11,11 -6.07513,0 -11,-4.92487 -11,-11 0,-6.07513 4.92487,-11 11,-11 6.07513,0 11,4.92487 11,11 z"
         transform="matrix(0,-0.56052315,-0.56052315,0,-658.7582,279.97414)"
         inkscape:transform-center-x="-321.41046" />
    </g>
    <g
       transform="translate(1396.6503,46.046509)"
       id="g3564">
      <path
         inkscape:transform-center-x="321.41046"
         transform="matrix(0,-0.56052315,0.56052315,0,-1487.4401,-138.63307)"
         d="m -720,196 c 0,6.07513 -4.92487,11 -11,11 -6.07513,0 -11,-4.92487 -11,-11 0,-6.07513 4.92487,-11 11,-11 6.07513,0 11,4.92487 11,11 z"
         sodipodi:ry="11"
         sodipodi:rx="11"
         sodipodi:cy="196"
         sodipodi:cx="-731"
         id="path3566"
         style="fill:none;stroke:#000000;stroke-width:0.17840476;stroke-miterlimit:4;stroke-opacity:1;stroke-dasharray:none"
         sodipodi:type="arc" />
      <path
         inkscape:transform-center-x="-321.41046"
         transform="matrix(0,0.56052315,-0.56052315,0,-624.89412,680.85178)"
         d="m -720,196 c 0,6.07513 -4.92487,11 -11,11 -6.07513,0 -11,-4.92487 -11,-11 0,-6.07513 4.92487,-11 11,-11 6.07513,0 11,4.92487 11,11 z"
         sodipodi:ry="11"
         sodipodi:rx="11"
         sodipodi:cy="196"
         sodipodi:cx="-731"
         id="path3568"
         style="fill:none;stroke:#000000;stroke-width:0.17840476;stroke-miterlimit:4;stroke-opacity:1;stroke-dasharray:none"
         sodipodi:type="arc" />
      <path
         inkscape:transform-center-y="-321.41046"
         sodipodi:type="arc"
         style="fill:none;stroke:#000000;stroke-width:0.17840476;stroke-miterlimit:4;stroke-opacity:1;stroke-dasharray:none"
         id="path3570"
         sodipodi:cx="-731"
         sodipodi:cy="196"
         sodipodi:rx="11"
         sodipodi:ry="11"
         d="m -720,196 c 0,6.07513 -4.92487,11 -11,11 -6.07513,0 -11,-4.92487 -11,-11 0,-6.07513 4.92487,-11 11,-11 6.07513,0 11,4.92487 11,11 z"
         transform="matrix(0.56052315,0,0,0.56052315,-646.4247,-160.16364)" />
      <path
         sodipodi:type="arc"
         style="fill:none;stroke:#000000;stroke-width:0.17840476;stroke-miterlimit:4;stroke-opacity:1;stroke-dasharray:none"
         id="path3572"
         sodipodi:cx="-731"
         sodipodi:cy="196"
         sodipodi:rx="11"
         sodipodi:ry="11"
         d="m -720,196 c 0,6.07513 -4.92487,11 -11,11 -6.07513,0 -11,-4.92487 -11,-11 0,-6.07513 4.92487,-11 11,-11 6.07513,0 11,4.92487 11,11 z"
         transform="matrix(0,-0.56052315,0.56052315,0,-1453.499,279.97414)"
         inkscape:transform-center-x="321.41046" />
      <path
         inkscape:transform-center-x="-321.41046"
         transform="matrix(0,-0.56052315,-0.56052315,0,-658.7582,279.97414)"
         d="m -720,196 c 0,6.07513 -4.92487,11 -11,11 -6.07513,0 -11,-4.92487 -11,-11 0,-6.07513 4.92487,-11 11,-11 6.07513,0 11,4.92487 11,11 z"
         sodipodi:ry="11"
         sodipodi:rx="11"
         sodipodi:cy="196"
         sodipodi:cx="-731"
         id="path3574"
         style="fill:none;stroke:#000000;stroke-width:0.17840476;stroke-miterlimit:4;stroke-opacity:1;stroke-dasharray:none"
         sodipodi:type="arc" />
    </g>
    <g
       id="g3576"
       transform="translate(1396.6503,46.046509)">
      <path
         sodipodi:type="arc"
         style="fill:none;stroke:#000000;stroke-width:0.17840476;stroke-miterlimit:4;stroke-opacity:1;stroke-dasharray:none"
         id="path3578"
         sodipodi:cx="-731"
         sodipodi:cy="196"
         sodipodi:rx="11"
         sodipodi:ry="11"
         d="m -720,196 c 0,6.07513 -4.92487,11 -11,11 -6.07513,0 -11,-4.92487 -11,-11 0,-6.07513 4.92487,-11 11,-11 6.07513,0 11,4.92487 11,11 z"
         transform="matrix(0,-0.56052315,0.56052315,0,-1487.4401,-138.63307)"
         inkscape:transform-center-x="321.41046" />
      <path
         sodipodi:type="arc"
         style="fill:none;stroke:#000000;stroke-width:0.17840476;stroke-miterlimit:4;stroke-opacity:1;stroke-dasharray:none"
         id="path3580"
         sodipodi:cx="-731"
         sodipodi:cy="196"
         sodipodi:rx="11"
         sodipodi:ry="11"
         d="m -720,196 c 0,6.07513 -4.92487,11 -11,11 -6.07513,0 -11,-4.92487 -11,-11 0,-6.07513 4.92487,-11 11,-11 6.07513,0 11,4.92487 11,11 z"
         transform="matrix(0,0.56052315,-0.56052315,0,-624.89412,680.85178)"
         inkscape:transform-center-x="-321.41046" />
      <path
         transform="matrix(0.56052315,0,0,0.56052315,-646.4247,-160.16364)"
         d="m -720,196 c 0,6.07513 -4.92487,11 -11,11 -6.07513,0 -11,-4.92487 -11,-11 0,-6.07513 4.92487,-11 11,-11 6.07513,0 11,4.92487 11,11 z"
         sodipodi:ry="11"
         sodipodi:rx="11"
         sodipodi:cy="196"
         sodipodi:cx="-731"
         id="path3582"
         style="fill:none;stroke:#000000;stroke-width:0.17840476;stroke-miterlimit:4;stroke-opacity:1;stroke-dasharray:none"
         sodipodi:type="arc"
         inkscape:transform-center-y="-321.41046" />
      <path
         inkscape:transform-center-x="321.41046"
         transform="matrix(0,-0.56052315,0.56052315,0,-1453.499,279.97414)"
         d="m -720,196 c 0,6.07513 -4.92487,11 -11,11 -6.07513,0 -11,-4.92487 -11,-11 0,-6.07513 4.92487,-11 11,-11 6.07513,0 11,4.92487 11,11 z"
         sodipodi:ry="11"
         sodipodi:rx="11"
         sodipodi:cy="196"
         sodipodi:cx="-731"
         id="path3584"
         style="fill:none;stroke:#000000;stroke-width:0.17840476;stroke-miterlimit:4;stroke-opacity:1;stroke-dasharray:none"
         sodipodi:type="arc" />
      <path
         sodipodi:type="arc"
         style="fill:none;stroke:#000000;stroke-width:0.17840476;stroke-miterlimit:4;stroke-opacity:1;stroke-dasharray:none"
         id="path3586"
         sodipodi:cx="-731"
         sodipodi:cy="196"
         sodipodi:rx="11"
         sodipodi:ry="11"
         d="m -720,196 c 0,6.07513 -4.92487,11 -11,11 -6.07513,0 -11,-4.92487 -11,-11 0,-6.07513 4.92487,-11 11,-11 6.07513,0 11,4.92487 11,11 z"
         transform="matrix(0,-0.56052315,-0.56052315,0,-658.7582,279.97414)"
         inkscape:transform-center-x="-321.41046" />
    </g>
  </g>
</svg>
