<?xml version="1.0" encoding="UTF-8" standalone="no"?>
<svg
   xmlns:dc="http://purl.org/dc/elements/1.1/"
   xmlns:cc="http://creativecommons.org/ns#"
   xmlns:rdf="http://www.w3.org/1999/02/22-rdf-syntax-ns#"
   xmlns:svg="http://www.w3.org/2000/svg"
   xmlns="http://www.w3.org/2000/svg"
   xmlns:sodipodi="http://sodipodi.sourceforge.net/DTD/sodipodi-0.dtd"
   xmlns:inkscape="http://www.inkscape.org/namespaces/inkscape"
   width="1800"
   height="1080"
   id="svg2985"
   version="1.1"
   inkscape:version="0.48.4 r9939"
   sodipodi:docname="GearClock3_2vector.svg">
  <metadata
     id="metadata3135">
    <rdf:RDF>
      <cc:Work
         rdf:about="">
        <dc:format>image/svg+xml</dc:format>
        <dc:type
           rdf:resource="http://purl.org/dc/dcmitype/StillImage" />
        <dc:title></dc:title>
      </cc:Work>
    </rdf:RDF>
  </metadata>
  <defs
     id="defs3133" />
  <sodipodi:namedview
     pagecolor="#ffffff"
     bordercolor="#666666"
     borderopacity="1"
     objecttolerance="10"
     gridtolerance="10"
     guidetolerance="10"
     inkscape:pageopacity="0"
     inkscape:pageshadow="2"
     inkscape:window-width="1855"
     inkscape:window-height="1056"
     id="namedview3131"
     showgrid="false"
     units="in"
     inkscape:zoom="0.5"
     inkscape:cx="980.879"
     inkscape:cy="536.09466"
     inkscape:window-x="65"
     inkscape:window-y="24"
     inkscape:window-maximized="1"
     inkscape:current-layer="svg2985" />
  <!-- 
  Generated using Slic3r 1.1.7
  http://slic3r.org/
   -->
  <path
     sodipodi:type="arc"
     style="fill:none;stroke:#000000;stroke-width:0.05751947;stroke-miterlimit:4;stroke-opacity:1;stroke-dasharray:none"
     id="path5728"
     sodipodi:cx="598.84113"
     sodipodi:cy="553.39026"
     sodipodi:rx="81.491776"
     sodipodi:ry="81.491776"
     d="m 680.3329,553.39026 a 81.491776,81.491776 0 1 1 -162.98355,0 81.491776,81.491776 0 1 1 162.98355,0 z"
     transform="matrix(1.7385417,0,0,1.7385417,-706.25071,-220.06473)" />
  <g
     id="g5730"
     transform="translate(777.23279,264.36267)">
    <path
       sodipodi:type="arc"
       style="fill:none;stroke:#000000;stroke-width:0.1;stroke-miterlimit:4;stroke-opacity:1;stroke-dasharray:none"
       id="path5732"
       sodipodi:cx="-1152"
       sodipodi:cy="442"
       sodipodi:rx="334"
       sodipodi:ry="334"
       d="m -1290.9024,745.74682 c -167.7547,-76.71367 -241.5581,-274.89447 -164.8444,-442.6492 76.7137,-167.75474 274.8944,-241.558103 442.6492,-164.84444 167.75472,76.71367 241.55808,274.89447 164.84442,442.6492 -33.36744,72.96674 -91.88623,131.48368 -164.85402,164.84882"
       transform="translate(709.6268,35.664645)"
       sodipodi:start="1.9997015"
       sodipodi:end="7.425108"
       sodipodi:open="true" />
    <path
       sodipodi:type="arc"
       style="fill:none;stroke:#000000;stroke-width:0.21475215;stroke-miterlimit:4;stroke-opacity:1;stroke-dasharray:none"
       id="path5734"
       sodipodi:cx="-683"
       sodipodi:cy="740"
       sodipodi:rx="57"
       sodipodi:ry="57"
       d="m -626.01294,741.21452 c -0.67076,31.47308 -26.72849,56.4433 -58.20158,55.77254 -28.66776,-0.61097 -52.419,-22.42322 -55.46332,-50.93543"
       transform="matrix(0.4307192,0.17695689,-0.17695689,0.4307192,-130.72702,591.15523)"
       sodipodi:start="0.021308956"
       sodipodi:end="3.0352232"
       sodipodi:open="true" />
    <path
       sodipodi:end="3.0392009"
       sodipodi:start="0.021034874"
       transform="matrix(-0.4307192,0.17695689,0.17695689,0.4307192,-753.99284,591.15523)"
       d="m -626.01261,741.1989 c -0.66213,31.47327 -26.71302,56.45062 -58.18629,55.78849 -28.76023,-0.60506 -52.56225,-22.54533 -55.50256,-51.16125"
       sodipodi:ry="57"
       sodipodi:rx="57"
       sodipodi:cy="740"
       sodipodi:cx="-683"
       id="path5736"
       style="fill:none;stroke:#000000;stroke-width:0.21475215;stroke-miterlimit:4;stroke-opacity:1;stroke-dasharray:none"
       sodipodi:type="arc"
       sodipodi:open="true" />
    <path
       sodipodi:end="1.8408979"
       sodipodi:start="1.3004418"
       transform="translate(709.6268,35.664645)"
       d="m -1062.7976,763.86787 c -58.3406,16.16851 -119.9787,16.17631 -178.3234,0.0226"
       sodipodi:ry="334"
       sodipodi:rx="334"
       sodipodi:cy="442"
       sodipodi:cx="-1152"
       id="path5738"
       style="fill:none;stroke:#000000;stroke-width:0.1;stroke-miterlimit:4;stroke-opacity:1;stroke-dasharray:none"
       sodipodi:type="arc"
       sodipodi:open="true" />
    <rect
       style="fill:#000000;stroke:#000000;stroke-width:0.00106995;stroke-miterlimit:4;stroke-opacity:1;stroke-dasharray:none"
       id="rect5740"
       width="5.0387235"
       height="5.0387235"
       x="-777.23279"
       y="142.80511" />
  </g>
  <g
     transform="translate(777.23279,264.30286)"
     id="g5830">
    <path
       inkscape:transform-center-x="321.41046"
       transform="matrix(0,-0.56052315,0.56052315,0,-873.64622,67.982022)"
       d="m -720,196 c 0,6.07513 -4.92487,11 -11,11 -6.07513,0 -11,-4.92487 -11,-11 0,-6.07513 4.92487,-11 11,-11 6.07513,0 11,4.92487 11,11 z"
       sodipodi:ry="11"
       sodipodi:rx="11"
       sodipodi:cy="196"
       sodipodi:cx="-731"
       id="path5832"
       style="fill:none;stroke:#000000;stroke-width:0.17840476;stroke-miterlimit:4;stroke-opacity:1;stroke-dasharray:none"
       sodipodi:type="arc" />
    <path
       inkscape:transform-center-y="321.41046"
       sodipodi:type="arc"
       style="fill:none;stroke:#000000;stroke-width:0.17840476;stroke-miterlimit:4;stroke-opacity:1;stroke-dasharray:none"
       id="path5834"
       sodipodi:cx="-731"
       sodipodi:cy="196"
       sodipodi:rx="11"
       sodipodi:ry="11"
       d="m -720,196 c 0,6.07513 -4.92487,11 -11,11 -6.07513,0 -11,-4.92487 -11,-11 0,-6.07513 4.92487,-11 11,-11 6.07513,0 11,4.92487 11,11 z"
       transform="matrix(-0.56052315,0,0,-0.56052315,-852.11565,908.99744)" />
    <path
       inkscape:transform-center-x="-321.41046"
       transform="matrix(0,0.56052315,-0.56052315,0,-11.10023,887.46687)"
       d="m -720,196 c 0,6.07513 -4.92487,11 -11,11 -6.07513,0 -11,-4.92487 -11,-11 0,-6.07513 4.92487,-11 11,-11 6.07513,0 11,4.92487 11,11 z"
       sodipodi:ry="11"
       sodipodi:rx="11"
       sodipodi:cy="196"
       sodipodi:cx="-731"
       id="path5836"
       style="fill:none;stroke:#000000;stroke-width:0.17840476;stroke-miterlimit:4;stroke-opacity:1;stroke-dasharray:none"
       sodipodi:type="arc" />
    <path
       inkscape:transform-center-y="-321.41046"
       sodipodi:type="arc"
       style="fill:none;stroke:#000000;stroke-width:0.17840476;stroke-miterlimit:4;stroke-opacity:1;stroke-dasharray:none"
       id="path5838"
       sodipodi:cx="-731"
       sodipodi:cy="196"
       sodipodi:rx="11"
       sodipodi:ry="11"
       d="m -720,196 c 0,6.07513 -4.92487,11 -11,11 -6.07513,0 -11,-4.92487 -11,-11 0,-6.07513 4.92487,-11 11,-11 6.07513,0 11,4.92487 11,11 z"
       transform="matrix(0.56052315,0,0,0.56052315,-32.630805,46.45145)" />
  </g>
  <g
     id="g6412"
     transform="translate(-2240,-132)">
    <g
       transform="translate(3568.0608,0)"
       id="g5840">
      <path
         sodipodi:open="true"
         sodipodi:end="7.425108"
         sodipodi:start="1.9997015"
         transform="translate(709.6268,35.664645)"
         d="m -1290.9024,745.74682 c -167.7547,-76.71367 -241.5581,-274.89447 -164.8444,-442.6492 76.7137,-167.75474 274.8944,-241.558103 442.6492,-164.84444 167.75472,76.71367 241.55808,274.89447 164.84442,442.6492 -33.36744,72.96674 -91.88623,131.48368 -164.85402,164.84882"
         sodipodi:ry="334"
         sodipodi:rx="334"
         sodipodi:cy="442"
         sodipodi:cx="-1152"
         id="path5842"
         style="fill:none;stroke:#000000;stroke-width:0.1;stroke-miterlimit:4;stroke-opacity:1;stroke-dasharray:none"
         sodipodi:type="arc" />
      <path
         sodipodi:open="true"
         sodipodi:end="3.0352232"
         sodipodi:start="0.021308956"
         transform="matrix(0.4307192,0.17695689,-0.17695689,0.4307192,-130.72702,591.15523)"
         d="m -626.01294,741.21452 c -0.67076,31.47308 -26.72849,56.4433 -58.20158,55.77254 -28.66776,-0.61097 -52.419,-22.42322 -55.46332,-50.93543"
         sodipodi:ry="57"
         sodipodi:rx="57"
         sodipodi:cy="740"
         sodipodi:cx="-683"
         id="path5844"
         style="fill:none;stroke:#000000;stroke-width:0.21475215;stroke-miterlimit:4;stroke-opacity:1;stroke-dasharray:none"
         sodipodi:type="arc" />
      <path
         sodipodi:open="true"
         sodipodi:type="arc"
         style="fill:none;stroke:#000000;stroke-width:0.21475215;stroke-miterlimit:4;stroke-opacity:1;stroke-dasharray:none"
         id="path5846"
         sodipodi:cx="-683"
         sodipodi:cy="740"
         sodipodi:rx="57"
         sodipodi:ry="57"
         d="m -626.01261,741.1989 c -0.66213,31.47327 -26.71302,56.45062 -58.18629,55.78849 -28.76023,-0.60506 -52.56225,-22.54533 -55.50256,-51.16125"
         transform="matrix(-0.4307192,0.17695689,0.17695689,0.4307192,-753.99284,591.15523)"
         sodipodi:start="0.021034874"
         sodipodi:end="3.0392009" />
      <path
         sodipodi:open="true"
         sodipodi:type="arc"
         style="fill:none;stroke:#000000;stroke-width:0.1;stroke-miterlimit:4;stroke-opacity:1;stroke-dasharray:none"
         id="path5848"
         sodipodi:cx="-1152"
         sodipodi:cy="442"
         sodipodi:rx="334"
         sodipodi:ry="334"
         d="m -1062.7976,763.86787 c -58.3406,16.16851 -119.9787,16.17631 -178.3234,0.0226"
         transform="translate(709.6268,35.664645)"
         sodipodi:start="1.3004418"
         sodipodi:end="1.8408979" />
      <rect
         y="142.80511"
         x="-777.23279"
         height="5.0387235"
         width="5.0387235"
         id="rect5850"
         style="fill:#000000;stroke:#000000;stroke-width:0.00106995;stroke-miterlimit:4;stroke-opacity:1;stroke-dasharray:none" />
    </g>
    <g
       transform="translate(3568.0608,0)"
       id="g5852">
      <path
         inkscape:transform-center-x="321.41046"
         transform="matrix(0,-0.56052315,0.56052315,0,-873.64622,67.982022)"
         d="m -720,196 c 0,6.07513 -4.92487,11 -11,11 -6.07513,0 -11,-4.92487 -11,-11 0,-6.07513 4.92487,-11 11,-11 6.07513,0 11,4.92487 11,11 z"
         sodipodi:ry="11"
         sodipodi:rx="11"
         sodipodi:cy="196"
         sodipodi:cx="-731"
         id="path5854"
         style="fill:none;stroke:#000000;stroke-width:0.17840476;stroke-miterlimit:4;stroke-opacity:1;stroke-dasharray:none"
         sodipodi:type="arc" />
      <path
         inkscape:transform-center-y="321.41046"
         sodipodi:type="arc"
         style="fill:none;stroke:#000000;stroke-width:0.17840476;stroke-miterlimit:4;stroke-opacity:1;stroke-dasharray:none"
         id="path5856"
         sodipodi:cx="-731"
         sodipodi:cy="196"
         sodipodi:rx="11"
         sodipodi:ry="11"
         d="m -720,196 c 0,6.07513 -4.92487,11 -11,11 -6.07513,0 -11,-4.92487 -11,-11 0,-6.07513 4.92487,-11 11,-11 6.07513,0 11,4.92487 11,11 z"
         transform="matrix(-0.56052315,0,0,-0.56052315,-852.11565,908.99744)" />
      <path
         inkscape:transform-center-x="-321.41046"
         transform="matrix(0,0.56052315,-0.56052315,0,-11.10023,887.46687)"
         d="m -720,196 c 0,6.07513 -4.92487,11 -11,11 -6.07513,0 -11,-4.92487 -11,-11 0,-6.07513 4.92487,-11 11,-11 6.07513,0 11,4.92487 11,11 z"
         sodipodi:ry="11"
         sodipodi:rx="11"
         sodipodi:cy="196"
         sodipodi:cx="-731"
         id="path5858"
         style="fill:none;stroke:#000000;stroke-width:0.17840476;stroke-miterlimit:4;stroke-opacity:1;stroke-dasharray:none"
         sodipodi:type="arc" />
      <path
         inkscape:transform-center-y="-321.41046"
         sodipodi:type="arc"
         style="fill:none;stroke:#000000;stroke-width:0.17840476;stroke-miterlimit:4;stroke-opacity:1;stroke-dasharray:none"
         id="path5860"
         sodipodi:cx="-731"
         sodipodi:cy="196"
         sodipodi:rx="11"
         sodipodi:ry="11"
         d="m -720,196 c 0,6.07513 -4.92487,11 -11,11 -6.07513,0 -11,-4.92487 -11,-11 0,-6.07513 4.92487,-11 11,-11 6.07513,0 11,4.92487 11,11 z"
         transform="matrix(0.56052315,0,0,0.56052315,-32.630805,46.45145)" />
    </g>
  </g>
</svg>
