  0
SECTION
  2
HEADER
  9
$ACADVER
  1
AC1014
  9
$HANDSEED
  5
FFFF
  9
$MEASUREMENT
 70
     1
  0
ENDSEC
  0
SECTION
  2
TABLES
  0
TABLE
  2
VPORT
  5
8
330
0
100
AcDbSymbolTable
 70
     4
  0
VPORT
  5
2E
330
8
100
AcDbSymbolTableRecord
100
AcDbViewportTableRecord
  2
*ACTIVE
 70
     0
 10
0.0
 20
0.0
 11
1.0
 21
1.0
 12
210.0
 22
148.5
 13
0.0
 23
0.0
 14
10.0
 24
10.0
 15
10.0
 25
10.0
 16
0.0
 26
0.0
 36
1.0
 17
0.0
 27
0.0
 37
0.0
 40
341.0
 41
1.24
 42
50.0
 43
0.0
 44
0.0
 50
0.0
 51
0.0
 71
     0
 72
   100
 73
     1
 74
     3
 75
     0
 76
     0
 77
     0
 78
     0
  0
ENDTAB
  0
TABLE
  2
LTYPE
  5
5
330
0
100
AcDbSymbolTable
 70
     1
  0
LTYPE
  5
14
330
5
100
AcDbSymbolTableRecord
100
AcDbLinetypeTableRecord
  2
BYBLOCK
 70
     0
  3

 72
    65
 73
     0
 40
0.0
  0
LTYPE
  5
15
330
5
100
AcDbSymbolTableRecord
100
AcDbLinetypeTableRecord
  2
BYLAYER
 70
     0
  3

 72
    65
 73
     0
 40
0.0
  0
LTYPE
  5
16
330
5
100
AcDbSymbolTableRecord
100
AcDbLinetypeTableRecord
  2
CONTINUOUS
 70
     0
  3
Solid line
 72
    65
 73
     0
 40
0.0
  0
ENDTAB
  0
TABLE
  2
LAYER
  5
2
100
AcDbSymbolTable
 70
2
  0
LAYER
  5
50
100
AcDbSymbolTableRecord
100
AcDbLayerTableRecord
  2
0
 70
0
  6
CONTINUOUS
  0
LAYER
  5
51
100
AcDbSymbolTableRecord
100
AcDbLayerTableRecord
  2
Layer_1
 70
0
  6
CONTINUOUS
  0
ENDTAB
  0
TABLE
  2
STYLE
  5
3
330
0
100
AcDbSymbolTable
 70
     1
  0
STYLE
  5
11
330
3
100
AcDbSymbolTableRecord
100
AcDbTextStyleTableRecord
  2
STANDARD
 70
     0
 40
0.0
 41
1.0
 50
0.0
 71
     0
 42
2.5
  3
txt
  4

  0
ENDTAB
  0
TABLE
  2
VIEW
  5
6
330
0
100
AcDbSymbolTable
 70
     0
  0
ENDTAB
  0
TABLE
  2
UCS
  5
7
330
0
100
AcDbSymbolTable
 70
     0
  0
ENDTAB
  0
TABLE
  2
APPID
  5
9
330
0
100
AcDbSymbolTable
 70
     2
  0
APPID
  5
12
330
9
100
AcDbSymbolTableRecord
100
AcDbRegAppTableRecord
  2
ACAD
 70
     0
  0
ENDTAB
  0
TABLE
  2
DIMSTYLE
  5
A
330
0
100
AcDbSymbolTable
 70
     1
  0
DIMSTYLE
105
27
330
A
100
AcDbSymbolTableRecord
100
AcDbDimStyleTableRecord
  2
ISO-25
 70
     0
  3

  4

  5

  6

  7

 40
1.0
 41
2.5
 42
0.625
 43
3.75
 44
1.25
 45
0.0
 46
0.0
 47
0.0
 48
0.0
140
2.5
141
2.5
142
0.0
143
0.03937007874016
144
1.0
145
0.0
146
1.0
147
0.625
 71
     0
 72
     0
 73
     0
 74
     0
 75
     0
 76
     0
 77
     1
 78
     8
170
     0
171
     3
172
     1
173
     0
174
     0
175
     0
176
     0
177
     0
178
     0
270
     2
271
     2
272
     2
273
     2
274
     3
340
11
275
     0
280
     0
281
     0
282
     0
283
     0
284
     8
285
     0
286
     0
287
     3
288
     0
  0
ENDTAB
  0
TABLE
  2
BLOCK_RECORD
  5
1
330
0
100
AcDbSymbolTable
 70
     1
  0
BLOCK_RECORD
  5
1F
330
1
100
AcDbSymbolTableRecord
100
AcDbBlockTableRecord
  2
*MODEL_SPACE
  0
BLOCK_RECORD
  5
1B
330
1
100
AcDbSymbolTableRecord
100
AcDbBlockTableRecord
  2
*PAPER_SPACE
  0
ENDTAB
  0
ENDSEC
  0
SECTION
  2
BLOCKS
  0
BLOCK
  5
20
330
1F
100
AcDbEntity
  8
0
100
AcDbBlockBegin
  2
*MODEL_SPACE
 70
     0
 10
0.0
 20
0.0
 30
0.0
  3
*MODEL_SPACE
  1

  0
ENDBLK
  5
21
330
1F
100
AcDbEntity
  8
0
100
AcDbBlockEnd
  0
BLOCK
  5
1C
330
1B
100
AcDbEntity
 67
     1
  8
0
100
AcDbBlockBegin
  2
*PAPER_SPACE
  1

  0
ENDBLK
  5
1D
330
1B
100
AcDbEntity
 67
     1
  8
0
100
AcDbBlockEnd
  0
ENDSEC
  0
SECTION
  2
ENTITIES
  0
LWPOLYLINE
  5
100
100
AcDbEntity
  8
Layer_1
 62
7
100
AcDbPolyline
 90
480
 70
0
 10
-2.657184
 20
1148.507374
 30
0.0
 10
-2.727673
 20
1223.437803
 30
0.0
 10
-2.733405
 20
1261.262017
 30
0.0
 10
-2.747587
 20
1307.644785
 30
0.0
 10
-2.769444
 20
1360.891629
 30
0.0
 10
-2.798214
 20
1419.279349
 30
0.0
 10
-2.833129
 20
1481.170907
 30
0.0
 10
-2.873420
 20
1544.814383
 30
0.0
 10
-2.918321
 20
1608.544020
 30
0.0
 10
-3.038130
 20
1790.140456
 30
0.0
 10
-3.154936
 20
2005.166949
 30
0.0
 10
-3.265452
 20
2244.691585
 30
0.0
 10
-3.366396
 20
2499.696291
 30
0.0
 10
-3.454478
 20
2761.220432
 30
0.0
 10
-3.526416
 20
3020.274655
 30
0.0
 10
-3.578922
 20
3267.898326
 30
0.0
 10
-3.608712
 20
3495.102091
 30
0.0
 10
-3.618062
 20
3592.951064
 30
0.0
 10
-3.629656
 20
3685.343241
 30
0.0
 10
-3.643016
 20
3770.210783
 30
0.0
 10
-3.657683
 20
3845.428411
 30
0.0
 10
-3.673211
 20
3908.899568
 30
0.0
 10
-3.689137
 20
3958.556414
 30
0.0
 10
-3.705003
 20
3992.216231
 30
0.0
 10
-3.720348
 20
4007.725021
 30
0.0
 10
-3.759372
 20
4017.777014
 30
0.0
 10
-3.843101
 20
4035.583401
 30
0.0
 10
-3.966314
 20
4060.282585
 30
0.0
 10
-4.123798
 20
4090.725764
 30
0.0
 10
-4.310337
 20
4125.907740
 30
0.0
 10
-4.520711
 20
4164.909473
 30
0.0
 10
-4.749708
 20
4206.697045
 30
0.0
 10
-4.992109
 20
4250.265255
 30
0.0
 10
-5.443976
 20
4332.318239
 30
0.0
 10
-5.800300
 20
4400.958992
 30
0.0
 10
-6.071109
 20
4459.203112
 30
0.0
 10
-6.266427
 20
4510.008757
 30
0.0
 10
-6.396282
 20
4556.391526
 30
0.0
 10
-6.470699
 20
4601.367015
 30
0.0
 10
-6.499703
 20
4647.922103
 30
0.0
 10
-6.493327
 20
4699.014948
 30
0.0
 10
-6.472593
 20
4729.142208
 30
0.0
 10
-6.428019
 20
4776.530175
 30
0.0
 10
-6.362395
 20
4838.737653
 30
0.0
 10
-6.278498
 20
4913.323442
 30
0.0
 10
-6.179103
 20
4997.903784
 30
0.0
 10
-6.066993
 20
5090.094921
 30
0.0
 10
-5.944950
 20
5187.398215
 30
0.0
 10
-5.815747
 20
5287.487346
 30
0.0
 10
-5.293633
 20
5705.190741
 30
0.0
 10
-4.800625
 20
6138.833724
 30
0.0
 10
-4.337592
 20
6587.353658
 30
0.0
 10
-3.905406
 20
7049.860222
 30
0.0
 10
-3.504936
 20
7525.290777
 30
0.0
 10
-3.137052
 20
8012.726284
 30
0.0
 10
-2.802626
 20
8511.161544
 30
0.0
 10
-2.502525
 20
9019.620076
 30
0.0
 10
-2.208038
 20
9599.936000
 30
0.0
 10
-1.938709
 20
10217.616618
 30
0.0
 10
-1.702171
 20
10846.440588
 30
0.0
 10
-1.506053
 20
11460.042969
 30
0.0
 10
-1.357988
 20
12032.202418
 30
0.0
 10
-1.265600
 20
12536.582713
 30
0.0
 10
-1.236524
 20
12946.933793
 30
0.0
 10
-1.278385
 20
13236.948155
 30
0.0
 10
-1.340341
 20
13355.102154
 30
0.0
 10
-1.433045
 20
13448.987770
 30
0.0
 10
-1.558081
 20
13518.949642
 30
0.0
 10
-1.717015
 20
13565.274971
 30
0.0
 10
-1.911428
 20
13588.250955
 30
0.0
 10
-2.142888
 20
13588.222235
 30
0.0
 10
-2.412975
 20
13565.533450
 30
0.0
 10
-2.723260
 20
13520.385641
 30
0.0
 10
-3.320664
 20
13422.852588
 30
0.0
 10
-3.818144
 20
13351.799356
 30
0.0
 10
-4.231615
 20
13306.967467
 30
0.0
 10
-4.577000
 20
13288.012280
 30
0.0
 10
-4.870215
 20
13294.617875
 30
0.0
 10
-5.127180
 20
13326.525774
 30
0.0
 10
-5.363816
 20
13383.448775
 30
0.0
 10
-5.596039
 20
13465.013519
 30
0.0
 10
-5.935340
 20
13627.511168
 30
0.0
 10
-6.240083
 20
13829.067990
 30
0.0
 10
-6.507744
 20
14066.208868
 30
0.0
 10
-6.735792
 20
14335.487404
 30
0.0
 10
-6.921696
 20
14633.399761
 30
0.0
 10
-7.062929
 20
14956.499540
 30
0.0
 10
-7.156959
 20
15301.340344
 30
0.0
 10
-7.201258
 20
15664.432696
 30
0.0
 10
-7.204081
 20
15720.545794
 30
0.0
 10
-7.206903
 20
15776.661764
 30
0.0
 10
-7.209725
 20
15832.774861
 30
0.0
 10
-7.212547
 20
15888.887959
 30
0.0
 10
-7.215370
 20
15945.001057
 30
0.0
 10
-7.218192
 20
16001.117026
 30
0.0
 10
-7.221014
 20
16057.230124
 30
0.0
 10
-7.223836
 20
16113.343222
 30
0.0
 10
-7.312133
 20
16170.906678
 30
0.0
 10
-7.400429
 20
16228.473007
 30
0.0
 10
-7.488727
 20
16286.036464
 30
0.0
 10
-7.577024
 20
16343.599920
 30
0.0
 10
-7.665321
 20
16401.163377
 30
0.0
 10
-7.753617
 20
16458.729706
 30
0.0
 10
-7.841915
 20
16516.293162
 30
0.0
 10
-7.930212
 20
16573.856619
 30
0.0
 10
-8.301847
 20
16835.573184
 30
0.0
 10
-8.654529
 20
17123.014236
 30
0.0
 10
-8.985887
 20
17433.445632
 30
0.0
 10
-9.293552
 20
17764.141846
 30
0.0
 10
-9.575149
 20
18112.362992
 30
0.0
 10
-9.828311
 20
18475.380672
 30
0.0
 10
-10.050667
 20
18850.466488
 30
0.0
 10
-10.239844
 20
19234.889169
 30
0.0
 10
-10.363683
 20
19536.474811
 30
0.0
 10
-10.482422
 20
19865.396130
 30
0.0
 10
-10.591338
 20
20203.978851
 30
0.0
 10
-10.685722
 20
20534.542953
 30
0.0
 10
-10.760857
 20
20839.422777
 30
0.0
 10
-10.812029
 20
21100.938302
 30
0.0
 10
-10.834522
 20
21301.420997
 30
0.0
 10
-10.823617
 20
21423.193714
 30
0.0
 10
-10.823053
 20
21443.900820
 30
0.0
 10
-10.833947
 20
21470.438082
 30
0.0
 10
-10.855238
 20
21501.685420
 30
0.0
 10
-10.885873
 20
21536.560092
 30
0.0
 10
-10.924799
 20
21573.970739
 30
0.0
 10
-10.970959
 20
21612.817384
 30
0.0
 10
-11.023300
 20
21652.005797
 30
0.0
 10
-11.080766
 20
21690.438875
 30
0.0
 10
-11.223943
 20
21800.763808
 30
0.0
 10
-11.356041
 20
21940.495128
 30
0.0
 10
-11.473454
 20
22102.251802
 30
0.0
 10
-11.572568
 20
22278.661409
 30
0.0
 10
-11.649772
 20
22462.345788
 30
0.0
 10
-11.701454
 20
22645.935390
 30
0.0
 10
-11.724003
 20
22822.049182
 30
0.0
 10
-11.713809
 20
22983.314744
 30
0.0
 10
-11.672872
 20
23139.959261
 30
0.0
 10
-11.610177
 20
23281.310388
 30
0.0
 10
-11.525425
 20
23407.629478
 30
0.0
 10
-11.418314
 20
23519.177882
 30
0.0
 10
-11.288544
 20
23616.225567
 30
0.0
 10
-11.135818
 20
23699.031015
 30
0.0
 10
-10.959836
 20
23767.858448
 30
0.0
 10
-10.760297
 20
23822.974962
 30
0.0
 10
-10.615494
 20
23858.696874
 30
0.0
 10
-10.496894
 20
23896.733616
 30
0.0
 10
-10.396735
 20
23943.484000
 30
0.0
 10
-10.307260
 20
24005.349710
 30
0.0
 10
-10.220706
 20
24088.743917
 30
0.0
 10
-10.129312
 20
24200.062561
 30
0.0
 10
-10.025321
 20
24345.715941
 30
0.0
 10
-9.900968
 20
24532.102870
 30
0.0
 10
-9.484317
 20
25071.834589
 30
0.0
 10
-8.982121
 20
25561.705550
 30
0.0
 10
-8.408915
 20
25994.305999
 30
0.0
 10
-7.779232
 20
26362.217563
 30
0.0
 10
-7.107609
 20
26658.030489
 30
0.0
 10
-6.408579
 20
26874.329277
 30
0.0
 10
-5.696679
 20
27003.701301
 30
0.0
 10
-4.986440
 20
27038.736805
 30
0.0
 10
-4.864132
 20
27038.162406
 30
0.0
 10
-4.746567
 20
27041.608803
 30
0.0
 10
-4.636564
 20
27048.616478
 30
0.0
 10
-4.536947
 20
27058.840791
 30
0.0
 10
-4.450535
 20
27071.908382
 30
0.0
 10
-4.380146
 20
27087.474612
 30
0.0
 10
-4.328606
 20
27105.223560
 30
0.0
 10
-4.298731
 20
27124.753146
 30
0.0
 10
-4.285743
 20
27153.329527
 30
0.0
 10
-4.282594
 20
27196.966665
 30
0.0
 10
-4.288718
 20
27253.496202
 30
0.0
 10
-4.303532
 20
27320.749780
 30
0.0
 10
-4.326471
 20
27396.559041
 30
0.0
 10
-4.356960
 20
27478.755625
 30
0.0
 10
-4.394430
 20
27565.168301
 30
0.0
 10
-4.438304
 20
27653.628713
 30
0.0
 10
-4.660532
 20
28102.160135
 30
0.0
 10
-4.844414
 20
28535.073631
 30
0.0
 10
-4.990704
 20
28955.743799
 30
0.0
 10
-5.100155
 20
29367.542366
 30
0.0
 10
-5.173523
 20
29773.849672
 30
0.0
 10
-5.211561
 20
30178.034572
 30
0.0
 10
-5.215021
 20
30583.474535
 30
0.0
 10
-5.184659
 20
30993.541287
 30
0.0
 10
-5.142319
 20
31278.274045
 30
0.0
 10
-5.079117
 20
31566.703064
 30
0.0
 10
-4.993960
 20
31861.654390
 30
0.0
 10
-4.885759
 20
32165.936838
 30
0.0
 10
-4.753417
 20
32482.376454
 30
0.0
 10
-4.595843
 20
32813.790667
 30
0.0
 10
-4.411948
 20
33162.991165
 30
0.0
 10
-4.200637
 20
33532.803992
 30
0.0
 10
-3.952887
 20
33994.727541
 30
0.0
 10
-3.673744
 20
34586.755472
 30
0.0
 10
-3.378782
 20
35268.944038
 30
0.0
 10
-3.083572
 20
36001.346618
 30
0.0
 10
-2.803687
 20
36744.028078
 30
0.0
 10
-2.554699
 20
37457.036055
 30
0.0
 10
-2.352180
 20
38100.438288
 30
0.0
 10
-2.211705
 20
38634.288155
 30
0.0
 10
-2.109881
 20
39116.393233
 30
0.0
 10
-2.016786
 20
39627.241268
 30
0.0
 10
-1.927064
 20
40210.647462
 30
0.0
 10
-1.835352
 20
40910.427016
 30
0.0
 10
-1.736293
 20
41770.400876
 30
0.0
 10
-1.624527
 20
42834.384245
 30
0.0
 10
-1.494696
 20
44146.186581
 30
0.0
 10
-1.341440
 20
45749.637445
 30
0.0
 10
-1.257768
 20
46617.193381
 30
0.0
 10
-1.175462
 20
47437.691628
 30
0.0
 10
-1.096626
 20
48192.383784
 30
0.0
 10
-1.023364
 20
48862.509959
 30
0.0
 10
-0.957782
 20
49429.316003
 30
0.0
 10
-0.901984
 20
49874.047771
 30
0.0
 10
-0.858078
 20
50177.953988
 30
0.0
 10
-0.828166
 20
50322.271889
 30
0.0
 10
-0.714155
 20
50533.751465
 30
0.0
 10
-0.558701
 20
50695.625890
 30
0.0
 10
-0.372071
 20
50806.393110
 30
0.0
 10
-0.164529
 20
50864.551071
 30
0.0
 10
0.053657
 20
50868.600588
 30
0.0
 10
0.272223
 20
50817.048223
 30
0.0
 10
0.480904
 20
50708.383305
 30
0.0
 10
0.669436
 20
50541.115268
 30
0.0
 10
0.759898
 20
50442.243863
 30
0.0
 10
0.831261
 20
50322.584937
 30
0.0
 10
0.895312
 20
50096.501251
 30
0.0
 10
0.963837
 20
49678.355569
 30
0.0
 10
1.048620
 20
48982.513525
 30
0.0
 10
1.161448
 20
47923.332136
 30
0.0
 10
1.314106
 20
46415.174167
 30
0.0
 10
1.518380
 20
44372.405250
 30
0.0
 10
1.747364
 20
42262.402860
 30
0.0
 10
1.987646
 20
40464.405720
 30
0.0
 10
2.255718
 20
38915.907666
 30
0.0
 10
2.568061
 20
37554.416893
 30
0.0
 10
2.941165
 20
36317.427234
 30
0.0
 10
3.391515
 20
35142.446884
 30
0.0
 10
3.935598
 20
33966.969680
 30
0.0
 10
4.589900
 20
32728.503814
 30
0.0
 10
4.778484
 20
32368.073804
 30
0.0
 10
4.939111
 20
32017.006508
 30
0.0
 10
5.072820
 20
31671.551096
 30
0.0
 10
5.180646
 20
31327.962483
 30
0.0
 10
5.263629
 20
30982.489839
 30
0.0
 10
5.322808
 20
30631.382335
 30
0.0
 10
5.359221
 20
30270.894885
 30
0.0
 10
5.373905
 20
29897.276660
 30
0.0
 10
5.372296
 20
29716.389608
 30
0.0
 10
5.361109
 20
29547.636747
 30
0.0
 10
5.337072
 20
29378.157271
 30
0.0
 10
5.296925
 20
29195.073140
 30
0.0
 10
5.237397
 20
28985.520675
 30
0.0
 10
5.155224
 20
28736.624709
 30
0.0
 10
5.047136
 20
28435.521563
 30
0.0
 10
4.909869
 20
28069.344685
 30
0.0
 10
4.748102
 20
27635.434605
 30
0.0
 10
4.630754
 20
27297.179293
 30
0.0
 10
4.557126
 20
27043.719722
 30
0.0
 10
4.526532
 20
26864.191124
 30
0.0
 10
4.538284
 20
26747.725860
 30
0.0
 10
4.591675
 20
26683.467776
 30
0.0
 10
4.686023
 20
26660.549232
 30
0.0
 10
4.820635
 20
26668.102586
 30
0.0
 10
4.991275
 20
26670.112985
 30
0.0
 10
5.233014
 20
26646.648761
 30
0.0
 10
5.526198
 20
26601.888672
 30
0.0
 10
5.851166
 20
26539.902338
 30
0.0
 10
6.188257
 20
26464.759381
 30
0.0
 10
6.517812
 20
26380.532295
 30
0.0
 10
6.820176
 20
26291.290700
 30
0.0
 10
7.075685
 20
26201.109961
 30
0.0
 10
7.469200
 20
26018.861582
 30
0.0
 10
7.892092
 20
25778.871682
 30
0.0
 10
8.317443
 20
25501.988095
 30
0.0
 10
8.718333
 20
25209.055783
 30
0.0
 10
9.067843
 20
24920.919708
 30
0.0
 10
9.339054
 20
24658.424831
 30
0.0
 10
9.505045
 20
24442.413243
 30
0.0
 10
9.538899
 20
24293.735649
 30
0.0
 10
9.534846
 20
24274.924061
 30
0.0
 10
9.536286
 20
24255.308315
 30
0.0
 10
9.542844
 20
24235.462808
 30
0.0
 10
9.554097
 20
24215.961942
 30
0.0
 10
9.569636
 20
24197.380114
 30
0.0
 10
9.589061
 20
24180.320446
 30
0.0
 10
9.611963
 20
24165.328616
 30
0.0
 10
9.637936
 20
24153.007745
 30
0.0
 10
9.671121
 20
24132.300639
 30
0.0
 10
9.714698
 20
24093.290290
 30
0.0
 10
9.766809
 20
24038.239831
 30
0.0
 10
9.825600
 20
23969.409526
 30
0.0
 10
9.889211
 20
23889.068253
 30
0.0
 10
9.955789
 20
23799.467658
 30
0.0
 10
10.023477
 20
23702.876620
 30
0.0
 10
10.090420
 20
23601.558274
 30
0.0
 10
10.191821
 20
23446.243492
 30
0.0
 10
10.277724
 20
23324.809671
 30
0.0
 10
10.355409
 20
23231.578870
 30
0.0
 10
10.432155
 20
23160.884639
 30
0.0
 10
10.515247
 20
23107.049035
 30
0.0
 10
10.611962
 20
23064.402737
 30
0.0
 10
10.729582
 20
23027.270674
 30
0.0
 10
10.875389
 20
22989.980651
 30
0.0
 10
11.008603
 20
22955.430515
 30
0.0
 10
11.120713
 20
22920.300235
 30
0.0
 10
11.215793
 20
22882.042349
 30
0.0
 10
11.297958
 20
22838.201299
 30
0.0
 10
11.371284
 20
22786.221007
 30
0.0
 10
11.439858
 20
22723.585601
 30
0.0
 10
11.507773
 20
22647.776341
 30
0.0
 10
11.579113
 20
22556.265868
 30
0.0
 10
11.723414
 20
22328.806495
 30
0.0
 10
11.817851
 20
22103.848633
 30
0.0
 10
11.862721
 20
21883.537663
 30
0.0
 10
11.858321
 20
21670.030457
 30
0.0
 10
11.804948
 20
21465.466653
 30
0.0
 10
11.702901
 20
21272.008865
 30
0.0
 10
11.552476
 20
21091.802476
 30
0.0
 10
11.353969
 20
20926.998613
 30
0.0
 10
11.308549
 20
20895.064867
 30
0.0
 10
11.263129
 20
20863.131120
 30
0.0
 10
11.217705
 20
20831.200246
 30
0.0
 10
11.172285
 20
20799.266500
 30
0.0
 10
11.126864
 20
20767.335626
 30
0.0
 10
11.081442
 20
20735.404752
 30
0.0
 10
11.036022
 20
20703.471006
 30
0.0
 10
10.990600
 20
20671.537259
 30
0.0
 10
10.976966
 20
20581.951025
 30
0.0
 10
10.963332
 20
20492.364790
 30
0.0
 10
10.949698
 20
20402.778555
 30
0.0
 10
10.936064
 20
20313.192320
 30
0.0
 10
10.922430
 20
20223.606085
 30
0.0
 10
10.908795
 20
20134.019851
 30
0.0
 10
10.895161
 20
20044.433616
 30
0.0
 10
10.881527
 20
19954.847381
 30
0.0
 10
10.825913
 20
19633.243913
 30
0.0
 10
10.759734
 20
19333.525070
 30
0.0
 10
10.681489
 20
19051.721750
 30
0.0
 10
10.589681
 20
18783.861981
 30
0.0
 10
10.482804
 20
18525.976661
 30
0.0
 10
10.359364
 20
18274.096689
 30
0.0
 10
10.217857
 20
18024.252964
 30
0.0
 10
10.056784
 20
17772.473512
 30
0.0
 10
9.905775
 20
17567.987252
 30
0.0
 10
9.718407
 20
17343.830677
 30
0.0
 10
9.508424
 20
17113.510794
 30
0.0
 10
9.289579
 20
16890.531739
 30
0.0
 10
9.075619
 20
16688.391901
 30
0.0
 10
8.880289
 20
16520.601159
 30
0.0
 10
8.717343
 20
16400.660777
 30
0.0
 10
8.600525
 20
16342.077761
 30
0.0
 10
8.578562
 20
16335.414726
 30
0.0
 10
8.560650
 20
16328.091131
 30
0.0
 10
8.546999
 20
16320.394176
 30
0.0
 10
8.537815
 20
16312.553622
 30
0.0
 10
8.533305
 20
16304.770507
 30
0.0
 10
8.533616
 20
16297.303312
 30
0.0
 10
8.539071
 20
16290.381797
 30
0.0
 10
8.549838
 20
16284.264441
 30
0.0
 10
8.555511
 20
16264.907174
 30
0.0
 10
8.523698
 20
16229.644782
 30
0.0
 10
8.457787
 20
16180.496280
 30
0.0
 10
8.361172
 20
16119.483553
 30
0.0
 10
8.237249
 20
16048.645722
 30
0.0
 10
8.089409
 20
15969.998928
 30
0.0
 10
7.921047
 20
15885.582289
 30
0.0
 10
7.735557
 20
15797.423437
 30
0.0
 10
7.639866
 20
15751.204373
 30
0.0
 10
7.565532
 20
15707.607443
 30
0.0
 10
7.508559
 20
15659.553172
 30
0.0
 10
7.464947
 20
15599.979316
 30
0.0
 10
7.430706
 20
15521.803530
 30
0.0
 10
7.401831
 20
15417.960697
 30
0.0
 10
7.374326
 20
15281.377086
 30
0.0
 10
7.344198
 20
15104.984711
 30
0.0
 10
7.291664
 20
14817.580995
 30
0.0
 10
7.234154
 20
14570.187084
 30
0.0
 10
7.168574
 20
14356.309390
 30
0.0
 10
7.091838
 20
14169.428478
 30
0.0
 10
7.000849
 20
14003.024911
 30
0.0
 10
6.892524
 20
13850.636696
 30
0.0
 10
6.763767
 20
13705.715675
 30
0.0
 10
6.611494
 20
13561.742413
 30
0.0
 10
6.301661
 20
13306.536667
 30
0.0
 10
6.010690
 20
13115.778558
 30
0.0
 10
5.715967
 20
12986.739686
 30
0.0
 10
5.394878
 20
12916.662934
 30
0.0
 10
5.024813
 20
12902.877343
 30
0.0
 10
4.583154
 20
12942.482196
 30
0.0
 10
4.047289
 20
13032.806534
 30
0.0
 10
3.394607
 20
13171.093240
 30
0.0
 10
2.712834
 20
13317.249220
 30
0.0
 10
2.194675
 20
13402.806042
 30
0.0
 10
1.821988
 20
13416.878832
 30
0.0
 10
1.576626
 20
13348.324239
 30
0.0
 10
1.440447
 20
13186.257390
 30
0.0
 10
1.395307
 20
12919.735972
 30
0.0
 10
1.423061
 20
12537.760233
 30
0.0
 10
1.505566
 20
12029.359140
 30
0.0
 10
1.603312
 20
11583.510165
 30
0.0
 10
1.741720
 20
11090.790181
 30
0.0
 10
1.914305
 20
10567.655739
 30
0.0
 10
2.114582
 20
10030.592106
 30
0.0
 10
2.336066
 20
9496.084551
 30
0.0
 10
2.572275
 20
8980.560903
 30
0.0
 10
2.816724
 20
8500.563871
 30
0.0
 10
3.062929
 20
8072.521283
 30
0.0
 10
3.382644
 20
7591.260572
 30
0.0
 10
3.753583
 20
7095.295231
 30
0.0
 10
4.163501
 20
6597.750291
 30
0.0
 10
4.600156
 20
6111.664623
 30
0.0
 10
5.051300
 20
5650.077098
 30
0.0
 10
5.504691
 20
5226.141468
 30
0.0
 10
5.948082
 20
4852.839163
 30
0.0
 10
6.369231
 20
4543.323935
 30
0.0
 10
6.421838
 20
4506.734680
 30
0.0
 10
6.470224
 20
4470.777264
 30
0.0
 10
6.513381
 20
4436.370728
 30
0.0
 10
6.550297
 20
4404.434109
 30
0.0
 10
6.579962
 20
4376.001329
 30
0.0
 10
6.601366
 20
4351.876545
 30
0.0
 10
6.613513
 20
4332.921358
 30
0.0
 10
6.615376
 20
4319.997367
 30
0.0
 10
6.575297
 20
4278.410836
 30
0.0
 10
6.487109
 20
4234.785185
 30
0.0
 10
6.352618
 20
4189.608656
 30
0.0
 10
6.173629
 20
4143.254608
 30
0.0
 10
5.951948
 20
4096.153840
 30
0.0
 10
5.689384
 20
4048.737152
 30
0.0
 10
5.387740
 20
4001.435345
 30
0.0
 10
5.048825
 20
3954.650497
 30
0.0
 10
4.841594
 20
3927.366515
 30
0.0
 10
4.643366
 20
3900.369734
 30
0.0
 10
4.458829
 20
3874.521752
 30
0.0
 10
4.292671
 20
3850.396968
 30
0.0
 10
4.149582
 20
3828.856983
 30
0.0
 10
4.034248
 20
3810.188995
 30
0.0
 10
3.951363
 20
3795.541805
 30
0.0
 10
3.905612
 20
3785.489812
 30
0.0
 10
3.872873
 20
3765.385826
 30
0.0
 10
3.840509
 20
3723.914174
 30
0.0
 10
3.808103
 20
3659.782458
 30
0.0
 10
3.775265
 20
3571.755718
 30
0.0
 10
3.741518
 20
3458.570276
 30
0.0
 10
3.706483
 20
3318.991171
 30
0.0
 10
3.669738
 20
3151.726005
 30
0.0
 10
3.630863
 20
2955.539819
 30
0.0
 10
3.587819
 20
2741.030286
 30
0.0
 10
3.544208
 20
2550.444496
 30
0.0
 10
3.498455
 20
2379.158533
 30
0.0
 10
3.448977
 20
2222.634640
 30
0.0
 10
3.394205
 20
2076.248900
 30
0.0
 10
3.332555
 20
1935.463556
 30
0.0
 10
3.262454
 20
1795.654692
 30
0.0
 10
3.182323
 20
1652.255830
 30
0.0
 10
3.122430
 20
1547.399181
 30
0.0
 10
3.066484
 20
1445.098611
 30
0.0
 10
3.015715
 20
1347.881478
 30
0.0
 10
2.971354
 20
1258.303859
 30
0.0
 10
2.934632
 20
1178.950553
 30
0.0
 10
2.906774
 20
1112.348919
 30
0.0
 10
2.890261
 20
1122.113712
 30
0.0
 10
2.754296
 20
939.081277
 30
0.0
 10
2.484101
 20
789.450179
 30
0.0
 10
2.214220
 20
655.069391
 30
0.0
 10
1.928413
 20
475.224874
 30
0.0
 10
1.551761
 20
251.582387
 30
0.0
 10
1.148278
 20
181.046115
 30
0.0
 10
0.685490
 20
142.302861
 30
0.0
 10
0.283577
 20
148.046858
 30
0.0
 10
-0.007945
 20
145.174860
 30
0.0
 10
-0.343794
 20
174.268200
 30
0.0
 10
-0.738635
 20
250.404868
 30
0.0
 10
-1.147518
 20
372.579664
 30
0.0
 10
-1.556402
 20
494.754461
 30
0.0
 10
-1.920020
 20
631.231807
 30
0.0
 10
-2.446893
 20
847.464540
 30
0.0
 10
-2.657220
 20
1148.449934
 30
0.0
  0
LWPOLYLINE
  5
101
100
AcDbEntity
  8
Layer_1
 62
7
100
AcDbPolyline
 90
73
 70
0
 10
0.088917
 20
1579.019880
 30
0.0
 10
0.264948
 20
1572.988684
 30
0.0
 10
0.419225
 20
1575.860682
 30
0.0
 10
0.556932
 20
1587.348674
 30
0.0
 10
0.683245
 20
1609.175859
 30
0.0
 10
0.803344
 20
1642.577196
 30
0.0
 10
0.922408
 20
1688.701485
 30
0.0
 10
1.045616
 20
1748.697524
 30
0.0
 10
1.178149
 20
1823.742833
 30
0.0
 10
1.359085
 20
1935.980516
 30
0.0
 10
1.509070
 20
2040.262765
 30
0.0
 10
1.633709
 20
2143.051575
 30
0.0
 10
1.738608
 20
2250.895101
 30
0.0
 10
1.829367
 20
2370.312779
 30
0.0
 10
1.911593
 20
2507.766605
 30
0.0
 10
1.990888
 20
2669.804735
 30
0.0
 10
2.072854
 20
2862.917883
 30
0.0
 10
2.133478
 20
3041.412561
 30
0.0
 10
2.168365
 20
3231.969631
 30
0.0
 10
2.174662
 20
3455.841878
 30
0.0
 10
2.149541
 20
3734.339527
 30
0.0
 10
2.090154
 20
4088.715365
 30
0.0
 10
1.993662
 20
4540.250897
 30
0.0
 10
1.857220
 20
5110.227627
 30
0.0
 10
1.677988
 20
5819.955782
 30
0.0
 10
1.600506
 20
6123.727015
 30
0.0
 10
1.521999
 20
6434.190003
 30
0.0
 10
1.444630
 20
6742.527712
 30
0.0
 10
1.370561
 20
7040.037989
 30
0.0
 10
1.301956
 20
7318.018679
 30
0.0
 10
1.240979
 20
7567.738908
 30
0.0
 10
1.189793
 20
7780.467803
 30
0.0
 10
1.150561
 20
7947.474489
 30
0.0
 10
1.054264
 20
8340.823340
 30
0.0
 10
0.959438
 20
8675.468551
 30
0.0
 10
0.864090
 20
8955.488360
 30
0.0
 10
0.766229
 20
9184.989723
 30
0.0
 10
0.663862
 20
9368.079598
 30
0.0
 10
0.555000
 20
9508.864942
 30
0.0
 10
0.437651
 20
9611.423992
 30
0.0
 10
0.309823
 20
9679.892425
 30
0.0
 10
0.154703
 20
9725.672074
 30
0.0
 10
0.002565
 20
9741.180863
 30
0.0
 10
-0.143497
 20
9727.395273
 30
0.0
 10
-0.280387
 20
9685.894901
 30
0.0
 10
-0.405004
 20
9617.857268
 30
0.0
 10
-0.514255
 20
9524.632211
 30
0.0
 10
-0.605044
 20
9407.483411
 30
0.0
 10
-0.674269
 20
9267.731987
 30
0.0
 10
-0.769863
 20
8951.869643
 30
0.0
 10
-0.939454
 20
8333.068945
 30
0.0
 10
-1.157632
 20
7509.954308
 30
0.0
 10
-1.398985
 20
6581.121422
 30
0.0
 10
-1.638100
 20
5645.194702
 30
0.0
 10
-1.849567
 20
4800.855999
 30
0.0
 10
-2.007974
 20
4146.672286
 30
0.0
 10
-2.087909
 20
3781.296695
 30
0.0
 10
-2.096067
 20
3577.097635
 30
0.0
 10
-2.061184
 20
3342.800035
 30
0.0
 10
-1.989198
 20
3091.327887
 30
0.0
 10
-1.886055
 20
2835.547741
 30
0.0
 10
-1.757703
 20
2588.412310
 30
0.0
 10
-1.610081
 20
2362.816864
 30
0.0
 10
-1.449138
 20
2171.714115
 30
0.0
 10
-1.280819
 20
2027.970613
 30
0.0
 10
-1.096439
 20
1905.623497
 30
0.0
 10
-0.937183
 20
1809.210523
 30
0.0
 10
-0.792365
 20
1735.227853
 30
0.0
 10
-0.651315
 20
1680.171651
 30
0.0
 10
-0.503340
 20
1640.595518
 30
0.0
 10
-0.337766
 20
1613.024337
 30
0.0
 10
-0.143911
 20
1593.781950
 30
0.0
 10
0.088913
 20
1579.421960
 30
0.0
  0
LWPOLYLINE
  5
102
100
AcDbEntity
  8
Layer_1
 62
7
100
AcDbPolyline
 90
57
 70
0
 10
0.659221
 20
14302.028627
 30
0.0
 10
0.944162
 20
14590.951630
 30
0.0
 10
1.189166
 20
14851.125932
 30
0.0
 10
1.393957
 20
15082.206894
 30
0.0
 10
1.558266
 20
15283.775204
 30
0.0
 10
1.681819
 20
15455.523559
 30
0.0
 10
1.764344
 20
15597.092958
 30
0.0
 10
1.805575
 20
15708.130146
 30
0.0
 10
1.805225
 20
15788.273252
 30
0.0
 10
1.706621
 20
15981.966543
 30
0.0
 10
1.511777
 20
16290.786748
 30
0.0
 10
1.252085
 20
16671.719952
 30
0.0
 10
0.958942
 20
17081.752240
 30
0.0
 10
0.663738
 20
17477.869697
 30
0.0
 10
0.397866
 20
17817.058410
 30
0.0
 10
0.192722
 20
18056.298718
 30
0.0
 10
0.079697
 20
18152.582452
 30
0.0
 10
0.029313
 20
18146.292777
 30
0.0
 10
-0.036237
 20
18109.927538
 30
0.0
 10
-0.118910
 20
18041.378688
 30
0.0
 10
-0.220669
 20
17938.520951
 30
0.0
 10
-0.343470
 20
17799.252022
 30
0.0
 10
-0.489274
 20
17621.452367
 30
0.0
 10
-0.660041
 20
17403.011069
 30
0.0
 10
-0.857730
 20
17141.817207
 30
0.0
 10
-1.014909
 20
16929.088312
 30
0.0
 10
-1.163340
 20
16723.387197
 30
0.0
 10
-1.299645
 20
16529.731241
 30
0.0
 10
-1.420445
 20
16353.137826
 30
0.0
 10
-1.522366
 20
16198.632947
 30
0.0
 10
-1.602030
 20
16071.233986
 30
0.0
 10
-1.656058
 20
15975.961196
 30
0.0
 10
-1.681079
 20
15917.834827
 30
0.0
 10
-1.680531
 20
15858.941635
 30
0.0
 10
-1.653926
 20
15778.698010
 30
0.0
 10
-1.600096
 20
15675.395113
 30
0.0
 10
-1.517871
 20
15547.329848
 30
0.0
 10
-1.406080
 20
15392.801994
 30
0.0
 10
-1.263555
 20
15210.102711
 30
0.0
 10
-1.089123
 20
14997.540392
 30
0.0
 10
-0.881618
 20
14753.391839
 30
0.0
 10
-0.709820
 20
14556.746133
 30
0.0
 10
-0.545563
 20
14374.058338
 30
0.0
 10
-0.392724
 20
14209.263091
 30
0.0
 10
-0.255188
 20
14066.295028
 30
0.0
 10
-0.136833
 20
13949.117508
 30
0.0
 10
-0.041537
 20
13861.665168
 30
0.0
 10
0.026816
 20
13807.872645
 30
0.0
 10
0.064351
 20
13791.789456
 30
0.0
 10
0.094719
 20
13805.575046
 30
0.0
 10
0.142535
 20
13837.885024
 30
0.0
 10
0.205360
 20
13886.565391
 30
0.0
 10
0.280754
 20
13949.490868
 30
0.0
 10
0.366275
 20
14024.622337
 30
0.0
 10
0.459487
 20
14109.805799
 30
0.0
 10
0.557947
 20
14203.002135
 30
0.0
 10
0.659214
 20
14302.057347
 30
0.0
  0
LWPOLYLINE
  5
103
100
AcDbEntity
  8
Layer_1
 62
7
100
AcDbPolyline
 90
105
 70
0
 10
-6.672477
 20
18024.821620
 30
0.0
 10
-6.656410
 20
18046.591365
 30
0.0
 10
-6.640679
 20
18085.707978
 30
0.0
 10
-6.625628
 20
18139.939917
 30
0.0
 10
-6.611695
 20
18207.104463
 30
0.0
 10
-6.599260
 20
18285.001666
 30
0.0
 10
-6.588733
 20
18371.431575
 30
0.0
 10
-6.580526
 20
18464.194239
 30
0.0
 10
-6.575017
 20
18561.089709
 30
0.0
 10
-6.531045
 20
18897.578743
 30
0.0
 10
-6.431311
 20
19210.029154
 30
0.0
 10
-6.281574
 20
19492.363793
 30
0.0
 10
-6.087585
 20
19738.519873
 30
0.0
 10
-5.855095
 20
19942.417374
 30
0.0
 10
-5.589861
 20
20097.987763
 30
0.0
 10
-5.297633
 20
20199.165382
 30
0.0
 10
-4.984165
 20
20239.873082
 30
0.0
 10
-4.802099
 20
20230.050849
 30
0.0
 10
-4.602039
 20
20193.998658
 30
0.0
 10
-4.392344
 20
20135.171522
 30
0.0
 10
-4.181368
 20
20057.041687
 30
0.0
 10
-3.977469
 20
19963.061295
 30
0.0
 10
-3.789002
 20
19856.711208
 30
0.0
 10
-3.624324
 20
19741.449311
 30
0.0
 10
-3.491788
 20
19620.747849
 30
0.0
 10
-3.390135
 20
19494.020936
 30
0.0
 10
-3.297973
 20
19345.179638
 30
0.0
 10
-3.217227
 20
19179.965078
 30
0.0
 10
-3.149823
 20
19004.121255
 30
0.0
 10
-3.097690
 20
18823.392162
 30
0.0
 10
-3.062747
 20
18643.521797
 30
0.0
 10
-3.046923
 20
18470.257027
 30
0.0
 10
-3.052139
 20
18309.338977
 30
0.0
 10
-3.055599
 20
18251.350465
 30
0.0
 10
-3.054187
 20
18191.009786
 30
0.0
 10
-3.048233
 20
18130.083220
 30
0.0
 10
-3.038112
 20
18070.334173
 30
0.0
 10
-3.024204
 20
18013.531795
 30
0.0
 10
-3.006859
 20
17961.442367
 30
0.0
 10
-2.986443
 20
17915.835038
 30
0.0
 10
-2.963323
 20
17878.476088
 30
0.0
 10
-2.926876
 20
17836.228997
 30
0.0
 10
-2.888620
 20
17807.434344
 30
0.0
 10
-2.845830
 20
17792.413794
 30
0.0
 10
-2.795774
 20
17791.552195
 30
0.0
 10
-2.735730
 20
17804.993146
 30
0.0
 10
-2.662970
 20
17833.110007
 30
0.0
 10
-2.574766
 20
17876.227313
 30
0.0
 10
-2.468392
 20
17934.658113
 30
0.0
 10
-2.383859
 20
17985.880198
 30
0.0
 10
-2.287938
 20
18049.446131
 30
0.0
 10
-2.183946
 20
18122.834297
 30
0.0
 10
-2.075203
 20
18203.528826
 30
0.0
 10
-1.965028
 20
18289.005231
 30
0.0
 10
-1.856740
 20
18376.747643
 30
0.0
 10
-1.753660
 20
18464.234447
 30
0.0
 10
-1.659104
 20
18548.946902
 30
0.0
 10
-1.528182
 20
18673.870200
 30
0.0
 10
-1.418876
 20
18789.450889
 30
0.0
 10
-1.325169
 20
18905.740962
 30
0.0
 10
-1.241039
 20
19032.780923
 30
0.0
 10
-1.160466
 20
19180.625638
 30
0.0
 10
-1.077430
 20
19359.324228
 30
0.0
 10
-0.985912
 20
19578.920070
 30
0.0
 10
-0.879888
 20
19849.465157
 30
0.0
 10
-0.732896
 20
20263.164986
 30
0.0
 10
-0.626306
 20
20641.748896
 30
0.0
 10
-0.559945
 20
20994.407279
 30
0.0
 10
-0.533634
 20
21330.313297
 30
0.0
 10
-0.547202
 20
21658.651601
 30
0.0
 10
-0.600466
 20
21988.612584
 30
0.0
 10
-0.693254
 20
22329.375151
 30
0.0
 10
-0.825387
 20
22690.121080
 30
0.0
 10
-1.020777
 20
23116.879885
 30
0.0
 10
-1.245322
 20
23503.729404
 30
0.0
 10
-1.501676
 20
23853.228590
 30
0.0
 10
-1.792495
 20
24167.939263
 30
0.0
 10
-2.120429
 20
24450.420374
 30
0.0
 10
-2.488133
 20
24703.233745
 30
0.0
 10
-2.898259
 20
24928.944071
 30
0.0
 10
-3.353462
 20
25130.104557
 30
0.0
 10
-3.824705
 20
25291.255239
 30
0.0
 10
-4.292637
 20
25399.724861
 30
0.0
 10
-4.757398
 20
25455.501935
 30
0.0
 10
-5.219132
 20
25458.574973
 30
0.0
 10
-5.677981
 20
25408.943975
 30
0.0
 10
-6.134084
 20
25306.597453
 30
0.0
 10
-6.587584
 20
25151.532535
 30
0.0
 10
-7.038624
 20
24943.737732
 30
0.0
 10
-7.732510
 20
24477.845083
 30
0.0
 10
-8.288071
 20
23890.228540
 30
0.0
 10
-8.699006
 20
23207.701079
 30
0.0
 10
-8.959002
 20
22457.090031
 30
0.0
 10
-9.061752
 20
21665.208372
 30
0.0
 10
-9.000953
 20
20858.886307
 30
0.0
 10
-8.770294
 20
20064.931066
 30
0.0
 10
-8.363469
 20
19310.169981
 30
0.0
 10
-8.159635
 20
19042.766860
 30
0.0
 10
-7.924522
 20
18783.724125
 30
0.0
 10
-7.672694
 20
18544.113329
 30
0.0
 10
-7.418715
 20
18335.003152
 30
0.0
 10
-7.177147
 20
18167.459402
 30
0.0
 10
-6.962550
 20
18052.553633
 30
0.0
 10
-6.789490
 20
18001.357396
 30
0.0
 10
-6.672492
 20
18024.907780
 30
0.0
  0
LWPOLYLINE
  5
104
100
AcDbEntity
  8
Layer_1
 62
7
100
AcDbPolyline
 90
113
 70
0
 10
3.104098
 20
17758.093418
 30
0.0
 10
3.115280
 20
17803.919019
 30
0.0
 10
3.126927
 20
17862.726050
 30
0.0
 10
3.138715
 20
17932.079059
 30
0.0
 10
3.150289
 20
18009.542590
 30
0.0
 10
3.161310
 20
18092.681189
 30
0.0
 10
3.171425
 20
18179.062274
 30
0.0
 10
3.180309
 20
18266.247519
 30
0.0
 10
3.187607
 20
18351.801468
 30
0.0
 10
3.214684
 20
18553.553586
 30
0.0
 10
3.264016
 20
18743.340961
 30
0.0
 10
3.335224
 20
18920.589192
 30
0.0
 10
3.427929
 20
19084.715264
 30
0.0
 10
3.541750
 20
19235.139033
 30
0.0
 10
3.676306
 20
19371.286100
 30
0.0
 10
3.831220
 20
19492.576321
 30
0.0
 10
4.006111
 20
19598.426681
 30
0.0
 10
4.193172
 20
19687.289172
 30
0.0
 10
4.376168
 20
19752.572559
 30
0.0
 10
4.557592
 20
19794.365875
 30
0.0
 10
4.739944
 20
19812.775382
 30
0.0
 10
4.925711
 20
19807.892985
 30
0.0
 10
5.117393
 20
19779.776125
 30
0.0
 10
5.317483
 20
19728.533936
 30
0.0
 10
5.528477
 20
19654.258322
 30
0.0
 10
5.804236
 20
19525.282635
 30
0.0
 10
6.040169
 20
19371.464164
 30
0.0
 10
6.236677
 20
19192.156710
 30
0.0
 10
6.394164
 20
18986.728434
 30
0.0
 10
6.513033
 20
18754.536009
 30
0.0
 10
6.593684
 20
18494.947594
 30
0.0
 10
6.636520
 20
18207.325607
 30
0.0
 10
6.641953
 20
17891.029591
 30
0.0
 10
6.645447
 20
17708.192452
 30
0.0
 10
6.672529
 20
17567.766108
 30
0.0
 10
6.723787
 20
17469.517927
 30
0.0
 10
6.799801
 20
17413.221022
 30
0.0
 10
6.901151
 20
17398.631272
 30
0.0
 10
7.028422
 20
17425.541893
 30
0.0
 10
7.182190
 20
17493.694407
 30
0.0
 10
7.363039
 20
17602.861924
 30
0.0
 10
7.639608
 20
17798.261182
 30
0.0
 10
7.884161
 20
17996.035583
 30
0.0
 10
8.100188
 20
18200.516100
 30
0.0
 10
8.291179
 20
18416.025088
 30
0.0
 10
8.460623
 20
18646.879163
 30
0.0
 10
8.612010
 20
18897.397808
 30
0.0
 10
8.748828
 20
19171.909124
 30
0.0
 10
8.874569
 20
19474.729725
 30
0.0
 10
8.953469
 20
19688.610291
 30
0.0
 10
9.017362
 20
19878.837081
 30
0.0
 10
9.067493
 20
20051.570531
 30
0.0
 10
9.105102
 20
20212.971077
 30
0.0
 10
9.131427
 20
20369.187666
 30
0.0
 10
9.147717
 20
20526.386479
 30
0.0
 10
9.155193
 20
20690.716462
 30
0.0
 10
9.155107
 20
20868.340925
 30
0.0
 10
9.149542
 20
21118.259322
 30
0.0
 10
9.140412
 20
21318.483537
 30
0.0
 10
9.123422
 20
21487.055462
 30
0.0
 10
9.094295
 20
21642.011244
 30
0.0
 10
9.048742
 20
21801.395647
 30
0.0
 10
8.982481
 20
21983.244819
 30
0.0
 10
8.891219
 20
22205.600651
 30
0.0
 10
8.770678
 20
22486.493547
 30
0.0
 10
8.449979
 20
23087.163321
 30
0.0
 10
8.041627
 20
23620.171693
 30
0.0
 10
7.556523
 20
24079.203139
 30
0.0
 10
7.005571
 20
24457.927776
 30
0.0
 10
6.399673
 20
24750.032953
 30
0.0
 10
5.749729
 20
24949.185913
 30
0.0
 10
5.066648
 20
25049.071133
 30
0.0
 10
4.361326
 20
25043.355856
 30
0.0
 10
4.016654
 20
24999.465982
 30
0.0
 10
3.674122
 20
24927.315648
 30
0.0
 10
3.336992
 20
24828.286283
 30
0.0
 10
3.008515
 20
24703.759320
 30
0.0
 10
2.691943
 20
24555.107574
 30
0.0
 10
2.390531
 20
24383.715347
 30
0.0
 10
2.107535
 20
24190.955455
 30
0.0
 10
1.846204
 20
23978.206456
 30
0.0
 10
1.687590
 20
23834.221707
 30
0.0
 10
1.560457
 20
23708.689544
 30
0.0
 10
1.456088
 20
23587.330395
 30
0.0
 10
1.365761
 20
23455.838837
 30
0.0
 10
1.280756
 20
23299.926680
 30
0.0
 10
1.192354
 20
23105.297117
 30
0.0
 10
1.091840
 20
22857.659086
 30
0.0
 10
0.970485
 20
22542.718653
 30
0.0
 10
0.856379
 20
22239.070916
 30
0.0
 10
0.768666
 20
21992.096317
 30
0.0
 10
0.704619
 20
21788.566432
 30
0.0
 10
0.661507
 20
21615.264327
 30
0.0
 10
0.636606
 20
21458.958705
 30
0.0
 10
0.627184
 20
21306.429762
 30
0.0
 10
0.630514
 20
21144.454816
 30
0.0
 10
0.643867
 20
20959.808318
 30
0.0
 10
0.675335
 20
20680.308341
 30
0.0
 10
0.720104
 20
20413.939139
 30
0.0
 10
0.778583
 20
20159.471497
 30
0.0
 10
0.851177
 20
19915.681944
 30
0.0
 10
0.938301
 20
19681.352752
 30
0.0
 10
1.040358
 20
19455.251834
 30
0.0
 10
1.157761
 20
19236.158592
 30
0.0
 10
1.290915
 20
19022.855298
 30
0.0
 10
1.554952
 20
18664.737246
 30
0.0
 10
1.837715
 20
18343.265890
 30
0.0
 10
2.124497
 20
18068.682774
 30
0.0
 10
2.400599
 20
17851.255290
 30
0.0
 10
2.651317
 20
17701.227857
 30
0.0
 10
2.861948
 20
17628.862122
 30
0.0
 10
3.017792
 20
17644.399632
 30
0.0
 10
3.104132
 20
17758.122138
 30
0.0
  0
LWPOLYLINE
  5
105
100
AcDbEntity
  8
Layer_1
 62
7
100
AcDbPolyline
 90
129
 70
0
 10
0.289252
 20
24105.760505
 30
0.0
 10
0.341073
 20
24132.326487
 30
0.0
 10
0.395289
 20
24166.158624
 30
0.0
 10
0.450296
 20
24205.866869
 30
0.0
 10
0.504485
 20
24250.058302
 30
0.0
 10
0.556250
 20
24297.351494
 30
0.0
 10
0.603984
 20
24346.353525
 30
0.0
 10
0.646081
 20
24395.682963
 30
0.0
 10
0.680935
 20
24443.946890
 30
0.0
 10
0.940522
 20
24816.221020
 30
0.0
 10
1.239644
 20
25198.564374
 30
0.0
 10
1.566209
 20
25578.598643
 30
0.0
 10
1.908120
 20
25943.936897
 30
0.0
 10
2.253284
 20
26282.192210
 30
0.0
 10
2.589605
 20
26580.980526
 30
0.0
 10
2.904991
 20
26827.917789
 30
0.0
 10
3.187345
 20
27010.617072
 30
0.0
 10
3.291113
 20
27093.390928
 30
0.0
 10
3.432650
 20
27239.836980
 30
0.0
 10
3.597876
 20
27431.720913
 30
0.0
 10
3.772710
 20
27650.802667
 30
0.0
 10
3.943075
 20
27878.847927
 30
0.0
 10
4.094888
 20
28097.616634
 30
0.0
 10
4.214072
 20
28288.871599
 30
0.0
 10
4.286543
 20
28434.378508
 30
0.0
 10
4.319706
 20
28541.954938
 30
0.0
 10
4.334545
 20
28641.955038
 30
0.0
 10
4.331235
 20
28733.910671
 30
0.0
 10
4.309944
 20
28817.365190
 30
0.0
 10
4.270857
 20
28891.850459
 30
0.0
 10
4.214149
 20
28956.904087
 30
0.0
 10
4.139999
 20
29012.066553
 30
0.0
 10
4.048580
 20
29056.863978
 30
0.0
 10
3.991313
 20
29075.015006
 30
0.0
 10
3.938688
 20
29081.074922
 30
0.0
 10
3.888567
 20
29073.780047
 30
0.0
 10
3.838816
 20
29051.837982
 30
0.0
 10
3.787298
 20
29014.022384
 30
0.0
 10
3.731875
 20
28959.063829
 30
0.0
 10
3.670410
 20
28885.698639
 30
0.0
 10
3.600771
 20
28792.666007
 30
0.0
 10
3.456387
 20
28601.422529
 30
0.0
 10
3.319675
 20
28441.193759
 30
0.0
 10
3.185820
 20
28308.593610
 30
0.0
 10
3.050014
 20
28200.235996
 30
0.0
 10
2.907435
 20
28112.734831
 30
0.0
 10
2.753276
 20
28042.706903
 30
0.0
 10
2.582718
 20
27986.757509
 30
0.0
 10
2.390954
 20
27941.506308
 30
0.0
 10
2.140920
 20
27907.918291
 30
0.0
 10
1.895724
 20
27908.205491
 30
0.0
 10
1.656490
 20
27942.152508
 30
0.0
 10
1.424345
 20
28009.248126
 30
0.0
 10
1.200410
 20
28109.078778
 30
0.0
 10
0.985814
 20
28241.236640
 30
0.0
 10
0.781680
 20
28405.308143
 30
0.0
 10
0.589131
 20
28600.879722
 30
0.0
 10
0.484542
 20
28717.393810
 30
0.0
 10
0.398561
 20
28807.092053
 30
0.0
 10
0.326533
 20
28872.645408
 30
0.0
 10
0.263806
 20
28916.724834
 30
0.0
 10
0.205722
 20
28941.998417
 30
0.0
 10
0.147631
 20
28951.160091
 30
0.0
 10
0.084876
 20
28946.852093
 30
0.0
 10
0.012805
 20
28931.774104
 30
0.0
 10
-0.038495
 20
28914.484676
 30
0.0
 10
-0.095091
 20
28887.574054
 30
0.0
 10
-0.155122
 20
28852.366230
 30
0.0
 10
-0.216718
 20
28810.245507
 30
0.0
 10
-0.278019
 20
28762.570339
 30
0.0
 10
-0.337164
 20
28710.699183
 30
0.0
 10
-0.392285
 20
28655.996236
 30
0.0
 10
-0.441521
 20
28599.825699
 30
0.0
 10
-0.574611
 20
28466.306510
 30
0.0
 10
-0.743285
 20
28346.211040
 30
0.0
 10
-0.939911
 20
28242.092495
 30
0.0
 10
-1.156855
 20
28156.524185
 30
0.0
 10
-1.386486
 20
28092.070805
 30
0.0
 10
-1.621170
 20
28051.288433
 30
0.0
 10
-1.853276
 20
28036.727403
 30
0.0
 10
-2.075170
 20
28051.001234
 30
0.0
 10
-2.282652
 20
28091.803710
 30
0.0
 10
-2.482210
 20
28155.470162
 30
0.0
 10
-2.672504
 20
28241.110272
 30
0.0
 10
-2.852204
 20
28347.819359
 30
0.0
 10
-3.019970
 20
28474.704232
 30
0.0
 10
-3.174472
 20
28620.865956
 30
0.0
 10
-3.314372
 20
28785.411340
 30
0.0
 10
-3.438338
 20
28967.435703
 30
0.0
 10
-3.526443
 20
29094.857640
 30
0.0
 10
-3.618134
 20
29194.079429
 30
0.0
 10
-3.711785
 20
29264.630060
 30
0.0
 10
-3.805771
 20
29306.041400
 30
0.0
 10
-3.898458
 20
29317.874032
 30
0.0
 10
-3.988222
 20
29299.636844
 30
0.0
 10
-4.073436
 20
29250.873190
 30
0.0
 10
-4.152470
 20
29171.114932
 30
0.0
 10
-4.176383
 20
29135.344197
 30
0.0
 10
-4.196189
 20
29094.446945
 30
0.0
 10
-4.211652
 20
29049.836199
 30
0.0
 10
-4.222523
 20
29002.899135
 30
0.0
 10
-4.228543
 20
28955.060264
 30
0.0
 10
-4.229475
 20
28907.709632
 30
0.0
 10
-4.225055
 20
28862.251647
 30
0.0
 10
-4.215030
 20
28820.090716
 30
0.0
 10
-4.139940
 20
28648.175786
 30
0.0
 10
-4.017216
 20
28440.122504
 30
0.0
 10
-3.855230
 20
28206.258575
 30
0.0
 10
-3.662350
 20
27956.914578
 30
0.0
 10
-3.446941
 20
27702.409600
 30
0.0
 10
-3.217374
 20
27453.077090
 30
0.0
 10
-2.982017
 20
27219.241882
 30
0.0
 10
-2.749238
 20
27011.228808
 30
0.0
 10
-2.466448
 20
26762.048514
 30
0.0
 10
-2.169795
 20
26478.510508
 30
0.0
 10
-1.868221
 20
26170.583494
 30
0.0
 10
-1.570660
 20
25848.230435
 30
0.0
 10
-1.286048
 20
25521.417162
 30
0.0
 10
-1.023321
 20
25200.106637
 30
0.0
 10
-0.791417
 20
24894.267566
 30
0.0
 10
-0.599273
 20
24613.865782
 30
0.0
 10
-0.473335
 20
24426.611510
 30
0.0
 10
-0.359127
 20
24278.987939
 30
0.0
 10
-0.252914
 20
24168.852558
 30
0.0
 10
-0.150951
 20
24094.071473
 30
0.0
 10
-0.049493
 20
24052.499301
 30
0.0
 10
0.055196
 20
24042.016509
 30
0.0
 10
0.166861
 20
24060.426016
 30
0.0
 10
0.289237
 20
24105.654241
 30
0.0
  0
LWPOLYLINE
  5
106
100
AcDbEntity
  8
Layer_1
 62
7
100
AcDbPolyline
 90
121
 70
0
 10
-2.794524
 20
31030.877262
 30
0.0
 10
-2.513513
 20
31169.787191
 30
0.0
 10
-2.202712
 20
31250.820615
 30
0.0
 10
-1.875113
 20
31276.122918
 30
0.0
 10
-1.543714
 20
31247.833737
 30
0.0
 10
-1.221506
 20
31168.115688
 30
0.0
 10
-0.921485
 20
31039.108408
 30
0.0
 10
-0.656645
 20
30862.963024
 30
0.0
 10
-0.439980
 20
30641.819175
 30
0.0
 10
-0.362272
 20
30544.277506
 30
0.0
 10
-0.295371
 20
30467.968518
 30
0.0
 10
-0.235432
 20
30410.663541
 30
0.0
 10
-0.178612
 20
30370.116673
 30
0.0
 10
-0.121063
 20
30344.096371
 30
0.0
 10
-0.058939
 20
30330.368220
 30
0.0
 10
0.011604
 20
30326.692063
 30
0.0
 10
0.094412
 20
30330.799020
 30
0.0
 10
0.152442
 20
30339.041654
 30
0.0
 10
0.211535
 20
30354.004764
 30
0.0
 10
0.270045
 20
30374.855470
 30
0.0
 10
0.326323
 20
30400.732172
 30
0.0
 10
0.378721
 20
30430.799120
 30
0.0
 10
0.425594
 20
30464.200457
 30
0.0
 10
0.465290
 20
30500.094688
 30
0.0
 10
0.496164
 20
30537.625959
 30
0.0
 10
0.588249
 20
30647.339156
 30
0.0
 10
0.710905
 20
30754.918458
 30
0.0
 10
0.857681
 20
30857.055324
 30
0.0
 10
1.022130
 20
30950.441213
 30
0.0
 10
1.197800
 20
31031.756093
 30
0.0
 10
1.378245
 20
31097.694296
 30
0.0
 10
1.557012
 20
31144.938664
 30
0.0
 10
1.727657
 20
31170.183526
 30
0.0
 10
1.838549
 20
31174.836163
 30
0.0
 10
1.950093
 20
31170.614326
 30
0.0
 10
2.064947
 20
31156.914895
 30
0.0
 10
2.185772
 20
31133.077312
 30
0.0
 10
2.315231
 20
31098.501327
 30
0.0
 10
2.455981
 20
31052.560847
 30
0.0
 10
2.610686
 20
30994.641262
 30
0.0
 10
2.782004
 20
30924.113607
 30
0.0
 10
2.939663
 20
30858.833091
 30
0.0
 10
3.078726
 20
30805.560400
 30
0.0
 10
3.199651
 20
30764.180652
 30
0.0
 10
3.302893
 20
30734.576096
 30
0.0
 10
3.388907
 20
30716.626108
 30
0.0
 10
3.458152
 20
30710.221553
 30
0.0
 10
3.511085
 20
30715.247549
 30
0.0
 10
3.548162
 20
30731.617938
 30
0.0
 10
3.618632
 20
30788.618483
 30
0.0
 10
3.664992
 20
30844.843589
 30
0.0
 10
3.684338
 20
30911.623287
 30
0.0
 10
3.673763
 20
31000.293355
 30
0.0
 10
3.630368
 20
31122.189567
 30
0.0
 10
3.551243
 20
31288.644829
 30
0.0
 10
3.433486
 20
31510.997790
 30
0.0
 10
3.274190
 20
31800.581352
 30
0.0
 10
2.880002
 20
32529.847709
 30
0.0
 10
2.528448
 20
33219.032463
 30
0.0
 10
2.213700
 20
33882.139474
 30
0.0
 10
1.929935
 20
34533.184093
 30
0.0
 10
1.671328
 20
35186.161567
 30
0.0
 10
1.432053
 20
35855.081502
 30
0.0
 10
1.206284
 20
36553.950632
 30
0.0
 10
0.988196
 20
37296.767077
 30
0.0
 10
0.901040
 20
37599.639374
 30
0.0
 10
0.824619
 20
37846.616845
 30
0.0
 10
0.755699
 20
38044.701422
 30
0.0
 10
0.691043
 20
38200.886419
 30
0.0
 10
0.627418
 20
38322.162280
 30
0.0
 10
0.561592
 20
38415.530936
 30
0.0
 10
0.490330
 20
38487.979959
 30
0.0
 10
0.410397
 20
38546.511279
 30
0.0
 10
0.335833
 20
38590.142673
 30
0.0
 10
0.265058
 20
38623.943218
 30
0.0
 10
0.196476
 20
38648.154161
 30
0.0
 10
0.128488
 20
38663.002391
 30
0.0
 10
0.059499
 20
38668.746387
 30
0.0
 10
-0.012088
 20
38665.615909
 30
0.0
 10
-0.087875
 20
38653.869437
 30
0.0
 10
-0.169457
 20
38633.736731
 30
0.0
 10
-0.262710
 20
38604.304495
 30
0.0
 10
-0.338535
 20
38571.460326
 30
0.0
 10
-0.401028
 20
38529.951338
 30
0.0
 10
-0.454280
 20
38474.533264
 30
0.0
 10
-0.502383
 20
38399.947475
 30
0.0
 10
-0.549434
 20
38300.952575
 30
0.0
 10
-0.599518
 20
38172.301422
 30
0.0
 10
-0.656734
 20
38008.735390
 30
0.0
 10
-0.708821
 20
37859.026748
 30
0.0
 10
-0.787051
 20
37638.959899
 30
0.0
 10
-0.887595
 20
37359.098050
 30
0.0
 10
-1.006623
 20
37030.015899
 30
0.0
 10
-1.140297
 20
36662.265166
 30
0.0
 10
-1.284792
 20
36266.423421
 30
0.0
 10
-1.436264
 20
35853.048127
 30
0.0
 10
-1.590891
 20
35432.705366
 30
0.0
 10
-1.813878
 20
34832.612864
 30
0.0
 10
-2.003122
 20
34336.644651
 30
0.0
 10
-2.168025
 20
33923.657077
 30
0.0
 10
-2.318007
 20
33572.497877
 30
0.0
 10
-2.462472
 20
33262.026273
 30
0.0
 10
-2.610837
 20
32971.092872
 30
0.0
 10
-2.772510
 20
32678.551152
 30
0.0
 10
-2.956900
 20
32363.257463
 30
0.0
 10
-3.080417
 20
32152.920943
 30
0.0
 10
-3.195669
 20
31950.697817
 30
0.0
 10
-3.300132
 20
31761.444634
 30
0.0
 10
-3.391282
 20
31590.015072
 30
0.0
 10
-3.466593
 20
31441.262805
 30
0.0
 10
-3.523544
 20
31320.044384
 30
0.0
 10
-3.559605
 20
31231.210613
 30
0.0
 10
-3.572259
 20
31179.623784
 30
0.0
 10
-3.552484
 20
31086.536584
 30
0.0
 10
-3.496971
 20
31012.123114
 30
0.0
 10
-3.412526
 20
30957.695880
 30
0.0
 10
-3.305954
 20
30924.553022
 30
0.0
 10
-3.184065
 20
30914.012789
 30
0.0
 10
-3.053659
 20
30927.338860
 30
0.0
 10
-2.921545
 20
30965.855226
 30
0.0
 10
-2.794523
 20
31030.860030
 30
0.0
  0
LWPOLYLINE
  5
107
100
AcDbEntity
  8
Layer_1
 62
7
100
AcDbPolyline
 90
5
 70
0
 10
0.039962
 20
-2.937226
 30
0.0
 10
-9.351184
 20
22.458834
 30
0.0
 10
0.000000
 20
47.635096
 30
0.0
 10
7.752691
 20
25.655819
 30
0.0
 10
0.039962
 20
-2.937226
 30
0.0
  0
LWPOLYLINE
  5
108
100
AcDbEntity
  8
Layer_1
 62
7
100
AcDbPolyline
 90
4
 70
0
 10
-4.196044
 20
27.094461
 30
0.0
 10
0.000000
 20
39.802481
 30
0.0
 10
2.557589
 20
29.172502
 30
0.0
 10
-4.196044
 20
27.094461
 30
0.0
  0
LWPOLYLINE
  5
109
100
AcDbEntity
  8
Layer_1
 62
7
100
AcDbPolyline
 90
4
 70
0
 10
-5.155140
 20
20.500680
 30
0.0
 10
3.836383
 20
23.577777
 30
0.0
 10
-0.039962
 20
4.715568
 30
0.0
 10
-5.155140
 20
20.500680
 30
0.0
  0
ENDSEC
  0
SECTION
  2
OBJECTS
  0
DICTIONARY
  5
C
330
0
100
AcDbDictionary
  3
ACAD_GROUP
350
D
  3
ACAD_MLINESTYLE
350
17
  0
DICTIONARY
  5
D
330
C
100
AcDbDictionary
  0
DICTIONARY
  5
1A
330
C
100
AcDbDictionary
  0
DICTIONARY
  5
17
330
C
100
AcDbDictionary
  3
STANDARD
350
18
  0
DICTIONARY
  5
19
330
C
100
AcDbDictionary
  0
ENDSEC
  0
EOF
