<?xml version="1.0" encoding="UTF-8" standalone="no"?>
<!-- Created with Inkscape (http://www.inkscape.org/) -->

<svg
   xmlns:dc="http://purl.org/dc/elements/1.1/"
   xmlns:cc="http://creativecommons.org/ns#"
   xmlns:rdf="http://www.w3.org/1999/02/22-rdf-syntax-ns#"
   xmlns:svg="http://www.w3.org/2000/svg"
   xmlns="http://www.w3.org/2000/svg"
   xmlns:sodipodi="http://sodipodi.sourceforge.net/DTD/sodipodi-0.dtd"
   xmlns:inkscape="http://www.inkscape.org/namespaces/inkscape"
   width="1800"
   height="1080"
   id="svg7202"
   version="1.1"
   inkscape:version="0.48.3.1 r9886"
   sodipodi:docname="New document 16">
  <defs
     id="defs7204" />
  <sodipodi:namedview
     id="base"
     pagecolor="#ffffff"
     bordercolor="#666666"
     borderopacity="1.0"
     inkscape:pageopacity="0.0"
     inkscape:pageshadow="2"
     inkscape:zoom="0.35"
     inkscape:cx="375"
     inkscape:cy="520"
     inkscape:document-units="px"
     inkscape:current-layer="layer1"
     showgrid="false"
     units="in"
     inkscape:window-width="1600"
     inkscape:window-height="876"
     inkscape:window-x="0"
     inkscape:window-y="24"
     inkscape:window-maximized="1" />
  <metadata
     id="metadata7207">
    <rdf:RDF>
      <cc:Work
         rdf:about="">
        <dc:format>image/svg+xml</dc:format>
        <dc:type
           rdf:resource="http://purl.org/dc/dcmitype/StillImage" />
        <dc:title></dc:title>
      </cc:Work>
    </rdf:RDF>
  </metadata>
  <g
     inkscape:label="Layer 1"
     inkscape:groupmode="layer"
     id="layer1"
     transform="translate(0,27.640274)">
    <g
       id="g5429"
       transform="translate(-963.61122,94.2151)"
       style="stroke-width:0.1;stroke-miterlimit:4;stroke-dasharray:none">
      <path
         d="m 121.75,339.31631 c 0,1.37861 -1.11759,2.4962 -2.49619,2.4962 -1.37861,0 -2.49619,-1.11759 -2.49619,-2.4962 0,-1.3786 1.11758,-2.49619 2.49619,-2.49619 1.3786,0 2.49619,1.11759 2.49619,2.49619 z"
         sodipodi:ry="2.4961903"
         sodipodi:rx="2.4961903"
         sodipodi:cy="339.31631"
         sodipodi:cx="119.25381"
         id="path4977"
         style="fill:none;stroke:#00ff00;stroke-width:0.00069468;stroke-linecap:round;stroke-linejoin:round;stroke-miterlimit:4;stroke-opacity:1;stroke-dasharray:none;stroke-dashoffset:0"
         sodipodi:type="arc"
         transform="matrix(0,-143.95119,143.95119,0,-47521.984,17765.48)"
         inkscape:transform-center-y="-428.5174"
         inkscape:transform-center-x="0.0024406624" />
      <path
         inkscape:transform-center-x="0.0032395297"
         inkscape:transform-center-y="-296.88946"
         transform="matrix(0,-99.733764,99.733764,0,-32518.29,12492.384)"
         sodipodi:type="arc"
         style="fill:none;stroke:#00ff00;stroke-width:0.00100267;stroke-linecap:round;stroke-linejoin:round;stroke-miterlimit:4;stroke-opacity:1;stroke-dasharray:none;stroke-dashoffset:0"
         id="path4979"
         sodipodi:cx="119.25381"
         sodipodi:cy="339.31631"
         sodipodi:rx="2.4961903"
         sodipodi:ry="2.4961903"
         d="m 121.75,339.31631 c 0,1.37861 -1.11759,2.4962 -2.49619,2.4962 -1.37861,0 -2.49619,-1.11759 -2.49619,-2.4962 0,-1.3786 1.11758,-2.49619 2.49619,-2.49619 1.3786,0 2.49619,1.11759 2.49619,2.49619 z" />
      <g
         style="stroke:#00ff00;stroke-width:0.1;stroke-miterlimit:4;stroke-opacity:1;stroke-dasharray:none"
         transform="translate(821.93561,-120.91333)"
         id="g5061">
        <g
           style="stroke:#00ff00;stroke-width:0.1;stroke-miterlimit:4;stroke-opacity:1;stroke-dasharray:none"
           id="g5063">
          <path
             transform="matrix(0.38002994,0,0,0.38002994,500.12844,28.533904)"
             d="m 18.788785,1091.3722 c 0,9.0114 -7.30518,16.3166 -16.3165765,16.3166 -9.0113961,0 -16.3165765,-7.3052 -16.3165765,-16.3166 0,-9.0114 7.3051804,-16.3166 16.3165765,-16.3166 9.0113965,0 16.3165765,7.3052 16.3165765,16.3166 z"
             sodipodi:ry="16.316576"
             sodipodi:rx="16.316576"
             sodipodi:cy="1091.3722"
             sodipodi:cx="2.4722085"
             id="path5065"
             style="opacity:0.98000004;fill:none;stroke:#00ff00;stroke-width:0.26313716;stroke-miterlimit:4;stroke-opacity:1;stroke-dasharray:none;stroke-dashoffset:0"
             sodipodi:type="arc" />
          <path
             transform="matrix(0.38002994,0,0,0.38002994,500.12844,581.2898)"
             d="m 18.788785,1091.3722 c 0,9.0114 -7.30518,16.3166 -16.3165765,16.3166 -9.0113961,0 -16.3165765,-7.3052 -16.3165765,-16.3166 0,-9.0114 7.3051804,-16.3166 16.3165765,-16.3166 9.0113965,0 16.3165765,7.3052 16.3165765,16.3166 z"
             sodipodi:ry="16.316576"
             sodipodi:rx="16.316576"
             sodipodi:cy="1091.3722"
             sodipodi:cx="2.4722085"
             id="path5067"
             style="opacity:0.98000004;fill:none;stroke:#00ff00;stroke-width:0.26313716;stroke-miterlimit:4;stroke-opacity:1;stroke-dasharray:none;stroke-dashoffset:0"
             sodipodi:type="arc" />
        </g>
        <g
           style="stroke:#00ff00;stroke-width:0.1;stroke-miterlimit:4;stroke-opacity:1;stroke-dasharray:none"
           transform="matrix(0,1,-1,0,1220.7339,218.59801)"
           id="g5069">
          <path
             sodipodi:type="arc"
             style="opacity:0.98000004;fill:none;stroke:#00ff00;stroke-width:0.26313716;stroke-miterlimit:4;stroke-opacity:1;stroke-dasharray:none;stroke-dashoffset:0"
             id="path5071"
             sodipodi:cx="2.4722085"
             sodipodi:cy="1091.3722"
             sodipodi:rx="16.316576"
             sodipodi:ry="16.316576"
             d="m 18.788785,1091.3722 c 0,9.0114 -7.30518,16.3166 -16.3165765,16.3166 -9.0113961,0 -16.3165765,-7.3052 -16.3165765,-16.3166 0,-9.0114 7.3051804,-16.3166 16.3165765,-16.3166 9.0113965,0 16.3165765,7.3052 16.3165765,16.3166 z"
             transform="matrix(0.38002994,0,0,0.38002994,500.12844,28.533904)" />
          <path
             sodipodi:type="arc"
             style="opacity:0.98000004;fill:none;stroke:#00ff00;stroke-width:0.26313716;stroke-miterlimit:4;stroke-opacity:1;stroke-dasharray:none;stroke-dashoffset:0"
             id="path5073"
             sodipodi:cx="2.4722085"
             sodipodi:cy="1091.3722"
             sodipodi:rx="16.316576"
             sodipodi:ry="16.316576"
             d="m 18.788785,1091.3722 c 0,9.0114 -7.30518,16.3166 -16.3165765,16.3166 -9.0113961,0 -16.3165765,-7.3052 -16.3165765,-16.3166 0,-9.0114 7.3051804,-16.3166 16.3165765,-16.3166 9.0113965,0 16.3165765,7.3052 16.3165765,16.3166 z"
             transform="matrix(0.38002994,0,0,0.38002994,500.12844,581.2898)" />
        </g>
      </g>
    </g>
  </g>
</svg>
