<?xml version="1.0" encoding="UTF-8" standalone="no"?>
<!-- Created with Inkscape (http://www.inkscape.org/) -->

<svg
   xmlns:dc="http://purl.org/dc/elements/1.1/"
   xmlns:cc="http://creativecommons.org/ns#"
   xmlns:rdf="http://www.w3.org/1999/02/22-rdf-syntax-ns#"
   xmlns:svg="http://www.w3.org/2000/svg"
   xmlns="http://www.w3.org/2000/svg"
   xmlns:sodipodi="http://sodipodi.sourceforge.net/DTD/sodipodi-0.dtd"
   xmlns:inkscape="http://www.inkscape.org/namespaces/inkscape"
   width="1800"
   height="1080"
   id="svg4563"
   version="1.1"
   inkscape:version="0.48.4 r9939"
   sodipodi:docname="New document 24">
  <defs
     id="defs4565" />
  <sodipodi:namedview
     id="base"
     pagecolor="#ffffff"
     bordercolor="#666666"
     borderopacity="1.0"
     inkscape:pageopacity="0.0"
     inkscape:pageshadow="2"
     inkscape:zoom="0.35"
     inkscape:cx="374.63224"
     inkscape:cy="405.90393"
     inkscape:document-units="px"
     inkscape:current-layer="layer1"
     showgrid="false"
     units="in"
     inkscape:window-width="1855"
     inkscape:window-height="1056"
     inkscape:window-x="65"
     inkscape:window-y="24"
     inkscape:window-maximized="1" />
  <metadata
     id="metadata4568">
    <rdf:RDF>
      <cc:Work
         rdf:about="">
        <dc:format>image/svg+xml</dc:format>
        <dc:type
           rdf:resource="http://purl.org/dc/dcmitype/StillImage" />
        <dc:title></dc:title>
      </cc:Work>
    </rdf:RDF>
  </metadata>
  <g
     inkscape:label="Layer 1"
     inkscape:groupmode="layer"
     id="layer1"
     transform="translate(0,27.64025)">
    <path
       transform="matrix(1.4906997,0,0,2.5772313,260.03373,-151.10968)"
       d="m 50.66218,289.46429 c 0,0.29587 -0.388082,0.53572 -0.866804,0.53572 -0.478723,0 -0.866804,-0.23985 -0.866804,-0.53572 0,-0.29586 0.388081,-0.53571 0.866804,-0.53571 0.478722,0 0.866804,0.23985 0.866804,0.53571 z"
       sodipodi:ry="0.53571427"
       sodipodi:rx="0.86680394"
       sodipodi:cy="289.46429"
       sodipodi:cx="49.795376"
       id="path4186"
       style="fill:#ff0000;stroke:#000000;stroke-width:0.04847284;stroke-miterlimit:4;stroke-opacity:1;stroke-dasharray:none"
       sodipodi:type="arc" />
    <path
       transform="matrix(0.85419843,-0.85419843,0.85419843,0.85419843,13.4682,592.89631)"
       d="m 156.83823,222.68382 c 0,2.1929 -1.77769,3.97059 -3.97058,3.97059 -2.1929,0 -3.97059,-1.77769 -3.97059,-3.97059 0,-2.19289 1.77769,-3.97059 3.97059,-3.97059 2.19289,0 3.97058,1.7777 3.97058,3.97059 z"
       sodipodi:ry="3.9705882"
       sodipodi:rx="3.9705882"
       sodipodi:cy="222.68382"
       sodipodi:cx="152.86765"
       id="path4190"
       style="fill:none;stroke:#000000;stroke-width:0.08278015;stroke-miterlimit:4;stroke-opacity:1;stroke-dasharray:none"
       sodipodi:type="arc" />
    <path
       sodipodi:type="arc"
       style="fill:none;stroke:#000000;stroke-width:0.08278015;stroke-miterlimit:4;stroke-opacity:1;stroke-dasharray:none"
       id="path4192"
       sodipodi:cx="152.86765"
       sodipodi:cy="222.68382"
       sodipodi:rx="3.9705882"
       sodipodi:ry="3.9705882"
       d="m 156.83823,222.68382 c 0,2.1929 -1.77769,3.97059 -3.97058,3.97059 -2.1929,0 -3.97059,-1.77769 -3.97059,-3.97059 0,-2.19289 1.77769,-3.97059 3.97059,-3.97059 2.19289,0 3.97058,1.7777 3.97058,3.97059 z"
       transform="matrix(0.85419843,-0.85419843,0.85419843,0.85419843,71.09462,535.26989)" />
    <path
       sodipodi:type="arc"
       style="fill:none;stroke:#000000;stroke-width:0.08278015;stroke-miterlimit:4;stroke-opacity:1;stroke-dasharray:none"
       id="path4194"
       sodipodi:cx="152.86765"
       sodipodi:cy="222.68382"
       sodipodi:rx="3.9705882"
       sodipodi:ry="3.9705882"
       d="m 156.83823,222.68382 c 0,2.1929 -1.77769,3.97059 -3.97058,3.97059 -2.1929,0 -3.97059,-1.77769 -3.97059,-3.97059 0,-2.19289 1.77769,-3.97059 3.97059,-3.97059 2.19289,0 3.97058,1.7777 3.97058,3.97059 z"
       transform="matrix(0.85419843,-0.85419843,0.85419843,0.85419843,-44.15822,535.26989)" />
    <path
       transform="matrix(0.85419843,-0.85419843,0.85419843,0.85419843,13.4682,477.64347)"
       d="m 156.83823,222.68382 c 0,2.1929 -1.77769,3.97059 -3.97058,3.97059 -2.1929,0 -3.97059,-1.77769 -3.97059,-3.97059 0,-2.19289 1.77769,-3.97059 3.97059,-3.97059 2.19289,0 3.97058,1.7777 3.97058,3.97059 z"
       sodipodi:ry="3.9705882"
       sodipodi:rx="3.9705882"
       sodipodi:cy="222.68382"
       sodipodi:cx="152.86765"
       id="path4196"
       style="fill:none;stroke:#000000;stroke-width:0.08278015;stroke-miterlimit:4;stroke-opacity:1;stroke-dasharray:none"
       sodipodi:type="arc" />
    <path
       transform="matrix(0.67226071,0,0,0.67226071,182.52484,450.22326)"
       d="m 291.42857,215.21933 c 0,36.293 -29.42129,65.71429 -65.71429,65.71429 -36.293,0 -65.71429,-29.42129 -65.71429,-65.71429 0,-36.293 29.42129,-65.71429 65.71429,-65.71429 36.293,0 65.71429,29.42129 65.71429,65.71429 z"
       sodipodi:ry="65.714287"
       sodipodi:rx="65.714287"
       sodipodi:cy="215.21933"
       sodipodi:cx="225.71428"
       id="path4202"
       style="fill:none;stroke:#000000;stroke-width:0.33976623;stroke-miterlimit:4;stroke-opacity:1;stroke-dasharray:none"
       sodipodi:type="arc" />
    <path
       transform="matrix(0.58964071,0,0,0.58964071,897.34983,468.00468)"
       d="m 291.42857,215.21933 c 0,36.293 -29.42129,65.71429 -65.71429,65.71429 -36.293,0 -65.71429,-29.42129 -65.71429,-65.71429 0,-36.293 29.42129,-65.71429 65.71429,-65.71429 36.293,0 65.71429,29.42129 65.71429,65.71429 z"
       sodipodi:ry="65.714287"
       sodipodi:rx="65.714287"
       sodipodi:cy="215.21933"
       sodipodi:cx="225.71428"
       id="path4226"
       style="fill:none;stroke:#000000;stroke-width:0.33976623;stroke-miterlimit:4;stroke-opacity:1;stroke-dasharray:none"
       sodipodi:type="arc" />
    <g
       transform="translate(98.80531,323.7974)"
       id="g4232">
      <path
         sodipodi:type="arc"
         style="fill:none;stroke:#000000;stroke-width:0.08278015;stroke-miterlimit:4;stroke-opacity:1;stroke-dasharray:none"
         id="path4234"
         sodipodi:cx="152.86765"
         sodipodi:cy="222.68382"
         sodipodi:rx="3.9705882"
         sodipodi:ry="3.9705882"
         d="m 156.83823,222.68382 c 0,2.1929 -1.77769,3.97059 -3.97058,3.97059 -2.1929,0 -3.97059,-1.77769 -3.97059,-3.97059 0,-2.19289 1.77769,-3.97059 3.97059,-3.97059 2.19289,0 3.97058,1.7777 3.97058,3.97059 z"
         transform="matrix(1.56126,-1.56126,1.56126,1.56126,345.30136,104.48173)" />
      <path
         transform="matrix(1.56126,-1.56126,1.56126,1.56126,402.92778,162.10815)"
         d="m 156.83823,222.68382 c 0,2.1929 -1.77769,3.97059 -3.97058,3.97059 -2.1929,0 -3.97059,-1.77769 -3.97059,-3.97059 0,-2.19289 1.77769,-3.97059 3.97059,-3.97059 2.19289,0 3.97058,1.7777 3.97058,3.97059 z"
         sodipodi:ry="3.9705882"
         sodipodi:rx="3.9705882"
         sodipodi:cy="222.68382"
         sodipodi:cx="152.86765"
         id="path4236"
         style="fill:none;stroke:#000000;stroke-width:0.08278015;stroke-miterlimit:4;stroke-opacity:1;stroke-dasharray:none"
         sodipodi:type="arc" />
      <path
         sodipodi:type="arc"
         style="fill:none;stroke:#000000;stroke-width:0.08278015;stroke-miterlimit:4;stroke-opacity:1;stroke-dasharray:none"
         id="path4238"
         sodipodi:cx="152.86765"
         sodipodi:cy="222.68382"
         sodipodi:rx="3.9705882"
         sodipodi:ry="3.9705882"
         d="m 156.83823,222.68382 c 0,2.1929 -1.77769,3.97059 -3.97058,3.97059 -2.1929,0 -3.97059,-1.77769 -3.97059,-3.97059 0,-2.19289 1.77769,-3.97059 3.97059,-3.97059 2.19289,0 3.97058,1.7777 3.97058,3.97059 z"
         transform="matrix(1.56126,-1.56126,1.56126,1.56126,345.30136,219.73457)" />
      <path
         transform="matrix(1.56126,-1.56126,1.56126,1.56126,287.67494,162.10815)"
         d="m 156.83823,222.68382 c 0,2.1929 -1.77769,3.97059 -3.97058,3.97059 -2.1929,0 -3.97059,-1.77769 -3.97059,-3.97059 0,-2.19289 1.77769,-3.97059 3.97059,-3.97059 2.19289,0 3.97058,1.7777 3.97058,3.97059 z"
         sodipodi:ry="3.9705882"
         sodipodi:rx="3.9705882"
         sodipodi:cy="222.68382"
         sodipodi:cx="152.86765"
         id="path4240"
         style="fill:none;stroke:#000000;stroke-width:0.08278015;stroke-miterlimit:4;stroke-opacity:1;stroke-dasharray:none"
         sodipodi:type="arc" />
    </g>
    <path
       sodipodi:type="arc"
       style="fill:#ff0000;stroke:#000000;stroke-width:0.04847284;stroke-miterlimit:4;stroke-opacity:1;stroke-dasharray:none"
       id="path4242"
       sodipodi:cx="49.795376"
       sodipodi:cy="289.46429"
       sodipodi:rx="0.86680394"
       sodipodi:ry="0.53571427"
       d="m 50.66218,289.46429 c 0,0.29587 -0.388082,0.53572 -0.866804,0.53572 -0.478723,0 -0.866804,-0.23985 -0.866804,-0.53572 0,-0.29586 0.388081,-0.53571 0.866804,-0.53571 0.478722,0 0.866804,0.23985 0.866804,0.53571 z"
       transform="matrix(1.4906997,0,0,2.5772313,956.21023,-151.10968)" />
    <g
       id="g4298"
       transform="translate(131.33446,323.7974)">
      <path
         style="fill:none;stroke:#000000;stroke-width:0.1;stroke-linecap:butt;stroke-linejoin:miter;stroke-miterlimit:4;stroke-opacity:1;stroke-dasharray:none"
         d="m 202.86672,718.00913 -0.99319,0 c -62.81227,0 -124.084741,-32.56989 -186.500023,-27.13281 -39.27465,3.42127 -73.38045,42.77638 -112.39077,37.05945 -13.711697,-2.00943 -34.177297,-23.82393 -34.177297,-23.82393 l 0,-176.0324 -0.0774,-258.52668 c 0,-184.4631 149.5369,-333.99999 334,-333.99998"
         id="path4300"
         inkscape:connector-curvature="0"
         sodipodi:nodetypes="ccsscccc" />
      <path
         sodipodi:nodetypes="ccsscccc"
         inkscape:connector-curvature="0"
         id="path4302"
         d="m 202.99172,718.00913 0.99319,0 c 62.81227,0 124.08474,-32.56989 186.50002,-27.13281 39.27465,3.42127 73.38045,42.77638 112.39077,37.05945 13.7117,-2.00943 34.1773,-23.82393 34.1773,-23.82393 l 0,-176.0324 0.0774,-258.52668 c 0,-184.4631 -149.5369,-333.99999 -334,-333.99998"
         style="fill:none;stroke:#000000;stroke-width:0.1;stroke-linecap:butt;stroke-linejoin:miter;stroke-miterlimit:4;stroke-opacity:1;stroke-dasharray:none" />
    </g>
    <g
       transform="translate(827.51093,323.7974)"
       id="g4304">
      <path
         sodipodi:nodetypes="ccsscccc"
         inkscape:connector-curvature="0"
         id="path4306"
         d="m 202.86672,718.00913 -0.99319,0 c -62.81227,0 -124.084741,-32.56989 -186.500023,-27.13281 -39.27465,3.42127 -73.38045,42.77638 -112.39077,37.05945 -13.711697,-2.00943 -34.177297,-23.82393 -34.177297,-23.82393 l 0,-176.0324 -0.0774,-258.52668 c 0,-184.4631 149.5369,-333.99999 334,-333.99998"
         style="fill:none;stroke:#000000;stroke-width:0.1;stroke-linecap:butt;stroke-linejoin:miter;stroke-miterlimit:4;stroke-opacity:1;stroke-dasharray:none" />
      <path
         style="fill:none;stroke:#000000;stroke-width:0.1;stroke-linecap:butt;stroke-linejoin:miter;stroke-miterlimit:4;stroke-opacity:1;stroke-dasharray:none"
         d="m 202.99172,718.00913 0.99319,0 c 62.81227,0 124.08474,-32.56989 186.50002,-27.13281 39.27465,3.42127 73.38045,42.77638 112.39077,37.05945 13.7117,-2.00943 34.1773,-23.82393 34.1773,-23.82393 l 0,-176.0324 0.0774,-258.52668 c 0,-184.4631 -149.5369,-333.99999 -334,-333.99998"
         id="path4308"
         inkscape:connector-curvature="0"
         sodipodi:nodetypes="ccsscccc" />
    </g>
    <g
       id="g3375"
       transform="translate(5119.4059,323.7974)">
      <path
         sodipodi:type="arc"
         style="fill:none;stroke:#000000;stroke-width:0.17840476;stroke-miterlimit:4;stroke-opacity:1;stroke-dasharray:none"
         id="path3377"
         sodipodi:cx="-731"
         sodipodi:cy="196"
         sodipodi:rx="11"
         sodipodi:ry="11"
         d="m -720,196 c 0,6.07513 -4.92487,11 -11,11 -6.07513,0 -11,-4.92487 -11,-11 0,-6.07513 4.92487,-11 11,-11 6.07513,0 11,4.92487 11,11 z"
         transform="matrix(0,-0.7986991,-0.7986991,0,-4341.0508,105.86752)"
         inkscape:transform-center-x="-457.98332" />
      <path
         inkscape:transform-center-x="-457.98332"
         transform="matrix(0,-0.7986991,-0.7986991,0,-4307.1867,-312.73968)"
         d="m -720,196 c 0,6.07513 -4.92487,11 -11,11 -6.07513,0 -11,-4.92487 -11,-11 0,-6.07513 4.92487,-11 11,-11 6.07513,0 11,4.92487 11,11 z"
         sodipodi:ry="11"
         sodipodi:rx="11"
         sodipodi:cy="196"
         sodipodi:cx="-731"
         id="path3379"
         style="fill:none;stroke:#000000;stroke-width:0.17840476;stroke-miterlimit:4;stroke-opacity:1;stroke-dasharray:none"
         sodipodi:type="arc" />
      <path
         sodipodi:type="arc"
         style="fill:none;stroke:#000000;stroke-width:0.17840476;stroke-miterlimit:4;stroke-opacity:1;stroke-dasharray:none"
         id="path3381"
         sodipodi:cx="-731"
         sodipodi:cy="196"
         sodipodi:rx="11"
         sodipodi:ry="11"
         d="m -720,196 c 0,6.07513 -4.92487,11 -11,11 -6.07513,0 -11,-4.92487 -11,-11 0,-6.07513 4.92487,-11 11,-11 6.07513,0 11,4.92487 11,11 z"
         transform="matrix(0,-0.7986991,-0.7986991,0,-4628.5972,-634.15014)"
         inkscape:transform-center-x="-457.98332" />
      <path
         inkscape:transform-center-x="-457.98332"
         transform="matrix(0,-0.7986991,-0.7986991,0,-4950.0076,-312.73969)"
         d="m -720,196 c 0,6.07513 -4.92487,11 -11,11 -6.07513,0 -11,-4.92487 -11,-11 0,-6.07513 4.92487,-11 11,-11 6.07513,0 11,4.92487 11,11 z"
         sodipodi:ry="11"
         sodipodi:rx="11"
         sodipodi:cy="196"
         sodipodi:cx="-731"
         id="path3383"
         style="fill:none;stroke:#000000;stroke-width:0.17840476;stroke-miterlimit:4;stroke-opacity:1;stroke-dasharray:none"
         sodipodi:type="arc" />
      <path
         sodipodi:type="arc"
         style="fill:none;stroke:#000000;stroke-width:0.17840476;stroke-miterlimit:4;stroke-opacity:1;stroke-dasharray:none"
         id="path3385"
         sodipodi:cx="-731"
         sodipodi:cy="196"
         sodipodi:rx="11"
         sodipodi:ry="11"
         d="m -720,196 c 0,6.07513 -4.92487,11 -11,11 -6.07513,0 -11,-4.92487 -11,-11 0,-6.07513 4.92487,-11 11,-11 6.07513,0 11,4.92487 11,11 z"
         transform="matrix(0,-0.7986991,-0.7986991,0,-4916.0665,105.86752)"
         inkscape:transform-center-x="-457.98332" />
    </g>
    <g
       transform="translate(5815.5824,323.7974)"
       id="g3387">
      <path
         inkscape:transform-center-x="-457.98332"
         transform="matrix(0,-0.7986991,-0.7986991,0,-4341.0508,105.86752)"
         d="m -720,196 c 0,6.07513 -4.92487,11 -11,11 -6.07513,0 -11,-4.92487 -11,-11 0,-6.07513 4.92487,-11 11,-11 6.07513,0 11,4.92487 11,11 z"
         sodipodi:ry="11"
         sodipodi:rx="11"
         sodipodi:cy="196"
         sodipodi:cx="-731"
         id="path3389"
         style="fill:none;stroke:#000000;stroke-width:0.17840476;stroke-miterlimit:4;stroke-opacity:1;stroke-dasharray:none"
         sodipodi:type="arc" />
      <path
         sodipodi:type="arc"
         style="fill:none;stroke:#000000;stroke-width:0.17840476;stroke-miterlimit:4;stroke-opacity:1;stroke-dasharray:none"
         id="path3391"
         sodipodi:cx="-731"
         sodipodi:cy="196"
         sodipodi:rx="11"
         sodipodi:ry="11"
         d="m -720,196 c 0,6.07513 -4.92487,11 -11,11 -6.07513,0 -11,-4.92487 -11,-11 0,-6.07513 4.92487,-11 11,-11 6.07513,0 11,4.92487 11,11 z"
         transform="matrix(0,-0.7986991,-0.7986991,0,-4307.1867,-312.73968)"
         inkscape:transform-center-x="-457.98332" />
      <path
         inkscape:transform-center-x="-457.98332"
         transform="matrix(0,-0.7986991,-0.7986991,0,-4628.5972,-634.15014)"
         d="m -720,196 c 0,6.07513 -4.92487,11 -11,11 -6.07513,0 -11,-4.92487 -11,-11 0,-6.07513 4.92487,-11 11,-11 6.07513,0 11,4.92487 11,11 z"
         sodipodi:ry="11"
         sodipodi:rx="11"
         sodipodi:cy="196"
         sodipodi:cx="-731"
         id="path3393"
         style="fill:none;stroke:#000000;stroke-width:0.17840476;stroke-miterlimit:4;stroke-opacity:1;stroke-dasharray:none"
         sodipodi:type="arc" />
      <path
         sodipodi:type="arc"
         style="fill:none;stroke:#000000;stroke-width:0.17840476;stroke-miterlimit:4;stroke-opacity:1;stroke-dasharray:none"
         id="path3395"
         sodipodi:cx="-731"
         sodipodi:cy="196"
         sodipodi:rx="11"
         sodipodi:ry="11"
         d="m -720,196 c 0,6.07513 -4.92487,11 -11,11 -6.07513,0 -11,-4.92487 -11,-11 0,-6.07513 4.92487,-11 11,-11 6.07513,0 11,4.92487 11,11 z"
         transform="matrix(0,-0.7986991,-0.7986991,0,-4950.0076,-312.73969)"
         inkscape:transform-center-x="-457.98332" />
      <path
         inkscape:transform-center-x="-457.98332"
         transform="matrix(0,-0.7986991,-0.7986991,0,-4916.0665,105.86752)"
         d="m -720,196 c 0,6.07513 -4.92487,11 -11,11 -6.07513,0 -11,-4.92487 -11,-11 0,-6.07513 4.92487,-11 11,-11 6.07513,0 11,4.92487 11,11 z"
         sodipodi:ry="11"
         sodipodi:rx="11"
         sodipodi:cy="196"
         sodipodi:cx="-731"
         id="path3397"
         style="fill:none;stroke:#000000;stroke-width:0.17840476;stroke-miterlimit:4;stroke-opacity:1;stroke-dasharray:none"
         sodipodi:type="arc" />
    </g>
    <path
       sodipodi:type="arc"
       style="fill:none;stroke:#000000;stroke-width:0.17045549;stroke-miterlimit:4;stroke-opacity:1;stroke-dasharray:none"
       id="path4514"
       sodipodi:cx="225.71428"
       sodipodi:cy="215.21933"
       sodipodi:rx="65.714287"
       sodipodi:ry="65.714287"
       d="m 291.42857,215.21933 c 0,36.293 -29.42129,65.71429 -65.71429,65.71429 -36.293,0 -65.71429,-29.42129 -65.71429,-65.71429 0,-36.293 29.42129,-65.71429 65.71429,-65.71429 36.293,0 65.71429,29.42129 65.71429,65.71429 z"
       transform="matrix(0.58666344,0,0,0.58666344,201.84537,677.70056)" />
    <path
       transform="matrix(0.58666344,0,0,0.58666344,898.02187,677.70056)"
       d="m 291.42857,215.21933 c 0,36.293 -29.42129,65.71429 -65.71429,65.71429 -36.293,0 -65.71429,-29.42129 -65.71429,-65.71429 0,-36.293 29.42129,-65.71429 65.71429,-65.71429 36.293,0 65.71429,29.42129 65.71429,65.71429 z"
       sodipodi:ry="65.714287"
       sodipodi:rx="65.714287"
       sodipodi:cy="215.21933"
       sodipodi:cx="225.71428"
       id="path4516"
       style="fill:none;stroke:#000000;stroke-width:0.17045549;stroke-miterlimit:4;stroke-opacity:1;stroke-dasharray:none"
       sodipodi:type="arc" />
  </g>
</svg>
