<?xml version="1.0" encoding="UTF-8" standalone="no"?>
<svg
   xmlns:slic3r="http://slic3r.org/namespaces/slic3r"
   xmlns:dc="http://purl.org/dc/elements/1.1/"
   xmlns:cc="http://creativecommons.org/ns#"
   xmlns:rdf="http://www.w3.org/1999/02/22-rdf-syntax-ns#"
   xmlns:svg="http://www.w3.org/2000/svg"
   xmlns="http://www.w3.org/2000/svg"
   xmlns:sodipodi="http://sodipodi.sourceforge.net/DTD/sodipodi-0.dtd"
   xmlns:inkscape="http://www.inkscape.org/namespaces/inkscape"
   width="395.497985"
   height="394.958007"
   id="svg4518"
   version="1.1"
   inkscape:version="0.48.4 r9939"
   sodipodi:docname="gears4_3.2_gear.svg">
  <metadata
     id="metadata4544">
    <rdf:RDF>
      <cc:Work
         rdf:about="">
        <dc:format>image/svg+xml</dc:format>
        <dc:type
           rdf:resource="http://purl.org/dc/dcmitype/StillImage" />
      </cc:Work>
    </rdf:RDF>
  </metadata>
  <defs
     id="defs4542" />
  <sodipodi:namedview
     pagecolor="#ffffff"
     bordercolor="#666666"
     borderopacity="1"
     objecttolerance="10"
     gridtolerance="10"
     guidetolerance="10"
     inkscape:pageopacity="0"
     inkscape:pageshadow="2"
     inkscape:window-width="1855"
     inkscape:window-height="1056"
     id="namedview4540"
     showgrid="false"
     inkscape:zoom="1.6900754"
     inkscape:cx="206.08898"
     inkscape:cy="159.26288"
     inkscape:window-x="65"
     inkscape:window-y="24"
     inkscape:window-maximized="1"
     inkscape:current-layer="svg4518" />
  <!-- 
  Generated using Slic3r 1.1.7
  http://slic3r.org/
   -->
  <polygon
     id="polygon4521"
     style="fill:none;stroke:#000000;stroke-width:0.1;stroke-miterlimit:4;stroke-opacity:1;stroke-dasharray:none"
     points="210.98925,1.34584 211.07539,1.513001 211.6641,2.705873 211.74509,2.870008 212.30574,4.040896 212.38289,4.202009 212.91631,5.377561 212.97459,5.506001 213.46985,6.630304 213.53799,6.785 214.00205,7.881176 214.0659,8.032001 214.49891,9.10708 214.5585,9.255009 214.96022,10.301073 215.01549,10.445008 215.39242,11.46732 215.44429,11.607985 215.79002,12.601328 215.83759,12.738008 216.16153,13.700568 216.2061,13.833009 216.50198,14.770064 216.5427,14.899001 216.54184,14.907584 216.53559,14.97 220.95229,15.462265 221.56002,15.530003 221.5671,15.488008 222.07166,14.643241 222.14109,14.527008 222.67687,13.664665 222.75059,13.546008 223.32057,12.658168 223.39899,12.536008 223.99701,11.629713 224.0793,11.505009 224.71475,10.579368 224.80219,10.452009 225.47185,9.508784 225.56399,9.379001 226.26793,8.416441 226.36479,8.284 227.10293,7.305641 227.20449,7.171024 227.97698,6.175065 228.08328,6.038024 228.89623,5.025329 229.00809,4.885984 229.85838,3.864561 229.97538,3.724016 230.86306,2.683217 230.9852,2.540008 232.92262,2.88284 233.18919,2.930009 233.66889,4.209897 233.7349,4.386001 234.18338,5.638648 234.24509,5.811008 234.66246,7.038153 234.71989,7.207 235.10614,8.406025 235.15929,8.571 235.52059,9.745409 235.5703,9.907 235.90046,11.049761 235.94589,11.207 236.25426,12.325153 236.29669,12.479 236.57386,13.566384 236.612,13.716001 236.86744,14.771744 236.90259,14.917008 237.13309,15.944608 237.1648,16.086001 237.37347,17.080208 237.40219,17.217009 237.5859,18.182193 237.61118,18.315 237.60947,18.323104 237.59709,18.382 241.92658,19.38852 242.52231,19.527014 242.5329,19.484008 243.13091,18.702529 243.2132,18.595 243.84856,17.800353 243.93598,17.691009 244.60258,16.875249 244.69429,16.763001 245.39517,15.934936 245.4916,15.821001 246.22973,14.973608 246.3313,14.857008 247.10381,13.997297 247.21009,13.879001 248.02302,13.006993 248.13488,12.887008 248.98205,11.999161 249.09861,11.877 249.98318,10.976857 250.1049,10.853 251.02998,9.943192 251.15728,9.818008 252.11667,8.899401 252.24869,8.773008 253.25158,7.844737 253.38958,7.717008 255.27707,8.280472 255.53678,8.358 255.86389,9.685368 255.9089,9.868009 256.20785,11.16372 256.24899,11.342009 256.52317,12.613112 256.5609,12.788008 256.80376,14.023953 256.83718,14.194016 257.05835,15.399176 257.08878,15.565 257.28501,16.739409 257.312,16.901 257.48648,18.04728 257.51049,18.205 257.6631,19.316993 257.6841,19.470001 257.81182,20.547712 257.82939,20.696 257.94147,21.742952 257.95689,21.887008 258.05034,22.902305 258.0632,23.042008 258.13174,24.019513 258.14118,24.154009 258.13819,24.162232 258.1164,24.222 262.30261,25.723424 262.87858,25.929998 262.8963,25.887009 263.57845,25.180257 263.6723,25.083009 264.39486,24.366585 264.49429,24.268008 265.25123,23.535752 265.35539,23.435 266.14961,22.690449 266.25889,22.588001 267.09056,21.834656 267.20499,21.731 268.07394,20.967993 268.1935,20.863009 269.09987,20.090328 269.22459,19.984009 270.16842,19.199008 270.29829,19.091001 271.27941,18.299865 271.4144,18.191009 272.4392,17.397233 272.58021,17.288009 273.64226,16.487176 273.78838,16.376984 274.91463,15.555084 275.04629,15.459001 276.85282,16.237841 277.10139,16.345 277.27272,17.703129 277.29629,17.89 277.44266,19.210328 277.4628,19.392001 277.58742,20.685088 277.60458,20.863008 277.70427,22.118281 277.71798,22.291001 277.79579,23.518152 277.80649,23.687 277.86574,24.873713 277.8739,25.037 277.91432,26.195593 277.91989,26.355009 277.94169,27.475792 277.9447,27.630008 277.94787,28.717393 277.9483,28.867008 277.94657,29.011913 277.93408,30.065 277.93066,30.205065 277.90579,31.223009 277.89979,31.357992 277.85621,32.339008 277.85277,32.346385 277.82779,32.400008 281.80848,34.377864 282.35622,34.650014 282.37739,34.611009 283.13741,33.987765 283.24198,33.902009 284.04245,33.276124 284.15259,33.190004 284.9905,32.548304 285.10579,32.460009 285.9779,31.815664 286.0979,31.727009 287.01053,31.072121 287.1361,30.982009 288.08915,30.325352 288.22029,30.235001 289.2108,29.571329 289.34709,29.480008 290.37496,28.813681 290.51638,28.722 291.58478,28.048657 291.73179,27.956008 292.84062,27.287057 292.9932,27.195008 294.14254,26.521648 294.30069,26.429001 295.49048,25.756528 295.65419,25.664 297.35795,26.648537 297.59238,26.784 297.60488,28.150929 297.60659,28.339009 297.60573,28.522008 297.59949,29.852008 297.59563,30.030296 297.5676,31.326009 297.56117,31.499576 297.5144,32.761001 297.50541,32.929488 297.44,34.154008 297.42928,34.317657 297.35141,35.507004 297.33854,35.665573 297.24509,36.818008 297.2301,36.97186 297.12109,38.089997 297.10395,38.238284 296.97941,39.316009 296.96098,39.46006 296.82699,40.507004 296.80728,40.645372 296.664,41.651001 296.64214,41.784773 296.4833,42.757004 296.47901,42.7639 296.44789,42.814013 300.17338,45.240176 300.68598,45.574005 300.71099,45.535005 301.53906,45.00494 301.65299,44.932008 302.52238,44.402816 302.642,44.33 303.5483,43.791157 303.67301,43.717012 304.61357,43.178149 304.74299,43.104005 305.72666,42.562516 305.862,42.488009 306.88432,41.942116 307.02499,41.867005 308.08338,41.325516 308.22901,41.251009 309.32869,40.705988 309.48,40.630997 310.62011,40.088637 310.77699,40.014008 311.95755,39.475145 312.12,39.401 313.33747,38.868296 313.50499,38.795001 314.76379,38.26582 314.93699,38.193008 316.51578,39.367416 316.73301,39.529008 316.71293,39.71588 316.56699,41.074005 316.53788,41.311644 316.38299,42.576005 316.35856,42.75308 316.18099,44.040008 316.15438,44.211396 315.96099,45.457 315.93269,45.623308 315.72699,46.832 315.69749,46.993109 315.48301,48.164 315.45168,48.320393 315.224,49.457001 315.19098,49.607828 314.95099,50.704013 314.91712,50.849396 314.67099,51.906005 314.63592,52.046552 314.38099,53.068009 314.34531,53.203476 314.086,54.188004 314.04875,54.318268 313.77798,55.265001 313.77291,55.271412 313.736,55.318008 317.15285,58.158212 317.62298,58.549 317.65499,58.514008 318.53931,58.086784 318.66099,58.028001 319.58574,57.601661 319.71299,57.543 320.67291,57.113145 320.80499,57.054 321.80446,56.627661 321.94198,56.569001 322.97928,56.145304 323.122,56.087004 324.20234,55.663313 324.35098,55.605012 325.46651,55.190972 325.62,55.134005 326.77594,54.719093 326.93499,54.662004 328.12787,54.257649 328.292,54.202012 329.52794,53.802912 329.698,53.748 330.9691,53.358589 331.144,53.305008 332.45818,52.925252 332.63899,52.873 334.0692,54.224985 334.26598,54.411012 334.22438,54.594376 333.922,55.927 333.8787,56.104437 333.564,57.393996 333.51949,57.567201 333.196,58.826004 333.14968,58.993161 332.81299,60.208009 332.76546,60.36996 332.42,61.546997 332.3715,61.703873 332.01899,62.844009 331.96976,62.99532 331.612,64.095001 331.56229,64.241112 331.20099,65.303008 331.14995,65.443553 330.77899,66.464996 330.72795,66.600464 330.35699,67.585006 330.30606,67.715273 329.93598,68.662003 329.8841,68.787189 329.50699,69.697006 329.50058,69.702933 329.454,69.746002 332.51835,72.96332 332.94,73.406026 332.976,73.375008 333.90427,73.050637 334.032,73.006004 335.0007,72.691304 335.13398,72.648002 336.13699,72.333303 336.27499,72.290001 337.31842,71.982337 337.46198,71.940002 338.54234,71.637608 338.69099,71.596 339.80914,71.303279 339.96299,71.263001 341.12158,70.97907 341.28099,70.940002 342.47737,70.666623 342.642,70.629007 343.8753,70.360896 344.04499,70.324006 345.35638,70.066441 345.35638,70.06644 345.49099,70.04 346.79901,69.800027 346.97899,69.767006 348.32747,69.542847 348.51301,69.512002 349.77795,71.019572 349.952,71.227006 349.88947,71.404443 349.43499,72.694001 349.37114,72.865512 348.90699,74.112009 348.84264,74.278197 348.37501,75.486009 348.30946,75.646754 347.83299,76.815003 347.76744,76.970548 347.29101,78.101007 347.22461,78.251109 346.74198,79.342002 346.67546,79.486782 346.19198,80.539003 346.12558,80.67834 345.64299,81.691003 345.57611,81.824656 345.09,82.796006 345.02323,82.924579 344.538,83.859002 344.47245,83.982494 343.99598,84.880006 343.92995,84.998296 343.45,85.858003 343.4431,85.863083 343.39299,85.900002 346.06529,89.451354 346.433,89.940012 346.46899,89.915001 347.42803,89.69964 347.56,89.670006 348.56035,89.470459 348.698,89.443002 349.73176,89.246973 349.874,89.220002 350.94203,89.033646 351.08899,89.008003 352.19835,88.833075 352.35099,88.809006 353.49726,88.647263 353.65499,88.625009 354.83819,88.4782 355.00099,88.458 356.21934,88.324392 356.38699,88.306007 357.64139,88.184699 357.814,88.168007 359.11061,88.065156 359.28901,88.051003 360.61545,87.966615 360.79797,87.955002 362.16226,87.886441 362.34997,87.877007 363.43032,89.521701 363.57898,89.748001 363.49637,89.916852 362.896,91.144006 362.81278,91.307291 362.208,92.494004 362.12491,92.651727 361.52099,93.798004 361.43693,93.950164 360.82598,95.056008 360.74242,95.202602 360.13501,96.268006 360.05227,96.4094 359.45099,97.437005 359.3679,97.572883 358.76398,98.560402 358.68174,98.691116 358.08398,99.641106 358.01687,99.743678 357.40698,100.6758 357.32594,100.7958 356.73699,101.66791 356.65728,101.78319 356.078,102.621 355.99877,102.73029 355.42299,103.5246 355.41573,103.52889 355.36299,103.56 357.6019,107.40364 357.90998,107.93252 357.95301,107.90771 358.93051,107.80486 359.06501,107.7907 360.07765,107.70667 360.21698,107.6951 361.26659,107.62346 361.41101,107.6136 362.44564,107.5543 362.64801,107.5427 363.76877,107.4991 363.92298,107.4931 365.07893,107.46506 365.23798,107.4612 366.43085,107.45189 366.59497,107.45061 367.82214,107.45992 367.99099,107.4612 369.2489,107.48616 369.42198,107.4896 370.72122,107.53936 370.9,107.5462 372.27894,107.61748 372.40899,107.62421 373.77328,107.71765 373.96099,107.73051 374.84621,109.48719 374.968,109.7289 374.86592,109.88705 374.124,111.03641 374.02253,111.18855 373.28496,112.2943 373.18371,112.44173 372.448,113.51321 372.34736,113.6542 371.616,114.6789 371.5161,114.81519 370.78998,115.8057 370.69104,115.93642 369.972,116.8864 369.87379,117.01198 369.15997,117.92461 369.0631,118.0446 368.35901,118.9167 368.26309,119.03156 367.56598,119.8663 367.47165,119.97602 366.78602,120.77341 366.69349,120.8784 366.02099,121.6415 365.92931,121.74136 365.26301,122.4671 365.25563,122.47054 365.202,122.4955 366.9812,126.56646 367.22602,127.12661 367.268,127.1089 368.24899,127.12446 368.38397,127.1266 369.40281,127.16088 369.54301,127.1656 370.64469,127.2146 370.73699,127.2187 371.82435,127.2841 371.97398,127.29311 373.09213,127.38031 373.24598,127.3923 374.39843,127.50131 374.55699,127.5163 375.74019,127.64403 375.90301,127.66161 377.12134,127.81113 377.28899,127.8317 378.53725,128.00611 378.70899,128.0301 379.99242,128.22947 380.16899,128.2569 381.48054,128.47807 381.66102,128.50851 383.0623,128.76857 383.188,128.7919 383.86048,130.64212 383.95299,130.89671 383.8335,131.04198 382.96499,132.0978 382.84669,132.23709 381.98701,133.2494 381.86957,133.38398 381.016,134.362 380.89939,134.49058 380.052,135.425 379.93673,135.54844 379.09901,136.4455 378.98592,136.56378 378.164,137.4234 378.05213,137.53698 377.23901,138.3624 377.12845,138.4704 376.32502,139.2553 376.21651,139.35816 375.42797,140.1057 375.32128,140.20384 374.54598,140.9171 374.44185,141.01054 373.68499,141.6896 373.58256,141.77788 372.83802,142.4195 372.82992,142.42208 372.77101,142.4408 374.06672,146.69548 374.24499,147.28089 374.29101,147.2668 375.26585,147.39444 375.4,147.412 376.40563,147.5647 376.544,147.5857 377.58128,147.75386 377.724,147.777 378.79555,147.97013 378.94301,147.9967 380.04269,148.21163 380.19401,148.2412 381.32797,148.48101 381.484,148.514 382.64522,148.78185 382.80499,148.8187 383.99523,149.10844 384.15901,149.1483 385.37997,149.46283 385.54797,149.5061 386.79974,149.855 386.972,149.903 388.24925,150.27361 388.42499,150.3246 389.73037,150.72958 389.90998,150.7853 390.36448,152.70084 390.42701,152.9644 390.29117,153.0947 389.304,154.0416 389.17024,154.16632 388.19798,155.0727 388.06554,155.1927 387.10301,156.0648 386.97238,156.1788 386.02301,157.0073 385.89443,157.11659 384.96,157.9109 384.8336,158.01547 383.91498,158.7754 383.79066,158.87484 382.88701,159.5975 382.76483,159.69221 381.87699,160.3805 381.7575,160.47008 380.88899,161.1211 380.77155,161.20596 379.91798,161.8227 379.80394,161.9037 378.97498,162.4924 378.86272,162.56825 378.04701,163.1195 378.03878,163.12122 377.97901,163.1337 378.77014,167.50679 378.879,168.10846 378.92598,168.1014 379.87891,168.3413 380.01002,168.3743 380.99101,168.64214 381.12598,168.679 382.13776,168.96864 382.27699,169.0085 383.31779,169.32311 383.46099,169.3664 384.52906,169.70897 384.676,169.7561 385.77568,170.12372 385.92701,170.1743 387.04867,170.57603 387.20301,170.6313 388.35194,171.05809 388.51002,171.11681 389.6879,171.57154 389.84998,171.6341 391.05165,172.12311 391.21699,172.1904 392.4415,172.70746 392.60998,172.7786 393.85913,173.33301 394.03101,173.4093 394.25779,175.36536 394.28899,175.6345 394.13949,175.74808 393.05299,176.5735 392.90553,176.68193 391.83398,177.4699 391.68874,177.57362 390.63299,178.32741 390.48979,178.42554 389.44896,179.1388 389.30842,179.23265 388.28698,179.9148 388.14944,180.00352 387.14998,180.6483 387.01488,180.73273 386.03299,181.3463 385.90067,181.42602 384.93901,182.0054 384.80995,182.08082 383.872,182.62901 383.7456,182.69972 382.82701,183.21361 382.704,183.28047 381.80998,183.7664 381.68998,183.82897 380.81798,184.2837 380.80941,184.28414 380.74701,184.2873 381.0239,188.72576 381.06202,189.3365 381.112,189.33293 382.03059,189.68178 382.15699,189.72978 383.10109,190.10978 383.23098,190.16206 384.20234,190.56699 384.336,190.6227 385.33283,191.05566 385.46998,191.11522 386.49145,191.57932 386.632,191.64318 387.67894,192.13841 387.82301,192.20655 388.89104,192.73294 389.03798,192.80538 390.13152,193.36293 390.28198,193.43964 391.39661,194.02831 391.54998,194.10931 392.68749,194.73538 392.844,194.82153 393.99904,195.47874 394.15798,195.56916 395.3359,196.26374 395.49798,196.35931 395.49798,198.5987 395.3359,198.69426 394.15798,199.38885 393.99904,199.47927 392.844,200.13648 392.68749,200.22262 391.54998,200.8487 391.39661,200.9297 390.28198,201.51837 390.13152,201.59508 389.03798,202.15263 388.89104,202.22506 387.82301,202.75146 387.67894,202.8196 386.632,203.31483 386.49146,203.37869 385.46998,203.84278 385.33283,203.90235 384.336,204.3353 384.20234,204.39102 383.23098,204.79594 383.10109,204.84823 382.15699,205.22822 382.03059,205.27622 381.112,205.62508 381.10342,205.62465 381.04102,205.62154 381.00568,206.2848 380.77197,210.67073 380.81798,210.6743 381.68998,211.12904 381.80998,211.19161 382.704,211.67754 382.82701,211.7444 383.7456,212.25829 383.872,212.329 384.80995,212.87718 384.93901,212.95261 385.90067,213.53198 386.03299,213.6117 387.01488,214.22528 387.14998,214.3097 388.14944,214.95449 388.28698,215.04321 389.30842,215.72535 389.44896,215.81921 390.48979,216.53246 390.63299,216.6306 391.68874,217.38438 391.83398,217.4881 392.90553,218.27608 393.05299,218.3845 394.13949,219.20993 394.28899,219.3235 394.25779,219.59265 394.03101,221.5487 393.85913,221.62499 392.60998,222.17941 392.4415,222.25055 391.21699,222.76761 391.05165,222.8349 389.84998,223.3239 389.6879,223.38647 388.51002,223.8412 388.35194,223.89992 387.20301,224.3267 387.04867,224.38198 385.92701,224.7837 385.77568,224.83429 384.676,225.2019 384.52906,225.24904 383.46099,225.59161 383.31779,225.6349 382.27699,225.94951 382.13776,225.98937 381.12598,226.27901 380.99101,226.31586 380.01002,226.5837 379.87891,226.61671 378.92598,226.85661 378.91776,226.85533 378.85798,226.84601 378.75469,227.44901 378.00399,231.83144 378.04701,231.8385 378.86272,232.38976 378.97498,232.46561 379.80394,233.05429 379.91798,233.1353 380.77155,233.75203 380.88899,233.8369 381.7575,234.48792 381.87699,234.5775 382.76483,235.26581 382.88701,235.36051 383.79066,236.08317 383.91498,236.18261 384.8336,236.94254 384.96,237.0471 385.89443,237.84141 386.02301,237.9507 386.97238,238.7792 387.10301,238.8932 388.06554,239.7653 388.19798,239.8853 389.17024,240.7917 389.304,240.91642 390.29117,241.86331 390.42701,241.9936 390.36448,242.25717 389.90998,244.1727 389.73037,244.22843 388.42499,244.63341 388.24925,244.6844 386.972,245.05501 386.79974,245.10301 385.54797,245.4519 385.37997,245.49518 384.15901,245.80971 383.99523,245.84958 382.80499,246.13931 382.64522,246.17616 381.484,246.444 381.32797,246.47699 380.19402,246.7168 380.04269,246.74637 378.94301,246.9613 378.79555,246.98787 377.724,247.18099 377.58128,247.20413 376.544,247.3723 376.40563,247.39331 375.4,247.546 375.26585,247.56357 374.29101,247.6912 374.28291,247.68906 374.224,247.6735 374.05126,248.26022 372.79598,252.52437 372.83802,252.53851 373.58256,253.18011 373.68499,253.2684 374.44186,253.94747 374.54598,254.04091 375.32128,254.75414 375.42797,254.85229 376.21651,255.59984 376.32502,255.7027 377.12845,256.48762 377.23901,256.59562 378.05213,257.42104 378.164,257.53461 378.98592,258.39424 379.09901,258.51251 379.93674,259.40958 380.052,259.53301 380.89939,260.46744 381.016,260.59602 381.86957,261.57403 381.98701,261.70861 382.84669,262.72091 382.96499,262.86019 383.8335,263.91603 383.95299,264.06131 383.86048,264.31589 383.188,266.16611 383.0033,266.20038 381.66102,266.44949 381.48054,266.47992 380.16899,266.7011 379.99242,266.72854 378.70899,266.9279 378.53725,266.9519 377.28899,267.12632 377.12134,267.14689 375.90301,267.2964 375.74019,267.31397 374.55699,267.44171 374.39843,267.4567 373.24598,267.56571 373.09213,267.57771 371.97398,267.6649 371.82435,267.67389 370.73699,267.7393 370.59258,267.74571 369.54301,267.7924 369.40282,267.79712 368.38397,267.83141 368.24899,267.83355 367.268,267.8491 367.25989,267.84568 367.20099,267.8208 366.96187,268.38352 365.224,272.47319 365.26301,272.49091 365.92931,273.21664 366.02099,273.3165 366.69349,274.0796 366.78602,274.18461 367.47165,274.982 367.56598,275.09171 368.26309,275.92645 368.35901,276.04131 369.0631,276.91341 369.15997,277.03341 369.87379,277.94603 369.972,278.0716 370.69104,279.0216 370.78998,279.15232 371.5161,280.14283 371.616,280.27912 372.34736,281.30381 372.448,281.4448 373.18371,282.51627 373.28496,282.6637 374.02253,283.76946 374.124,283.9216 374.86592,285.07094 374.968,285.22909 374.84621,285.4708 373.96099,287.2275 373.77328,287.24037 372.40899,287.33381 372.22646,287.34325 370.9,287.41181 370.72122,287.41866 369.42198,287.46842 369.2489,287.47186 367.99099,287.4968 367.82214,287.49808 366.59497,287.50741 366.43085,287.50613 365.23798,287.4968 365.07893,287.49294 363.92298,287.46491 363.76877,287.45891 362.64801,287.41531 362.4984,287.40674 361.41101,287.3444 361.26659,287.33454 360.21697,287.26291 360.07765,287.25134 359.06501,287.1673 358.93051,287.15314 357.95301,287.05029 357.94563,287.046 357.892,287.0149 357.58816,287.54632 355.38001,291.40855 355.42299,291.43341 355.99877,292.22771 356.078,292.33701 356.65728,293.17482 356.73699,293.2901 357.32594,294.16219 357.40698,294.28219 358.00209,295.19174 358.08398,295.3169 358.68174,296.26689 358.76398,296.39761 359.3679,297.38512 359.45099,297.52099 360.05227,298.54861 360.13501,298.69 360.74241,299.75542 360.82598,299.90202 361.43693,301.00784 361.52099,301.16 362.12491,302.30627 362.208,302.464 362.81278,303.65072 362.896,303.814 363.49637,305.04115 363.57898,305.21 363.43032,305.4363 362.34997,307.08099 362.16226,307.07155 360.79797,307.00301 360.61545,306.99139 359.28901,306.90701 359.11061,306.89286 357.814,306.79002 357.64139,306.77333 356.38699,306.65202 356.21934,306.63363 355.00099,306.5 354.83819,306.47981 353.65499,306.33301 353.49726,306.31075 352.35099,306.14901 352.19835,306.12494 351.08899,305.95002 350.94203,305.92437 349.874,305.738 349.73176,305.71102 348.698,305.51501 348.56035,305.48755 347.56,305.288 347.42803,305.25837 346.46899,305.04299 346.4621,305.03827 346.41198,305.004 346.04938,305.49603 343.41402,309.07195 343.45,309.1 343.92995,309.95971 343.99598,310.078 344.47245,310.9755 344.538,311.09899 345.02323,312.03342 345.09,312.162 345.57611,313.13334 345.64299,313.26699 346.12558,314.27966 346.19198,314.41901 346.67545,315.47121 346.74198,315.616 347.22461,316.7069 347.29101,316.85699 347.76744,317.98746 347.83299,318.14301 348.30946,319.31125 348.37501,319.472 348.84264,320.67982 348.90699,320.84602 349.37113,322.09249 349.43499,322.264 349.88947,323.55357 349.952,323.73101 349.77795,323.93845 348.51301,325.44602 348.32747,325.41517 346.97899,325.19101 346.79901,325.15798 345.49099,324.918 345.35638,324.89156 345.35638,324.89156 344.04499,324.634 343.8753,324.5971 342.642,324.32901 342.47737,324.29139 341.28099,324.018 341.12158,323.97893 339.96299,323.69501 339.80914,323.65474 338.69099,323.362 338.54234,323.3204 337.46198,323.018 337.31842,322.97566 336.27499,322.668 336.13699,322.6247 335.13398,322.31 335.0007,322.2667 334.032,321.952 333.90427,321.90738 332.976,321.58301 332.96958,321.57744 332.92299,321.53702 332.50558,321.98358 329.47198,325.22903 329.50699,325.26101 329.8841,326.17082 329.93598,326.296 330.30606,327.24274 330.35699,327.37301 330.72795,328.35753 330.77899,328.49301 331.14995,329.51445 331.20099,329.65499 331.56229,330.7169 331.612,330.86301 331.96976,331.96269 332.01899,332.114 332.3715,333.25413 332.42,333.41101 332.76546,334.58805 332.81299,334.75 333.14968,335.96485 333.196,336.132 333.51949,337.39081 333.564,337.56401 333.8787,338.85357 333.922,339.03101 334.22438,340.36363 334.26598,340.54699 334.0692,340.73302 332.63899,342.08501 332.45818,342.03275 331.144,341.65299 330.9691,341.59941 329.698,341.21 329.52794,341.15509 328.292,340.756 328.12787,340.70037 326.93499,340.296 326.77594,340.23891 325.62,339.824 325.46651,339.76702 324.35098,339.35299 324.20234,339.29469 323.122,338.87101 322.97928,338.8127 321.94198,338.38901 321.80446,338.33035 320.80499,337.904 320.67291,337.84485 319.71299,337.41501 319.58574,337.35635 318.66099,336.93 318.53931,336.87122 317.65499,336.444 317.64942,336.43758 317.60899,336.39101 317.14224,336.78616 313.74999,339.65801 313.77798,339.69301 314.04875,340.63973 314.086,340.77 314.34531,341.75453 314.38099,341.89 314.63592,342.91146 314.67099,343.052 314.91712,344.10861 314.95099,344.254 315.19098,345.35018 315.224,345.50101 315.45168,346.63762 315.48301,346.794 315.69749,347.9649 315.72699,348.126 315.93269,349.3347 315.96099,349.50101 316.15438,350.74661 316.18099,350.918 316.35856,352.20493 316.38299,352.382 316.54474,353.70234 316.56699,353.884 316.71293,355.24213 316.73301,355.42901 316.51578,355.59061 314.93699,356.76501 314.76379,356.69219 313.50499,356.16302 313.33747,356.08973 312.12,355.55701 311.95755,355.48286 310.77699,354.944 310.62011,354.86937 309.48,354.32701 309.32869,354.25201 308.22901,353.70701 308.08338,353.6325 307.02499,353.09101 306.88432,353.01589 305.862,352.47 305.72666,352.39549 304.74299,351.854 304.61357,351.77985 303.67301,351.24099 303.5727,351.18135 302.642,350.628 302.52238,350.55518 301.65299,350.026 301.53906,349.95307 300.71099,349.42301 300.70627,349.41624 300.672,349.36701 300.16237,349.70507 296.45855,352.16197 296.4833,352.20101 296.64214,353.17323 296.664,353.30701 296.80728,354.31264 296.82699,354.45101 296.96098,355.49795 296.97941,355.642 297.10395,356.71973 297.12109,356.86802 297.2301,357.98616 297.24509,358.14002 297.33854,359.29243 297.35141,359.45099 297.42928,360.64037 297.44,360.80402 297.50541,362.02854 297.5144,362.19702 297.56117,363.45845 297.5676,363.63202 297.59563,364.92773 297.59949,365.10602 297.60573,366.43602 297.60659,366.61902 297.60488,366.8071 297.59238,368.17401 297.35795,368.30949 295.65419,369.29402 295.49048,369.20147 294.30069,368.52899 294.14254,368.43635 292.9932,367.76301 292.84062,367.67096 291.73179,367.00201 291.58478,366.90936 290.51638,366.23602 290.37496,366.14434 289.34709,365.478 289.2108,365.38669 288.22029,364.72302 288.08915,364.63267 287.1361,363.97602 287.01053,363.8859 286.0979,363.23102 285.9779,363.14237 285.10579,362.49798 284.9905,362.4097 284.15259,361.768 284.04245,361.68189 283.24198,361.056 283.13741,360.97024 282.37739,360.34699 282.37354,360.33973 282.34549,360.28699 281.79992,360.56385 277.83489,362.57599 277.85621,362.61902 277.89979,363.60001 277.90579,363.73499 277.93066,364.75294 277.93408,364.89301 277.94657,365.94611 277.9483,366.09101 277.94787,366.24062 277.9447,367.328 277.94169,367.48221 277.91989,368.60301 277.91432,368.76243 277.8739,369.92102 277.86574,370.08432 277.80649,371.27101 277.79579,371.43987 277.71798,372.66701 277.70427,372.83974 277.60458,374.09501 277.58742,374.27293 277.4628,375.56602 277.44266,375.74768 277.29629,377.068 277.27272,377.25488 277.10139,378.61299 276.85282,378.72016 275.04629,379.49901 274.89414,379.38797 273.78838,378.58102 273.64226,378.47082 272.58021,377.66998 272.4392,377.56077 271.4144,376.76701 271.27941,376.65814 270.29829,375.86701 270.16842,375.75901 269.22459,374.97398 269.09987,374.86768 268.1935,374.09501 268.07394,373.99002 267.20499,373.22697 267.09056,373.12333 266.25889,372.36998 266.14962,372.26755 265.35539,371.52301 265.25123,371.42224 264.49429,370.69002 264.39486,370.59142 263.6723,369.87501 263.57845,369.77776 262.8963,369.07098 262.8933,369.06323 262.87149,369.00701 262.29763,369.21917 258.12705,370.76096 258.14118,370.80403 258.13174,370.93853 258.0632,371.916 258.05034,372.05571 257.9569,373.07098 257.94147,373.21504 257.82939,374.26202 257.81182,374.4103 257.6841,375.488 257.6631,375.64099 257.5105,376.75299 257.48648,376.91072 257.312,378.05699 257.28501,378.21859 257.08878,379.39299 257.05835,379.55882 256.83718,380.76397 256.80376,380.93402 256.5609,382.16998 256.52317,382.3449 256.24899,383.616 256.20785,383.79427 255.9089,385.08998 255.86389,385.27264 255.53678,386.6 255.27707,386.67754 253.38958,387.24099 253.25158,387.11328 252.24869,386.18499 252.11667,386.05859 251.15728,385.14 251.02998,385.01482 250.1049,384.10502 249.98318,383.98115 249.09861,383.08099 248.98205,382.95882 248.13488,382.07098 248.02302,381.95101 247.21009,381.07901 247.10381,380.9607 246.3313,380.10102 246.22973,379.98442 245.4916,379.13702 245.39517,379.02307 244.69429,378.19501 244.60258,378.08275 243.93598,377.26701 243.84856,377.15766 243.2132,376.36301 243.13091,376.25549 242.5329,375.47398 242.53075,375.46576 242.5152,375.40602 241.92077,375.55008 237.6006,376.59699 237.61118,376.64301 237.5859,376.77581 237.40219,377.74099 237.37347,377.87779 237.1648,378.872 237.13309,379.01341 236.90259,380.04102 236.86744,380.18627 236.612,381.24201 236.57386,381.39165 236.29669,382.47901 236.25426,382.63286 235.94589,383.75101 235.90046,383.90825 235.5703,385.05104 235.52059,385.21264 235.1593,386.38701 235.10614,386.552 234.71989,387.75101 234.66246,387.91987 234.24509,389.14701 234.18338,389.31936 233.7349,390.57203 233.66889,390.74813 233.18919,392.028 232.92262,392.07517 230.9852,392.41798 230.86306,392.27478 229.97538,391.23402 229.85838,391.09347 229.00809,390.07203 228.89623,389.93267 228.08328,388.91997 227.97698,388.78294 227.20449,387.78698 227.10293,387.65235 226.36479,386.67402 226.26794,386.54157 225.56399,385.57901 225.47185,385.44921 224.80219,384.50598 224.71475,384.37862 224.0793,383.45299 223.99701,383.32829 223.39899,382.42198 223.32057,382.29981 222.75059,381.412 222.67687,381.29334 222.14109,380.43101 222.07166,380.31478 221.5671,379.47002 221.56581,379.46192 221.5565,379.40301 220.94964,379.4768 216.53919,380.01299 216.5427,380.05901 216.50198,380.18793 216.2061,381.12499 216.16153,381.25744 215.83759,382.22 215.76695,382.42297 215.76695,382.42297 215.44429,383.35005 215.39242,383.49072 215.01549,384.51299 214.96022,384.65693 214.55849,385.70301 214.49891,385.85094 214.0659,386.92602 213.97269,387.14619 213.53799,388.17299 213.46985,388.32768 212.97459,389.45203 212.90302,389.60976 212.38289,390.75597 212.30574,390.91709 211.7451,392.088 211.6641,392.25213 211.07539,393.44499 210.98925,393.61216 210.36319,394.82704 210.09319,394.84288 208.13089,394.95802 208.02589,394.80211 207.26278,393.66899 207.16335,393.51501 206.44074,392.396 206.34559,392.24518 205.65411,391.14899 205.56411,391.00035 204.91002,389.91997 204.82473,389.77424 204.2049,388.71501 204.12434,388.57277 203.53877,387.53901 203.46206,387.3992 202.90451,386.38301 202.83251,386.24634 202.30923,385.25299 202.24194,385.11933 201.75293,384.148 201.68949,384.01811 201.22852,383.07401 201.16895,382.94714 200.736,382.02502 200.68071,381.90166 200.27891,381.00499 200.27891,380.93402 199.66691,380.93702 195.21907,380.95901 195.21907,381.00499 195.16378,381.12835 194.76198,382.02502 194.70242,382.1519 194.26946,383.07402 194.20603,383.2039 193.74506,384.148 193.67777,384.28166 193.18875,385.25299 193.11675,385.38966 192.59347,386.38301 192.51676,386.52281 191.95922,387.53901 191.87866,387.68125 191.29308,388.71501 191.20779,388.86074 190.58797,389.91997 190.49797,390.06861 189.84387,391.14899 189.74873,391.29981 189.05725,392.396 188.95782,392.54998 188.2352,393.66899 188.1302,393.8249 187.3671,394.95802 187.09709,394.94218 185.1348,394.82704 185.04865,394.65987 184.42259,393.44499 184.34159,393.28086 183.75289,392.088 183.67574,391.92688 183.1151,390.75597 183.04353,390.59824 182.52339,389.45203 182.45525,389.29734 181.95999,388.17299 181.89614,388.02218 181.43209,386.92602 181.3725,386.77808 180.93949,385.70301 180.88422,385.55907 180.48249,384.51299 180.43062,384.37232 180.0537,383.35005 180.00613,383.21338 179.66039,382.22 179.61582,382.08755 179.2919,381.12499 179.25118,380.99606 178.95529,380.05901 178.96239,379.988 178.35468,379.92026 173.938,379.428 173.9309,379.47001 173.86147,379.58624 173.3569,380.43101 173.28318,380.54966 172.74739,381.412 172.66897,381.53418 172.09899,382.42198 172.01671,382.54669 171.4187,383.45299 171.33126,383.58035 170.69579,384.50598 170.60365,384.63578 169.93399,385.57901 169.83714,385.71146 169.13319,386.67402 169.03163,386.80864 168.2935,387.78697 168.1872,387.924 167.4147,388.91997 167.30284,389.05933 166.48989,390.07203 166.3729,390.21258 165.5226,391.23402 165.40046,391.37722 164.5128,392.41798 164.24622,392.37082 162.30879,392.028 162.24279,391.8519 161.76309,390.57203 161.70138,390.39968 161.25289,389.14701 161.19546,388.97814 160.77809,387.75101 160.72494,387.58602 160.33869,386.38701 160.28898,386.22541 159.92769,385.05104 159.88226,384.89379 159.55209,383.75101 159.50966,383.59715 159.20129,382.47901 159.16316,382.32938 158.88599,381.24202 158.85084,381.09677 158.59539,380.04102 158.56368,379.89962 158.3332,378.872 158.30448,378.7352 158.0958,377.74099 158.07052,377.60819 157.88679,376.64301 157.9009,376.576 157.30518,376.4375 152.97569,375.43101 152.96509,375.47398 152.88281,375.5815 152.28479,376.36301 152.19737,376.47235 151.56199,377.26701 151.47027,377.37926 150.80369,378.19501 150.70726,378.30896 150.00639,379.13702 149.90483,379.25363 149.1667,380.10102 149.0604,380.21933 148.28789,381.07901 148.17604,381.19898 147.3631,382.07097 147.24653,382.19315 146.39939,383.08099 146.27767,383.20486 145.39309,384.10502 145.2658,384.23021 144.3407,385.14 144.20869,385.2664 143.2493,386.18499 143.1113,386.3127 142.1084,387.24099 141.84869,387.16345 139.96119,386.6 139.91618,386.41734 139.58909,385.08998 139.54796,384.91171 139.24899,383.616 139.21127,383.44109 138.93709,382.16998 138.90367,381.99994 138.6608,380.76397 138.63036,380.59814 138.40919,379.39299 138.3822,379.23139 138.18599,378.05699 138.16198,377.89926 137.98749,376.75299 137.9665,376.6 137.81389,375.488 137.79632,375.33971 137.6686,374.26202 137.65318,374.11795 137.54109,373.07098 137.52823,372.93126 137.43479,371.916 137.42536,371.7815 137.35679,370.80403 137.38159,370.73603 136.80559,370.52944 132.61939,369.028 132.60169,369.07098 132.50783,369.16822 131.82569,369.87501 131.72627,369.9736 131.00369,370.69002 130.89954,370.79078 130.14259,371.52301 130.03331,371.62544 129.23909,372.36998 129.12466,372.47363 128.29299,373.22697 128.17343,373.33197 127.30449,374.09501 127.17978,374.20131 126.27339,374.97398 126.14353,375.08198 125.19969,375.86701 125.0647,375.97587 124.0836,376.76701 123.94259,376.87622 122.91779,377.66998 122.77166,377.78019 121.70959,378.58102 121.55745,378.69206 120.45169,379.49901 120.23326,379.40484 118.39659,378.61299 118.37302,378.42611 118.20169,377.068 118.18155,376.88633 118.03519,375.56602 118.01804,375.3881 117.89339,374.09501 117.87968,373.92227 117.77999,372.66701 117.76929,372.49814 117.69149,371.27101 117.68334,371.10771 117.62409,369.92102 117.61853,369.7616 117.57809,368.60301 117.57509,368.4488 117.55329,367.328 117.55285,367.17838 117.54969,366.09101 117.56218,365.0379 117.5639,364.89301 117.58758,363.92374 117.59219,363.73499 117.63579,362.754 117.64179,362.61902 117.67019,362.55798 117.12247,362.28584 113.14179,360.30798 113.12059,360.34699 113.01601,360.43275 112.256,361.056 112.14586,361.14211 111.34539,361.768 111.2301,361.85629 110.3922,362.49798 110.2722,362.58664 109.40009,363.23102 109.27452,363.32114 108.36189,363.97602 108.23076,364.06637 107.27769,364.72302 107.14141,364.81434 106.15089,365.478 106.00946,365.56968 104.98159,366.23602 104.83458,366.32867 103.76619,367.00201 103.61362,367.09406 102.50479,367.76301 102.34664,367.85565 101.1973,368.52899 101.03359,368.62153 99.843796,369.29402 99.609366,369.15856 97.905594,368.17402 97.903877,367.98593 97.891396,366.61902 97.897634,365.28902 97.898492,365.10602 97.927636,363.75932 97.93039,363.63202 97.977155,362.37059 97.98359,362.19702 98.048992,360.9725 98.057992,360.80401 98.135868,359.61464 98.146585,359.45099 98.240034,358.29858 98.252892,358.14002 98.361894,357.02187 98.376894,356.86802 98.501454,355.79029 98.518593,355.642 98.646984,354.63862 98.67099,354.45101 98.81427,353.44538 98.833986,353.30701 98.992837,352.33478 99.014695,352.20101 99.050096,352.144 98.537487,351.81018 94.811999,349.384 94.786995,349.42301 94.673059,349.49593 93.844995,350.026 93.725372,350.09882 92.855995,350.628 92.731293,350.70214 91.824991,351.24099 91.695571,351.31514 90.754991,351.854 90.619645,351.92851 89.635994,352.47 89.495328,352.54512 88.473,353.09101 88.327373,353.16552 87.26899,353.70701 87.117678,353.782 86.017991,354.32701 85.861116,354.40163 84.720993,354.944 84.558554,355.01814 83.377992,355.55701 83.210473,355.6303 81.992996,356.16302 81.819792,356.23584 80.560991,356.76501 80.343761,356.60341 78.764992,355.42901 78.910915,354.07088 78.930992,353.884 79.092735,352.56366 79.11499,352.382 79.292563,351.09507 79.316994,350.918 79.519321,349.61484 79.51932,349.61484 79.536995,349.50101 79.742693,348.2923 79.770996,348.126 79.98548,346.9551 80.014992,346.794 80.242668,345.65739 80.273994,345.50101 80.513971,344.40483 80.54699,344.254 80.793129,343.19739 80.826997,343.052 81.081914,342.03054 81.116991,341.89 81.376313,340.90547 81.411994,340.77 81.682741,339.82328 81.719994,339.69301 81.761997,339.64 81.291852,339.2492 77.874996,336.40899 77.842995,336.444 77.721317,336.50278 76.83699,336.93 76.709749,336.98865 75.784988,337.41501 75.652908,337.47416 74.692994,337.904 74.555471,337.96265 73.555992,338.38901 73.413269,338.44731 72.375993,338.87101 72.227342,338.92931 71.146997,339.35299 70.993506,339.40997 69.87799,339.824 69.718938,339.88109 68.562989,340.296 68.398857,340.35163 67.205994,340.756 67.035935,340.81091 65.799988,341.21 65.625092,341.26358 64.353989,341.65299 64.173164,341.70525 62.858992,342.08501 62.662205,341.89898 61.231996,340.54699 61.534381,339.21437 61.575988,339.03101 61.890693,337.74145 61.933993,337.56401 62.257476,336.3052 62.301989,336.132 62.638673,334.91715 62.684997,334.75 63.030457,333.57296 63.077989,333.41101 63.430488,332.27088 63.478989,332.114 63.836761,331.01432 63.885988,330.86301 64.235775,329.83493 64.296996,329.65499 64.667956,328.63355 64.718997,328.49301 65.089953,327.50848 65.140993,327.37301 65.511077,326.42627 65.561996,326.296 65.939109,325.38619 65.990996,325.26101 66.043989,325.212 65.622352,324.76931 62.557997,321.55199 62.521989,321.58301 62.394264,321.62763 61.465989,321.952 61.3327,321.9953 60.364001,322.31 60.225992,322.3533 59.222993,322.668 59.079421,322.71033 58.035997,323.018 57.887344,323.0596 56.806993,323.362 56.65314,323.40227 55.534989,323.69501 55.375572,323.73408 54.216996,324.018 54.05238,324.05562 52.855989,324.32901 52.686292,324.3659 51.452989,324.634 51.278092,324.66835 50.006989,324.918 49.827013,324.95102 48.518996,325.19101 48.333453,325.22186 46.984984,325.44601 46.810932,325.23858 45.545988,323.73101 46.000457,322.44144 46.062988,322.264 46.527125,321.01752 46.590988,320.84602 47.058636,319.63819 47.122985,319.472 47.599437,318.30376 47.664992,318.14301 48.141429,317.01254 48.206985,316.85699 48.689592,315.7661 48.755997,315.616 49.239476,314.56379 49.306001,314.41901 49.788593,313.40634 49.854997,313.26699 50.341104,312.29565 50.407988,312.162 50.893224,311.22757 50.959993,311.09899 51.436444,310.20149 51.502001,310.078 51.981949,309.21829 52.047988,309.1 52.104993,309.05801 51.7373,308.56936 49.06499,305.018 49.028993,305.04299 48.897032,305.07262 47.937988,305.288 47.800345,305.31545 46.799989,305.51501 46.657748,305.54198 45.623993,305.738 45.477037,305.76365 44.408997,305.95002 44.256353,305.97408 43.146988,306.14901 42.989265,306.17126 41.842988,306.33301 41.680189,306.3532 40.496996,306.5 40.329356,306.51838 39.110993,306.65202 38.938392,306.6687 37.683992,306.79002 37.505588,306.80416 36.209001,306.90701 36.026485,306.91862 34.699996,307.00301 34.512277,307.01245 33.147996,307.08099 32.999344,306.85469 31.918992,305.21 32.519384,303.98285 32.601992,303.814 33.206777,302.62728 33.289992,302.464 33.893896,301.31773 33.976988,301.16 34.573696,300.07995 34.671997,299.90202 35.279416,298.83659 35.362992,298.69 35.964264,297.66238 36.046996,297.52099 36.6509,296.53349 36.733992,296.39762 37.33174,295.44762 37.413989,295.31689 38.009105,294.40734 38.090989,294.28219 38.679949,293.4101 38.760989,293.2901 39.340293,292.45229 39.42,292.33701 39.995772,291.5427 40.074996,291.43341 40.135,291.39802 39.826928,290.86915 37.587995,287.02552 37.545,287.05029 37.4105,287.06445 36.433001,287.1673 36.293661,287.17886 35.280993,287.26291 35.136576,287.27277 34.086992,287.3444 33.890328,287.35567 32.849993,287.41531 32.695776,287.42131 31.575001,287.46491 31.415945,287.46877 30.259992,287.4968 30.095864,287.49808 28.903001,287.50741 28.734152,287.50613 27.506993,287.4968 27.333913,287.49336 26.075992,287.46841 25.897225,287.46157 24.597992,287.41181 24.415473,287.40237 23.088993,287.33381 22.901272,287.32094 21.536984,287.2275 21.415184,286.98579 20.53,285.22909 21.271912,284.07974 21.373993,283.9216 22.11152,282.81584 22.213001,282.6637 22.948753,281.59222 23.049984,281.4448 23.781361,280.42011 23.881992,280.27912 24.608088,279.28861 24.707993,279.15232 25.427048,278.20232 25.525984,278.0716 26.239784,277.15898 26.338001,277.03341 27.042113,276.16131 27.138993,276.04131 27.83608,275.20658 27.931993,275.09171 28.617648,274.29432 28.711993,274.18461 29.384465,273.4215 29.476992,273.3165 30.143305,272.59077 30.234984,272.49091 30.295994,272.4625 30.051184,271.90235 28.271986,267.83141 28.229992,267.8491 28.095009,267.84696 27.114001,267.83141 26.973816,267.82669 25.954984,267.7924 25.810569,267.78598 24.760985,267.7393 24.611369,267.7303 23.523984,267.6649 23.370136,267.6529 22.252001,267.56571 22.093432,267.55072 20.940993,267.44171 20.778193,267.42414 19.594984,267.2964 19.427344,267.27582 18.209,267.12632 18.037248,267.10232 16.788985,266.9279 16.612392,266.90046 15.328993,266.7011 15.148529,266.67067 13.836993,266.44949 13.652296,266.41521 12.31,266.16611 12.217472,265.91154 11.545,264.06131 12.413488,263.00547 12.532993,262.86019 13.392696,261.84789 13.510985,261.70861 14.364544,260.73059 14.481992,260.59602 15.329401,259.66158 15.446,259.53301 16.28372,258.63594 16.398984,258.51251 17.220905,257.65288 17.334001,257.53461 18.147104,256.70918 18.258985,256.59562 19.06244,255.8107 19.172992,255.7027 19.961496,254.95515 20.069993,254.85229 20.845312,254.13906 20.951992,254.04091 21.708849,253.36184 21.812992,253.2684 22.557544,252.6268 22.659992,252.53851 22.726993,252.51722 22.548704,251.93179 21.252994,247.67711 21.206984,247.6912 21.072848,247.67363 20.097993,247.546 19.959625,247.52499 18.953993,247.3723 18.811265,247.34917 17.773984,247.18099 17.626544,247.15442 16.554993,246.9613 16.40368,246.93173 15.303985,246.7168 15.14796,246.68381 14.013993,246.444 13.854217,246.40715 12.692992,246.13931 12.529224,246.09944 11.338993,245.80971 11.170993,245.76643 9.95,245.4519 9.77776,245.4039 8.525985,245.05501 8.350241,245.00402 7.073,244.63341 6.893384,244.57768 5.588,244.1727 5.525465,243.90914 5.071,241.9936 6.058169,241.0467 6.194,240.91642 7.166217,240.01002 7.299984,239.8853 8.262553,239.0132 8.394992,238.8932 9.344361,238.0647 9.474992,237.9507 10.409417,237.1564 10.537993,237.0471 11.4566,236.28717 11.582992,236.18261 12.486656,235.45995 12.610992,235.36051 13.49884,234.67221 13.621001,234.5775 14.489488,233.92647 14.608993,233.83689 15.462544,233.22016 15.579985,233.1353 16.408936,232.54661 16.522993,232.46561 17.338753,231.91435 17.450992,231.8385 17.519001,231.82432 17.410144,231.2226 16.618992,226.8495 16.571992,226.85661 16.44088,226.8236 15.487992,226.5837 15.353009,226.54685 14.371993,226.27901 14.232776,226.23915 13.220992,225.94951 13.077785,225.90622 12.036984,225.59161 11.890024,225.54447 10.821993,225.2019 10.67068,225.15132 9.571001,224.7837 9.416665,224.72843 8.295,224.3267 8.136913,224.26798 6.987992,223.8412 6.825913,223.77863 5.647992,223.3239 5.482648,223.25662 4.280992,222.76761 4.112505,222.69646 2.888001,222.17941 2.716128,222.10312 1.466992,221.5487 1.435785,221.27956 1.209001,219.3235 2.295496,218.49808 2.444993,218.3845 3.516544,217.59653 3.663984,217.4881 4.719728,216.73432 4.864993,216.6306 5.905784,215.91734 6.048993,215.81921 7.070456,215.13706 7.211,215.04321 8.210472,214.39842 8.347993,214.3097 9.329896,213.69613 9.465,213.6117 10.426673,213.03233 10.558992,212.95261 11.496937,212.40442 11.625993,212.329 12.544601,211.81511 12.670993,211.7444 13.564984,211.25847 13.687993,211.19161 14.560008,210.73687 14.679992,210.6743 14.750992,210.6707 14.712888,210.05999 14.435993,205.62154 14.385984,205.62508 14.259592,205.57708 13.340992,205.22822 13.211089,205.17594 12.267,204.79594 12.133345,204.74023 11.161985,204.3353 11.024824,204.27573 10.028001,203.84278 9.887457,203.77893 8.866,203.31483 8.721945,203.24669 7.674984,202.75145 7.528024,202.67902 6.459993,202.15263 6.309529,202.07592 5.215992,201.51837 5.062624,201.43737 3.948001,200.8487 3.791488,200.76255 2.653992,200.13648 2.495065,200.04606 1.34,199.38885 1.17792,199.29328 0,198.5987 0,196.35931 1.17792,195.66473 1.34,195.56916 2.495065,194.91195 2.653992,194.82153 3.791489,194.19546 3.948001,194.10931 5.062625,193.52064 5.215992,193.43964 6.309529,192.88209 6.459993,192.80537 7.528024,192.27898 7.674984,192.20655 8.721945,191.71132 8.866,191.64318 9.887457,191.17908 10.028001,191.11522 11.024824,190.68227 11.161985,190.6227 12.133345,190.21777 12.267,190.16206 13.211089,189.78207 13.340992,189.72978 14.259593,189.38093 14.385985,189.33293 14.456985,189.33647 14.690947,184.94526 14.726,184.28731 14.679993,184.2837 14.560008,184.22114 13.687993,183.7664 13.564984,183.69953 12.670993,183.21361 12.544601,183.1429 11.625993,182.62901 11.496937,182.55358 10.558992,182.0054 10.426673,181.92568 9.465,181.3463 9.329896,181.26188 8.347993,180.6483 8.210472,180.55958 7.211,179.9148 7.070456,179.82094 6.048993,179.1388 5.905784,179.04066 4.864993,178.32741 4.719728,178.22369 3.663984,177.4699 3.516544,177.36148 2.444993,176.5735 2.295496,176.45993 1.209001,175.6345 1.435785,173.67845 1.466992,173.4093 2.716128,172.85489 2.888001,172.7786 4.112505,172.26154 4.280992,172.1904 5.482648,171.70139 5.647992,171.6341 6.825913,171.17937 6.987992,171.11681 8.136913,170.69002 8.295,170.6313 9.416665,170.22958 9.571001,170.1743 10.67068,169.80669 10.821993,169.7561 11.890024,169.41354 12.036984,169.3664 13.077785,169.05178 13.220992,169.0085 14.232777,168.71885 14.371993,168.679 15.353009,168.41116 15.487992,168.3743 16.44088,168.13441 16.571993,168.1014 16.64,168.112 17.390696,163.7296 17.493993,163.1266 17.450993,163.1195 17.338752,163.04366 16.522993,162.4924 16.408936,162.4114 15.579984,161.8227 15.462544,161.73784 14.608993,161.1211 14.489488,161.03153 13.621,160.3805 13.49884,160.2858 12.610992,159.5975 12.486657,159.49807 11.582993,158.7754 11.4566,158.67084 10.537992,157.9109 10.409417,157.80161 9.474992,157.0073 9.344361,156.89331 8.394992,156.0648 8.262552,155.94481 7.299985,155.0727 7.166217,154.94799 6.194,154.0416 6.058169,153.91131 5.071001,152.9644 5.525465,151.04887 5.588,150.7853 6.893385,150.38033 7.073,150.3246 8.350241,149.95399 8.525985,149.903 9.77776,149.55411 9.950001,149.5061 11.170992,149.19158 11.338993,149.1483 12.529224,148.85857 12.692993,148.8187 13.854216,148.55086 14.013992,148.514 15.187536,148.26583 15.303985,148.2412 16.40368,148.02628 16.554993,147.9967 17.626545,147.80357 17.773985,147.777 18.811264,147.60884 18.953992,147.5857 19.959625,147.43301 20.097992,147.412 21.072848,147.28437 21.206985,147.2668 21.273984,147.2845 22.529273,143.02042 22.701993,142.4337 22.659993,142.4195 22.557544,142.33121 21.812992,141.6896 21.708849,141.59616 20.951992,140.9171 20.845313,140.81896 20.069992,140.1057 19.961496,140.00284 19.172992,139.2553 19.06244,139.1473 18.258984,138.3624 18.147104,138.24883 17.334001,137.4234 17.220904,137.30512 16.398985,136.4455 16.28372,136.32207 15.446001,135.425 15.3294,135.29643 14.481992,134.362 14.364544,134.22743 13.510984,133.2494 13.392696,133.11011 12.532993,132.0978 12.413489,131.95253 11.545,130.89671 12.217473,129.04648 12.31,128.7919 13.652296,128.54278 13.836992,128.50851 15.148529,128.28734 15.328992,128.2569 16.612393,128.05754 16.788985,128.0301 18.037248,127.8557 18.209,127.8317 19.427345,127.68218 19.594984,127.66161 20.778193,127.53388 20.940993,127.5163 22.093432,127.4073 22.252,127.3923 23.370136,127.3051 23.523985,127.29311 24.611368,127.2277 24.760985,127.2187 25.810568,127.17203 25.954985,127.1656 27.022038,127.1297 27.114001,127.1266 28.095008,127.11104 28.229992,127.1089 28.297001,127.13721 30.034865,123.04752 30.273984,122.4848 30.234985,122.4671 30.143304,122.36724 29.476992,121.6415 29.384464,121.5365 28.711993,120.77341 28.617649,120.66369 27.931992,119.8663 27.83608,119.75145 27.138992,118.9167 27.042112,118.79671 26.338001,117.92461 26.239785,117.79903 25.525984,116.8864 25.427048,116.75569 24.707992,115.8057 24.608089,115.66941 23.881993,114.6789 23.781361,114.53791 23.049984,113.5132 22.948752,113.36578 22.213001,112.2943 22.11152,112.14216 21.373992,111.03641 21.271912,110.87826 20.53,109.7289 21.415185,107.97222 21.536984,107.73051 22.901272,107.63706 23.088993,107.62421 24.415472,107.55564 24.597992,107.5462 25.897224,107.49645 26.075993,107.4896 27.333913,107.46464 27.506992,107.4612 28.683874,107.45227 28.903,107.45061 30.095864,107.45992 30.259993,107.4612 31.415944,107.48924 31.575001,107.4931 32.647816,107.53484 32.849992,107.5427 33.937372,107.60502 34.086993,107.6136 35.189875,107.68889 35.280993,107.69511 36.29366,107.77914 36.433,107.7907 37.4105,107.89355 37.545001,107.90771 37.605989,107.94311 39.814165,104.08083 40.117997,103.5494 40.074996,103.5246 39.995772,103.41531 39.42,102.621 39.325413,102.4842 39.325412,102.4842 38.760988,101.66791 38.679949,101.54791 38.090988,100.6758 38.009105,100.55065 37.413988,99.641106 37.331741,99.510393 36.733992,98.560402 36.6509,98.424525 36.046997,97.437005 35.964264,97.295611 35.362993,96.268007 35.279416,96.121411 34.671997,95.056009 34.587932,94.903849 33.976989,93.798005 33.893896,93.640282 33.289993,92.494005 33.206776,92.330718 32.601993,91.144006 32.519384,90.975155 31.918992,89.748001 32.999344,88.103309 33.147996,87.877007 34.512276,87.945568 34.699997,87.955003 36.026484,88.039391 36.209,88.051003 37.505589,88.153856 37.683992,88.168007 38.938393,88.289317 39.110992,88.306007 40.329357,88.439617 40.496997,88.458 41.680188,88.604808 41.842989,88.625009 42.989264,88.786751 43.146988,88.809006 44.214225,88.977292 44.408996,89.008003 45.477037,89.19436 45.623992,89.220001 46.617145,89.40833 46.799988,89.443001 47.800344,89.642549 47.937988,89.670006 48.897033,89.885369 49.028992,89.915001 49.086,89.954003 51.721384,86.378038 52.084001,85.886002 52.047989,85.858002 51.981948,85.739711 51.502001,84.880006 51.436444,84.756512 50.959993,83.859002 50.893224,83.730429 50.407989,82.796007 50.341104,82.662352 49.854997,81.691003 49.788592,81.551664 49.306001,80.539003 49.239476,80.394222 48.755996,79.342002 48.689593,79.191901 48.206984,78.101006 48.141429,77.945461 47.664992,76.815002 47.599436,76.654256 47.122985,75.486009 47.058637,75.319821 46.590988,74.112008 46.527125,73.940497 46.062988,72.694 46.000456,72.516564 45.545988,71.227006 46.810932,69.719437 46.984984,69.512002 48.333453,69.736163 48.518996,69.767006 49.827012,70.00698 50.006989,70.040001 51.278092,70.289654 51.452989,70.324007 52.686293,70.592117 52.855988,70.629006 54.052381,70.902387 54.216996,70.940002 55.375572,71.223932 55.534988,71.263 56.653141,71.555723 56.806992,71.596 57.887345,71.898395 58.035996,71.940002 59.079421,72.247667 59.222992,72.29 60.225992,72.6047 60.364,72.648002 61.332701,72.962703 61.465988,73.006004 62.394265,73.330377 62.521988,73.375008 62.574996,73.420999 65.608581,70.175552 66.025985,69.728996 65.990996,69.697006 65.939108,69.57182 65.561997,68.662003 65.511077,68.531737 65.140992,67.585006 65.089953,67.449539 64.718996,66.464996 64.667956,66.324452 64.296996,65.303008 64.247284,65.156896 63.885989,64.095001 63.83676,63.943688 63.478989,62.844009 63.430488,62.687132 63.077989,61.546997 63.030456,61.385044 62.684997,60.208009 62.638672,60.040852 62.301989,58.826005 62.257476,58.6528 61.933993,57.393997 61.890692,57.21656 61.575989,55.927001 61.53438,55.743636 61.231996,54.411013 62.662205,53.059028 62.858992,52.873 64.137117,53.24234 64.353988,53.305008 65.689609,53.714186 65.689609,53.714185 65.799988,53.748 67.035934,54.1471 67.205994,54.202012 68.398857,54.606369 68.562989,54.662005 69.718938,55.076916 69.877991,55.134005 70.993506,55.548044 71.146996,55.605012 72.227343,56.028705 72.375993,56.087005 73.413269,56.510701 73.555992,56.569 74.55547,56.99534 74.692995,57.054001 75.652908,57.483856 75.784989,57.543001 76.709749,57.969341 76.83699,58.028 77.721317,58.455225 77.842994,58.514008 77.888991,58.567001 81.281239,55.695156 81.747994,55.300005 81.719994,55.265 81.682741,55.134737 81.411994,54.188004 81.376312,54.052536 81.11699,53.068008 81.081914,52.92746 80.826996,51.906005 80.793128,51.76062 80.546991,50.704013 80.51397,50.553184 80.273994,49.457 80.242668,49.300608 80.014993,48.164001 79.98548,48.002892 79.770996,46.832 79.742692,46.665692 79.536995,45.457001 79.510384,45.285612 79.316995,44.040009 79.292563,43.862933 79.11499,42.576004 79.092734,42.394332 78.930993,41.074005 78.910914,40.887132 78.764992,39.529009 80.343761,38.3546 80.56099,38.193008 81.819792,38.722188 81.992996,38.795 83.180575,39.314623 83.377992,39.401001 84.558554,39.939864 84.720994,40.014009 85.861115,40.556368 86.017991,40.630997 87.117679,41.176017 87.26899,41.251008 88.327373,41.792497 88.473001,41.867005 89.495327,42.412896 89.635995,42.488009 90.619646,43.029497 90.75499,43.104004 91.695571,43.642868 91.824991,43.717013 92.731294,44.255857 92.855996,44.330001 93.725372,44.859192 93.844995,44.932009 94.673059,45.462073 94.786995,45.535004 94.825996,45.591005 98.529858,43.134069 99.03949,42.796005 99.014695,42.757004 98.992837,42.623232 98.833986,41.651001 98.81427,41.512632 98.67099,40.507004 98.646984,40.319386 98.518593,39.316008 98.501454,39.16772 98.376894,38.089997 98.361894,37.936144 98.252893,36.818009 98.240034,36.65944 98.146584,35.507004 98.135868,35.343356 98.057991,34.154008 98.048992,33.98552 97.983591,32.761001 97.977155,32.587432 97.93039,31.326009 97.927636,31.1987 97.898491,29.852009 97.897633,29.669008 97.891396,28.339008 97.903878,26.97208 97.905594,26.784 99.609367,25.799464 99.843796,25.664 101.00824,26.322146 101.00824,26.322147 101.19729,26.429 102.34664,27.10236 102.50479,27.195009 103.61362,27.863961 103.76619,27.956008 104.83458,28.629352 104.98159,28.722001 106.00946,29.388329 106.15089,29.480008 107.14141,30.143681 107.27769,30.235 108.23076,30.891656 108.36189,30.982008 109.27452,31.636897 109.40009,31.727008 110.2722,32.371352 110.3922,32.460009 111.2301,33.101708 111.34539,33.190005 112.14586,33.815889 112.256,33.902008 113.01601,34.525252 113.12059,34.611008 113.1525,34.671005 117.11753,32.658865 117.66309,32.382 117.64179,32.339009 117.63579,32.204024 117.59219,31.223008 117.58877,31.082944 117.5639,30.065001 117.56218,29.920096 117.54969,28.867008 117.55285,27.779625 117.55329,27.630009 117.57509,26.509225 117.57809,26.355008 117.61853,25.196417 117.62409,25.037 117.68595,23.7979 117.69149,23.687 117.76929,22.459848 117.77999,22.291001 117.87968,21.035728 117.89339,20.863009 118.01804,19.569921 118.03519,19.392 118.18769,18.016275 118.20169,17.89 118.37302,16.531873 118.39659,16.345001 120.20312,15.56616 120.45169,15.459 121.55745,16.265952 121.70959,16.376984 122.77166,17.177817 122.91779,17.288008 123.94259,18.081784 124.0836,18.191009 125.0647,18.982144 125.19969,19.091 126.14353,19.876001 126.27339,19.984008 127.17978,20.756688 127.30449,20.863009 128.17343,21.626016 128.29299,21.731 129.12466,22.484344 129.23909,22.588001 130.03331,23.332552 130.14259,23.435001 130.89954,24.167256 131.00369,24.268009 131.72627,24.984432 131.82569,25.083009 132.50783,25.78976 132.60169,25.887009 132.6265,25.951008 136.79713,24.409161 137.37099,24.197009 137.35679,24.154008 137.42536,23.176504 137.43479,23.042009 137.52824,22.026712 137.54109,21.887009 137.65318,20.840057 137.6686,20.696 137.79632,19.618289 137.81389,19.47 137.9665,18.358009 137.98749,18.205 138.16198,17.05872 138.18599,16.901 138.3822,15.726592 138.40919,15.565 138.63036,14.35984 138.6608,14.194016 138.90367,12.958073 138.93709,12.788008 139.21127,11.516904 139.24899,11.342008 139.54796,10.046296 139.58909,9.868009 139.91618,8.540641 139.96119,8.358 141.84869,7.794536 142.1084,7.717008 143.1113,8.64528 143.2493,8.773009 144.20869,9.691616 144.3407,9.818008 145.2658,10.727817 145.39309,10.853 146.27767,11.753144 146.39939,11.877001 147.24653,12.764849 147.36309,12.887008 148.17604,13.759016 148.28789,13.879001 149.0604,14.738712 149.1667,14.857009 149.90483,15.7044 150.00639,15.821001 150.70726,16.649064 150.80369,16.763001 151.47027,17.578761 151.56199,17.691008 152.19737,18.485657 152.28479,18.595 152.88281,19.37648 152.96509,19.484008 152.98279,19.552 157.30296,18.505064 157.89739,18.361009 157.88679,18.315 158.07052,17.349816 158.0958,17.217009 158.30448,16.222801 158.3332,16.086 158.56368,15.0584 158.5954,14.917008 158.85084,13.861264 158.88599,13.716 159.16315,12.628617 159.20129,12.479001 159.50966,11.360848 159.55209,11.207 159.88226,10.064241 159.92769,9.907 160.28898,8.732593 160.33869,8.571001 160.72494,7.371976 160.77809,7.207001 161.19546,5.979856 161.25289,5.811009 161.70138,4.55836 161.76309,4.386001 162.24279,3.106113 162.30879,2.930008 164.24622,2.587177 164.5128,2.540008 165.40046,3.580808 165.5226,3.724016 166.3729,4.745441 166.48989,4.885984 167.30284,5.89868 167.4147,6.038025 168.1872,7.033985 168.2935,7.171024 169.03163,8.149384 169.13319,8.284001 169.83713,9.24656 169.93399,9.379001 170.60365,10.322225 170.69579,10.452009 171.33125,11.377648 171.4187,11.505009 172.01671,12.411304 172.09899,12.536009 172.66897,13.423848 172.74739,13.546009 173.28317,14.408352 173.3569,14.527008 173.86147,15.371776 173.9309,15.488009 173.94149,15.555008 178.35193,15.018793 178.95879,14.945008 178.95529,14.899 179.25118,13.961945 179.2919,13.833008 179.61582,12.870449 179.66039,12.738008 180.00613,11.744665 180.0537,11.607985 180.43062,10.585673 180.48249,10.445008 180.88422,9.398944 180.93949,9.255009 181.3725,8.179929 181.43209,8.032 181.89614,6.935824 181.95999,6.785001 182.45525,5.660697 182.52339,5.506 183.04353,4.359729 183.1151,4.202008 183.67574,3.03112 183.75289,2.870008 184.34159,1.677136 184.42259,1.513001 185.04866,0.29816 185.1348,0.131 187.09709,0.015849 187.3671,0 188.1302,1.133096 188.2352,1.289 188.95782,2.408024 189.05725,2.562 189.74873,3.658177 189.84387,3.809008 190.49797,4.88936 190.58797,5.038009 191.20779,6.097265 191.29308,6.243009 191.87866,7.276784 191.95922,7.419024 192.51676,8.435185 192.59347,8.575 193.11675,9.56832 193.18875,9.705001 193.67777,10.676344 193.74506,10.81 194.20603,11.754097 194.26946,11.884001 194.70242,12.80612 194.76198,12.933 195.16378,13.829632 195.21907,13.953001 195.21907,14.024 199.66691,14.002017 200.27891,13.998992 200.27891,13.953 200.68071,13.056369 200.736,12.933 201.16895,12.010881 201.22852,11.884001 201.6895,10.939904 201.75293,10.810001 202.24194,9.838656 202.30923,9.705 202.83251,8.711681 202.90451,8.575 203.46206,7.55884 203.53877,7.419025 204.12434,6.385248 204.2049,6.243009 204.82473,5.183752 204.91002,5.038008 205.56411,3.957657 205.65411,3.809008 206.34559,2.712832 206.44073,2.562001 207.16335,1.442977 207.26278,1.289 208.02589,0.155905 208.13089,0 210.09319,0.115153 210.36319,0.131 "
     slic3r:type="contour" />
  <polygon
     id="polygon4523"
     style="fill:none;stroke:#000000;stroke-width:0.1;stroke-miterlimit:4;stroke-opacity:1;stroke-dasharray:none"
     points="211.92219,211.65221 211.92219,183.3058 183.57579,183.3058 183.57579,211.65221 "
     slic3r:type="hole" />
</svg>
