<?xml version="1.0" encoding="UTF-8" standalone="no"?>
<!-- Created with Inkscape (http://www.inkscape.org/) -->

<svg
   xmlns:dc="http://purl.org/dc/elements/1.1/"
   xmlns:cc="http://creativecommons.org/ns#"
   xmlns:rdf="http://www.w3.org/1999/02/22-rdf-syntax-ns#"
   xmlns:svg="http://www.w3.org/2000/svg"
   xmlns="http://www.w3.org/2000/svg"
   xmlns:sodipodi="http://sodipodi.sourceforge.net/DTD/sodipodi-0.dtd"
   xmlns:inkscape="http://www.inkscape.org/namespaces/inkscape"
   width="1800"
   height="1080"
   id="svg3606"
   version="1.1"
   inkscape:version="0.48.4 r9939"
   sodipodi:docname="GearClock4_layers9_10.svg">
  <defs
     id="defs3608" />
  <sodipodi:namedview
     id="base"
     pagecolor="#ffffff"
     bordercolor="#666666"
     borderopacity="1.0"
     inkscape:pageopacity="0.0"
     inkscape:pageshadow="2"
     inkscape:zoom="0.49497475"
     inkscape:cx="1326.3019"
     inkscape:cy="216.53165"
     inkscape:document-units="px"
     inkscape:current-layer="layer1"
     showgrid="false"
     units="in"
     inkscape:window-width="1855"
     inkscape:window-height="1056"
     inkscape:window-x="65"
     inkscape:window-y="24"
     inkscape:window-maximized="1" />
  <metadata
     id="metadata3611">
    <rdf:RDF>
      <cc:Work
         rdf:about="">
        <dc:format>image/svg+xml</dc:format>
        <dc:type
           rdf:resource="http://purl.org/dc/dcmitype/StillImage" />
        <dc:title></dc:title>
      </cc:Work>
    </rdf:RDF>
  </metadata>
  <g
     inkscape:label="Layer 1"
     inkscape:groupmode="layer"
     id="layer1"
     transform="translate(0,27.64025)">
    <path
       sodipodi:type="arc"
       style="fill:#ff0000;stroke:#000000;stroke-width:0.04847284;stroke-miterlimit:4;stroke-opacity:1;stroke-dasharray:none"
       id="path4352"
       sodipodi:cx="49.795376"
       sodipodi:cy="289.46429"
       sodipodi:rx="0.86680394"
       sodipodi:ry="0.53571427"
       d="m 50.66218,289.46429 a 0.86680394,0.53571427 0 1 1 -1.733608,0 0.86680394,0.53571427 0 1 1 1.733608,0 z"
       transform="matrix(1.4906997,0,0,2.5772313,410.6433,-247.5293)" />
    <g
       transform="translate(281.944,227.37778)"
       id="g4354">
      <path
         sodipodi:nodetypes="ccsscccc"
         inkscape:connector-curvature="0"
         id="path4356"
         d="m 202.86672,718.00913 -0.99319,0 c -62.81227,0 -124.084741,-32.56989 -186.500023,-27.13281 -39.27465,3.42127 -73.38045,42.77638 -112.39077,37.05945 -13.711697,-2.00943 -34.177297,-23.82393 -34.177297,-23.82393 l 0,-176.0324 -0.0774,-258.52668 c 0,-184.4631 149.5369,-333.99999 334,-333.99998"
         style="fill:none;stroke:#000000;stroke-width:0.1;stroke-linecap:butt;stroke-linejoin:miter;stroke-miterlimit:4;stroke-opacity:1;stroke-dasharray:none" />
      <path
         style="fill:none;stroke:#000000;stroke-width:0.1;stroke-linecap:butt;stroke-linejoin:miter;stroke-miterlimit:4;stroke-opacity:1;stroke-dasharray:none"
         d="m 202.99172,718.00913 0.99319,0 c 62.81227,0 124.08474,-32.56989 186.50002,-27.13281 39.27465,3.42127 73.38045,42.77638 112.39077,37.05945 13.7117,-2.00943 34.1773,-23.82393 34.1773,-23.82393 l 0,-176.0324 0.0774,-258.52668 c 0,-184.4631 -149.5369,-333.99999 -334,-333.99998"
         id="path4358"
         inkscape:connector-curvature="0"
         sodipodi:nodetypes="ccsscccc" />
    </g>
    <path
       sodipodi:type="arc"
       style="fill:none;stroke:#000000;stroke-width:0.09003159;stroke-miterlimit:4;stroke-opacity:1;stroke-dasharray:none"
       id="path4376"
       sodipodi:cx="570.44116"
       sodipodi:cy="581.69116"
       sodipodi:rx="181.32353"
       sodipodi:ry="181.32353"
       d="m 751.76469,581.69116 a 181.32353,181.32353 0 1 1 -362.64706,0 181.32353,181.32353 0 1 1 362.64706,0 z"
       transform="matrix(1.1135115,0,0,1.1135115,-150.3195,-149.23266)" />
    <g
       id="g7964"
       transform="translate(1541.0405,227.37778)">
      <path
         sodipodi:type="arc"
         style="fill:none;stroke:#000000;stroke-width:0.17840476;stroke-miterlimit:4;stroke-opacity:1;stroke-dasharray:none"
         id="path7966"
         sodipodi:cx="-731"
         sodipodi:cy="196"
         sodipodi:rx="11"
         sodipodi:ry="11"
         d="m -720,196 c 0,6.07513 -4.92487,11 -11,11 -6.07513,0 -11,-4.92487 -11,-11 0,-6.07513 4.92487,-11 11,-11 6.07513,0 11,4.92487 11,11 z"
         transform="matrix(0,-0.56052315,0.56052315,0,-1487.4401,-138.63307)"
         inkscape:transform-center-x="321.41046" />
      <path
         sodipodi:type="arc"
         style="fill:none;stroke:#000000;stroke-width:0.17840476;stroke-miterlimit:4;stroke-opacity:1;stroke-dasharray:none"
         id="path7968"
         sodipodi:cx="-731"
         sodipodi:cy="196"
         sodipodi:rx="11"
         sodipodi:ry="11"
         d="m -720,196 c 0,6.07513 -4.92487,11 -11,11 -6.07513,0 -11,-4.92487 -11,-11 0,-6.07513 4.92487,-11 11,-11 6.07513,0 11,4.92487 11,11 z"
         transform="matrix(0,0.56052315,-0.56052315,0,-624.89412,680.85178)"
         inkscape:transform-center-x="-321.41046" />
      <path
         transform="matrix(0.56052315,0,0,0.56052315,-646.4247,-160.16364)"
         d="m -720,196 c 0,6.07513 -4.92487,11 -11,11 -6.07513,0 -11,-4.92487 -11,-11 0,-6.07513 4.92487,-11 11,-11 6.07513,0 11,4.92487 11,11 z"
         sodipodi:ry="11"
         sodipodi:rx="11"
         sodipodi:cy="196"
         sodipodi:cx="-731"
         id="path7970"
         style="fill:none;stroke:#000000;stroke-width:0.17840476;stroke-miterlimit:4;stroke-opacity:1;stroke-dasharray:none"
         sodipodi:type="arc"
         inkscape:transform-center-y="-321.41046" />
      <path
         inkscape:transform-center-x="321.41046"
         transform="matrix(0,-0.56052315,0.56052315,0,-1453.499,279.97414)"
         d="m -720,196 c 0,6.07513 -4.92487,11 -11,11 -6.07513,0 -11,-4.92487 -11,-11 0,-6.07513 4.92487,-11 11,-11 6.07513,0 11,4.92487 11,11 z"
         sodipodi:ry="11"
         sodipodi:rx="11"
         sodipodi:cy="196"
         sodipodi:cx="-731"
         id="path7972"
         style="fill:none;stroke:#000000;stroke-width:0.17840476;stroke-miterlimit:4;stroke-opacity:1;stroke-dasharray:none"
         sodipodi:type="arc" />
      <path
         sodipodi:type="arc"
         style="fill:none;stroke:#000000;stroke-width:0.17840476;stroke-miterlimit:4;stroke-opacity:1;stroke-dasharray:none"
         id="path7974"
         sodipodi:cx="-731"
         sodipodi:cy="196"
         sodipodi:rx="11"
         sodipodi:ry="11"
         d="m -720,196 c 0,6.07513 -4.92487,11 -11,11 -6.07513,0 -11,-4.92487 -11,-11 0,-6.07513 4.92487,-11 11,-11 6.07513,0 11,4.92487 11,11 z"
         transform="matrix(0,-0.56052315,-0.56052315,0,-658.7582,279.97414)"
         inkscape:transform-center-x="-321.41046" />
    </g>
    <path
       sodipodi:type="arc"
       style="fill:none;stroke:#000000;stroke-width:0.28870428;stroke-miterlimit:4;stroke-opacity:1;stroke-dasharray:none"
       id="path3904"
       sodipodi:cx="225.71428"
       sodipodi:cy="215.21933"
       sodipodi:rx="65.714287"
       sodipodi:ry="65.714287"
       d="m 291.42857,215.21933 a 65.714287,65.714287 0 1 1 -131.42858,0 65.714287,65.714287 0 1 1 131.42858,0 z"
       transform="matrix(0.34637518,0,0,0.34637518,406.6915,632.99562)" />
  </g>
</svg>
