<?xml version="1.0" encoding="UTF-8" standalone="no"?>
<svg
   xmlns:dc="http://purl.org/dc/elements/1.1/"
   xmlns:cc="http://creativecommons.org/ns#"
   xmlns:rdf="http://www.w3.org/1999/02/22-rdf-syntax-ns#"
   xmlns:svg="http://www.w3.org/2000/svg"
   xmlns="http://www.w3.org/2000/svg"
   xmlns:sodipodi="http://sodipodi.sourceforge.net/DTD/sodipodi-0.dtd"
   xmlns:inkscape="http://www.inkscape.org/namespaces/inkscape"
   width="1800"
   height="1080"
   id="svg2985"
   version="1.1"
   inkscape:version="0.48.4 r9939"
   sodipodi:docname="GearClock3_1vector.svg">
  <metadata
     id="metadata3135">
    <rdf:RDF>
      <cc:Work
         rdf:about="">
        <dc:format>image/svg+xml</dc:format>
        <dc:type
           rdf:resource="http://purl.org/dc/dcmitype/StillImage" />
        <dc:title></dc:title>
      </cc:Work>
    </rdf:RDF>
  </metadata>
  <defs
     id="defs3133" />
  <sodipodi:namedview
     pagecolor="#ffffff"
     bordercolor="#666666"
     borderopacity="1"
     objecttolerance="10"
     gridtolerance="10"
     guidetolerance="10"
     inkscape:pageopacity="0"
     inkscape:pageshadow="2"
     inkscape:window-width="1855"
     inkscape:window-height="1056"
     id="namedview3131"
     showgrid="false"
     units="in"
     inkscape:zoom="0.35355339"
     inkscape:cx="1456.6502"
     inkscape:cy="-136.26168"
     inkscape:window-x="65"
     inkscape:window-y="24"
     inkscape:window-maximized="1"
     inkscape:current-layer="svg2985" />
  <!-- 
  Generated using Slic3r 1.1.7
  http://slic3r.org/
   -->
  <path
     sodipodi:type="arc"
     style="fill:none;stroke:#000000;stroke-width:0.11521597;stroke-miterlimit:4;stroke-opacity:1;stroke-dasharray:none"
     id="path5592"
     sodipodi:cx="-1125.714"
     sodipodi:cy="256.9277"
     sodipodi:rx="257.38687"
     sodipodi:ry="257.38687"
     d="m -868.32712,256.9277 a 257.38687,257.38687 0 1 1 -514.77378,0 257.38687,257.38687 0 1 1 514.77378,0 z"
     transform="matrix(0.8679352,0,0,0.8679352,1311.9064,114.19053)" />
  <g
     id="g5644"
     transform="translate(777.23279,-140.47752)">
    <path
       sodipodi:type="arc"
       style="fill:none;stroke:#000000;stroke-width:0.1;stroke-miterlimit:4;stroke-opacity:1;stroke-dasharray:none"
       id="path5646"
       sodipodi:cx="-1152"
       sodipodi:cy="442"
       sodipodi:rx="334"
       sodipodi:ry="334"
       d="m -1290.9024,745.74682 c -167.7547,-76.71367 -241.5581,-274.89447 -164.8444,-442.6492 76.7137,-167.75474 274.8944,-241.558103 442.6492,-164.84444 167.75472,76.71367 241.55808,274.89447 164.84442,442.6492 -33.36744,72.96674 -91.88623,131.48368 -164.85402,164.84882"
       transform="translate(709.6268,35.664645)"
       sodipodi:start="1.9997015"
       sodipodi:end="7.425108"
       sodipodi:open="true" />
    <path
       sodipodi:type="arc"
       style="fill:none;stroke:#000000;stroke-width:0.21475215;stroke-miterlimit:4;stroke-opacity:1;stroke-dasharray:none"
       id="path5648"
       sodipodi:cx="-683"
       sodipodi:cy="740"
       sodipodi:rx="57"
       sodipodi:ry="57"
       d="m -626.01294,741.21452 c -0.67076,31.47308 -26.72849,56.4433 -58.20158,55.77254 -28.66776,-0.61097 -52.419,-22.42322 -55.46332,-50.93543"
       transform="matrix(0.4307192,0.17695689,-0.17695689,0.4307192,-130.72702,591.15523)"
       sodipodi:start="0.021308956"
       sodipodi:end="3.0352232"
       sodipodi:open="true" />
    <path
       sodipodi:end="3.0392009"
       sodipodi:start="0.021034874"
       transform="matrix(-0.4307192,0.17695689,0.17695689,0.4307192,-753.99284,591.15523)"
       d="m -626.01261,741.1989 c -0.66213,31.47327 -26.71302,56.45062 -58.18629,55.78849 -28.76023,-0.60506 -52.56225,-22.54533 -55.50256,-51.16125"
       sodipodi:ry="57"
       sodipodi:rx="57"
       sodipodi:cy="740"
       sodipodi:cx="-683"
       id="path5650"
       style="fill:none;stroke:#000000;stroke-width:0.21475215;stroke-miterlimit:4;stroke-opacity:1;stroke-dasharray:none"
       sodipodi:type="arc"
       sodipodi:open="true" />
    <path
       sodipodi:end="1.8408979"
       sodipodi:start="1.3004418"
       transform="translate(709.6268,35.664645)"
       d="m -1062.7976,763.86787 c -58.3406,16.16851 -119.9787,16.17631 -178.3234,0.0226"
       sodipodi:ry="334"
       sodipodi:rx="334"
       sodipodi:cy="442"
       sodipodi:cx="-1152"
       id="path5652"
       style="fill:none;stroke:#000000;stroke-width:0.1;stroke-miterlimit:4;stroke-opacity:1;stroke-dasharray:none"
       sodipodi:type="arc"
       sodipodi:open="true" />
    <rect
       style="fill:#000000;stroke:#000000;stroke-width:0.00106995;stroke-miterlimit:4;stroke-opacity:1;stroke-dasharray:none"
       id="rect5654"
       width="5.0387235"
       height="5.0387235"
       x="-777.23279"
       y="142.80511" />
  </g>
  <g
     id="g5656"
     transform="translate(777.23279,-140.47752)">
    <path
       sodipodi:type="arc"
       style="fill:none;stroke:#000000;stroke-width:0.17840476;stroke-miterlimit:4;stroke-opacity:1;stroke-dasharray:none"
       id="path5658"
       sodipodi:cx="-731"
       sodipodi:cy="196"
       sodipodi:rx="11"
       sodipodi:ry="11"
       d="m -720,196 c 0,6.07513 -4.92487,11 -11,11 -6.07513,0 -11,-4.92487 -11,-11 0,-6.07513 4.92487,-11 11,-11 6.07513,0 11,4.92487 11,11 z"
       transform="matrix(0,-0.56052315,0.56052315,0,-873.64622,67.982022)"
       inkscape:transform-center-x="321.41046" />
    <path
       transform="matrix(-0.56052315,0,0,-0.56052315,-852.11565,908.99744)"
       d="m -720,196 c 0,6.07513 -4.92487,11 -11,11 -6.07513,0 -11,-4.92487 -11,-11 0,-6.07513 4.92487,-11 11,-11 6.07513,0 11,4.92487 11,11 z"
       sodipodi:ry="11"
       sodipodi:rx="11"
       sodipodi:cy="196"
       sodipodi:cx="-731"
       id="path5660"
       style="fill:none;stroke:#000000;stroke-width:0.17840476;stroke-miterlimit:4;stroke-opacity:1;stroke-dasharray:none"
       sodipodi:type="arc"
       inkscape:transform-center-y="321.41046" />
    <path
       sodipodi:type="arc"
       style="fill:none;stroke:#000000;stroke-width:0.17840476;stroke-miterlimit:4;stroke-opacity:1;stroke-dasharray:none"
       id="path5662"
       sodipodi:cx="-731"
       sodipodi:cy="196"
       sodipodi:rx="11"
       sodipodi:ry="11"
       d="m -720,196 c 0,6.07513 -4.92487,11 -11,11 -6.07513,0 -11,-4.92487 -11,-11 0,-6.07513 4.92487,-11 11,-11 6.07513,0 11,4.92487 11,11 z"
       transform="matrix(0,0.56052315,-0.56052315,0,-11.10023,887.46687)"
       inkscape:transform-center-x="-321.41046" />
    <path
       transform="matrix(0.56052315,0,0,0.56052315,-32.630805,46.45145)"
       d="m -720,196 c 0,6.07513 -4.92487,11 -11,11 -6.07513,0 -11,-4.92487 -11,-11 0,-6.07513 4.92487,-11 11,-11 6.07513,0 11,4.92487 11,11 z"
       sodipodi:ry="11"
       sodipodi:rx="11"
       sodipodi:cy="196"
       sodipodi:cx="-731"
       id="path5664"
       style="fill:none;stroke:#000000;stroke-width:0.17840476;stroke-miterlimit:4;stroke-opacity:1;stroke-dasharray:none"
       sodipodi:type="arc"
       inkscape:transform-center-y="-321.41046" />
  </g>
  <g
     style="stroke-width:0.1;stroke-miterlimit:4;stroke-dasharray:none"
     transform="matrix(0.70710678,-0.70710678,0.70710678,0.70710678,473.7916,417.60797)"
     id="g5742">
    <path
       transform="matrix(0.17756374,0,0,0.17756374,-64.436433,526.512)"
       d="m 349.42689,310.76697 c 0,16.36606 -13.26731,29.63337 -29.63337,29.63337 -16.36606,0 -29.63338,-13.26731 -29.63338,-29.63337 0,-16.36606 13.26732,-29.63338 29.63338,-29.63338 16.36606,0 29.63337,13.26732 29.63337,29.63338 z"
       sodipodi:ry="29.633375"
       sodipodi:rx="29.633375"
       sodipodi:cy="310.76697"
       sodipodi:cx="319.79352"
       id="path5744"
       style="fill:none;stroke:#000000;stroke-width:0.56317806;stroke-miterlimit:4;stroke-opacity:1;stroke-dasharray:none"
       sodipodi:type="arc"
       inkscape:transform-center-x="-253.17549" />
    <path
       inkscape:transform-center-x="-253.17549"
       sodipodi:type="arc"
       style="fill:none;stroke:#000000;stroke-width:0.56317806;stroke-miterlimit:4;stroke-opacity:1;stroke-dasharray:none"
       id="path5746"
       sodipodi:cx="319.79352"
       sodipodi:cy="310.76697"
       sodipodi:rx="29.633375"
       sodipodi:ry="29.633375"
       d="m 349.42689,310.76697 c 0,16.36606 -13.26731,29.63337 -29.63337,29.63337 -16.36606,0 -29.63338,-13.26731 -29.63338,-29.63337 0,-16.36606 13.26732,-29.63338 29.63338,-29.63338 16.36606,0 29.63337,13.26732 29.63337,29.63338 z"
       transform="matrix(0.17756374,0,0,0.17756374,80.839154,526.512)" />
    <path
       inkscape:transform-center-x="-253.17549"
       sodipodi:type="arc"
       style="fill:none;stroke:#000000;stroke-width:0.56317806;stroke-miterlimit:4;stroke-opacity:1;stroke-dasharray:none"
       id="path5748"
       sodipodi:cx="319.79352"
       sodipodi:cy="310.76697"
       sodipodi:rx="29.633375"
       sodipodi:ry="29.633375"
       d="m 349.42689,310.76697 c 0,16.36606 -13.26731,29.63337 -29.63337,29.63337 -16.36606,0 -29.63338,-13.26731 -29.63338,-29.63337 0,-16.36606 13.26732,-29.63338 29.63338,-29.63338 16.36606,0 29.63337,13.26732 29.63337,29.63338 z"
       transform="matrix(0.17756374,0,0,0.17756374,-64.436433,381.23641)" />
    <path
       transform="matrix(0.17756374,0,0,0.17756374,80.839154,381.23641)"
       d="m 349.42689,310.76697 c 0,16.36606 -13.26731,29.63337 -29.63337,29.63337 -16.36606,0 -29.63338,-13.26731 -29.63338,-29.63337 0,-16.36606 13.26732,-29.63338 29.63338,-29.63338 16.36606,0 29.63337,13.26732 29.63337,29.63338 z"
       sodipodi:ry="29.633375"
       sodipodi:rx="29.633375"
       sodipodi:cy="310.76697"
       sodipodi:cx="319.79352"
       id="path5750"
       style="fill:none;stroke:#000000;stroke-width:0.56317806;stroke-miterlimit:4;stroke-opacity:1;stroke-dasharray:none"
       sodipodi:type="arc"
       inkscape:transform-center-x="-253.17549" />
  </g>
  <path
     transform="matrix(1.9998319,0,0,1.9998319,1996.8342,-1063.3691)"
     d="m -544.47224,897.56647 a 14.142136,14.142136 0 1 1 -28.28428,0 14.142136,14.142136 0 1 1 28.28428,0 z"
     sodipodi:ry="14.142136"
     sodipodi:rx="14.142136"
     sodipodi:cy="897.56647"
     sodipodi:cx="-558.61438"
     id="path5752"
     style="fill:none;stroke:#000000;stroke-width:0.0500042;stroke-miterlimit:4;stroke-opacity:1;stroke-dasharray:none"
     sodipodi:type="arc" />
  <rect
     y="635.50446"
     x="963.98773"
     height="11.820142"
     width="11.820142"
     id="rect5754"
     style="fill:none;stroke:#000000;stroke-width:0.1;stroke-miterlimit:4;stroke-opacity:1;stroke-dasharray:none" />
  <path
     sodipodi:open="true"
     sodipodi:end="7.425108"
     sodipodi:start="1.9997015"
     transform="translate(2031.6994,289.61293)"
     d="m -1290.9024,745.74682 a 334,334 0 1 1 277.7952,0.004"
     sodipodi:ry="334"
     sodipodi:rx="334"
     sodipodi:cy="442"
     sodipodi:cx="-1152"
     id="path5758"
     style="fill:none;stroke:#000000;stroke-width:0.1;stroke-miterlimit:4;stroke-opacity:1;stroke-dasharray:none"
     sodipodi:type="arc" />
  <path
     sodipodi:open="true"
     sodipodi:end="3.0352232"
     sodipodi:start="0.021308956"
     transform="matrix(0.4307192,0.17695689,-0.17695689,0.4307192,1191.3456,845.10351)"
     d="m -626.01294,741.21452 a 57,57 0 0 1 -113.6649,4.83711"
     sodipodi:ry="57"
     sodipodi:rx="57"
     sodipodi:cy="740"
     sodipodi:cx="-683"
     id="path5760"
     style="fill:none;stroke:#000000;stroke-width:0.21475215;stroke-miterlimit:4;stroke-opacity:1;stroke-dasharray:none"
     sodipodi:type="arc" />
  <path
     sodipodi:open="true"
     sodipodi:type="arc"
     style="fill:none;stroke:#000000;stroke-width:0.21475215;stroke-miterlimit:4;stroke-opacity:1;stroke-dasharray:none"
     id="path5762"
     sodipodi:cx="-683"
     sodipodi:cy="740"
     sodipodi:rx="57"
     sodipodi:ry="57"
     d="m -626.01261,741.1989 a 57,57 0 0 1 -113.68885,4.62724"
     transform="matrix(-0.4307192,0.17695689,0.17695689,0.4307192,568.07976,845.10351)"
     sodipodi:start="0.021034874"
     sodipodi:end="3.0392009" />
  <path
     sodipodi:open="true"
     sodipodi:type="arc"
     style="fill:none;stroke:#000000;stroke-width:0.1;stroke-miterlimit:4;stroke-opacity:1;stroke-dasharray:none"
     id="path5764"
     sodipodi:cx="-1152"
     sodipodi:cy="442"
     sodipodi:rx="334"
     sodipodi:ry="334"
     d="m -1062.7976,763.86787 a 334,334 0 0 1 -178.3234,0.0226"
     transform="translate(2031.6994,289.61293)"
     sodipodi:start="1.3004418"
     sodipodi:end="1.8408979" />
  <g
     transform="translate(1321.7147,253.88849)"
     id="g5800">
    <path
       inkscape:transform-center-x="321.41046"
       transform="matrix(0,-0.56052315,0.56052315,0,-873.64622,67.982022)"
       d="m -720,196 c 0,6.07513 -4.92487,11 -11,11 -6.07513,0 -11,-4.92487 -11,-11 0,-6.07513 4.92487,-11 11,-11 6.07513,0 11,4.92487 11,11 z"
       sodipodi:ry="11"
       sodipodi:rx="11"
       sodipodi:cy="196"
       sodipodi:cx="-731"
       id="path5802"
       style="fill:none;stroke:#000000;stroke-width:0.17840476;stroke-miterlimit:4;stroke-opacity:1;stroke-dasharray:none"
       sodipodi:type="arc" />
    <path
       inkscape:transform-center-y="321.41046"
       sodipodi:type="arc"
       style="fill:none;stroke:#000000;stroke-width:0.17840476;stroke-miterlimit:4;stroke-opacity:1;stroke-dasharray:none"
       id="path5804"
       sodipodi:cx="-731"
       sodipodi:cy="196"
       sodipodi:rx="11"
       sodipodi:ry="11"
       d="m -720,196 c 0,6.07513 -4.92487,11 -11,11 -6.07513,0 -11,-4.92487 -11,-11 0,-6.07513 4.92487,-11 11,-11 6.07513,0 11,4.92487 11,11 z"
       transform="matrix(-0.56052315,0,0,-0.56052315,-852.11565,908.99744)" />
    <path
       inkscape:transform-center-x="-321.41046"
       transform="matrix(0,0.56052315,-0.56052315,0,-11.10023,887.46687)"
       d="m -720,196 c 0,6.07513 -4.92487,11 -11,11 -6.07513,0 -11,-4.92487 -11,-11 0,-6.07513 4.92487,-11 11,-11 6.07513,0 11,4.92487 11,11 z"
       sodipodi:ry="11"
       sodipodi:rx="11"
       sodipodi:cy="196"
       sodipodi:cx="-731"
       id="path5806"
       style="fill:none;stroke:#000000;stroke-width:0.17840476;stroke-miterlimit:4;stroke-opacity:1;stroke-dasharray:none"
       sodipodi:type="arc" />
    <path
       inkscape:transform-center-y="-321.41046"
       sodipodi:type="arc"
       style="fill:none;stroke:#000000;stroke-width:0.17840476;stroke-miterlimit:4;stroke-opacity:1;stroke-dasharray:none"
       id="path5808"
       sodipodi:cx="-731"
       sodipodi:cy="196"
       sodipodi:rx="11"
       sodipodi:ry="11"
       d="m -720,196 c 0,6.07513 -4.92487,11 -11,11 -6.07513,0 -11,-4.92487 -11,-11 0,-6.07513 4.92487,-11 11,-11 6.07513,0 11,4.92487 11,11 z"
       transform="matrix(0.56052315,0,0,0.56052315,-32.630805,46.45145)" />
  </g>
</svg>
