<?xml version="1.0" encoding="UTF-8" standalone="no"?>
<!-- Created with Inkscape (http://www.inkscape.org/) -->

<svg
   xmlns:dc="http://purl.org/dc/elements/1.1/"
   xmlns:cc="http://creativecommons.org/ns#"
   xmlns:rdf="http://www.w3.org/1999/02/22-rdf-syntax-ns#"
   xmlns:svg="http://www.w3.org/2000/svg"
   xmlns="http://www.w3.org/2000/svg"
   xmlns:sodipodi="http://sodipodi.sourceforge.net/DTD/sodipodi-0.dtd"
   xmlns:inkscape="http://www.inkscape.org/namespaces/inkscape"
   width="744.09448819"
   height="1052.3622047"
   id="svg5899"
   version="1.1"
   inkscape:version="0.48.4 r9939"
   sodipodi:docname="New document 19">
  <defs
     id="defs5901" />
  <sodipodi:namedview
     id="base"
     pagecolor="#ffffff"
     bordercolor="#666666"
     borderopacity="1.0"
     inkscape:pageopacity="0.0"
     inkscape:pageshadow="2"
     inkscape:zoom="0.7"
     inkscape:cx="861.62909"
     inkscape:cy="353.55565"
     inkscape:document-units="px"
     inkscape:current-layer="layer1"
     showgrid="false"
     inkscape:window-width="1855"
     inkscape:window-height="1056"
     inkscape:window-x="65"
     inkscape:window-y="24"
     inkscape:window-maximized="1" />
  <metadata
     id="metadata5904">
    <rdf:RDF>
      <cc:Work
         rdf:about="">
        <dc:format>image/svg+xml</dc:format>
        <dc:type
           rdf:resource="http://purl.org/dc/dcmitype/StillImage" />
        <dc:title></dc:title>
      </cc:Work>
    </rdf:RDF>
  </metadata>
  <g
     inkscape:label="Layer 1"
     inkscape:groupmode="layer"
     id="layer1">
    <g
       id="g6018">
      <g
         id="g4810"
         transform="translate(131.33446,323.7974)">
        <path
           style="fill:none;stroke:#000000;stroke-width:0.1;stroke-linecap:butt;stroke-linejoin:miter;stroke-miterlimit:4;stroke-opacity:1;stroke-dasharray:none"
           d="m 202.86672,718.00913 -0.99319,0 c -62.81227,0 -124.084741,-32.56989 -186.500023,-27.13281 -39.27465,3.42127 -73.38045,42.77638 -112.39077,37.05945 -13.711697,-2.00943 -34.177297,-23.82393 -34.177297,-23.82393 l 0,-176.0324 -0.0774,-258.52668"
           id="path4812"
           inkscape:connector-curvature="0"
           sodipodi:nodetypes="ccssccc" />
        <path
           sodipodi:nodetypes="ccssccc"
           inkscape:connector-curvature="0"
           id="path4814"
           d="m 202.99172,718.00913 0.99319,0 c 62.81227,0 124.08474,-32.56989 186.50002,-27.13281 39.27465,3.42127 73.38045,42.77638 112.39077,37.05945 13.7117,-2.00943 34.1773,-23.82393 34.1773,-23.82393 l 0,-176.0324 0.0774,-258.52668"
           style="fill:none;stroke:#000000;stroke-width:0.1;stroke-linecap:butt;stroke-linejoin:miter;stroke-miterlimit:4;stroke-opacity:1;stroke-dasharray:none" />
      </g>
      <path
         sodipodi:open="true"
         sodipodi:end="3.1415927"
         sodipodi:start="0"
         sodipodi:type="arc"
         style="fill:none;stroke:#000000;stroke-width:0.1;stroke-miterlimit:4;stroke-opacity:1;stroke-dasharray:none"
         id="path4886"
         sodipodi:cx="-1152"
         sodipodi:cy="442"
         sodipodi:rx="334"
         sodipodi:ry="334"
         d="m -818,442 a 334,334 0 1 1 -668,-2e-5"
         transform="translate(1486.2637,152.9068)" />
      <path
         sodipodi:type="arc"
         style="fill:none;stroke:#000000;stroke-width:0.17840476;stroke-miterlimit:4;stroke-opacity:1;stroke-dasharray:none"
         id="path4900"
         sodipodi:cx="-731"
         sodipodi:cy="196"
         sodipodi:rx="11"
         sodipodi:ry="11"
         d="m -720,196 a 11,11 0 1 1 -22,0 11,11 0 1 1 22,0 z"
         transform="matrix(0,-0.56052315,0.56052315,0,-63.0681,603.77154)"
         inkscape:transform-center-x="321.41046" />
      <path
         inkscape:transform-center-x="-321.41046"
         transform="matrix(0,-0.56052315,-0.56052315,0,731.6727,603.77154)"
         d="m -720,196 a 11,11 0 1 1 -22,0 11,11 0 1 1 22,0 z"
         sodipodi:ry="11"
         sodipodi:rx="11"
         sodipodi:cy="196"
         sodipodi:cx="-731"
         id="path4902"
         style="fill:none;stroke:#000000;stroke-width:0.17840476;stroke-miterlimit:4;stroke-opacity:1;stroke-dasharray:none"
         sodipodi:type="arc" />
    </g>
  </g>
</svg>
