<?xml version="1.0" encoding="UTF-8" standalone="no"?>
<svg
   xmlns:slic3r="http://slic3r.org/namespaces/slic3r"
   xmlns:dc="http://purl.org/dc/elements/1.1/"
   xmlns:cc="http://creativecommons.org/ns#"
   xmlns:rdf="http://www.w3.org/1999/02/22-rdf-syntax-ns#"
   xmlns:svg="http://www.w3.org/2000/svg"
   xmlns="http://www.w3.org/2000/svg"
   xmlns:sodipodi="http://sodipodi.sourceforge.net/DTD/sodipodi-0.dtd"
   xmlns:inkscape="http://www.inkscape.org/namespaces/inkscape"
   width="1800"
   height="1080"
   id="svg2985"
   version="1.1"
   inkscape:version="0.48.4 r9939"
   sodipodi:docname="GearClock3_3vector.svg">
  <metadata
     id="metadata3135">
    <rdf:RDF>
      <cc:Work
         rdf:about="">
        <dc:format>image/svg+xml</dc:format>
        <dc:type
           rdf:resource="http://purl.org/dc/dcmitype/StillImage" />
        <dc:title></dc:title>
      </cc:Work>
    </rdf:RDF>
  </metadata>
  <defs
     id="defs3133" />
  <sodipodi:namedview
     pagecolor="#ffffff"
     bordercolor="#666666"
     borderopacity="1"
     objecttolerance="10"
     gridtolerance="10"
     guidetolerance="10"
     inkscape:pageopacity="0"
     inkscape:pageshadow="2"
     inkscape:window-width="1855"
     inkscape:window-height="1056"
     id="namedview3131"
     showgrid="false"
     units="in"
     inkscape:zoom="0.5"
     inkscape:cx="1548.4636"
     inkscape:cy="310.96532"
     inkscape:window-x="65"
     inkscape:window-y="24"
     inkscape:window-maximized="1"
     inkscape:current-layer="svg2985" />
  <!-- 
  Generated using Slic3r 1.1.7
  http://slic3r.org/
   -->
  <g
     id="g6623"
     transform="translate(-725.48302,264.36267)">
    <polygon
       id="polygon5666"
       style="fill:none;stroke:#000000;stroke-width:0.02809679;stroke-miterlimit:4;stroke-opacity:1;stroke-dasharray:none"
       points="105.47811,9.425209 105.8149,9.323504 105.83943,9.319361 106.1864,9.260696 106.21126,9.259656 106.5628,9.244904 106.58759,9.246984 106.9382,9.2764 106.96254,9.281576 107.3068,9.3548 107.33029,9.362985 107.6625,9.478696 107.68479,9.489761 108,9.646192 106.84553,11.645721 106.7639,11.787104 106.93272,11.87992 109.3203,13.192601 109.7876,13.532112 116.3966,18.3338 116.81766,18.7292 122.7727,24.321304 123.14088,24.766368 128.348,31.0608 128.50098,31.301848 130.6645,34.710901 130.76919,34.666901 130.79315,34.660213 131.132,34.565597 131.15661,34.561956 131.5047,34.5105 131.52957,34.509981 131.8814,34.5026 131.90614,34.5052 132.2561,34.542 132.28032,34.547681 132.6228,34.628 132.64613,34.636677 132.976,34.7594 132.99804,34.770924 133.3098,34.9339 133.33023,34.948097 133.6192,35.148896 133.63769,35.165544 133.8992,35.401001 133.91546,35.419836 134.1453,35.686204 134.15907,35.706929 134.35381,36 132.39127,37.133085 132.2525,37.2132 132.30417,37.294605 133.03481,38.4459 133.28073,38.968536 136.7589,46.360101 136.9374,46.90944 139.4618,54.678701 139.57003,55.246084 141.1008,63.27054 141.12477,63.651593 141.4638,69.040721 141.5621,69.05314 141.58621,69.059329 141.9271,69.14683 141.95023,69.155989 142.2773,69.285521 142.2991,69.297506 142.6075,69.467021 142.62762,69.481644 142.9123,69.688461 142.93044,69.705493 143.1869,69.946361 143.20276,69.96553 143.4271,70.236641 143.44043,70.257646 143.6289,70.554741 143.63949,70.577253 143.7893,70.895631 143.79698,70.919292 143.9057,71.253931 143.91037,71.278369 143.9763,71.624001 143.97787,71.64883 144,72 141.65,72 141.13706,80.152987 141.1008,80.729461 139.57003,88.753917 139.4618,89.321301 136.9374,97.090559 136.7589,97.639902 133.87725,103.7637 133.6735,104.1967 133.716,104.229 133.73378,104.24641 133.9852,104.4926 134.00065,104.5121 134.2192,104.7879 134.23209,104.80918 134.4144,105.1101 134.42452,105.13283 134.5676,105.4543 134.57479,105.47811 134.6765,105.8149 134.68064,105.83943 134.7393,106.1864 134.74034,106.21126 134.7551,106.5628 134.72568,106.91341 134.7236,106.9382 134.65037,107.28246 134.6452,107.3068 134.52949,107.63901 134.5213,107.6625 134.36487,107.97771 134.35381,108 132.31642,106.8237 132.31642,106.8237 132.2525,106.7868 128.60585,112.53291 128.348,112.9392 123.14088,119.23364 122.7727,119.6787 116.81766,125.2708 116.3966,125.6662 109.80591,130.45472 109.3399,130.7933 109.4344,131.132 109.43804,131.15661 109.4895,131.5047 109.49002,131.52957 109.4974,131.8814 109.4606,132.23136 109.458,132.2561 109.37768,132.59858 109.372,132.6228 109.24928,132.95268 109.2406,132.976 109.07762,133.28776 109.0661,133.3098 108.8653,133.59877 108.8511,133.6192 108.61565,133.88071 108.599,133.8992 108.33263,134.12905 108.3138,134.1453 108.02072,134.34003 108,134.3538 106.84553,132.35428 106.7639,132.2129 101.99285,134.83574 101.6555,135.0212 94.060056,138.02846 93.523003,138.2411 85.610564,140.27265 85.051099,140.4163 76.946418,141.44021 76.373359,141.5126 74.95313,141.5126 74.947273,141.55884 74.94686,141.5621 74.859357,141.903 74.85317,141.9271 74.723637,142.25417 74.71448,142.2773 74.544965,142.5857 74.53298,142.6075 74.326163,142.89217 74.311539,142.9123 74.070671,143.16876 74.05364,143.18689 73.78253,143.41124 73.76336,143.4271 73.466265,143.61557 73.44526,143.6289 73.126882,143.77871 73.10437,143.7893 72.769732,143.89801 72.74607,143.9057 72.400438,143.97164 72.376,143.9763 72.024829,143.99844 72,144 72,141.5126 67.626639,141.5126 59.465803,140.4816 58.948899,140.41629 51.036465,138.38474 50.476999,138.2411 42.881551,135.23383 42.344501,135.0212 39.995772,133.73 39.829701,133.6387 39.774877,133.7109 39.771001,133.716 39.524808,133.96742 39.507401,133.9852 39.231603,134.20375 39.212101,134.2192 38.911178,134.40151 38.8899,134.4144 38.568431,134.55748 38.5457,134.5676 38.208915,134.66931 38.185101,134.6765 37.838132,134.73515 37.8136,134.7393 37.462056,134.75406 37.4372,134.7551 37.086589,134.72568 37.061798,134.7236 36.71754,134.65037 36.6932,134.6452 36.360992,134.52948 36.337502,134.5213 36.022289,134.36486 36,134.3538 36.08163,134.21242 37.2361,132.2129 34.848519,130.90022 34.679699,130.8074 28.070704,126.00571 27.603403,125.6662 21.648362,120.0741 21.227298,119.6787 16.020181,113.38426 15.652,112.9392 13.488475,109.53015 13.335498,109.2891 13.237715,109.33019 13.230801,109.3331 12.891958,109.42771 12.868001,109.4344 12.519912,109.48586 12.495301,109.4895 12.143476,109.49688 12.118601,109.4974 11.768644,109.4606 11.743901,109.458 11.401416,109.37768 11.3772,109.372 11.047325,109.24928 11.024,109.2406 10.712244,109.07762 10.6902,109.0661 10.401233,108.8653 10.3808,108.8511 10.119293,108.61565 10.100801,108.599 9.870952,108.33263 9.8547,108.3138 9.659968,108.02072 9.6462,108 9.784965,107.91988 11.7475,106.7868 11.016857,105.6355 10.965197,105.5541 7.487028,98.162536 7.241096,97.639901 4.716692,89.870643 4.5382,89.321301 3.007436,81.296846 2.8992,80.729461 2.560172,75.34033 2.5362,74.95928 2.444388,74.94768 2.437897,74.94686 2.097004,74.859358 2.0729,74.85317 1.745832,74.723638 1.722704,74.71448 1.414304,74.544966 1.392501,74.532981 1.107828,74.326164 1.0877,74.31154 0.831236,74.070672 0.813105,74.053641 0.588765,73.782531 0.572901,73.763361 0.384428,73.466266 0.3711,73.44526 0.221293,73.126883 0.210701,73.104371 0.101989,72.769733 0.0943,72.74607 0.028361,72.400439 0.023696,72.376 0.001564,72.02483 0,72 2.35,72 2.386269,71.423526 2.8992,63.270541 3.007437,62.703156 4.538201,54.6787 4.716692,54.129361 7.241096,46.3601 7.444848,45.927105 10.3265,39.8033 10.286809,39.773133 10.284001,39.771001 10.03258,39.524808 10.014804,39.5074 9.796253,39.231601 9.7808,39.2121 9.598492,38.911176 9.5856,38.8899 9.442516,38.568432 9.4324,38.545701 9.330693,38.208913 9.323501,38.185101 9.264848,37.838132 9.2607,37.813601 9.245945,37.462057 9.2449,37.4372 9.246981,37.412408 9.2764,37.061801 9.281576,37.037461 9.3548,36.6932 9.362985,36.669712 9.4787,36.337501 9.489761,36.315212 9.6462,36 9.784964,36.080116 11.7475,37.2132 12.005344,36.806909 15.652,31.0608 16.020181,30.615736 21.227298,24.321304 21.648362,23.925905 27.603402,18.3338 28.06941,17.995217 34.660099,13.206696 34.571842,12.890369 34.565601,12.868 34.514141,12.51992 34.510502,12.495305 34.503124,12.14348 34.502602,12.118601 34.505204,12.093857 34.542,11.743897 34.547679,11.719681 34.627998,11.377201 34.636676,11.353872 34.759399,11.024 34.770923,11.001961 34.9339,10.6902 34.948097,10.669769 35.148899,10.380801 35.165547,10.362313 35.401001,10.1008 35.419836,10.084544 35.6862,9.854696 35.706922,9.840929 36,9.646192 36.08163,9.787577 37.236099,11.787104 37.573447,11.601648 42.3445,8.978809 42.881552,8.766176 50.476998,5.758905 51.036465,5.615256 58.9489,3.583704 59.521957,3.511305 67.62664,2.4874 69.046869,2.4874 69.053139,2.437897 69.059328,2.413792 69.146829,2.072897 69.155988,2.049768 69.28552,1.722704 69.297505,1.700897 69.46702,1.392504 69.481643,1.372377 69.68846,1.087696 69.705492,1.06956 69.94636,0.813104 69.965529,0.797241 70.23664,0.572896 70.257645,0.559569 70.55474,0.371104 70.577252,0.360512 70.89563,0.210704 70.919291,0.203017 71.25393,0.094296 71.278368,0.089632 71.624,0.023696 71.648829,0.022129 72,1e-06 72,2.4874 76.37336,2.4874 76.946417,2.5598 85.0511,3.583704 85.610563,3.727352 93.523004,5.758905 94.060055,5.971536 101.6555,8.978809 101.82157,9.070104 104.1703,10.361296 104.229,10.284 104.24641,10.266224 104.4926,10.014801 104.5121,9.999344 104.7879,9.7808 104.80918,9.767912 105.1101,9.5856 105.13283,9.575481 105.4543,9.4324 "
       slic3r:type="contour"
       transform="matrix(3.5591256,0,0,3.5591256,803.36983,221.40764)" />
    <path
       sodipodi:type="arc"
       style="fill:none;stroke:#000000;stroke-width:0.1;stroke-miterlimit:4;stroke-opacity:1;stroke-dasharray:none"
       id="path5670"
       sodipodi:cx="-1152"
       sodipodi:cy="442"
       sodipodi:rx="334"
       sodipodi:ry="334"
       d="m -1290.9024,745.74682 c -167.7547,-76.71367 -241.5581,-274.89447 -164.8444,-442.6492 76.7137,-167.75474 274.8944,-241.558103 442.6492,-164.84444 167.75472,76.71367 241.55808,274.89447 164.84442,442.6492 -33.36744,72.96674 -91.88623,131.48368 -164.85402,164.84882"
       transform="translate(2211.6268,35.664645)"
       sodipodi:start="1.9997015"
       sodipodi:end="7.425108"
       sodipodi:open="true" />
    <path
       sodipodi:type="arc"
       style="fill:none;stroke:#000000;stroke-width:0.21475215;stroke-miterlimit:4;stroke-opacity:1;stroke-dasharray:none"
       id="path5672"
       sodipodi:cx="-683"
       sodipodi:cy="740"
       sodipodi:rx="57"
       sodipodi:ry="57"
       d="m -626.01294,741.21452 c -0.67076,31.47308 -26.72849,56.4433 -58.20158,55.77254 -28.66776,-0.61097 -52.419,-22.42322 -55.46332,-50.93543"
       transform="matrix(0.4307192,0.17695689,-0.17695689,0.4307192,1371.273,591.15523)"
       sodipodi:start="0.021308956"
       sodipodi:end="3.0352232"
       sodipodi:open="true" />
    <path
       sodipodi:end="3.0392009"
       sodipodi:start="0.021034874"
       transform="matrix(-0.4307192,0.17695689,0.17695689,0.4307192,748.00716,591.15523)"
       d="m -626.01261,741.1989 c -0.66213,31.47327 -26.71302,56.45062 -58.18629,55.78849 -28.76023,-0.60506 -52.56225,-22.54533 -55.50256,-51.16125"
       sodipodi:ry="57"
       sodipodi:rx="57"
       sodipodi:cy="740"
       sodipodi:cx="-683"
       id="path5674"
       style="fill:none;stroke:#000000;stroke-width:0.21475215;stroke-miterlimit:4;stroke-opacity:1;stroke-dasharray:none"
       sodipodi:type="arc"
       sodipodi:open="true" />
    <path
       sodipodi:end="1.8408979"
       sodipodi:start="1.3004418"
       transform="translate(2211.6268,35.664645)"
       d="m -1062.7976,763.86787 c -58.3406,16.16851 -119.9787,16.17631 -178.3234,0.0226"
       sodipodi:ry="334"
       sodipodi:rx="334"
       sodipodi:cy="442"
       sodipodi:cx="-1152"
       id="path5676"
       style="fill:none;stroke:#000000;stroke-width:0.1;stroke-miterlimit:4;stroke-opacity:1;stroke-dasharray:none"
       sodipodi:type="arc"
       sodipodi:open="true" />
    <g
       transform="translate(1501.6421,1.4967797)"
       id="g5790">
      <path
         inkscape:transform-center-x="321.41046"
         transform="matrix(0,-0.56052315,0.56052315,0,-873.64622,67.982022)"
         d="m -720,196 c 0,6.07513 -4.92487,11 -11,11 -6.07513,0 -11,-4.92487 -11,-11 0,-6.07513 4.92487,-11 11,-11 6.07513,0 11,4.92487 11,11 z"
         sodipodi:ry="11"
         sodipodi:rx="11"
         sodipodi:cy="196"
         sodipodi:cx="-731"
         id="path5792"
         style="fill:none;stroke:#000000;stroke-width:0.17840476;stroke-miterlimit:4;stroke-opacity:1;stroke-dasharray:none"
         sodipodi:type="arc" />
      <path
         inkscape:transform-center-y="321.41046"
         sodipodi:type="arc"
         style="fill:none;stroke:#000000;stroke-width:0.17840476;stroke-miterlimit:4;stroke-opacity:1;stroke-dasharray:none"
         id="path5794"
         sodipodi:cx="-731"
         sodipodi:cy="196"
         sodipodi:rx="11"
         sodipodi:ry="11"
         d="m -720,196 c 0,6.07513 -4.92487,11 -11,11 -6.07513,0 -11,-4.92487 -11,-11 0,-6.07513 4.92487,-11 11,-11 6.07513,0 11,4.92487 11,11 z"
         transform="matrix(-0.56052315,0,0,-0.56052315,-852.11565,908.99744)" />
      <path
         inkscape:transform-center-x="-321.41046"
         transform="matrix(0,0.56052315,-0.56052315,0,-11.10023,887.46687)"
         d="m -720,196 c 0,6.07513 -4.92487,11 -11,11 -6.07513,0 -11,-4.92487 -11,-11 0,-6.07513 4.92487,-11 11,-11 6.07513,0 11,4.92487 11,11 z"
         sodipodi:ry="11"
         sodipodi:rx="11"
         sodipodi:cy="196"
         sodipodi:cx="-731"
         id="path5796"
         style="fill:none;stroke:#000000;stroke-width:0.17840476;stroke-miterlimit:4;stroke-opacity:1;stroke-dasharray:none"
         sodipodi:type="arc" />
      <path
         inkscape:transform-center-y="-321.41046"
         sodipodi:type="arc"
         style="fill:none;stroke:#000000;stroke-width:0.17840476;stroke-miterlimit:4;stroke-opacity:1;stroke-dasharray:none"
         id="path5798"
         sodipodi:cx="-731"
         sodipodi:cy="196"
         sodipodi:rx="11"
         sodipodi:ry="11"
         d="m -720,196 c 0,6.07513 -4.92487,11 -11,11 -6.07513,0 -11,-4.92487 -11,-11 0,-6.07513 4.92487,-11 11,-11 6.07513,0 11,4.92487 11,11 z"
         transform="matrix(0.56052315,0,0,0.56052315,-32.630805,46.45145)" />
    </g>
  </g>
</svg>
