  0
SECTION
  2
HEADER
  9
$ACADVER
  1
AC1014
  9
$HANDSEED
  5
FFFF
  9
$MEASUREMENT
 70
     1
  0
ENDSEC
  0
SECTION
  2
TABLES
  0
TABLE
  2
VPORT
  5
8
330
0
100
AcDbSymbolTable
 70
     4
  0
VPORT
  5
2E
330
8
100
AcDbSymbolTableRecord
100
AcDbViewportTableRecord
  2
*ACTIVE
 70
     0
 10
0.0
 20
0.0
 11
1.0
 21
1.0
 12
210.0
 22
148.5
 13
0.0
 23
0.0
 14
10.0
 24
10.0
 15
10.0
 25
10.0
 16
0.0
 26
0.0
 36
1.0
 17
0.0
 27
0.0
 37
0.0
 40
341.0
 41
1.24
 42
50.0
 43
0.0
 44
0.0
 50
0.0
 51
0.0
 71
     0
 72
   100
 73
     1
 74
     3
 75
     0
 76
     0
 77
     0
 78
     0
  0
ENDTAB
  0
TABLE
  2
LTYPE
  5
5
330
0
100
AcDbSymbolTable
 70
     1
  0
LTYPE
  5
14
330
5
100
AcDbSymbolTableRecord
100
AcDbLinetypeTableRecord
  2
BYBLOCK
 70
     0
  3

 72
    65
 73
     0
 40
0.0
  0
LTYPE
  5
15
330
5
100
AcDbSymbolTableRecord
100
AcDbLinetypeTableRecord
  2
BYLAYER
 70
     0
  3

 72
    65
 73
     0
 40
0.0
  0
LTYPE
  5
16
330
5
100
AcDbSymbolTableRecord
100
AcDbLinetypeTableRecord
  2
CONTINUOUS
 70
     0
  3
Solid line
 72
    65
 73
     0
 40
0.0
  0
ENDTAB
  0
TABLE
  2
LAYER
  5
2
100
AcDbSymbolTable
 70
2
  0
LAYER
  5
50
100
AcDbSymbolTableRecord
100
AcDbLayerTableRecord
  2
0
 70
0
  6
CONTINUOUS
  0
LAYER
  5
51
100
AcDbSymbolTableRecord
100
AcDbLayerTableRecord
  2
Layer_1
 70
0
  6
CONTINUOUS
  0
ENDTAB
  0
TABLE
  2
STYLE
  5
3
330
0
100
AcDbSymbolTable
 70
     1
  0
STYLE
  5
11
330
3
100
AcDbSymbolTableRecord
100
AcDbTextStyleTableRecord
  2
STANDARD
 70
     0
 40
0.0
 41
1.0
 50
0.0
 71
     0
 42
2.5
  3
txt
  4

  0
ENDTAB
  0
TABLE
  2
VIEW
  5
6
330
0
100
AcDbSymbolTable
 70
     0
  0
ENDTAB
  0
TABLE
  2
UCS
  5
7
330
0
100
AcDbSymbolTable
 70
     0
  0
ENDTAB
  0
TABLE
  2
APPID
  5
9
330
0
100
AcDbSymbolTable
 70
     2
  0
APPID
  5
12
330
9
100
AcDbSymbolTableRecord
100
AcDbRegAppTableRecord
  2
ACAD
 70
     0
  0
ENDTAB
  0
TABLE
  2
DIMSTYLE
  5
A
330
0
100
AcDbSymbolTable
 70
     1
  0
DIMSTYLE
105
27
330
A
100
AcDbSymbolTableRecord
100
AcDbDimStyleTableRecord
  2
ISO-25
 70
     0
  3

  4

  5

  6

  7

 40
1.0
 41
2.5
 42
0.625
 43
3.75
 44
1.25
 45
0.0
 46
0.0
 47
0.0
 48
0.0
140
2.5
141
2.5
142
0.0
143
0.03937007874016
144
1.0
145
0.0
146
1.0
147
0.625
 71
     0
 72
     0
 73
     0
 74
     0
 75
     0
 76
     0
 77
     1
 78
     8
170
     0
171
     3
172
     1
173
     0
174
     0
175
     0
176
     0
177
     0
178
     0
270
     2
271
     2
272
     2
273
     2
274
     3
340
11
275
     0
280
     0
281
     0
282
     0
283
     0
284
     8
285
     0
286
     0
287
     3
288
     0
  0
ENDTAB
  0
TABLE
  2
BLOCK_RECORD
  5
1
330
0
100
AcDbSymbolTable
 70
     1
  0
BLOCK_RECORD
  5
1F
330
1
100
AcDbSymbolTableRecord
100
AcDbBlockTableRecord
  2
*MODEL_SPACE
  0
BLOCK_RECORD
  5
1B
330
1
100
AcDbSymbolTableRecord
100
AcDbBlockTableRecord
  2
*PAPER_SPACE
  0
ENDTAB
  0
ENDSEC
  0
SECTION
  2
BLOCKS
  0
BLOCK
  5
20
330
1F
100
AcDbEntity
  8
0
100
AcDbBlockBegin
  2
*MODEL_SPACE
 70
     0
 10
0.0
 20
0.0
 30
0.0
  3
*MODEL_SPACE
  1

  0
ENDBLK
  5
21
330
1F
100
AcDbEntity
  8
0
100
AcDbBlockEnd
  0
BLOCK
  5
1C
330
1B
100
AcDbEntity
 67
     1
  8
0
100
AcDbBlockBegin
  2
*PAPER_SPACE
  1

  0
ENDBLK
  5
1D
330
1B
100
AcDbEntity
 67
     1
  8
0
100
AcDbBlockEnd
  0
ENDSEC
  0
SECTION
  2
ENTITIES
  0
LWPOLYLINE
  5
100
100
AcDbEntity
  8
Layer_1
 62
7
100
AcDbPolyline
 90
481
 70
0
 10
0.299178
 20
-126.109091
 30
0.0
 10
1.959836
 20
-126.082760
 30
0.0
 10
3.618086
 20
-126.006226
 30
0.0
 10
5.274067
 20
-125.883130
 30
0.0
 10
6.927918
 20
-125.717112
 30
0.0
 10
8.579779
 20
-125.511827
 30
0.0
 10
10.229782
 20
-125.270916
 30
0.0
 10
11.878076
 20
-124.998030
 30
0.0
 10
13.524792
 20
-124.696817
 30
0.0
 10
15.170068
 20
-124.370921
 30
0.0
 10
16.814049
 20
-124.023988
 30
0.0
 10
18.456868
 20
-123.659670
 30
0.0
 10
20.098667
 20
-123.281611
 30
0.0
 10
21.739581
 20
-122.893459
 30
0.0
 10
23.379752
 20
-122.498862
 30
0.0
 10
25.019319
 20
-122.101465
 30
0.0
 10
26.658418
 20
-121.704917
 30
0.0
 10
28.297189
 20
-121.312865
 30
0.0
 10
29.935771
 20
-120.928953
 30
0.0
 10
31.574300
 20
-120.556834
 30
0.0
 10
33.212919
 20
-120.200151
 30
0.0
 10
34.851763
 20
-119.862551
 30
0.0
 10
36.490972
 20
-119.547684
 30
0.0
 10
38.130683
 20
-119.259193
 30
0.0
 10
39.771038
 20
-119.000729
 30
0.0
 10
41.412174
 20
-118.775939
 30
0.0
 10
43.054228
 20
-118.588467
 30
0.0
 10
44.697342
 20
-118.441963
 30
0.0
 10
46.341651
 20
-118.340075
 30
0.0
 10
47.987294
 20
-118.286444
 30
0.0
 10
49.634414
 20
-118.284751
 30
0.0
 10
51.283145
 20
-118.338587
 30
0.0
 10
52.933628
 20
-118.451626
 30
0.0
 10
53.968582
 20
-118.571161
 30
0.0
 10
54.995510
 20
-118.745930
 30
0.0
 10
56.014933
 20
-118.971750
 30
0.0
 10
57.027369
 20
-119.244433
 30
0.0
 10
58.033339
 20
-119.559794
 30
0.0
 10
59.033365
 20
-119.913647
 30
0.0
 10
60.027967
 20
-120.301804
 30
0.0
 10
61.017664
 20
-120.720080
 30
0.0
 10
62.002980
 20
-121.164289
 30
0.0
 10
62.984434
 20
-121.630247
 30
0.0
 10
63.962545
 20
-122.113764
 30
0.0
 10
64.937835
 20
-122.610656
 30
0.0
 10
65.910821
 20
-123.116737
 30
0.0
 10
66.882030
 20
-123.627821
 30
0.0
 10
67.851980
 20
-124.139722
 30
0.0
 10
68.821190
 20
-124.648252
 30
0.0
 10
69.790180
 20
-125.149228
 30
0.0
 10
70.759475
 20
-125.638460
 30
0.0
 10
71.729589
 20
-126.111766
 30
0.0
 10
72.701048
 20
-126.564956
 30
0.0
 10
73.674371
 20
-126.993849
 30
0.0
 10
74.650078
 20
-127.394255
 30
0.0
 10
75.628689
 20
-127.761987
 30
0.0
 10
76.610726
 20
-128.092862
 30
0.0
 10
77.596709
 20
-128.382690
 30
0.0
 10
78.587160
 20
-128.627292
 30
0.0
 10
79.582594
 20
-128.822474
 30
0.0
 10
80.583538
 20
-128.964054
 30
0.0
 10
81.590512
 20
-129.047845
 30
0.0
 10
82.604031
 20
-129.069661
 30
0.0
 10
83.624620
 20
-129.025318
 30
0.0
 10
84.652801
 20
-128.910626
 30
0.0
 10
85.020940
 20
-128.841442
 30
0.0
 10
85.398841
 20
-128.741660
 30
0.0
 10
85.785096
 20
-128.613429
 30
0.0
 10
86.178300
 20
-128.458898
 30
0.0
 10
86.577049
 20
-128.280221
 30
0.0
 10
86.979929
 20
-128.079544
 30
0.0
 10
87.385542
 20
-127.859024
 30
0.0
 10
87.792475
 20
-127.620809
 30
0.0
 10
88.199324
 20
-127.367048
 30
0.0
 10
88.604683
 20
-127.099894
 30
0.0
 10
89.007143
 20
-126.821496
 30
0.0
 10
89.405299
 20
-126.534007
 30
0.0
 10
89.797746
 20
-126.239576
 30
0.0
 10
90.183073
 20
-125.940353
 30
0.0
 10
90.559879
 20
-125.638491
 30
0.0
 10
90.926753
 20
-125.336141
 30
0.0
 10
91.282289
 20
-125.035450
 30
0.0
 10
91.625084
 20
-124.738572
 30
0.0
 10
91.953726
 20
-124.447657
 30
0.0
 10
92.266812
 20
-124.164856
 30
0.0
 10
92.562934
 20
-123.892320
 30
0.0
 10
92.840686
 20
-123.632199
 30
0.0
 10
93.098662
 20
-123.386643
 30
0.0
 10
93.335452
 20
-123.157803
 30
0.0
 10
93.549656
 20
-122.947832
 30
0.0
 10
93.739860
 20
-122.758879
 30
0.0
 10
93.904664
 20
-122.593096
 30
0.0
 10
94.042656
 20
-122.452631
 30
0.0
 10
94.152432
 20
-122.339635
 30
0.0
 10
94.232583
 20
-122.256264
 30
0.0
 10
94.281707
 20
-122.204662
 30
0.0
 10
94.298386
 20
-122.186995
 30
0.0
 10
94.298386
 20
-120.634488
 30
0.0
 10
94.298386
 20
-119.081980
 30
0.0
 10
94.298386
 20
-117.529470
 30
0.0
 10
94.298386
 20
-115.976963
 30
0.0
 10
94.298386
 20
-114.424456
 30
0.0
 10
94.298386
 20
-112.871949
 30
0.0
 10
94.298386
 20
-111.319438
 30
0.0
 10
94.298386
 20
-109.766931
 30
0.0
 10
94.298386
 20
-108.214424
 30
0.0
 10
94.298386
 20
-106.661917
 30
0.0
 10
94.298386
 20
-105.109407
 30
0.0
 10
94.298386
 20
-103.556899
 30
0.0
 10
94.298386
 20
-102.004392
 30
0.0
 10
94.298386
 20
-100.451882
 30
0.0
 10
94.298386
 20
-98.899375
 30
0.0
 10
94.298386
 20
-97.346867
 30
0.0
 10
94.298386
 20
-95.794360
 30
0.0
 10
94.298386
 20
-94.241850
 30
0.0
 10
94.298386
 20
-92.689343
 30
0.0
 10
94.298386
 20
-91.136836
 30
0.0
 10
94.298386
 20
-89.584328
 30
0.0
 10
94.298386
 20
-88.031818
 30
0.0
 10
94.298386
 20
-86.479311
 30
0.0
 10
94.298386
 20
-84.926804
 30
0.0
 10
94.298386
 20
-83.374296
 30
0.0
 10
94.298386
 20
-81.821786
 30
0.0
 10
94.298386
 20
-80.269279
 30
0.0
 10
94.298386
 20
-78.716772
 30
0.0
 10
94.298386
 20
-77.164265
 30
0.0
 10
94.298386
 20
-75.611754
 30
0.0
 10
94.298386
 20
-74.059247
 30
0.0
 10
94.298386
 20
-72.506740
 30
0.0
 10
94.298951
 20
-70.226678
 30
0.0
 10
94.299515
 20
-67.946616
 30
0.0
 10
94.300080
 20
-65.666554
 30
0.0
 10
94.300644
 20
-63.386492
 30
0.0
 10
94.301208
 20
-61.106432
 30
0.0
 10
94.301773
 20
-58.826370
 30
0.0
 10
94.302337
 20
-56.546308
 30
0.0
 10
94.302902
 20
-54.266246
 30
0.0
 10
94.303466
 20
-51.986184
 30
0.0
 10
94.304031
 20
-49.706122
 30
0.0
 10
94.304595
 20
-47.426060
 30
0.0
 10
94.305160
 20
-45.145998
 30
0.0
 10
94.305724
 20
-42.865939
 30
0.0
 10
94.306288
 20
-40.585877
 30
0.0
 10
94.306853
 20
-38.305815
 30
0.0
 10
94.307417
 20
-36.025753
 30
0.0
 10
94.307982
 20
-33.745691
 30
0.0
 10
94.308546
 20
-31.465629
 30
0.0
 10
94.309111
 20
-29.185567
 30
0.0
 10
94.309675
 20
-26.905507
 30
0.0
 10
94.310240
 20
-24.625445
 30
0.0
 10
94.310804
 20
-22.345383
 30
0.0
 10
94.311368
 20
-20.065321
 30
0.0
 10
94.311933
 20
-17.785259
 30
0.0
 10
94.312497
 20
-15.505197
 30
0.0
 10
94.313062
 20
-13.225135
 30
0.0
 10
94.313626
 20
-10.945073
 30
0.0
 10
94.314191
 20
-8.665011
 30
0.0
 10
94.314755
 20
-6.384952
 30
0.0
 10
94.315320
 20
-4.104890
 30
0.0
 10
94.315884
 20
-1.824828
 30
0.0
 10
94.316448
 20
0.455234
 30
0.0
 10
94.193795
 20
5.305957
 30
0.0
 10
93.829784
 20
10.092999
 30
0.0
 10
93.230336
 20
14.810439
 30
0.0
 10
92.401376
 20
19.452360
 30
0.0
 10
91.348825
 20
24.012831
 30
0.0
 10
90.078605
 20
28.485935
 30
0.0
 10
88.596642
 20
32.865747
 30
0.0
 10
86.908854
 20
37.146344
 30
0.0
 10
85.021169
 20
41.321805
 30
0.0
 10
82.943296
 20
45.386234
 30
0.0
 10
80.673581
 20
49.333652
 30
0.0
 10
78.221730
 20
53.158166
 30
0.0
 10
75.593674
 20
56.853851
 30
0.0
 10
72.795330
 20
60.414787
 30
0.0
 10
69.832621
 20
63.835050
 30
0.0
 10
66.711472
 20
67.108716
 30
0.0
 10
63.437804
 20
70.229865
 30
0.0
 10
60.017541
 20
73.192573
 30
0.0
 10
56.456605
 20
75.990917
 30
0.0
 10
52.760920
 20
78.618974
 30
0.0
 10
48.936408
 20
81.070823
 30
0.0
 10
44.988988
 20
83.340540
 30
0.0
 10
40.924587
 20
85.422203
 30
0.0
 10
36.749126
 20
87.309888
 30
0.0
 10
32.468529
 20
88.997674
 30
0.0
 10
28.088717
 20
90.479637
 30
0.0
 10
23.615613
 20
91.749856
 30
0.0
 10
19.055142
 20
92.802407
 30
0.0
 10
14.413222
 20
93.631367
 30
0.0
 10
9.695781
 20
94.230814
 30
0.0
 10
4.908739
 20
94.594826
 30
0.0
 10
0.058016
 20
94.717479
 30
0.0
 10
0.054460
 20
94.717479
 30
0.0
 10
0.050904
 20
94.717479
 30
0.0
 10
0.047348
 20
94.717479
 30
0.0
 10
0.043792
 20
94.717479
 30
0.0
 10
0.040236
 20
94.717479
 30
0.0
 10
0.036680
 20
94.717479
 30
0.0
 10
0.033124
 20
94.717479
 30
0.0
 10
0.029568
 20
94.717479
 30
0.0
 10
0.026012
 20
94.717479
 30
0.0
 10
0.022456
 20
94.717479
 30
0.0
 10
0.018900
 20
94.717479
 30
0.0
 10
0.015344
 20
94.717479
 30
0.0
 10
0.011788
 20
94.717479
 30
0.0
 10
0.008232
 20
94.717479
 30
0.0
 10
0.004676
 20
94.717479
 30
0.0
 10
0.001120
 20
94.717479
 30
0.0
 10
-0.002436
 20
94.717479
 30
0.0
 10
-0.005992
 20
94.717479
 30
0.0
 10
-0.009548
 20
94.717479
 30
0.0
 10
-0.013104
 20
94.717479
 30
0.0
 10
-0.016660
 20
94.717479
 30
0.0
 10
-0.020216
 20
94.717479
 30
0.0
 10
-0.023772
 20
94.717479
 30
0.0
 10
-0.027328
 20
94.717479
 30
0.0
 10
-0.030884
 20
94.717479
 30
0.0
 10
-0.034440
 20
94.717479
 30
0.0
 10
-0.037996
 20
94.717479
 30
0.0
 10
-0.041552
 20
94.717479
 30
0.0
 10
-0.045108
 20
94.717479
 30
0.0
 10
-0.048664
 20
94.717479
 30
0.0
 10
-0.052220
 20
94.717479
 30
0.0
 10
-0.055776
 20
94.717479
 30
0.0
 10
-4.906498
 20
94.594826
 30
0.0
 10
-9.693540
 20
94.230814
 30
0.0
 10
-14.410981
 20
93.631367
 30
0.0
 10
-19.052901
 20
92.802407
 30
0.0
 10
-23.613372
 20
91.749856
 30
0.0
 10
-28.086476
 20
90.479637
 30
0.0
 10
-32.466288
 20
88.997674
 30
0.0
 10
-36.746886
 20
87.309888
 30
0.0
 10
-40.922346
 20
85.422203
 30
0.0
 10
-44.986747
 20
83.340540
 30
0.0
 10
-48.934166
 20
81.070823
 30
0.0
 10
-52.758680
 20
78.618974
 30
0.0
 10
-56.454366
 20
75.990917
 30
0.0
 10
-60.015301
 20
73.192573
 30
0.0
 10
-63.435564
 20
70.229865
 30
0.0
 10
-66.709231
 20
67.108716
 30
0.0
 10
-69.830380
 20
63.835050
 30
0.0
 10
-72.793088
 20
60.414787
 30
0.0
 10
-75.591432
 20
56.853851
 30
0.0
 10
-78.219490
 20
53.158166
 30
0.0
 10
-80.671339
 20
49.333652
 30
0.0
 10
-82.941056
 20
45.386234
 30
0.0
 10
-85.022719
 20
41.321833
 30
0.0
 10
-86.910404
 20
37.146372
 30
0.0
 10
-88.598192
 20
32.865775
 30
0.0
 10
-90.080155
 20
28.485963
 30
0.0
 10
-91.350375
 20
24.012859
 30
0.0
 10
-92.402925
 20
19.452388
 30
0.0
 10
-93.231885
 20
14.810468
 30
0.0
 10
-93.831334
 20
10.093027
 30
0.0
 10
-94.195344
 20
5.305985
 30
0.0
 10
-94.317998
 20
0.455262
 30
0.0
 10
-94.317433
 20
-1.824800
 30
0.0
 10
-94.316869
 20
-4.104862
 30
0.0
 10
-94.316304
 20
-6.384924
 30
0.0
 10
-94.315740
 20
-8.664983
 30
0.0
 10
-94.315176
 20
-10.945045
 30
0.0
 10
-94.314611
 20
-13.225107
 30
0.0
 10
-94.314047
 20
-15.505169
 30
0.0
 10
-94.313482
 20
-17.785231
 30
0.0
 10
-94.312918
 20
-20.065293
 30
0.0
 10
-94.312353
 20
-22.345355
 30
0.0
 10
-94.311789
 20
-24.625417
 30
0.0
 10
-94.311224
 20
-26.905479
 30
0.0
 10
-94.310660
 20
-29.185538
 30
0.0
 10
-94.310096
 20
-31.465601
 30
0.0
 10
-94.309531
 20
-33.745663
 30
0.0
 10
-94.308967
 20
-36.025725
 30
0.0
 10
-94.308402
 20
-38.305787
 30
0.0
 10
-94.307838
 20
-40.585849
 30
0.0
 10
-94.307273
 20
-42.865911
 30
0.0
 10
-94.306709
 20
-45.145970
 30
0.0
 10
-94.306144
 20
-47.426032
 30
0.0
 10
-94.305580
 20
-49.706094
 30
0.0
 10
-94.305016
 20
-51.986156
 30
0.0
 10
-94.304451
 20
-54.266218
 30
0.0
 10
-94.303887
 20
-56.546280
 30
0.0
 10
-94.303322
 20
-58.826342
 30
0.0
 10
-94.302758
 20
-61.106404
 30
0.0
 10
-94.302193
 20
-63.386463
 30
0.0
 10
-94.301629
 20
-65.666526
 30
0.0
 10
-94.301064
 20
-67.946588
 30
0.0
 10
-94.300500
 20
-70.226650
 30
0.0
 10
-94.299936
 20
-72.506712
 30
0.0
 10
-94.299936
 20
-74.059219
 30
0.0
 10
-94.299936
 20
-75.611726
 30
0.0
 10
-94.299936
 20
-77.164236
 30
0.0
 10
-94.299936
 20
-78.716744
 30
0.0
 10
-94.299936
 20
-80.269251
 30
0.0
 10
-94.299936
 20
-81.821758
 30
0.0
 10
-94.299936
 20
-83.374268
 30
0.0
 10
-94.299936
 20
-84.926775
 30
0.0
 10
-94.299936
 20
-86.479283
 30
0.0
 10
-94.299936
 20
-88.031790
 30
0.0
 10
-94.299936
 20
-89.584300
 30
0.0
 10
-94.299936
 20
-91.136807
 30
0.0
 10
-94.299936
 20
-92.689315
 30
0.0
 10
-94.299936
 20
-94.241822
 30
0.0
 10
-94.299936
 20
-95.794332
 30
0.0
 10
-94.299936
 20
-97.346839
 30
0.0
 10
-94.299936
 20
-98.899346
 30
0.0
 10
-94.299936
 20
-100.451854
 30
0.0
 10
-94.299936
 20
-102.004364
 30
0.0
 10
-94.299936
 20
-103.556871
 30
0.0
 10
-94.299936
 20
-105.109378
 30
0.0
 10
-94.299936
 20
-106.661888
 30
0.0
 10
-94.299936
 20
-108.214396
 30
0.0
 10
-94.299936
 20
-109.766903
 30
0.0
 10
-94.299936
 20
-111.319410
 30
0.0
 10
-94.299936
 20
-112.871920
 30
0.0
 10
-94.299936
 20
-114.424428
 30
0.0
 10
-94.299936
 20
-115.976935
 30
0.0
 10
-94.299936
 20
-117.529442
 30
0.0
 10
-94.299936
 20
-119.081952
 30
0.0
 10
-94.299936
 20
-120.634460
 30
0.0
 10
-94.299936
 20
-122.186967
 30
0.0
 10
-94.283256
 20
-122.204634
 30
0.0
 10
-94.234133
 20
-122.256235
 30
0.0
 10
-94.153982
 20
-122.339607
 30
0.0
 10
-94.044206
 20
-122.452603
 30
0.0
 10
-93.906213
 20
-122.593068
 30
0.0
 10
-93.741409
 20
-122.758851
 30
0.0
 10
-93.551206
 20
-122.947804
 30
0.0
 10
-93.337002
 20
-123.157775
 30
0.0
 10
-93.100212
 20
-123.386614
 30
0.0
 10
-92.842235
 20
-123.632170
 30
0.0
 10
-92.564483
 20
-123.892292
 30
0.0
 10
-92.268362
 20
-124.164828
 30
0.0
 10
-91.955276
 20
-124.447629
 30
0.0
 10
-91.626634
 20
-124.738544
 30
0.0
 10
-91.283838
 20
-125.035422
 30
0.0
 10
-90.928303
 20
-125.336112
 30
0.0
 10
-90.561428
 20
-125.638463
 30
0.0
 10
-90.184625
 20
-125.940325
 30
0.0
 10
-89.799295
 20
-126.239548
 30
0.0
 10
-89.406849
 20
-126.533979
 30
0.0
 10
-89.008692
 20
-126.821468
 30
0.0
 10
-88.606232
 20
-127.099866
 30
0.0
 10
-88.200873
 20
-127.367020
 30
0.0
 10
-87.794025
 20
-127.620780
 30
0.0
 10
-87.387091
 20
-127.858996
 30
0.0
 10
-86.981479
 20
-128.079518
 30
0.0
 10
-86.578598
 20
-128.280193
 30
0.0
 10
-86.179852
 20
-128.458870
 30
0.0
 10
-85.786646
 20
-128.613401
 30
0.0
 10
-85.400390
 20
-128.741632
 30
0.0
 10
-85.022490
 20
-128.841414
 30
0.0
 10
-84.654351
 20
-128.910598
 30
0.0
 10
-83.626172
 20
-129.025290
 30
0.0
 10
-82.605582
 20
-129.069633
 30
0.0
 10
-81.592061
 20
-129.047817
 30
0.0
 10
-80.585089
 20
-128.964025
 30
0.0
 10
-79.584145
 20
-128.822443
 30
0.0
 10
-78.588709
 20
-128.627261
 30
0.0
 10
-77.598260
 20
-128.382662
 30
0.0
 10
-76.612277
 20
-128.092831
 30
0.0
 10
-75.630240
 20
-127.761956
 30
0.0
 10
-74.651628
 20
-127.394224
 30
0.0
 10
-73.675921
 20
-126.993818
 30
0.0
 10
-72.702599
 20
-126.564925
 30
0.0
 10
-71.731140
 20
-126.111735
 30
0.0
 10
-70.761024
 20
-125.638429
 30
0.0
 10
-69.791731
 20
-125.149197
 30
0.0
 10
-68.822740
 20
-124.648221
 30
0.0
 10
-67.853530
 20
-124.139691
 30
0.0
 10
-66.883581
 20
-123.627790
 30
0.0
 10
-65.912372
 20
-123.116708
 30
0.0
 10
-64.939384
 20
-122.610627
 30
0.0
 10
-63.964094
 20
-122.113736
 30
0.0
 10
-62.985983
 20
-121.630219
 30
0.0
 10
-62.004530
 20
-121.164261
 30
0.0
 10
-61.019215
 20
-120.720052
 30
0.0
 10
-60.029517
 20
-120.301776
 30
0.0
 10
-59.034915
 20
-119.913619
 30
0.0
 10
-58.034889
 20
-119.559766
 30
0.0
 10
-57.028919
 20
-119.244405
 30
0.0
 10
-56.016483
 20
-118.971722
 30
0.0
 10
-54.997061
 20
-118.745902
 30
0.0
 10
-53.970133
 20
-118.571133
 30
0.0
 10
-52.935178
 20
-118.451598
 30
0.0
 10
-51.284696
 20
-118.338559
 30
0.0
 10
-49.635965
 20
-118.284722
 30
0.0
 10
-47.988846
 20
-118.286416
 30
0.0
 10
-46.343201
 20
-118.340046
 30
0.0
 10
-44.698891
 20
-118.441934
 30
0.0
 10
-43.055778
 20
-118.588439
 30
0.0
 10
-41.413724
 20
-118.775910
 30
0.0
 10
-39.772588
 20
-119.000700
 30
0.0
 10
-38.132233
 20
-119.259165
 30
0.0
 10
-36.492521
 20
-119.547656
 30
0.0
 10
-34.853312
 20
-119.862522
 30
0.0
 10
-33.214467
 20
-120.200122
 30
0.0
 10
-31.575850
 20
-120.556806
 30
0.0
 10
-29.937320
 20
-120.928925
 30
0.0
 10
-28.298738
 20
-121.312837
 30
0.0
 10
-26.659967
 20
-121.704889
 30
0.0
 10
-25.020868
 20
-122.101437
 30
0.0
 10
-23.381304
 20
-122.498834
 30
0.0
 10
-21.741130
 20
-122.893431
 30
0.0
 10
-20.100217
 20
-123.281583
 30
0.0
 10
-18.458417
 20
-123.659642
 30
0.0
 10
-16.815599
 20
-124.023960
 30
0.0
 10
-15.171618
 20
-124.370893
 30
0.0
 10
-13.526341
 20
-124.696789
 30
0.0
 10
-11.879625
 20
-124.998002
 30
0.0
 10
-10.231332
 20
-125.270888
 30
0.0
 10
-8.581328
 20
-125.511799
 30
0.0
 10
-6.929467
 20
-125.717084
 30
0.0
 10
-5.275617
 20
-125.883101
 30
0.0
 10
-3.619635
 20
-126.006198
 30
0.0
 10
-1.961385
 20
-126.082731
 30
0.0
 10
-0.300728
 20
-126.109063
 30
0.0
 10
-0.291414
 20
-126.109063
 30
0.0
 10
-0.282101
 20
-126.109063
 30
0.0
 10
-0.272788
 20
-126.109063
 30
0.0
 10
-0.263474
 20
-126.109063
 30
0.0
 10
-0.254161
 20
-126.109063
 30
0.0
 10
-0.244848
 20
-126.109063
 30
0.0
 10
-0.235534
 20
-126.109063
 30
0.0
 10
-0.226221
 20
-126.109063
 30
0.0
 10
-0.216908
 20
-126.109063
 30
0.0
 10
-0.207594
 20
-126.109063
 30
0.0
 10
-0.198281
 20
-126.109063
 30
0.0
 10
-0.188968
 20
-126.109063
 30
0.0
 10
-0.179654
 20
-126.109063
 30
0.0
 10
-0.170341
 20
-126.109063
 30
0.0
 10
-0.161028
 20
-126.109063
 30
0.0
 10
-0.151714
 20
-126.109063
 30
0.0
 10
-0.142401
 20
-126.109063
 30
0.0
 10
-0.133088
 20
-126.109063
 30
0.0
 10
-0.123774
 20
-126.109063
 30
0.0
 10
-0.114461
 20
-126.109063
 30
0.0
 10
-0.105148
 20
-126.109063
 30
0.0
 10
-0.095834
 20
-126.109063
 30
0.0
 10
-0.086521
 20
-126.109063
 30
0.0
 10
-0.077208
 20
-126.109063
 30
0.0
 10
-0.067894
 20
-126.109063
 30
0.0
 10
-0.058581
 20
-126.109063
 30
0.0
 10
-0.049268
 20
-126.109063
 30
0.0
 10
-0.039954
 20
-126.109063
 30
0.0
 10
-0.030641
 20
-126.109063
 30
0.0
 10
-0.021328
 20
-126.109063
 30
0.0
 10
-0.012014
 20
-126.109063
 30
0.0
 10
-0.002701
 20
-126.109063
 30
0.0
 10
0.006612
 20
-126.109063
 30
0.0
 10
0.015926
 20
-126.109063
 30
0.0
 10
0.025239
 20
-126.109063
 30
0.0
 10
0.034552
 20
-126.109063
 30
0.0
 10
0.043866
 20
-126.109063
 30
0.0
 10
0.053179
 20
-126.109063
 30
0.0
 10
0.062492
 20
-126.109063
 30
0.0
 10
0.071806
 20
-126.109063
 30
0.0
 10
0.081119
 20
-126.109063
 30
0.0
 10
0.090432
 20
-126.109063
 30
0.0
 10
0.099746
 20
-126.109063
 30
0.0
 10
0.109059
 20
-126.109063
 30
0.0
 10
0.118372
 20
-126.109063
 30
0.0
 10
0.127686
 20
-126.109063
 30
0.0
 10
0.136999
 20
-126.109063
 30
0.0
 10
0.146312
 20
-126.109063
 30
0.0
 10
0.155626
 20
-126.109063
 30
0.0
 10
0.164939
 20
-126.109063
 30
0.0
 10
0.174252
 20
-126.109063
 30
0.0
 10
0.183566
 20
-126.109063
 30
0.0
 10
0.192879
 20
-126.109063
 30
0.0
 10
0.202192
 20
-126.109063
 30
0.0
 10
0.211506
 20
-126.109063
 30
0.0
 10
0.220819
 20
-126.109063
 30
0.0
 10
0.230132
 20
-126.109063
 30
0.0
 10
0.239446
 20
-126.109063
 30
0.0
 10
0.248759
 20
-126.109063
 30
0.0
 10
0.258072
 20
-126.109063
 30
0.0
 10
0.267386
 20
-126.109063
 30
0.0
 10
0.276699
 20
-126.109063
 30
0.0
 10
0.286012
 20
-126.109063
 30
0.0
 10
0.299178
 20
-126.109091
 30
0.0
  0
ENDSEC
  0
SECTION
  2
OBJECTS
  0
DICTIONARY
  5
C
330
0
100
AcDbDictionary
  3
ACAD_GROUP
350
D
  3
ACAD_MLINESTYLE
350
17
  0
DICTIONARY
  5
D
330
C
100
AcDbDictionary
  0
DICTIONARY
  5
1A
330
C
100
AcDbDictionary
  0
DICTIONARY
  5
17
330
C
100
AcDbDictionary
  3
STANDARD
350
18
  0
DICTIONARY
  5
19
330
C
100
AcDbDictionary
  0
ENDSEC
  0
EOF
