<?xml version="1.0" encoding="UTF-8" standalone="no"?>
<!-- Created with Inkscape (http://www.inkscape.org/) -->

<svg
   xmlns:slic3r="http://slic3r.org/namespaces/slic3r"
   xmlns:dc="http://purl.org/dc/elements/1.1/"
   xmlns:cc="http://creativecommons.org/ns#"
   xmlns:rdf="http://www.w3.org/1999/02/22-rdf-syntax-ns#"
   xmlns:svg="http://www.w3.org/2000/svg"
   xmlns="http://www.w3.org/2000/svg"
   xmlns:sodipodi="http://sodipodi.sourceforge.net/DTD/sodipodi-0.dtd"
   xmlns:inkscape="http://www.inkscape.org/namespaces/inkscape"
   width="744.09448819"
   height="1052.3622047"
   id="svg6060"
   version="1.1"
   inkscape:version="0.48.4 r9939"
   sodipodi:docname="New document 22">
  <defs
     id="defs6062" />
  <sodipodi:namedview
     id="base"
     pagecolor="#ffffff"
     bordercolor="#666666"
     borderopacity="1.0"
     inkscape:pageopacity="0.0"
     inkscape:pageshadow="2"
     inkscape:zoom="0.35"
     inkscape:cx="375"
     inkscape:cy="520"
     inkscape:document-units="px"
     inkscape:current-layer="layer1"
     showgrid="false"
     inkscape:window-width="472"
     inkscape:window-height="383"
     inkscape:window-x="65"
     inkscape:window-y="486"
     inkscape:window-maximized="0" />
  <metadata
     id="metadata6065">
    <rdf:RDF>
      <cc:Work
         rdf:about="">
        <dc:format>image/svg+xml</dc:format>
        <dc:type
           rdf:resource="http://purl.org/dc/dcmitype/StillImage" />
        <dc:title></dc:title>
      </cc:Work>
    </rdf:RDF>
  </metadata>
  <g
     inkscape:label="Layer 1"
     inkscape:groupmode="layer"
     id="layer1">
    <g
       transform="translate(-83.271733,575.31107)"
       id="g3843">
      <polygon
         transform="matrix(3.54331,0,0,3.54331,-251.56739,-269.58002)"
         slic3r:type="contour"
         points="158.42415,1.480997 158.45153,1.543997 158.49715,1.648998 158.52265,1.710869 158.56516,1.813997 158.58916,1.873622 158.62915,1.972998 158.65128,2.031502 158.69162,2.138177 158.84753,2.146246 159.10971,2.159819 159.14228,2.095125 159.18915,2.001998 159.21953,1.945373 159.27015,1.851006 159.30203,1.792125 159.35515,1.693998 159.3889,1.633998 159.44515,1.533997 159.48078,1.473245 159.54015,1.371998 159.57803,1.309373 159.64116,1.204997 159.6809,1.141246 159.74715,1.034998 159.78878,0.970125 159.85815,0.861997 159.90203,0.795998 159.97516,0.685998 160.02128,0.619245 160.09815,0.507998 160.14578,0.439749 160.22516,0.325998 160.27578,0.256997 160.36015,0.142005 160.55778,0.16263 160.88715,0.197005 160.9224,0.275381 160.98116,0.406006 161.01378,0.482502 161.06815,0.609997 161.09928,0.684997 161.15115,0.810005 161.1804,0.883502 161.22915,1.005998 161.25653,1.078373 161.30215,1.199005 161.32765,1.269501 161.37016,1.386997 161.39416,1.455997 161.43415,1.570998 161.45628,1.638125 161.49315,1.749998 161.51415,1.815621 161.54915,1.924998 161.5679,1.989125 161.59915,2.095997 161.61677,2.157869 161.64615,2.260998 161.6619,2.321373 161.69064,2.431552 161.8454,2.456125 162.10485,2.497314 162.1439,2.436125 162.20015,2.347997 162.23615,2.29475 162.29615,2.205997 162.33403,2.150878 162.39715,2.059005 162.4369,2.003126 162.50315,1.909997 162.61515,1.757997 162.6594,1.69987 162.73315,1.602998 162.7789,1.54375 162.85515,1.444997 162.9039,1.384621 162.98515,1.283997 163.0354,1.223246 163.11915,1.121998 163.17203,1.060125 163.26015,0.956998 163.3149,0.894373 163.40615,0.789998 163.46353,0.726245 163.55915,0.619997 163.75378,0.661246 164.07815,0.729997 164.10477,0.811749 164.14915,0.948006 164.17353,1.027501 164.21415,1.159998 164.2374,1.237621 164.27615,1.366998 164.29753,1.443501 164.33315,1.570997 164.35265,1.645621 164.38515,1.769997 164.40315,1.842749 164.43315,1.963998 164.45003,2.035245 164.47815,2.153998 164.49315,2.222997 164.51815,2.338005 164.53203,2.405509 164.55515,2.518006 164.56715,2.583629 164.58715,2.692998 164.61615,2.861998 164.6259,2.923869 164.64372,3.03695 164.79465,3.077245 165.04787,3.144853 165.09315,3.088245 165.15815,3.006998 165.1994,2.95787 165.26815,2.875998 165.31165,2.824998 165.38415,2.740005 165.42953,2.688629 165.50515,2.602998 165.55315,2.550502 165.63315,2.463005 165.68303,2.409749 165.76615,2.320998 165.8179,2.266998 165.90415,2.176997 165.9589,2.122254 166.05015,2.031005 166.10677,1.975502 166.20115,1.882997 166.25965,1.827126 166.35715,1.733997 166.41828,1.677373 166.52015,1.582998 166.58428,1.525621 166.69115,1.429997 166.88015,1.491501 167.19515,1.593998 167.24315,1.817997 167.25928,1.89975 167.28615,2.035998 167.30078,2.115502 167.32515,2.247997 167.33828,2.326374 167.36015,2.456998 167.37215,2.533126 167.39215,2.659997 167.40228,2.734245 167.41915,2.857998 167.42853,2.930374 167.44415,3.050997 167.45203,3.121502 167.46515,3.239005 167.47153,3.307253 167.48215,3.421005 167.4874,3.48775 167.49615,3.598998 167.50027,3.663125 167.50715,3.769998 167.51015,3.832621 167.51565,3.947329 167.62964,3.990755 167.90757,4.096634 167.95803,4.045749 168.03115,3.971997 168.07765,3.926998 168.15515,3.852006 168.20353,3.805877 168.28415,3.728998 168.33478,3.682494 168.41915,3.604998 168.47203,3.558125 168.56015,3.479997 168.61528,3.432373 168.70715,3.352997 168.86015,3.223997 168.92015,3.175245 169.02015,3.093997 169.0824,3.044877 169.18615,2.963006 169.25027,2.913502 169.35715,2.830998 169.42353,2.781126 169.53415,2.698006 169.6039,2.647749 169.72015,2.563997 169.90165,2.644622 170.20415,2.778997 170.21353,2.864501 170.22915,3.006998 170.23665,3.089869 170.24915,3.227997 170.26515,3.443998 170.2704,3.522749 170.27915,3.653997 170.2829,3.731245 170.28915,3.859998 170.2914,3.934997 170.29515,4.060006 170.29665,4.132757 170.29915,4.254006 170.2999,4.324877 170.30115,4.442998 170.2999,4.557998 170.29915,4.626997 170.29603,4.738246 170.29415,4.804998 170.2904,4.911878 170.28815,4.976005 170.2819,5.080382 170.27757,5.152737 170.41703,5.223749 170.65162,5.343197 170.70753,5.297254 170.78815,5.230997 170.83877,5.191246 170.92315,5.124998 170.97603,5.084126 171.06416,5.015997 171.11928,4.975125 171.21115,4.907006 171.2689,4.86575 171.36515,4.796997 171.42515,4.75575 171.52515,4.686997 171.58703,4.644621 171.69016,4.574005 171.75503,4.53163 171.86315,4.461005 171.9299,4.418629 172.04115,4.347998 172.11015,4.305621 172.22515,4.234997 172.29677,4.192246 172.41615,4.120997 172.49078,4.078246 172.61515,4.006998 172.7869,4.106373 173.07315,4.271998 173.07352,4.357869 173.07415,4.500998 173.07228,4.639749 173.07115,4.722997 173.0674,4.857998 173.06516,4.938997 173.05953,5.070869 173.05615,5.149998 173.04927,5.27875 173.04515,5.355997 173.03578,5.480997 173.03015,5.555998 173.01567,5.730644 173.01415,5.748998 173.0029,5.866494 172.99615,5.936998 172.98303,6.05075 172.97515,6.118997 172.96015,6.22963 172.95115,6.296005 172.93615,6.402254 172.92715,6.465998 172.91028,6.569126 172.89873,6.639672 173.03003,6.724997 173.25027,6.868124 173.31065,6.82887 173.39816,6.771997 173.45253,6.73787 173.54315,6.680997 173.60015,6.64575 173.69515,6.587006 173.7544,6.552126 173.85315,6.493997 173.91465,6.459125 174.01715,6.400998 174.08128,6.36575 174.18815,6.306998 174.25415,6.27175 174.36415,6.213005 174.43278,6.177749 174.54715,6.118997 174.61802,6.08375 174.73615,6.024998 174.80928,5.990125 174.93115,5.931998 175.0069,5.896749 175.13316,5.838005 175.34216,5.745997 175.50303,5.862622 175.77116,6.056997 175.75678,6.199494 175.74816,6.284997 175.73128,6.422493 175.72116,6.504998 175.70366,6.639374 175.69316,6.719997 175.67378,6.849998 175.66216,6.927997 175.64152,7.055494 175.62915,7.131997 175.60728,7.255125 175.59416,7.328998 175.57103,7.448374 175.55715,7.519997 175.5334,7.635621 175.51915,7.704998 175.49478,7.81687 175.48016,7.883997 175.45391,7.992125 175.43816,8.056997 175.41191,8.16075 175.39616,8.222997 175.36865,8.323622 175.34927,8.394528 175.47066,8.492878 175.67444,8.657984 175.73965,8.624493 175.83216,8.576997 175.88991,8.548493 175.98615,8.500998 176.04653,8.472126 176.14716,8.423997 176.20978,8.395494 176.31416,8.347997 176.37903,8.31987 176.48715,8.272997 176.55427,8.244502 176.66616,8.197005 176.73553,8.168878 176.85115,8.121997 176.92352,8.09387 177.04415,8.046997 177.1184,8.019621 177.24215,7.973998 177.31828,7.946997 177.44515,7.901997 177.5239,7.874997 177.65515,7.829998 177.7369,7.80375 177.87316,7.759997 178.0209,7.89275 178.26715,8.114005 178.23778,8.254005 178.22016,8.338006 178.1889,8.473622 178.17015,8.554997 178.1389,8.686245 178.12016,8.764998 178.08766,8.892494 178.06816,8.968997 178.0344,9.093374 178.01415,9.167998 177.95816,9.359998 177.92316,9.476869 177.90216,9.546997 177.86653,9.659502 177.84516,9.727006 177.80828,9.835117 177.78616,9.89999 177.74928,10.004997 177.72715,10.067997 177.69028,10.168621 177.66815,10.228997 177.63003,10.326494 177.60378,10.39363 177.90052,10.690373 177.96766,10.664125 178.06516,10.625998 178.12553,10.603869 178.22615,10.566997 178.28915,10.54487 178.39415,10.507998 178.45903,10.485877 178.56716,10.449005 178.63466,10.42763 178.74715,10.392006 178.81728,10.371005 178.93415,10.336006 179.00615,10.315006 179.12615,10.279997 179.20077,10.259749 179.32515,10.226005 179.40165,10.206502 179.52915,10.173998 179.6079,10.155245 179.73915,10.123997 179.82052,10.105254 179.95615,10.074006 180.04015,10.056374 180.18016,10.026997 180.31291,10.17475 180.53416,10.421005 180.4904,10.557253 180.46415,10.638998 180.41915,10.770245 180.39215,10.848997 180.34715,10.975869 180.32015,11.051998 180.27453,11.175749 180.24716,11.249997 180.20028,11.370622 180.17215,11.442998 180.12528,11.558629 180.09716,11.628005 180.04966,11.739878 180.02116,11.806997 179.97428,11.915126 179.94615,11.979997 179.89865,12.084374 179.87016,12.146997 179.82203,12.247629 179.79315,12.308006 179.74565,12.404254 179.71716,12.462005 179.66965,12.554501 179.63655,12.618951 179.73503,12.740501 179.90043,12.944655 179.97053,12.925494 180.07115,12.897997 180.1334,12.882245 180.23715,12.855998 180.30203,12.840246 180.41016,12.813998 180.47728,12.799373 180.58915,12.774998 180.65852,12.76075 180.77416,12.736997 180.84578,12.723126 180.96516,12.699997 181.03903,12.68687 181.16216,12.664997 181.23865,12.652621 181.36615,12.631997 181.44415,12.620374 181.57415,12.601006 181.65478,12.590502 181.78915,12.573006 181.87166,12.562877 182.00915,12.546005 182.09465,12.537373 182.23715,12.522997 182.35378,12.683869 182.54816,12.951997 182.49066,13.082622 182.45616,13.160997 182.3974,13.287246 182.36215,13.362997 182.30402,13.484877 182.26915,13.558006 182.2104,13.676125 182.17515,13.746998 182.1164,13.861374 182.08116,13.929997 182.0224,14.039998 181.98715,14.105998 181.9284,14.212869 181.89315,14.276998 181.83503,14.379493 181.80016,14.440997 181.74203,14.53975 181.70716,14.598998 181.6484,14.693998 181.61315,14.750997 181.55627,14.841622 181.52216,14.895998 181.46528,14.983493 181.42603,15.043876 181.51116,15.174869 181.65447,15.395419 181.72503,15.38387 181.82816,15.366998 181.89191,15.357997 181.99815,15.342998 182.06453,15.333997 182.17515,15.318998 182.2434,15.311125 182.35716,15.297998 182.42765,15.291253 182.54515,15.280006 182.61752,15.274005 182.73815,15.263997 182.81315,15.258374 182.93816,15.248997 183.0154,15.244878 183.14415,15.238006 183.22328,15.234629 183.35515,15.228997 183.43616,15.226749 183.57115,15.222997 183.6544,15.221869 183.79315,15.219997 183.87903,15.220373 184.02216,15.220997 184.12153,15.392749 184.28716,15.678997 184.21591,15.803373 184.17316,15.878006 184.1019,15.997374 184.05915,16.068998 183.98852,16.184005 183.94615,16.253005 183.87553,16.364253 183.83316,16.430998 183.76253,16.539125 183.72016,16.603998 183.64953,16.707125 183.60716,16.768997 183.5384,16.868998 183.49716,16.928997 183.4284,17.025246 183.38716,17.082997 183.27814,17.230009 183.21002,17.318126 183.16915,17.370998 183.1029,17.455374 183.06315,17.505998 182.99691,17.586621 182.95095,17.642545 183.0219,17.78187 183.14141,18.016589 183.21378,18.012253 183.31815,18.005997 183.38228,18.003749 183.48915,17.999998 183.5559,17.998125 183.66715,17.994997 183.73615,17.994246 183.85115,17.992997 183.92203,17.99375 184.04015,17.994997 184.11291,17.996501 184.23416,17.998998 184.30916,18.001245 184.43415,18.004998 184.51139,18.008749 184.64015,18.014998 184.7189,18.020245 184.85015,18.028998 184.93115,18.034998 185.06616,18.045005 185.14903,18.052502 185.28716,18.064997 185.37265,18.074373 185.51515,18.089998 185.59578,18.271501 185.73016,18.574005 185.6464,18.690253 185.59616,18.759997 185.51303,18.870621 185.46315,18.936998 185.38065,19.043869 185.33115,19.107998 185.24928,19.21175 185.20015,19.273997 185.1189,19.374006 185.07015,19.434005 184.98953,19.52963 184.94116,19.587006 184.86178,19.678877 184.81415,19.733998 184.73603,19.822126 184.68915,19.874998 184.61166,19.959374 184.56516,20.009997 184.48828,20.090622 184.44216,20.138997 184.36715,20.216493 184.32215,20.262997 184.2484,20.336126 184.19652,20.387568 184.25252,20.533254 184.3468,20.778501 184.41978,20.781997 184.52416,20.786997 184.58828,20.791125 184.69515,20.797998 184.7619,20.803245 184.87315,20.811997 184.9414,20.818373 185.05516,20.828997 185.12566,20.836878 185.24316,20.850006 185.31553,20.859381 185.43615,20.874998 185.5104,20.885125 185.63416,20.901998 185.71027,20.913997 185.83715,20.934005 185.91552,20.947126 186.04615,20.968998 186.12565,20.983621 186.25816,21.007998 186.3399,21.024125 186.47615,21.050998 186.56015,21.068997 186.70016,21.099005 186.76165,21.288005 186.86415,21.602997 186.76852,21.709869 186.71115,21.773997 186.61677,21.87587 186.56015,21.936997 186.46703,22.034494 186.41116,22.092998 186.31866,22.187373 186.26316,22.243997 186.11716,22.389997 186.02715,22.476246 185.97315,22.527998 185.8844,22.611125 185.83115,22.660998 185.74366,22.740997 185.69116,22.788997 185.55416,22.909997 185.46915,22.982493 185.41815,23.025997 185.33628,23.09475 185.28716,23.135997 185.2059,23.201005 185.14909,23.246452 185.18978,23.397125 185.25823,23.650593 185.32902,23.66175 185.43215,23.677997 185.49552,23.68887 185.60115,23.706997 185.66678,23.718998 185.77615,23.739005 185.84366,23.752878 185.95615,23.775997 186.02516,23.790998 186.14015,23.815997 186.2114,23.832869 186.33016,23.860997 186.40291,23.878998 186.52416,23.908997 186.59878,23.928502 186.72315,23.961005 186.79965,23.982382 186.92716,24.018006 187.00478,24.041253 187.13416,24.079998 187.21366,24.104373 187.34616,24.144998 187.42791,24.171622 187.56416,24.215997 187.6054,24.410622 187.67416,24.734997 187.5679,24.830622 187.50415,24.887998 187.39977,24.979245 187.33715,25.033997 187.23402,25.122126 187.17215,25.174997 187.0709,25.25875 187.01015,25.309006 186.90952,25.390253 186.84915,25.438997 186.7504,25.515246 186.69116,25.560998 186.59428,25.63475 186.53616,25.678997 186.38416,25.790997 186.29103,25.857246 186.23515,25.896998 186.14328,25.960125 186.08815,25.997998 185.99939,26.057998 185.94615,26.093997 185.85803,26.150254 185.79683,26.189319 185.82128,26.343254 185.86259,26.603503 185.93253,26.62175 186.03315,26.647997 186.09502,26.665622 186.19815,26.694997 186.26228,26.71375 186.36916,26.744998 186.43478,26.765997 186.54415,26.800998 186.61128,26.823126 186.72315,26.859997 186.90715,26.923998 186.97765,26.949502 187.09516,26.991997 187.16753,27.019374 187.28816,27.064998 187.36166,27.094253 187.48416,27.143006 187.55916,27.174134 187.68415,27.226006 187.76065,27.258629 187.88816,27.312998 187.96653,27.348253 188.09716,27.407005 188.11203,27.54955 188.15216,27.934005 188.03716,28.018374 187.96815,28.068998 187.8544,28.148373 187.78616,28.196006 187.67491,28.272877 187.60816,28.318998 187.49815,28.392126 187.43215,28.435997 187.32403,28.505373 187.25915,28.546998 187.15291,28.613246 187.08916,28.652998 186.98478,28.716125 186.92215,28.754006 186.8209,28.813381 186.76015,28.849006 186.66015,28.905253 186.60015,28.938998 186.50203,28.992125 186.44315,29.023998 186.34878,29.074622 186.29215,29.104997 186.19902,29.151869 186.13337,29.184921 186.14178,29.340373 186.15596,29.602519 186.22365,29.628125 186.32115,29.664997 186.38078,29.688998 186.48016,29.728998 186.54203,29.754501 186.64515,29.796997 186.70816,29.824373 186.81316,29.869998 186.87766,29.899254 186.98516,29.948006 187.05115,29.979133 187.16116,30.031006 187.22866,30.063629 187.34115,30.117997 187.41016,30.152877 187.52516,30.211006 187.59528,30.247758 187.71215,30.309005 187.7834,30.34763 187.90216,30.411998 187.97491,30.452501 188.09616,30.519998 188.1704,30.563125 188.29415,30.634997 188.29415,31.164997 188.1704,31.236877 188.09616,31.280005 187.97491,31.347502 187.90216,31.387997 187.7834,31.452373 187.71215,31.490998 187.59528,31.552245 187.52516,31.588998 187.41016,31.647126 187.34115,31.682006 187.22866,31.736374 187.16116,31.768997 186.98516,31.852005 186.87766,31.90075 186.81316,31.929997 186.70816,31.97563 186.64516,32.003005 186.54203,32.045502 186.48016,32.071005 186.38078,32.110998 186.32115,32.134998 186.22365,32.17187 186.15597,32.197473 186.1424,32.459621 186.13433,32.61556 186.19902,32.648126 186.29215,32.694998 186.34878,32.725373 186.44315,32.775997 186.50203,32.80787 186.60015,32.860998 186.66015,32.89475 186.76015,32.950997 186.8209,32.98663 186.92215,33.046005 186.98478,33.083878 187.08916,33.146998 187.15291,33.18675 187.25915,33.253005 187.32403,33.29463 187.43215,33.364005 187.49815,33.407878 187.60816,33.480997 187.67491,33.527126 187.78616,33.603997 187.8544,33.651622 187.96815,33.730997 188.03716,33.781622 188.15216,33.865998 188.11778,34.195373 188.09716,34.393001 187.96653,34.45175 187.88816,34.486997 187.76065,34.541374 187.68415,34.574002 187.55916,34.625878 187.48416,34.657001 187.36166,34.705749 187.28815,34.734998 187.16753,34.780625 187.09516,34.808002 186.97765,34.850497 186.90715,34.875997 186.72315,34.939997 186.61128,34.976874 186.54415,34.998997 186.43478,35.033998 186.36916,35.054997 186.26228,35.086249 186.19815,35.105001 186.09502,35.134373 186.03315,35.151998 185.93253,35.178245 185.86259,35.196492 185.82128,35.456749 185.79683,35.610689 185.85803,35.649749 185.94615,35.705998 185.99939,35.741997 186.08815,35.801997 186.14327,35.839873 186.23516,35.902998 186.29103,35.942749 186.38416,36.008998 186.53616,36.120997 186.59428,36.16525 186.69116,36.239001 186.7504,36.284749 186.84915,36.360998 186.90952,36.40975 187.01016,36.491002 187.0709,36.541249 187.17215,36.624997 187.23402,36.677873 187.33715,36.766002 187.39977,36.820749 187.50415,36.911997 187.5679,36.969373 187.67416,37.064997 187.6054,37.389373 187.56416,37.583997 187.42791,37.628373 187.34616,37.655001 187.21366,37.695625 187.13415,37.719998 187.00478,37.75875 186.92716,37.782001 186.79965,37.817625 186.72315,37.839002 186.59878,37.871501 186.52416,37.891001 186.40291,37.921001 186.33015,37.939002 186.2114,37.967126 186.14015,37.983997 186.02516,38.008997 185.95615,38.023998 185.84366,38.047125 185.77615,38.061002 185.66678,38.080997 185.60115,38.092998 185.49552,38.111122 185.43215,38.121998 185.32902,38.138245 185.2572,38.149565 185.1894,38.403502 185.1493,38.553722 185.2059,38.599001 185.28716,38.663998 185.33628,38.705249 185.41815,38.773997 185.46915,38.817497 185.55416,38.889997 185.60553,38.935373 185.69116,39.010998 185.74366,39.058998 185.83115,39.138997 185.8844,39.188874 185.97315,39.272001 186.02715,39.323753 186.11716,39.410002 186.17191,39.464749 186.26316,39.555998 186.31866,39.612622 186.41116,39.706997 186.46703,39.765497 186.56015,39.863002 186.61677,39.924125 186.71115,40.025998 186.76852,40.090126 186.86415,40.197001 186.76165,40.512002 186.70016,40.701001 186.56015,40.730997 186.47615,40.748997 186.3399,40.775874 186.25816,40.791997 186.12565,40.816374 186.04615,40.830998 185.91552,40.852874 185.83715,40.866002 185.71027,40.885998 185.63415,40.897998 185.5104,40.914874 185.43615,40.925001 185.31553,40.940626 185.24316,40.950001 185.12566,40.963126 185.05516,40.970997 184.9414,40.981626 184.87315,40.988002 184.7619,40.99675 184.69515,41.002001 184.58828,41.008874 184.52416,41.012997 184.41978,41.018002 184.34682,41.021497 184.25315,41.267374 184.19751,41.413415 184.2484,41.463873 184.32215,41.536997 184.36715,41.583497 184.44216,41.661002 184.48828,41.709373 184.56516,41.789997 184.61166,41.840626 184.68915,41.925001 184.73603,41.977874 184.81416,42.065998 184.86178,42.121125 184.94116,42.213001 184.98953,42.270378 185.07015,42.366002 185.1189,42.426002 185.20015,42.525998 185.24928,42.588249 185.33115,42.691997 185.38065,42.756125 185.46315,42.863001 185.51303,42.929373 185.59616,43.039998 185.6464,43.10975 185.73016,43.225998 185.59578,43.528498 185.51515,43.709997 185.37265,43.725625 185.28716,43.735006 185.14903,43.747501 185.06616,43.754997 184.93115,43.765002 184.85015,43.771002 184.7189,43.77975 184.64015,43.785001 184.51139,43.79125 184.43415,43.794997 184.30916,43.798746 184.23416,43.800997 184.11291,43.803502 184.04015,43.805002 183.92203,43.806249 183.85115,43.807001 183.73615,43.805753 183.66715,43.805001 183.5559,43.801877 183.48915,43.800001 183.38228,43.79625 183.31816,43.793997 183.21378,43.787749 183.14141,43.783418 183.0219,44.018125 182.95095,44.157455 182.99691,44.213373 183.06316,44.293998 183.1029,44.344625 183.16915,44.429001 183.21002,44.481878 183.27815,44.570002 183.31903,44.625126 183.38716,44.717001 183.4284,44.774749 183.49716,44.870998 183.5384,44.930997 183.60716,45.030997 183.64953,45.092873 183.72016,45.195998 183.76253,45.260874 183.83316,45.369001 183.87553,45.435753 183.94615,45.547002 183.98852,45.616001 184.05915,45.730998 184.1019,45.802625 184.17316,45.922002 184.21591,45.996625 184.28716,46.120997 184.12153,46.407246 184.02216,46.578997 183.87903,46.579622 183.79315,46.579997 183.65439,46.578125 183.57115,46.577001 183.43616,46.57325 183.35516,46.570998 183.22328,46.565373 183.14415,46.562001 183.0154,46.555126 182.93816,46.550998 182.81315,46.541625 182.73815,46.536001 182.5635,46.521523 182.54515,46.520001 182.35716,46.501993 182.2434,46.48887 182.17515,46.480997 182.06453,46.466002 181.99816,46.457002 181.89191,46.441997 181.82816,46.432997 181.72503,46.416122 181.65447,46.404577 181.51116,46.625122 181.42603,46.756121 181.46528,46.816502 181.52216,46.903998 181.55628,46.958374 181.61315,47.049001 181.6484,47.106001 181.70716,47.201002 181.74203,47.260249 181.80015,47.358997 181.89315,47.522998 181.92839,47.587125 181.98715,47.694002 182.0224,47.760002 182.08116,47.869998 182.1164,47.938621 182.17516,48.052998 182.26915,48.241998 182.30402,48.315126 182.36215,48.437001 182.3974,48.512754 182.45616,48.639002 182.49066,48.717377 182.54816,48.848002 182.35378,49.116126 182.23715,49.277002 182.09465,49.262626 182.00916,49.253998 181.87166,49.237121 181.78915,49.226997 181.65478,49.209498 181.57415,49.198998 181.44415,49.179621 181.36615,49.167998 181.23865,49.147374 181.16216,49.134998 181.03903,49.113121 180.96516,49.099998 180.84578,49.076873 180.77416,49.063002 180.65852,49.039249 180.58915,49.024997 180.47728,49.00063 180.41016,48.986005 180.30203,48.959753 180.23715,48.944001 180.1334,48.917754 180.07115,48.902001 179.97053,48.874498 179.89963,48.85512 179.73403,49.059498 179.63616,49.180288 179.66965,49.245498 179.71715,49.337997 179.74565,49.395749 179.79315,49.491998 179.82203,49.552373 179.87016,49.652998 179.89865,49.715625 179.94615,49.820002 179.97428,49.884877 180.02115,49.993001 180.04966,50.060126 180.09715,50.171993 180.12528,50.24137 180.17215,50.356997 180.20028,50.429374 180.24715,50.550001 180.27453,50.624249 180.32015,50.747998 180.34715,50.824125 180.39215,50.951002 180.41915,51.029754 180.46415,51.161001 180.4904,51.24275 180.53416,51.378997 180.31291,51.625245 180.18016,51.772997 180.04016,51.743622 179.95615,51.725997 179.82052,51.694749 179.73915,51.675998 179.6079,51.64475 179.52915,51.626002 179.40165,51.593498 179.32515,51.573997 179.20077,51.540249 179.12615,51.520001 179.00615,51.484998 178.93415,51.463997 178.81728,51.428998 178.74715,51.407997 178.63466,51.372373 178.56716,51.350998 178.45903,51.314126 178.39415,51.292001 178.28915,51.255125 178.22615,51.232998 178.12553,51.196125 178.06516,51.174002 177.96766,51.135874 177.90052,51.109622 177.7144,51.295749 177.60378,51.406368 177.66815,51.570997 177.69028,51.631374 177.72715,51.731998 177.78616,51.899997 177.80828,51.964873 177.84516,52.072997 177.86653,52.140497 177.90216,52.252998 177.92316,52.323121 177.95816,52.439997 177.97916,52.511998 178.01415,52.632001 178.0344,52.706625 178.06816,52.830998 178.08766,52.907498 178.12016,53.035001 178.1389,53.113749 178.17015,53.244998 178.1889,53.326374 178.22016,53.461997 178.23778,53.545998 178.26715,53.685998 178.0209,53.907245 177.87316,54.039997 177.7369,53.996249 177.65515,53.969998 177.5239,53.924998 177.44515,53.897998 177.31827,53.853001 177.24215,53.826002 177.11839,53.780373 177.04415,53.752997 176.92352,53.706122 176.85115,53.677997 176.73553,53.631121 176.66616,53.602998 176.55428,53.555502 176.48715,53.527001 176.37903,53.480125 176.31416,53.452002 176.20978,53.404501 176.14716,53.376002 175.98616,53.299002 175.88991,53.251501 175.83216,53.223002 175.73965,53.175501 175.67519,53.142403 175.47066,53.308125 175.34949,53.406296 175.36865,53.476378 175.39616,53.577002 175.41191,53.639253 175.43816,53.743002 175.45391,53.807877 175.48015,53.916001 175.49478,53.983126 175.51915,54.094997 175.5334,54.164374 175.55715,54.279998 175.57103,54.351621 175.59416,54.470997 175.60727,54.544873 175.62915,54.668001 175.64152,54.744502 175.66216,54.871998 175.67378,54.949997 175.69316,55.079998 175.70366,55.160621 175.72116,55.294997 175.73128,55.377497 175.74816,55.515002 175.75678,55.600502 175.77116,55.743001 175.50303,55.937373 175.34216,56.053997 175.21153,55.996498 175.13315,55.961997 175.0069,55.90325 174.93115,55.868001 174.80928,55.809873 174.73615,55.774998 174.61802,55.716249 174.54715,55.681002 174.43277,55.622249 174.36415,55.586998 174.25416,55.52825 174.18815,55.493001 174.08128,55.434249 174.01715,55.398998 173.91465,55.340874 173.85315,55.306001 173.77899,55.262346 173.69515,55.212997 173.60015,55.15425 173.54315,55.119001 173.45253,55.062125 173.39816,55.028002 173.31065,54.971125 173.25027,54.931875 173.03003,55.074998 172.89873,55.160323 172.91028,55.230874 172.92715,55.334001 172.93615,55.397749 172.95115,55.503998 172.96015,55.570373 172.97515,55.681002 172.98303,55.749249 172.99616,55.862998 173.0029,55.933497 173.01415,56.050998 173.02015,56.123373 173.03015,56.244002 173.03578,56.319002 173.04515,56.444002 173.04927,56.521249 173.05615,56.649997 173.05953,56.729126 173.06516,56.861002 173.0674,56.942001 173.07115,57.077002 173.07227,57.160253 173.07415,57.299001 173.07352,57.442125 173.07315,57.528001 172.7869,57.693626 172.61515,57.793002 172.49078,57.721749 172.41615,57.678998 172.29677,57.607749 172.22515,57.564998 172.11015,57.494373 172.04115,57.452002 171.9299,57.381373 171.86315,57.338998 171.75503,57.268373 171.69016,57.225997 171.58703,57.155373 171.52515,57.112998 171.42515,57.04425 171.36515,57.002997 171.2689,56.93425 171.21115,56.892997 171.11928,56.824874 171.06416,56.784002 170.97603,56.715877 170.92315,56.675001 170.83877,56.608753 170.78815,56.569001 170.70753,56.50275 170.65161,56.456801 170.41703,56.576246 170.27757,56.647258 170.2819,56.719621 170.28815,56.823998 170.2904,56.888121 170.29415,56.994998 170.29603,57.061749 170.29915,57.173002 170.2999,57.242001 170.30115,57.356998 170.2999,57.475121 170.29915,57.545997 170.29665,57.667246 170.29515,57.739998 170.2914,57.864998 170.28915,57.939997 170.2829,58.06875 170.27915,58.146001 170.2704,58.277249 170.26515,58.355998 170.24915,58.571997 170.23665,58.710125 170.22915,58.793001 170.21353,58.935502 170.20415,59.021002 169.90165,59.155377 169.72015,59.236001 169.6039,59.15225 169.53415,59.101998 169.42352,59.018874 169.35715,58.968997 169.25027,58.886497 169.18615,58.836998 169.0824,58.755122 169.02015,58.705997 168.92015,58.624749 168.86015,58.576001 168.76453,58.495374 168.70715,58.446997 168.61528,58.367626 168.56015,58.320001 168.47203,58.241877 168.41915,58.195002 168.33478,58.117497 168.28415,58.070997 168.20353,57.994121 168.15515,57.947997 168.03115,57.827998 167.95803,57.754249 167.90659,57.702371 167.6614,57.796626 167.51565,57.852658 167.51015,57.967373 167.50715,58.029997 167.50028,58.136873 167.49615,58.201001 167.4874,58.31225 167.48215,58.378997 167.47153,58.492746 167.46515,58.560997 167.45203,58.678501 167.44415,58.749002 167.42853,58.869625 167.41915,58.941997 167.40228,59.06575 167.39215,59.140001 167.37215,59.266874 167.36015,59.342998 167.33828,59.473621 167.32515,59.551997 167.30077,59.684502 167.28615,59.764002 167.25928,59.90025 167.24315,59.981998 167.19515,60.205997 166.69115,60.369998 166.58428,60.274374 166.52015,60.216997 166.41828,60.122622 166.35715,60.065997 166.25965,59.972873 166.20115,59.917002 166.14277,59.859779 166.14277,59.859778 166.05015,59.768997 165.90415,59.622998 165.8179,59.533001 165.76615,59.479001 165.68303,59.39025 165.63315,59.336998 165.50515,59.196998 165.38415,59.059998 165.31165,58.975001 165.26815,58.924002 165.1994,58.842126 165.15815,58.793001 165.09315,58.71175 165.0477,58.654934 164.79427,58.723378 164.64356,58.764082 164.6259,58.876125 164.61615,58.938006 164.59802,59.043625 164.58715,59.106997 164.56715,59.216373 164.55515,59.281998 164.53203,59.394497 164.51815,59.461998 164.49315,59.577001 164.47815,59.646001 164.45912,59.726351 164.43315,59.835998 164.40315,59.957245 164.38515,60.029998 164.35265,60.154374 164.33315,60.229001 164.29753,60.356498 164.27615,60.432997 164.2374,60.562374 164.21415,60.640002 164.17353,60.772497 164.14915,60.851998 164.10477,60.98825 164.07815,61.070001 163.75378,61.138749 163.55915,61.180001 163.46352,61.073749 163.40615,61.009997 163.3149,60.905621 163.26015,60.842997 163.17203,60.739873 163.11915,60.677997 163.0354,60.576749 162.98515,60.515998 162.9039,60.415374 162.85515,60.355002 162.7789,60.256249 162.73315,60.196998 162.6594,60.100126 162.61515,60.042001 162.54515,59.947001 162.50316,59.890002 162.4369,59.796873 162.39715,59.740997 162.33403,59.649122 162.29615,59.593997 162.23615,59.505249 162.20015,59.452001 162.1439,59.363874 162.10484,59.302682 161.8454,59.343874 161.69064,59.368447 161.6619,59.478622 161.64615,59.538998 161.61678,59.642121 161.59915,59.703997 161.5679,59.810873 161.54915,59.875002 161.51415,59.984378 161.49315,60.050001 161.45628,60.161878 161.43415,60.229001 161.39416,60.343997 161.37016,60.412998 161.30216,60.600997 161.25653,60.721621 161.22915,60.793994 161.1804,60.916497 161.15115,60.989998 161.09928,61.114998 161.06815,61.189997 161.01378,61.317497 160.98115,61.393998 160.9224,61.524622 160.88715,61.602998 160.55778,61.637373 160.36015,61.657997 160.33405,61.622415 160.33405,61.622415 160.22516,61.473997 160.14578,61.36025 160.09815,61.292001 160.02128,61.180749 159.97516,61.113998 159.90203,61.004002 159.85815,60.938001 159.78878,60.829877 159.74715,60.765001 159.68091,60.658749 159.64115,60.594997 159.57803,60.490622 159.54015,60.427997 159.48078,60.32675 159.44515,60.265998 159.3889,60.165997 159.35515,60.105998 159.30203,60.007873 159.27015,59.948997 159.21953,59.854626 159.18915,59.798001 159.14228,59.704874 159.10923,59.639214 158.84753,59.653373 158.69163,59.661809 158.65127,59.768502 158.62915,59.827002 158.58916,59.926378 158.56516,59.986001 158.52265,60.089125 158.49715,60.150998 158.45153,60.256001 158.42415,60.319002 158.3754,60.426497 158.34615,60.490998 158.29427,60.601002 158.26315,60.667001 158.20878,60.779501 158.17615,60.847002 158.11803,60.961998 158.08315,61.030998 158.0219,61.147873 157.98515,61.217998 157.92077,61.336746 157.88215,61.407997 157.81466,61.529245 157.77416,61.601997 157.70228,61.72575 157.65915,61.800001 157.12915,61.800001 157.05728,61.676249 157.01415,61.601998 156.94665,61.480749 156.90616,61.407998 156.84178,61.28925 156.80315,61.217997 156.7419,61.101121 156.70515,61.030997 156.64703,60.916001 156.61215,60.847002 156.55778,60.734502 156.52515,60.667001 156.47328,60.556997 156.44216,60.490994 156.39341,60.383498 156.36416,60.319002 156.31853,60.213997 156.29115,60.150997 156.24865,60.047873 156.22315,59.986001 156.18315,59.886625 156.15915,59.827002 156.12228,59.729497 156.09668,59.661818 155.78205,59.645533 155.78205,59.645534 155.67859,59.640179 155.62728,59.742125 155.59915,59.798002 155.54853,59.892373 155.51815,59.948998 155.46503,60.047122 155.43315,60.105998 155.37691,60.205997 155.34315,60.265998 155.28378,60.367245 155.24815,60.427998 155.18503,60.532373 155.14715,60.594997 155.0809,60.70125 155.04115,60.765001 154.97178,60.873126 154.93015,60.938001 154.81313,61.114032 154.73628,61.22525 154.69016,61.292002 154.61078,61.405749 154.56315,61.473997 154.47878,61.588997 154.42815,61.657997 154.0437,61.617873 153.90115,61.602997 153.8424,61.472373 153.80715,61.393997 153.75278,61.266498 153.72015,61.189997 153.66828,61.064998 153.63715,60.989997 153.5884,60.867497 153.55915,60.793997 153.51353,60.673374 153.48615,60.600997 153.44366,60.483493 153.41816,60.412994 153.37815,60.297997 153.35415,60.229001 153.31728,60.117125 153.29516,60.050002 153.28099,60.005734 153.23916,59.875002 153.2079,59.768125 153.18915,59.703997 153.15978,59.600873 153.14216,59.538998 153.11591,59.438373 153.09766,59.368448 152.8374,59.327125 152.68346,59.302681 152.6219,59.399125 152.58815,59.452002 152.52815,59.540749 152.49215,59.593998 152.42903,59.685873 152.39116,59.740997 152.3249,59.834126 152.28515,59.890002 152.17315,60.042001 152.0994,60.138873 152.05515,60.196997 151.9789,60.295749 151.93316,60.355001 151.8519,60.455626 151.80315,60.515997 151.7194,60.617246 151.66915,60.677998 151.58103,60.781121 151.52815,60.842997 151.4369,60.947373 151.38215,61.009997 151.28653,61.116249 151.22915,61.180002 150.90478,61.111254 150.71016,61.070001 150.66578,60.93375 150.63915,60.851997 150.59853,60.719501 150.57415,60.640002 150.5354,60.510626 150.51215,60.432997 150.47653,60.305502 150.45515,60.229001 150.42265,60.104625 150.40315,60.029998 150.37315,59.908749 150.35515,59.835997 150.32703,59.717249 150.31015,59.646001 150.28515,59.530997 150.27015,59.461998 150.24703,59.349498 150.23315,59.281997 150.21315,59.172621 150.20115,59.106997 150.18303,59.001374 150.17215,58.938002 150.1559,58.834874 150.14458,58.763048 149.89065,58.695253 149.74043,58.655145 149.66915,58.74425 149.63015,58.793002 149.5614,58.874877 149.52015,58.924002 149.44765,59.008998 149.40415,59.059997 149.32853,59.145622 149.28315,59.196998 149.20316,59.284497 149.15516,59.336998 149.07203,59.42575 149.02215,59.479001 148.9359,59.568997 148.88415,59.622998 148.73816,59.768997 148.64378,59.861501 148.58715,59.917002 148.48965,60.010125 148.43115,60.065997 148.32927,60.160374 148.26815,60.216998 148.16128,60.312621 148.09715,60.369997 147.78215,60.267497 147.59316,60.205997 147.54516,59.981998 147.51828,59.845749 147.50216,59.764002 147.47778,59.631497 147.46315,59.551997 147.44128,59.421374 147.42815,59.342997 147.40815,59.216125 147.39615,59.140002 147.37928,59.016249 147.36915,58.941998 147.35353,58.821374 147.34415,58.749001 147.33103,58.631498 147.32315,58.560997 147.31253,58.447249 147.30615,58.378998 147.2974,58.267749 147.29215,58.201001 147.28528,58.094125 147.28116,58.029998 147.27615,57.925621 147.27266,57.852672 147.02678,57.759002 146.88073,57.703363 146.80103,57.783745 146.75715,57.827998 146.63315,57.947997 146.55253,58.024874 146.50415,58.070997 146.41978,58.148501 146.36915,58.195002 146.24138,58.308279 146.22815,58.320002 146.13628,58.399373 146.08115,58.446997 145.98553,58.527626 145.92815,58.576001 145.82815,58.65725 145.76815,58.705997 145.6644,58.787873 145.60215,58.836997 145.49527,58.919498 145.43115,58.968997 145.3006,59.067092 145.3006,59.067093 145.25415,59.101998 145.1379,59.185749 145.06815,59.236001 144.76565,59.101626 144.58415,59.021001 144.56853,58.878501 144.55915,58.793002 144.54254,58.609471 144.53915,58.571997 144.52916,58.436998 144.52316,58.355997 144.51441,58.22475 144.50916,58.146001 144.5029,58.017249 144.49915,57.939997 144.4954,57.814997 144.49315,57.739998 144.49066,57.61875 144.48916,57.545998 144.4879,57.427873 144.48715,57.356997 144.4879,57.287998 144.48916,57.173002 144.49103,57.106249 144.49415,56.994997 144.4964,56.930874 144.50015,56.823998 144.5039,56.761373 144.51074,56.64726 144.27603,56.527749 144.13669,56.456801 144.04853,56.529249 144.00015,56.569001 143.91577,56.63525 143.86515,56.675002 143.77703,56.743125 143.72416,56.784001 143.63228,56.852126 143.57715,56.892998 143.4809,56.961745 143.42315,57.002997 143.32315,57.071746 143.26315,57.112997 143.09815,57.225997 142.96742,57.311391 142.92515,57.338998 142.8139,57.409626 142.74715,57.452002 142.63215,57.522625 142.56315,57.564998 142.44377,57.636246 142.37215,57.678997 142.24778,57.750249 142.17315,57.793001 141.8869,57.627377 141.71515,57.528001 141.71453,57.384877 141.71415,57.299002 141.71528,57.21575 141.71716,57.077001 141.7194,56.996002 141.72315,56.861002 141.72653,56.781873 141.73216,56.649997 141.73628,56.57275 141.74315,56.444001 141.74878,56.369001 141.75815,56.244002 141.76415,56.171625 141.77416,56.050998 141.7809,55.980498 141.79215,55.862997 141.80003,55.794749 141.81315,55.681002 141.82215,55.614625 141.83715,55.503998 141.84009,55.483174 141.86115,55.334002 141.87128,55.272125 141.88957,55.160318 141.66903,55.017002 141.53804,54.931878 141.44265,54.993877 141.39015,55.028001 141.29953,55.084878 141.24515,55.119001 141.15015,55.177749 141.09315,55.212998 140.9944,55.271126 140.93515,55.306001 140.83265,55.364125 140.77115,55.398998 140.66428,55.45775 140.60015,55.493002 140.49015,55.551749 140.42415,55.586997 140.30978,55.64575 140.24115,55.681001 140.12303,55.739749 140.05215,55.774998 139.93028,55.833125 139.85715,55.868002 139.7309,55.926749 139.65515,55.961998 139.52453,56.019493 139.44615,56.053993 139.17803,55.859625 139.01715,55.743001 139.02578,55.657502 139.04015,55.515001 139.05028,55.432501 139.06715,55.294998 139.07199,55.257829 139.09515,55.079998 139.10678,55.001998 139.12615,54.871998 139.13853,54.795497 139.15915,54.668002 139.17228,54.594125 139.19415,54.470997 139.20803,54.399373 139.23115,54.279997 139.2454,54.210622 139.26915,54.094997 139.28378,54.027874 139.30815,53.916002 139.3239,53.851126 139.35015,53.743001 139.3659,53.68075 139.39215,53.577002 139.40865,53.516626 139.43903,53.405467 139.25314,53.254852 139.11387,53.142012 139.01165,53.194501 138.95615,53.223002 138.80215,53.299002 138.70153,53.347126 138.64115,53.376002 138.53678,53.423501 138.47415,53.452001 138.36603,53.498878 138.30115,53.527001 138.18928,53.574497 138.12215,53.602998 138.00653,53.649873 137.93715,53.677998 137.81653,53.724873 137.74415,53.752998 137.6204,53.798626 137.54615,53.826001 137.41928,53.870997 137.34315,53.897998 137.2119,53.942998 137.13315,53.969997 136.9969,54.013746 136.91515,54.039997 136.6689,53.81875 136.52115,53.685997 136.53878,53.601997 136.56815,53.461998 136.5869,53.380622 136.61815,53.244997 136.6369,53.166249 136.66815,53.035001 136.68765,52.958502 136.72015,52.830998 136.7404,52.756374 136.77415,52.632001 136.79515,52.560001 136.83015,52.439998 136.85115,52.369873 136.88615,52.252998 136.90753,52.185498 136.94315,52.072997 136.96528,52.008122 137.00215,51.899997 137.02428,51.836998 137.06115,51.731997 137.08328,51.671622 137.12015,51.570998 137.14303,51.512497 137.18452,51.406374 136.9984,51.220249 136.88778,51.109624 136.78165,51.151125 136.72315,51.174002 136.62253,51.210874 136.56215,51.232997 136.45715,51.269874 136.39415,51.292001 136.28603,51.328873 136.22115,51.350998 136.10865,51.386621 136.04115,51.407998 135.92428,51.442998 135.85415,51.463998 135.73415,51.499001 135.66215,51.520002 135.53778,51.55375 135.46315,51.573998 135.33565,51.606501 135.25915,51.626001 135.1279,51.657249 135.04915,51.675998 134.91353,51.707246 134.83215,51.725997 134.69215,51.755374 134.60815,51.772997 134.3869,51.52675 134.25415,51.378997 134.2804,51.297249 134.32415,51.161001 134.35115,51.082249 134.39615,50.951002 134.42315,50.874873 134.46815,50.747998 134.49553,50.67375 134.54115,50.550001 134.56928,50.477625 134.61615,50.356997 134.64428,50.287622 134.69115,50.171998 134.71965,50.104874 134.76715,49.993002 134.79528,49.928125 134.84215,49.820001 134.87065,49.757378 134.91815,49.653002 134.94703,49.592626 134.99515,49.491997 135.02365,49.434246 135.07115,49.337998 135.15175,49.181037 134.98603,48.976498 134.88786,48.855343 134.77753,48.885502 134.71715,48.902001 134.6134,48.928249 134.55115,48.944002 134.44303,48.97025 134.37815,48.986001 134.26628,49.010374 134.19915,49.024997 134.08353,49.04875 134.01415,49.063002 133.89478,49.086125 133.82315,49.099998 133.70003,49.121873 133.62615,49.134997 133.49865,49.155625 133.42215,49.168002 133.29215,49.187374 133.21415,49.198997 133.07978,49.216497 132.99915,49.226998 132.86165,49.243874 132.77915,49.253998 132.63665,49.268373 132.55115,49.277001 132.35678,49.008877 132.24015,48.848001 132.27465,48.769625 132.33215,48.639001 132.3674,48.56325 132.42615,48.437002 132.46103,48.363873 132.51915,48.241998 132.5544,48.171121 132.61315,48.052998 132.6484,47.984374 132.70715,47.869997 132.7424,47.803998 132.80115,47.694002 132.8364,47.629873 132.89515,47.522997 132.93003,47.461497 132.98815,47.358997 133.02303,47.29975 133.08115,47.201001 133.1164,47.144001 133.17515,47.049002 133.20928,46.994625 133.26615,46.904002 133.30028,46.851501 133.36228,46.756115 133.21915,46.535873 133.13383,46.404578 133.02203,46.422874 132.96015,46.432998 132.8539,46.448001 132.79015,46.457002 132.67953,46.471998 132.61315,46.480997 132.4994,46.494122 132.43115,46.501998 132.31365,46.51325 132.24315,46.520001 132.12253,46.530001 132.05015,46.536001 131.92515,46.545374 131.85015,46.550997 131.7214,46.557874 131.64415,46.562001 131.51228,46.567625 131.43315,46.570998 131.29815,46.574749 131.21715,46.577002 131.0784,46.578873 130.99515,46.579997 130.85203,46.579373 130.76615,46.578998 130.60053,46.292749 130.50115,46.120997 130.5439,46.046373 130.61515,45.922002 130.6579,45.850374 130.72915,45.730997 130.77153,45.661998 130.84215,45.547002 130.88453,45.48025 130.95515,45.369001 130.99753,45.304125 131.06815,45.195997 131.18115,45.030997 131.29115,44.870997 131.3324,44.813246 131.40115,44.716997 131.44203,44.661874 131.51015,44.570002 131.55103,44.517125 131.61915,44.429002 131.6589,44.378374 131.72515,44.293997 131.7649,44.245626 131.83735,44.157462 131.7179,43.922873 131.64689,43.783419 131.53278,43.790246 131.47015,43.793994 131.36328,43.797749 131.29915,43.800001 131.1879,43.803126 131.12115,43.805001 131.00615,43.80625 130.93715,43.807002 130.81903,43.805754 130.74815,43.805001 130.6269,43.802497 130.55415,43.800997 130.42915,43.797249 130.35415,43.794998 130.2254,43.788749 130.14815,43.785001 130.0169,43.77625 129.93815,43.770998 129.72215,43.754997 129.58403,43.742502 129.50115,43.735001 129.35865,43.719374 129.27315,43.709998 129.13878,43.407497 129.05815,43.225997 129.1084,43.156246 129.19215,43.039997 129.24203,42.973625 129.32515,42.863002 129.37465,42.798874 129.45715,42.691997 129.50628,42.629745 129.58815,42.525998 129.6369,42.465997 129.71815,42.366001 129.76653,42.308626 129.84715,42.213001 129.89478,42.157874 129.97415,42.065998 130.02103,42.013125 130.09915,41.925001 130.14565,41.874374 130.22315,41.789998 130.26928,41.741626 130.34615,41.661002 130.39115,41.614502 130.46615,41.536998 130.5104,41.493125 130.59178,41.412434 130.49753,41.16725 130.4415,41.021498 130.32678,41.015998 130.26415,41.012997 130.15728,41.006126 130.09315,41.002001 129.9819,40.993253 129.91515,40.988002 129.8014,40.977374 129.73315,40.970997 129.61565,40.957873 129.54515,40.950001 129.42453,40.934378 129.35215,40.925002 129.22841,40.908125 129.15416,40.897997 129.02728,40.878002 128.95115,40.866001 128.82053,40.844125 128.74215,40.830998 128.60965,40.806621 128.53015,40.791998 128.3939,40.765121 128.31215,40.748997 128.17215,40.719002 128.08815,40.701001 127.98565,40.386001 127.92415,40.197001 127.98153,40.132873 128.07715,40.025998 128.13378,39.964873 128.22815,39.863002 128.28403,39.804502 128.37715,39.706998 128.43265,39.650374 128.52515,39.555997 128.5799,39.501249 128.67115,39.410002 128.72515,39.358249 128.81515,39.272001 128.8684,39.222125 128.95716,39.138998 129.09716,39.010997 129.14853,38.965621 129.23415,38.889997 129.28515,38.846498 129.37015,38.773997 129.41928,38.732745 129.50115,38.663998 129.5499,38.624997 129.63922,38.553548 129.57078,38.300126 129.53007,38.149403 129.41803,38.13175 129.35615,38.121997 129.25053,38.103873 129.18715,38.092998 129.07778,38.073001 129.01215,38.061001 128.89965,38.037873 128.83216,38.023998 128.71715,37.998998 128.64815,37.983997 128.5294,37.955874 128.45816,37.939001 128.26415,37.891001 128.13978,37.858502 128.06515,37.839001 127.93765,37.803378 127.86116,37.782001 127.73178,37.743249 127.65416,37.719997 127.52165,37.679374 127.44215,37.655001 127.3059,37.610626 127.22415,37.583997 127.1554,37.259621 127.11415,37.064997 127.1779,37.007622 127.28415,36.911998 127.34678,36.857249 127.45115,36.766002 127.51303,36.713125 127.61615,36.624998 127.6769,36.57475 127.77816,36.491001 127.83853,36.44225 127.93915,36.360997 127.9984,36.315249 128.09716,36.239001 128.15528,36.194749 128.25215,36.120998 128.30915,36.078997 128.40416,36.008997 128.46003,35.969246 128.55315,35.902997 128.60827,35.865122 128.70015,35.801998 128.84215,35.705997 128.89503,35.67225 128.99147,35.610692 128.95028,35.351249 128.92571,35.196489 128.81553,35.167749 128.75515,35.151998 128.65203,35.122625 128.59015,35.105002 128.48328,35.073749 128.41915,35.054998 128.30978,35.019997 128.24415,34.998998 128.13228,34.962122 128.06515,34.939997 127.95015,34.899998 127.88115,34.875998 127.76365,34.833501 127.69316,34.808001 127.57253,34.762374 127.50016,34.734997 127.37766,34.686249 127.30416,34.657002 127.17915,34.605125 127.10415,34.574001 126.97665,34.519626 126.90015,34.486998 126.76953,34.428249 126.69115,34.393001 126.65211,34.018905 126.63615,33.865997 126.70515,33.815373 126.82015,33.730998 126.88841,33.683373 127.00215,33.603998 127.0689,33.55787 127.18016,33.480997 127.24615,33.437126 127.35615,33.364005 127.42103,33.322382 127.52916,33.253005 127.59291,33.213253 127.69915,33.146997 127.76178,33.109126 127.86615,33.046005 127.9269,33.010374 128.02815,32.950998 128.08815,32.917245 128.18815,32.860998 128.24703,32.829125 128.34515,32.775997 128.40178,32.745621 128.49615,32.694998 128.55203,32.666869 128.65494,32.61507 128.64078,32.353373 128.63234,32.197473 128.52565,32.157125 128.46715,32.134997 128.36778,32.095005 128.30815,32.071006 128.20503,32.028509 128.14315,32.003006 128.03815,31.957373 127.97515,31.929997 127.86765,31.881254 127.80315,31.852005 127.69315,31.800125 127.62715,31.768998 127.51465,31.71463 127.44715,31.682005 127.33216,31.623878 127.26316,31.588998 127.14628,31.52775 127.07615,31.490997 126.9574,31.426621 126.88615,31.387998 126.7649,31.320501 126.69215,31.280006 126.59324,31.222552 126.49415,31.164997 126.49415,30.634997 126.5684,30.591869 126.69215,30.519998 126.7649,30.479494 126.88615,30.411997 126.9574,30.373373 127.07615,30.309006 127.14628,30.272253 127.26316,30.211005 127.33216,30.176125 127.44715,30.117998 127.51465,30.085373 127.62715,30.031005 127.69315,29.999878 127.80315,29.948006 127.86765,29.918749 127.97515,29.869998 128.03815,29.842622 128.14315,29.796997 128.20503,29.771494 128.30815,29.728998 128.36778,29.704997 128.46715,29.664998 128.52565,29.64287 128.63233,29.602525 128.6404,29.446621 128.65398,29.18444 128.55203,29.133126 128.49615,29.104997 128.40178,29.054374 128.34515,29.023998 128.24703,28.97087 128.18815,28.938997 128.08815,28.882749 128.02816,28.849005 127.9269,28.789629 127.86615,28.754006 127.76178,28.690877 127.69915,28.652997 127.59291,28.58675 127.52916,28.546997 127.42103,28.477621 127.35615,28.435998 127.24615,28.362869 127.18016,28.318998 127.0689,28.242126 127.00215,28.196005 126.88841,28.11663 126.82015,28.068997 126.70515,27.98463 126.63615,27.934005 126.65678,27.736381 126.69115,27.407005 126.76953,27.37175 126.90015,27.312997 126.97665,27.280374 127.10415,27.226005 127.17915,27.194878 127.30416,27.143005 127.37766,27.11375 127.50016,27.064997 127.69316,26.991997 127.76365,26.966494 127.88115,26.923997 127.95015,26.899997 128.06515,26.859998 128.13228,26.837869 128.24415,26.800997 128.30978,26.779998 128.41915,26.744998 128.48328,26.726246 128.59015,26.694997 128.65203,26.677374 128.75515,26.647997 128.81553,26.632246 128.92571,26.603506 128.95028,26.44875 128.99147,26.189315 128.89503,26.12775 128.84215,26.093998 128.70015,25.997997 128.60828,25.93487 128.55315,25.896998 128.46003,25.83075 128.40416,25.790998 128.30915,25.720998 128.25215,25.678997 128.15528,25.605246 128.09715,25.560997 127.9984,25.484749 127.93915,25.438997 127.83853,25.35775 127.77815,25.309005 127.6769,25.225254 127.61615,25.174997 127.51303,25.08687 127.45115,25.033997 127.34678,24.94275 127.28415,24.887997 127.1779,24.792373 127.11415,24.734998 127.1554,24.540373 127.22415,24.215997 127.3059,24.189373 127.44215,24.144998 127.52165,24.120621 127.65416,24.079997 127.73178,24.05675 127.86116,24.018005 127.93765,23.996629 128.06515,23.961006 128.13978,23.941501 128.26415,23.908998 128.45816,23.860998 128.5294,23.844126 128.64815,23.815997 128.71715,23.800997 128.83216,23.775998 128.89965,23.762125 129.01215,23.739006 129.07778,23.727006 129.18715,23.706997 129.25053,23.696125 129.35615,23.677998 129.41803,23.668245 129.53111,23.650429 129.5714,23.499501 129.63901,23.24629 129.5499,23.174997 129.50115,23.135998 129.41928,23.067245 129.37015,23.025997 129.28515,22.953502 129.23415,22.909997 129.14853,22.834374 129.09716,22.788998 128.95716,22.660997 128.8684,22.57787 128.81515,22.527998 128.72515,22.44175 128.67115,22.389997 128.5799,22.29875 128.52515,22.243997 128.43265,22.149621 128.37715,22.092998 128.28403,21.995501 128.22815,21.936997 128.13378,21.835126 128.07715,21.773997 127.98153,21.667125 127.92415,21.602998 127.98565,21.413997 128.08815,21.099005 128.17215,21.081006 128.31215,21.050998 128.3939,21.034869 128.53015,21.007998 128.60965,20.993374 128.74215,20.968998 128.82053,20.955877 128.95115,20.934005 129.02728,20.922005 129.15416,20.901998 129.22841,20.89187 129.35215,20.874997 129.42453,20.865622 129.54515,20.850005 129.61565,20.842125 129.73315,20.828998 129.8014,20.822621 129.91515,20.811998 129.9819,20.806749 130.09315,20.797998 130.15728,20.793869 130.26415,20.786998 130.32678,20.783997 130.44149,20.778502 130.49715,20.632373 130.59079,20.386579 130.5104,20.30687 130.46615,20.262998 130.39115,20.185501 130.34615,20.138997 130.26928,20.058373 130.22315,20.009998 130.14565,19.925621 130.09915,19.874997 130.02103,19.786869 129.97415,19.733998 129.89478,19.642126 129.84715,19.587006 129.76653,19.491381 129.71815,19.434006 129.6369,19.333998 129.58815,19.273997 129.50628,19.170246 129.45715,19.107997 129.37465,19.001126 129.32515,18.936997 129.24203,18.826374 129.19215,18.759998 129.1084,18.64375 129.05815,18.574005 129.13878,18.392502 129.27315,18.089997 129.35865,18.080621 129.50115,18.064998 129.58403,18.057501 129.72215,18.045006 129.80315,18.039005 129.93815,18.028998 130.0169,18.023749 130.14815,18.014998 130.2254,18.011245 130.35415,18.004997 130.42915,18.00275 130.55415,17.998998 130.6269,17.997493 130.74815,17.994997 130.81903,17.994245 130.93715,17.992997 131.00615,17.993749 131.12115,17.994997 131.1879,17.996869 131.29915,17.999998 131.36328,18.002246 131.47015,18.005997 131.53278,18.009749 131.64689,18.016589 131.7179,17.877126 131.83735,17.642537 131.7649,17.554373 131.72515,17.505998 131.6589,17.421621 131.61915,17.370998 131.55103,17.282869 131.51015,17.229997 131.44203,17.138125 131.40115,17.082998 131.3324,16.986749 131.29115,16.928998 131.18115,16.768997 131.11053,16.66587 131.06815,16.603997 130.99753,16.49587 130.95515,16.430998 130.88453,16.319749 130.84215,16.253006 130.77153,16.137997 130.72915,16.068998 130.6579,15.949629 130.61515,15.878005 130.5439,15.75363 130.50115,15.678997 130.60053,15.507246 130.76615,15.220997 130.85203,15.220622 130.99516,15.219989 131.07841,15.221117 131.21715,15.222997 131.29815,15.225246 131.43315,15.228997 131.51228,15.232374 131.64415,15.237998 131.7214,15.242125 131.85015,15.248998 131.92515,15.254621 132.05015,15.263997 132.12253,15.269998 132.24315,15.279998 132.31365,15.286749 132.43115,15.297997 132.4994,15.30587 132.61315,15.318997 132.67953,15.327997 132.79015,15.342997 132.8539,15.351998 132.96015,15.366997 133.02203,15.377125 133.13383,15.395417 133.21915,15.264125 133.36228,15.043882 133.30028,14.948501 133.26615,14.895997 133.20928,14.805373 133.17515,14.750997 133.1164,14.655998 133.08115,14.598997 133.02303,14.500246 132.98815,14.440998 132.93003,14.338502 132.89515,14.276998 132.8364,14.170126 132.80115,14.105997 132.7424,13.995998 132.70715,13.929998 132.6484,13.815621 132.61315,13.746997 132.51915,13.558006 132.46103,13.436126 132.42615,13.362997 132.3674,13.236749 132.33215,13.160998 132.27465,13.030374 132.24015,12.951997 132.35678,12.791126 132.55115,12.522997 132.63665,12.53163 132.77915,12.546005 132.86165,12.556133 132.99915,12.573005 133.07978,12.58351 133.21415,12.601006 133.29215,12.612629 133.42215,12.631997 133.49865,12.644374 133.62615,12.664997 133.70003,12.678125 133.82315,12.699998 133.89478,12.713869 134.01415,12.736998 134.08353,12.751253 134.19915,12.775005 134.26628,12.789629 134.37815,12.813998 134.44303,12.829749 134.55115,12.855997 134.6134,12.87175 134.71715,12.897998 134.77753,12.914501 134.88869,12.944876 134.98703,12.823501 135.15214,12.619715 135.09965,12.517502 135.07115,12.462006 135.02365,12.365757 134.99515,12.308006 134.94703,12.207374 134.91815,12.146998 134.87065,12.042621 134.84216,11.97999 134.79528,11.871869 134.76715,11.806997 134.71965,11.695126 134.69115,11.628006 134.64428,11.512373 134.61615,11.442998 134.56928,11.322373 134.54115,11.249997 134.49553,11.126246 134.46815,11.051998 134.42315,10.925125 134.39615,10.848998 134.35115,10.717749 134.32415,10.638998 134.2804,10.502749 134.25415,10.421005 134.3869,10.273253 134.60815,10.026997 134.69215,10.044629 134.83215,10.074006 134.91353,10.092749 135.04915,10.123998 135.1279,10.142749 135.25915,10.173998 135.33565,10.193502 135.46315,10.226005 135.53778,10.246253 135.66215,10.279998 135.73415,10.300998 135.85415,10.336005 135.92428,10.357006 136.04115,10.391998 136.10865,10.413373 136.22115,10.449005 136.28603,10.471125 136.39415,10.507998 136.45715,10.530126 136.56215,10.566997 136.62253,10.589126 136.72315,10.625998 136.78165,10.64887 136.88778,10.690371 136.9984,10.57975 137.18453,10.393624 137.14303,10.287502 137.12015,10.228998 137.08328,10.128382 137.06115,10.068005 137.02428,9.962997 137.00215,9.899997 136.96528,9.791878 136.94315,9.727006 136.90753,9.614501 136.88615,9.546997 136.85115,9.430126 136.83015,9.359998 136.77415,9.167998 136.7404,9.043621 136.72015,8.968998 136.68765,8.841501 136.66815,8.764998 136.6369,8.633749 136.61815,8.554997 136.5869,8.419382 136.56815,8.338005 136.53877,8.198005 136.52115,8.114005 136.6689,7.981254 136.91515,7.759997 136.9969,7.786245 137.13315,7.829998 137.2119,7.856997 137.34315,7.901997 137.41928,7.928997 137.54615,7.973998 137.6204,8.001373 137.74415,8.046998 137.81653,8.075125 137.93715,8.121997 138.00653,8.150125 138.12215,8.197005 138.18928,8.225501 138.30115,8.272997 138.36603,8.301126 138.47415,8.347997 138.53678,8.376502 138.64115,8.423998 138.70153,8.452869 138.80215,8.500998 138.8599,8.529502 138.95615,8.576997 139.01165,8.605502 139.11311,8.657599 139.23465,8.559126 139.43881,8.39371 139.40865,8.283373 139.39215,8.222998 139.3659,8.119245 139.35015,8.056998 139.3239,7.948869 139.30815,7.883998 139.28378,7.772125 139.26915,7.704998 139.2454,7.589373 139.23115,7.519997 139.20803,7.400621 139.19415,7.328998 139.17228,7.205869 139.15915,7.131998 139.13853,7.004501 139.12615,6.927997 139.10678,6.797997 139.09515,6.719997 139.07199,6.542166 139.06715,6.504998 139.05028,6.367501 139.04015,6.284997 139.02578,6.142501 139.01715,6.056997 139.17803,5.940374 139.44615,5.745997 139.52453,5.780502 139.65515,5.838005 139.7309,5.873254 139.85715,5.931997 139.93028,5.96687 140.05215,6.024997 140.12303,6.060246 140.24115,6.118997 140.30978,6.154253 140.42415,6.213006 140.49015,6.248254 140.60015,6.306998 140.66428,6.342246 140.77115,6.400998 140.83265,6.435877 140.93515,6.494005 140.9944,6.528878 141.09315,6.587005 141.15015,6.622253 141.24515,6.680998 141.29953,6.715125 141.39015,6.771997 141.44265,6.806126 141.53804,6.868121 141.66903,6.782998 141.88957,6.639677 141.87128,6.52787 141.86115,6.465997 141.84615,6.359749 141.83715,6.296005 141.82215,6.185373 141.81315,6.118997 141.80003,6.005246 141.79215,5.936997 141.7809,5.819502 141.77416,5.748997 141.76415,5.628374 141.75815,5.555997 141.74878,5.430998 141.74315,5.355998 141.73628,5.227245 141.73216,5.149998 141.72653,5.018126 141.72315,4.938997 141.7194,4.803997 141.71716,4.722998 141.71528,4.584245 141.71415,4.500998 141.71453,4.415126 141.71515,4.271997 141.8869,4.172621 142.17315,4.006997 142.24778,4.04975 142.37215,4.120997 142.44377,4.163749 142.56315,4.234998 142.63215,4.277373 142.74715,4.347997 142.8139,4.390374 142.92515,4.461005 142.96742,4.488612 143.09815,4.574006 143.16003,4.616381 143.26315,4.686998 143.32315,4.728245 143.42315,4.796998 143.4809,4.838253 143.57715,4.907006 143.63228,4.947877 143.72415,5.015997 143.77703,5.05687 143.86515,5.124998 143.91577,5.164749 144.00015,5.230998 144.04853,5.270749 144.13669,5.343198 144.27603,5.272246 144.51074,5.152735 144.5039,5.03863 144.50015,4.976005 144.4964,4.869125 144.49415,4.804998 144.49103,4.693749 144.48916,4.627005 144.4879,4.511998 144.48715,4.442997 144.4879,4.372126 144.48916,4.254005 144.49066,4.181253 144.49315,4.060005 144.4954,3.985006 144.49915,3.859997 144.5029,3.78275 144.50916,3.653997 144.51441,3.575246 144.52316,3.443998 144.52916,3.362997 144.53915,3.227997 144.54665,3.145125 144.55915,3.006997 144.5746,2.866155 144.57459,2.866155 144.58415,2.778997 144.76565,2.698373 145.06815,2.563997 145.1379,2.614254 145.25415,2.698006 145.32053,2.747877 145.43115,2.830998 145.49527,2.880501 145.60215,2.963006 145.6644,3.012126 145.76815,3.093997 145.82815,3.142749 145.92815,3.223997 145.98553,3.272373 146.08115,3.352998 146.13628,3.400621 146.22815,3.479997 146.28103,3.52687 146.36915,3.604997 146.41977,3.651501 146.50415,3.728997 146.55253,3.775126 146.63315,3.852005 146.67965,3.897005 146.75715,3.971997 146.80103,4.016246 146.88172,4.097628 147.0274,4.041621 147.27266,3.94734 147.27616,3.874373 147.28116,3.769997 147.28528,3.70587 147.29215,3.598997 147.2974,3.532253 147.30615,3.421005 147.31253,3.352758 147.32315,3.239005 147.33103,3.168501 147.34415,3.050998 147.35353,2.978622 147.36915,2.857998 147.37928,2.78375 147.39615,2.659997 147.40815,2.583869 147.42815,2.456998 147.44128,2.378621 147.46315,2.247998 147.47778,2.168494 147.50215,2.035998 147.51828,1.954245 147.54516,1.817997 147.59316,1.593997 147.78215,1.532494 148.09715,1.429998 148.16128,1.487374 148.26815,1.582998 148.32927,1.639621 148.43115,1.733998 148.48965,1.789869 148.58715,1.882998 148.64378,1.938501 148.73816,2.031006 148.79291,2.085749 148.88415,2.176997 148.9359,2.230997 149.02215,2.320998 149.07203,2.374253 149.15516,2.463005 149.20316,2.515502 149.28315,2.602998 149.32853,2.654374 149.40415,2.740005 149.44765,2.791005 149.52015,2.875997 149.5614,2.925125 149.63015,3.006997 149.66915,3.05575 149.7406,3.145065 149.89128,3.104374 150.14475,3.035918 150.1559,2.965125 150.17215,2.861997 150.18303,2.798622 150.20115,2.692998 150.21315,2.627374 150.23315,2.518005 150.24703,2.450501 150.27015,2.338005 150.28515,2.269006 150.31015,2.153997 150.32703,2.08275 150.35515,1.963998 150.37315,1.891246 150.40315,1.769997 150.42265,1.695373 150.45515,1.570998 150.47653,1.494494 150.51215,1.366998 150.5354,1.289374 150.57415,1.159997 150.59853,1.080501 150.63915,0.948005 150.66578,0.866254 150.71016,0.729997 150.90478,0.688749 151.22915,0.619997 151.28653,0.68375 151.38215,0.789997 151.4369,0.852622 151.52815,0.956997 151.58103,1.018869 151.66915,1.121997 151.7194,1.182749 151.80315,1.283997 151.8519,1.344373 151.93315,1.444997 151.9789,1.504245 152.05515,1.602997 152.0994,1.661126 152.17315,1.757998 152.28515,1.909997 152.3249,1.965869 152.39116,2.058998 152.42903,2.114125 152.49215,2.205997 152.52815,2.259245 152.58815,2.347998 152.6219,2.400877 152.68346,2.497314 152.8374,2.47287 153.09766,2.431551 153.11591,2.361622 153.14216,2.260997 153.15978,2.199125 153.18915,2.095997 153.2079,2.031869 153.23916,1.924998 153.28099,1.794265 153.29516,1.749997 153.31728,1.68287 153.35415,1.570998 153.41815,1.386997 153.44365,1.316501 153.48615,1.199005 153.51353,1.126629 153.55915,1.005997 153.5884,0.932501 153.63715,0.810006 153.66828,0.735005 153.72015,0.609998 153.75278,0.533502 153.80715,0.406005 153.8424,0.32763 153.90115,0.197005 154.0437,0.18213 154.42815,0.142005 154.47878,0.211005 154.56315,0.325998 154.61078,0.394246 154.69016,0.507997 154.73628,0.57475 154.81315,0.685997 154.85703,0.751998 154.93015,0.861997 154.97178,0.92687 155.04115,1.034998 155.0809,1.09875 155.14715,1.204997 155.18503,1.267622 155.24815,1.371997 155.28378,1.432749 155.34315,1.533997 155.37691,1.593997 155.43316,1.693998 155.46503,1.752878 155.51815,1.851005 155.54853,1.90763 155.59915,2.001997 155.62728,2.05787 155.67908,2.160785 155.83453,2.152374 156.09668,2.138185 156.12228,2.070501 156.15915,1.972997 156.18315,1.913373 156.22315,1.813998 156.29115,1.649006 156.31853,1.586005 156.36416,1.480998 156.3934,1.416502 156.44215,1.309005 156.47328,1.243005 156.52515,1.132998 156.55778,1.065493 156.61215,0.952997 156.64703,0.883998 156.70515,0.768998 156.7419,0.698869 156.80315,0.581998 156.84178,0.51075 156.90616,0.392005 156.94666,0.319253 157.01415,0.198006 157.05728,0.123749 157.12915,-3e-06 157.65915,-3e-06 157.70228,0.074253 157.77416,0.198006 157.81465,0.270757 157.88215,0.392005 157.92078,0.463254 157.98515,0.581997 158.0219,0.652126 158.08315,0.768998 158.11803,0.837997 158.17616,0.952998 158.20878,1.020501 158.26315,1.132997 158.29427,1.198997 158.34615,1.309005 158.3754,1.373502 "
         style="fill:none;stroke:#000000;stroke-width:0.1;stroke-miterlimit:4;stroke-opacity:1;stroke-dasharray:none"
         id="polygon3051" />
      <polygon
         transform="matrix(3.54331,0,0,3.54331,-251.56739,-269.58002)"
         slic3r:type="hole"
         points="154.99413,29.429333 154.92296,29.541462 154.8287,29.741725 154.77215,29.861885 154.70378,30.07239 154.66275,30.198693 154.62125,30.41611 154.59635,30.546557 154.58248,30.767453 154.57415,30.899997 154.58248,31.032542 154.59636,31.253437 154.62125,31.383893 154.66275,31.60131 154.70378,31.727613 154.77215,31.93811 154.8287,32.058269 154.92296,32.258541 154.99413,32.370669 155.11275,32.557549 155.19739,32.659878 155.33846,32.830421 155.43528,32.921333 155.59665,33.072853 155.70409,33.150917 155.88315,33.281014 155.99952,33.34499 156.19346,33.451613 156.31694,33.500502 156.52275,33.581981 156.65138,33.615006 156.86575,33.670045 156.99749,33.686694 157.21705,33.714437 157.57126,33.714437 157.92255,33.670045 158.26555,33.581981 158.38904,33.533093 158.59485,33.451613 158.71122,33.387637 158.90516,33.281013 159.01259,33.202949 159.19165,33.072853 159.28848,32.981942 159.44985,32.830422 159.53449,32.728093 159.67555,32.55755 159.74673,32.445421 159.86535,32.258541 159.9219,32.138381 160.01616,31.93811 160.05718,31.811806 160.12555,31.60131 160.15045,31.470853 160.19195,31.253438 160.20028,31.120893 160.21415,30.899997 160.20028,30.679101 160.19195,30.546558 160.16176,30.388397 160.12555,30.198694 160.05718,29.988189 160.01616,29.861885 159.9219,29.661621 159.86535,29.541462 159.74673,29.354582 159.67555,29.242453 159.53449,29.07191 159.44985,28.969581 159.28848,28.818061 159.19165,28.727149 159.01259,28.597054 158.90516,28.518989 158.71122,28.412366 158.59485,28.348389 158.38904,28.26691 158.26555,28.218021 158.05118,28.162974 157.92255,28.129949 157.70299,28.102205 157.57126,28.085557 157.21705,28.085557 156.99749,28.113301 156.86575,28.129949 156.65138,28.184997 156.52275,28.218022 156.31694,28.299501 156.19346,28.34839 155.99952,28.455014 155.88316,28.518989 155.70409,28.649085 155.59665,28.72715 155.43528,28.878669 155.33846,28.969582 155.19739,29.140125 155.11275,29.242454 "
         style="fill:none;stroke:#000000;stroke-width:0.1;stroke-miterlimit:4;stroke-opacity:1;stroke-dasharray:none"
         id="polygon3053" />
    </g>
    <text
       xml:space="preserve"
       style="font-size:40px;font-style:normal;font-weight:normal;line-height:125%;letter-spacing:0px;word-spacing:0px;fill:#000000;fill-opacity:1;stroke:none;font-family:Sans"
       x="176.96843"
       y="358.52127"
       id="text4189"
       sodipodi:linespacing="125%"><tspan
         sodipodi:role="line"
         id="tspan4191"
         x="176.96843"
         y="358.52127">1/16</tspan></text>
  </g>
</svg>
