<?xml version="1.0" encoding="UTF-8" standalone="no"?>
<!-- Created with Inkscape (http://www.inkscape.org/) -->

<svg
   xmlns:slic3r="http://slic3r.org/namespaces/slic3r"
   xmlns:dc="http://purl.org/dc/elements/1.1/"
   xmlns:cc="http://creativecommons.org/ns#"
   xmlns:rdf="http://www.w3.org/1999/02/22-rdf-syntax-ns#"
   xmlns:svg="http://www.w3.org/2000/svg"
   xmlns="http://www.w3.org/2000/svg"
   xmlns:sodipodi="http://sodipodi.sourceforge.net/DTD/sodipodi-0.dtd"
   xmlns:inkscape="http://www.inkscape.org/namespaces/inkscape"
   width="744.09448819"
   height="1052.3622047"
   id="svg4432"
   version="1.1"
   inkscape:version="0.48.4 r9939"
   sodipodi:docname="New document 19">
  <defs
     id="defs4434" />
  <sodipodi:namedview
     id="base"
     pagecolor="#ffffff"
     bordercolor="#666666"
     borderopacity="1.0"
     inkscape:pageopacity="0.0"
     inkscape:pageshadow="2"
     inkscape:zoom="0.98994949"
     inkscape:cx="236.52043"
     inkscape:cy="457.18694"
     inkscape:document-units="px"
     inkscape:current-layer="layer1"
     showgrid="false"
     inkscape:window-width="472"
     inkscape:window-height="363"
     inkscape:window-x="65"
     inkscape:window-y="24"
     inkscape:window-maximized="0" />
  <metadata
     id="metadata4437">
    <rdf:RDF>
      <cc:Work
         rdf:about="">
        <dc:format>image/svg+xml</dc:format>
        <dc:type
           rdf:resource="http://purl.org/dc/dcmitype/StillImage" />
        <dc:title></dc:title>
      </cc:Work>
    </rdf:RDF>
  </metadata>
  <g
     inkscape:label="Layer 1"
     inkscape:groupmode="layer"
     id="layer1">
    <g
       transform="translate(93.020577,88.834896)"
       id="g4766">
      <polygon
         transform="matrix(3.54331,0,0,3.54331,0.062496,405.6885)"
         slic3r:type="contour"
         points="40.814257,1.754369 40.94701,1.636992 41.183882,1.439496 41.326009,1.321 41.680385,1.436 41.893009,1.505 41.968626,1.804369 42.014001,1.983992 42.078385,2.27212 42.117009,2.445 42.158722,2.661926 42.202001,2.886992 42.24513,3.151377 42.271001,3.31 42.304754,3.561873 42.325009,3.713001 42.350009,3.951752 42.36501,4.095001 42.381881,4.321872 42.392002,4.457993 42.402633,4.670496 42.409009,4.798 42.414001,5.118001 42.412874,5.229 42.411001,5.414 42.406873,5.517121 42.400001,5.688992 42.393625,5.783873 42.381525,5.963971 43.25501,6.361625 43.772491,6.597212 43.907634,6.458248 43.974001,6.390001 44.096497,6.269377 44.170001,6.197001 44.306874,6.071992 44.389001,5.996993 44.539634,5.865744 44.63001,5.786992 44.795009,5.652625 44.89401,5.572 45.074009,5.433249 45.18201,5.35 45.375762,5.208744 45.492009,5.123993 45.702002,4.980248 45.828001,4.894 46.053625,4.748993 46.189001,4.661992 46.429633,4.516993 46.57401,4.429992 46.831505,4.284369 46.986001,4.197001 47.258506,4.053248 47.422009,3.966992 47.74513,4.153249 47.939001,4.265 47.950249,4.57312 47.957001,4.757993 47.960129,5.053616 47.962009,5.230993 47.958633,5.399745 47.953001,5.681001 47.945506,5.841496 47.933001,6.108993 47.921378,6.261248 47.902001,6.515001 47.880698,6.713474 47.861001,6.896993 47.843001,7.031993 47.813001,7.257001 47.792378,7.383 47.758001,7.592993 47.735129,7.710745 47.697009,7.907001 47.673009,8.015377 47.633002,8.196 47.607129,8.296129 47.564001,8.463001 47.538129,8.554497 47.488951,8.728396 48.260505,9.298376 48.718026,9.636364 48.878874,9.528872 48.958001,9.476001 49.103002,9.383496 49.190002,9.327992 49.350002,9.233624 49.446001,9.177001 49.620385,9.080745 49.72501,9.022992 50.02901,8.866 50.233377,8.767873 50.356001,8.709001 50.575378,8.611496 50.707002,8.552992 50.942001,8.456121 51.083001,8.397993 51.333625,8.302993 51.484002,8.245992 51.749634,8.15412 51.90901,8.099 52.190881,8.010249 52.360001,7.957001 52.656882,7.872624 52.83501,7.822 53.111881,8.071368 53.278001,8.220992 53.246497,8.403617 53.194002,8.707992 53.158754,8.881616 53.100009,9.171 53.061753,9.335249 52.998002,9.608992 52.957129,9.764617 52.889002,10.023992 52.845873,10.170249 52.774001,10.414001 52.729378,10.550872 52.655002,10.779 52.609257,10.907249 52.53301,11.120992 52.486514,11.24024 52.409009,11.438993 52.362506,11.549248 52.285001,11.733001 52.238498,11.834248 52.161002,12.003 52.115249,12.095625 52.039002,12.25 51.994753,12.334001 51.91079,12.493402 52.546626,13.211753 52.923864,13.637937 53.103506,13.565624 53.192002,13.53 53.353257,13.470001 53.450009,13.434001 53.625634,13.375248 53.731001,13.340001 53.921626,13.281248 54.036001,13.245993 54.242257,13.190369 54.366009,13.157001 54.586626,13.103248 54.719002,13.071 54.953378,13.021 55.094001,12.991001 55.495001,12.918001 55.759378,12.876752 55.918001,12.852001 56.197378,12.817624 56.365009,12.797001 56.658761,12.768873 56.83501,12.752 57.14313,12.731368 57.328001,12.718992 57.546753,13.020248 57.678001,13.201 57.609377,13.373129 57.495001,13.660001 57.424505,13.822369 57.30701,14.092992 57.235385,14.245993 57.116009,14.501001 57.043633,14.644249 56.92301,14.882992 56.850257,15.017617 56.729002,15.242 56.657001,15.366497 56.537002,15.574 56.465753,15.689873 56.347001,15.882993 56.276873,15.990249 56.160001,16.169001 56.091002,16.266872 55.97601,16.43 55.910009,16.519625 55.800002,16.669 55.735881,16.749625 55.62901,16.883992 55.567881,16.957121 55.453089,17.094439 55.926257,17.930248 56.206825,18.425842 56.396257,18.392497 56.49001,18.376 56.660002,18.351 56.762001,18.336001 56.946386,18.314744 57.057009,18.301993 57.255754,18.284496 57.375001,18.273993 57.58813,18.26212 57.716001,18.255001 57.942874,18.248744 58.079001,18.244992 58.31901,18.244368 58.463009,18.243992 58.717377,18.251496 58.870002,18.256001 59.090399,18.268359 59.298009,18.28 59.578001,18.304376 59.746002,18.319001 60.039753,18.352752 60.216002,18.373001 60.521625,18.416744 60.705001,18.442992 60.856257,18.783 60.947009,18.987 60.843882,19.14112 60.67201,19.397992 60.569257,19.541993 60.398002,19.782 60.296378,19.917 60.127001,20.142001 60.02613,20.267248 59.858002,20.476 59.759377,20.592249 59.595001,20.785993 59.498258,20.892872 59.33701,21.071 59.243257,21.169625 59.087009,21.334001 58.844002,21.574 58.756625,21.655753 58.611002,21.792 58.527754,21.865504 58.389001,21.988001 58.309506,22.054 58.177001,22.164001 58.102002,22.222496 57.959988,22.333279 58.249249,23.248864 58.420778,23.791788 58.613754,23.798625 58.709002,23.801992 58.880873,23.813248 58.984002,23.820001 59.168377,23.837504 59.279002,23.848001 59.47713,23.872369 59.596002,23.886992 59.806625,23.919488 59.933002,23.938993 60.15613,23.979625 60.290002,24.004001 60.525001,24.053376 60.666001,24.083 60.913505,24.143 61.06201,24.179001 61.320138,24.249625 61.475009,24.292 61.744385,24.373872 61.90601,24.423001 62.186002,24.516753 62.354001,24.573 62.643378,24.679873 62.817001,24.743992 62.894498,25.108369 62.941001,25.326992 62.808257,25.455993 62.587009,25.671001 62.456514,25.790624 62.239009,25.99 62.111505,26.100625 61.899001,26.285001 61.774497,26.386625 61.567002,26.556 61.446249,26.649377 61.245002,26.805 61.128377,26.889377 60.934009,27.030001 60.821505,27.106873 60.634001,27.235001 60.526378,27.304376 60.347002,27.42 60.244257,27.481505 60.07301,27.584 59.976258,27.638744 59.815002,27.729992 59.723506,27.777992 59.571001,27.857993 59.485506,27.899616 59.323631,27.978423 59.420492,28.979591 59.470879,29.50039 59.658754,29.547745 59.751001,29.571 59.916634,29.617249 60.016009,29.645 60.192882,29.700625 60.299002,29.733993 60.487753,29.799 60.601009,29.838 60.800386,29.913625 60.920009,29.959 61.13001,30.045249 61.25601,30.097001 61.475377,30.194496 61.607002,30.253001 61.836377,30.363 61.974002,30.429001 62.21213,30.551505 62.355001,30.625 62.601249,30.761248 62.749002,30.842993 63.003378,30.993001 63.15601,31.083001 63.417257,31.247376 63.574009,31.346 63.574009,31.941992 63.417257,32.040617 63.15601,32.204992 63.003378,32.294992 62.749002,32.445 62.601249,32.526745 62.355001,32.662993 62.21213,32.736496 61.974002,32.858992 61.836377,32.924993 61.607001,33.034997 61.475378,33.093496 61.25601,33.190996 61.130009,33.242745 60.92001,33.328996 60.800386,33.374372 60.601009,33.449997 60.487753,33.488997 60.299002,33.554 60.192882,33.587372 60.01601,33.642996 59.916634,33.670744 59.751001,33.716997 59.658754,33.740248 59.484181,33.78425 59.419753,34.353749 59.31225,35.30403 59.485506,35.388377 59.571001,35.43 59.723506,35.510001 59.815002,35.558001 59.976257,35.649248 60.073009,35.703996 60.244258,35.806497 60.347002,35.867997 60.526378,35.983621 60.634001,36.052996 60.821505,36.18112 60.934009,36.257996 61.128377,36.39862 61.245002,36.482997 61.446249,36.638624 61.567002,36.732001 61.774497,36.901376 61.899001,37.003 62.111505,37.187372 62.239009,37.297997 62.456514,37.497373 62.587009,37.616996 62.808257,37.832 62.941001,37.961 62.894498,38.179624 62.817002,38.544 62.643378,38.608124 62.354001,38.714997 62.186002,38.771248 61.90601,38.864996 61.744385,38.914125 61.47501,38.996 61.320137,39.038373 61.06201,39.108996 60.913505,39.144997 60.666002,39.205 60.525001,39.234625 60.290001,39.283997 60.156129,39.308373 59.933002,39.349 59.806625,39.368501 59.596002,39.400996 59.477129,39.415625 59.279002,39.44 59.168377,39.450501 58.984002,39.468 58.880874,39.474748 58.709001,39.485997 58.613754,39.489372 58.433757,39.495749 58.252257,40.039501 57.949493,40.946537 58.102002,41.065497 58.177001,41.123996 58.309506,41.233997 58.389002,41.299997 58.527753,41.4225 58.611002,41.496001 58.756625,41.632248 58.844002,41.713997 58.995881,41.864 59.08701,41.954001 59.243257,42.118372 59.33701,42.216997 59.498257,42.395124 59.595002,42.502001 59.759377,42.695748 59.858002,42.811997 60.026129,43.020744 60.127002,43.145997 60.296378,43.370997 60.398001,43.505996 60.569257,43.746 60.67201,43.890001 60.843882,44.146873 60.947009,44.300996 60.856258,44.504996 60.705002,44.844996 60.521625,44.871249 60.216002,44.914996 60.039753,44.935249 59.746002,44.968996 59.578001,44.983621 59.298009,45.007997 59.090399,45.019638 58.870001,45.031997 58.717377,45.036497 58.463009,45.043996 58.31901,45.043625 58.079001,45.043 57.942874,45.039249 57.716002,45.032997 57.588129,45.025872 57.375001,45.013996 57.255754,45.003497 57.05701,44.985997 56.946385,44.973248 56.762001,44.951996 56.660002,44.936997 56.49001,44.911997 56.396257,44.895496 56.219796,44.864439 55.928625,45.358873 55.443701,46.182319 55.567881,46.330872 55.629009,46.404 55.735882,46.538377 55.800002,46.619001 55.910009,46.768372 55.97601,46.857997 56.091001,47.02112 56.160001,47.118996 56.276873,47.297748 56.347001,47.405 56.465754,47.598125 56.537001,47.713996 56.729002,48.045997 56.850257,48.270372 56.92301,48.405001 57.043634,48.643749 57.116009,48.786996 57.235386,49.042001 57.30701,49.195001 57.424505,49.465624 57.495002,49.628001 57.609377,49.914872 57.678001,50.086996 57.546754,50.267744 57.328001,50.568996 57.14313,50.556621 56.83501,50.535997 56.658761,50.51912 56.365009,50.490996 56.197378,50.470373 55.918001,50.435996 55.759378,50.411249 55.495002,50.369997 55.344626,50.342621 55.094001,50.296996 54.953377,50.266996 54.719002,50.216997 54.586625,50.184744 54.366009,50.130996 54.242258,50.097625 54.036001,50.042 53.921626,50.006753 53.731001,49.948 53.625634,49.912749 53.450009,49.853996 53.353257,49.817996 53.192002,49.757997 53.103506,49.722373 52.937012,49.655353 52.549506,50.078496 51.904552,50.782752 51.994753,50.953996 52.039002,51.037997 52.115249,51.192372 52.161002,51.284997 52.238497,51.453744 52.285001,51.554996 52.362505,51.738748 52.40901,51.849001 52.486514,52.047753 52.533009,52.167 52.609257,52.380748 52.655002,52.508997 52.729377,52.73712 52.774001,52.873996 52.845874,53.117749 52.889001,53.264 52.95713,53.523373 52.998001,53.678996 53.061754,53.952745 53.100009,54.116997 53.158753,54.406372 53.194002,54.580001 53.246497,54.884372 53.278001,55.066996 53.111881,55.216621 52.83501,55.465996 52.656882,55.415373 52.360001,55.330996 52.190882,55.277745 51.909009,55.188996 51.749634,55.133873 51.484002,55.042001 51.333625,54.985 51.083001,54.89 50.942001,54.831872 50.707002,54.734997 50.575377,54.676496 50.356002,54.578997 50.233377,54.52012 50.02901,54.421997 49.91501,54.363125 49.725009,54.265 49.620385,54.207248 49.446002,54.110997 49.350002,54.054373 49.190002,53.960001 49.103001,53.9045 48.958001,53.811996 48.878874,53.759121 48.729233,53.659123 48.263257,53.992125 47.485625,54.54784 47.538129,54.733496 47.564001,54.824996 47.607129,54.991872 47.633002,55.091997 47.673009,55.27262 47.697009,55.380996 47.735129,55.577248 47.758001,55.695 47.792378,55.905001 47.813001,56.031 47.861001,56.391 47.886625,56.629748 47.902001,56.772996 47.921377,57.026748 47.933001,57.178996 47.945505,57.446496 47.953001,57.606996 47.958634,57.888249 47.962009,58.057 47.960129,58.234377 47.957001,58.53 47.950249,58.714873 47.939001,59.022996 47.74513,59.134748 47.422009,59.321 47.258506,59.234749 46.986001,59.090996 46.831505,59.00362 46.57401,58.857997 46.429633,58.770996 46.189002,58.626001 46.053626,58.539001 45.828001,58.393996 45.702002,58.307745 45.49201,58.163997 45.375761,58.079248 45.182009,57.937996 45.074009,57.854744 44.894009,57.715996 44.79501,57.635373 44.630009,57.501 44.539634,57.422249 44.389001,57.290996 44.306874,57.215997 44.170001,57.090996 44.096498,57.018621 43.974002,56.897997 43.907633,56.829744 43.782329,56.700902 43.256874,56.929372 42.380609,57.310384 42.393625,57.504124 42.400001,57.599001 42.406874,57.770873 42.411001,57.873997 42.412874,58.059001 42.414001,58.17 42.412129,58.290001 42.40901,58.489996 42.402633,58.617497 42.392002,58.83 42.381881,58.966125 42.36501,59.192996 42.35001,59.336248 42.325009,59.574997 42.304753,59.726121 42.271001,59.977997 42.24513,60.13662 42.202001,60.400997 42.158722,60.626067 42.117009,60.842997 42.078385,61.015873 42.014002,61.303996 41.968626,61.48362 41.893009,61.782996 41.680386,61.851996 41.326009,61.966996 41.183882,61.848497 40.94701,61.650997 40.814258,61.533621 40.593002,61.337997 40.469625,61.222872 40.264002,61.031001 40.150001,60.917748 39.96001,60.728997 39.854634,60.618373 39.679001,60.434 39.582626,60.327125 39.422009,60.148996 39.333882,60.045121 39.187009,59.871996 39.106761,59.772248 38.97301,59.605997 38.90101,59.510373 38.781009,59.350996 38.716506,59.260249 38.609002,59.108997 38.552001,59.02312 38.457002,58.879997 38.406377,58.799372 38.310866,58.647248 37.748873,58.761873 36.812912,58.952775 36.794497,59.081125 36.772002,59.238 36.754753,59.339625 36.726001,59.508996 36.703873,59.618121 36.667002,59.799996 36.640001,59.916621 36.595002,60.110996 36.562377,60.234749 36.508002,60.441 36.469753,60.571873 36.40601,60.789996 36.361377,60.926873 36.287002,61.155 36.236002,61.299 36.151001,61.538997 36.092874,61.68862 35.996002,61.937996 35.930002,62.09362 35.82001,62.352996 35.746514,62.514248 35.624009,62.782997 35.542258,62.94912 35.406009,63.225996 35.183634,63.249248 34.813001,63.288 34.698625,63.1425 34.508001,62.899996 34.402626,62.757497 34.22701,62.519997 34.130257,62.38162 33.969001,62.150996 33.880874,62.016749 33.734002,61.793001 33.65413,61.662877 33.521001,61.446 33.449001,61.321124 33.329001,61.113 33.26413,60.993377 33.156009,60.794 33.003009,60.489 32.952386,60.380249 32.868001,60.198996 32.823753,60.096996 32.750002,59.927001 32.711753,59.831 32.648002,59.670997 32.615377,59.581748 32.55368,59.412947 31.980257,59.408496 31.02467,59.401079 30.980377,59.522249 30.926002,59.670996 30.887753,59.766997 30.824009,59.927001 30.779753,60.029001 30.706001,60.198997 30.655378,60.307748 30.571002,60.489 30.47737,60.675651 30.418001,60.794001 30.35313,60.913624 30.245001,61.113001 30.173002,61.237876 30.053002,61.446 29.97313,61.576124 29.840001,61.793001 29.751874,61.927248 29.605002,62.150996 29.508249,62.289373 29.347002,62.519996 29.241625,62.662497 29.066001,62.899997 28.951625,63.045497 28.761001,63.287996 28.538625,63.264744 28.168001,63.225996 28.08625,63.059873 27.950002,62.782997 27.876497,62.621744 27.754002,62.352997 27.688001,62.197372 27.578001,61.937996 27.519881,61.788372 27.42301,61.538997 27.372009,61.394996 27.287001,61.155 27.242377,61.018124 27.168002,60.789997 27.129753,60.659124 27.066002,60.441001 27.033377,60.317248 26.979002,60.110997 26.952001,59.994372 26.907002,59.799997 26.884882,59.690873 26.84801,59.508997 26.830754,59.407373 26.802001,59.238 26.788505,59.143876 26.763063,58.966455 26.203753,58.842372 25.270616,58.635351 25.201378,58.74562 25.117009,58.879997 25.060009,58.965873 24.965002,59.108996 24.900497,59.199745 24.793002,59.350996 24.721002,59.44662 24.601001,59.605997 24.520753,59.705745 24.387002,59.871996 24.298881,59.975873 24.152009,60.148997 24.055634,60.255872 23.895009,60.434001 23.789634,60.544624 23.614001,60.728997 23.500002,60.842248 23.310002,61.031 23.186625,61.146125 22.981001,61.337997 22.84825,61.455372 22.627001,61.650997 22.484874,61.769496 22.248001,61.966996 22.035377,61.897996 21.681001,61.782996 21.635625,61.603372 21.560002,61.303997 21.521377,61.13112 21.457001,60.842997 21.42513,60.677249 21.372001,60.400996 21.34613,60.242373 21.303002,59.977997 21.282753,59.826872 21.249009,59.574996 21.234009,59.431744 21.209002,59.192997 21.198881,59.056872 21.182009,58.83 21.175633,58.7025 21.165002,58.489997 21.16313,58.369997 21.160001,58.17 21.161874,57.984996 21.163001,57.873997 21.169874,57.702124 21.174001,57.599 21.184625,57.440873 21.192478,57.324023 20.67101,57.086621 19.801526,56.690788 19.710633,56.784249 19.60001,56.897996 19.526513,56.970373 19.404009,57.090997 19.185002,57.290996 19.094626,57.369748 18.944001,57.501001 18.845002,57.581624 18.68001,57.715996 18.572009,57.799249 18.392002,57.937996 18.275754,58.022744 18.082002,58.163996 17.956001,58.250249 17.746001,58.393997 17.610626,58.480996 17.385002,58.626 17.240625,58.713001 17.000001,58.857997 16.845506,58.945372 16.588001,59.090997 16.424506,59.177248 16.152009,59.321 15.958129,59.209248 15.635001,59.022997 15.628257,58.838124 15.61701,58.530001 15.615129,58.352624 15.612001,58.057 15.617625,57.775749 15.621001,57.606996 15.633505,57.339497 15.641009,57.178997 15.660378,56.925244 15.672001,56.772997 15.697625,56.534249 15.713001,56.391001 15.761001,56.031001 15.788529,55.862839 15.816001,55.695001 15.85413,55.498748 15.877002,55.380996 15.917002,55.200372 15.941001,55.091997 15.98413,54.92512 16.010002,54.824996 16.053129,54.672497 16.085051,54.559601 15.624497,54.219372 14.855982,53.651631 14.747874,53.723872 14.616002,53.811996 14.529001,53.867497 14.384001,53.960001 14.288002,54.016624 14.128009,54.110997 14.023378,54.168748 13.849001,54.265001 13.735002,54.323872 13.545001,54.421997 13.422378,54.480872 13.218002,54.578996 13.086378,54.637496 12.867009,54.734997 12.72601,54.793124 12.491002,54.89 12.340625,54.947001 12.090001,55.042001 11.930626,55.097124 11.665001,55.188997 11.495882,55.242248 11.214009,55.330997 11.035882,55.38162 10.739001,55.465996 10.572881,55.316372 10.296009,55.066996 10.348514,54.762624 10.380009,54.580001 10.438753,54.290625 10.474001,54.116997 10.537754,53.843248 10.57601,53.678996 10.64413,53.419624 10.685002,53.264 10.756874,53.020248 10.800001,52.873997 10.874386,52.645872 10.91901,52.508996 10.995257,52.295249 11.041002,52.167 11.118498,51.968248 11.165001,51.849001 11.242498,51.665248 11.289002,51.554996 11.366497,51.386249 11.413002,51.284996 11.48925,51.13062 11.535001,51.037997 11.608754,50.897996 11.663221,50.794596 11.283633,50.365748 10.650142,49.650058 10.529506,49.69862 10.382001,49.757997 10.285257,49.793997 10.12401,49.853996 10.018633,49.889249 9.843001,49.948 9.728626,49.983248 9.538001,50.042001 9.414257,50.075373 9.20801,50.130996 9.075633,50.163249 8.855002,50.216996 8.714378,50.246996 8.480002,50.296996 8.329626,50.324372 8.079001,50.369997 7.920378,50.394744 7.65601,50.435996 7.444579,50.46201 7.444579,50.462011 7.209002,50.490996 7.032753,50.507873 6.739001,50.535997 6.55413,50.548372 6.246001,50.568996 6.114753,50.388248 5.896001,50.086997 6.010386,49.800124 6.079009,49.628001 6.196505,49.357377 6.267002,49.195 6.386378,48.939996 6.458009,48.786997 6.578633,48.548249 6.651002,48.405 6.772249,48.180625 6.845002,48.045996 7.037001,47.713997 7.155754,47.520872 7.22701,47.405 7.343881,47.226249 7.414002,47.118996 7.52901,46.955872 7.59801,46.857996 7.708001,46.708621 7.774001,46.618996 7.880881,46.484625 7.945009,46.404001 8.046882,46.282124 8.12092,46.19354 7.838258,45.694249 7.367187,44.862156 7.240249,44.884497 7.084002,44.911996 6.982002,44.926996 6.81201,44.951996 6.701377,44.964745 6.517001,44.985997 6.397754,44.996496 6.199009,45.013996 6.07113,45.02112 5.858001,45.032997 5.721874,45.036748 5.494994,45.043 5.351001,45.043377 5.111009,45.044 4.958386,45.039501 4.704009,45.031996 4.543506,45.022997 4.276001,45.007996 4.108001,44.993372 3.828002,44.968997 3.651753,44.948744 3.358002,44.914997 3.174625,44.888744 2.869001,44.844996 2.77825,44.640997 2.627001,44.300996 2.78406,44.066274 2.784061,44.066274 2.902009,43.890001 3.073249,43.649997 3.175994,43.505996 3.345377,43.280997 3.44701,43.145996 3.615129,42.937249 3.716002,42.811996 3.91012,42.583191 3.979001,42.502001 4.140249,42.323873 4.237002,42.216996 4.393249,42.052625 4.487002,41.954 4.638881,41.803997 4.73001,41.713996 4.875633,41.577749 4.963001,41.496001 5.101753,41.373497 5.185001,41.299997 5.317506,41.189996 5.397001,41.123997 5.522002,41.0265 5.614019,40.954727 5.430234,40.373005 5.15322,39.496209 5.023754,39.491621 4.865009,39.485996 4.761881,39.479248 4.590002,39.468001 4.479377,39.4575 4.295002,39.440001 4.176129,39.425372 3.978002,39.400997 3.851625,39.381496 3.640993,39.349 3.507122,39.324625 3.284001,39.283996 3.143001,39.254372 2.90801,39.205001 2.759505,39.169 2.511994,39.108997 2.357121,39.066624 2.099002,38.996001 1.937377,38.946872 1.668002,38.864997 1.500002,38.808745 1.220001,38.714996 1.046386,38.650873 0.757009,38.544 0.710497,38.325376 0.632993,37.961 0.854241,37.745997 0.986993,37.616997 1.204498,37.41762 1.334994,37.297996 1.547505,37.113625 1.675009,37.003001 1.882505,36.833625 2.007002,36.732 2.208258,36.576372 2.329009,36.482997 2.523377,36.342373 2.640002,36.257996 2.827505,36.129873 2.940002,36.052996 3.119378,35.937372 3.227009,35.867997 3.398257,35.765497 3.50101,35.703996 3.662257,35.612749 3.759001,35.558001 3.911505,35.478001 4.00301,35.43 4.145505,35.360625 4.250387,35.309563 4.195137,34.738496 4.103132,33.787603 3.976753,33.755748 3.823002,33.716997 3.723633,33.689248 3.558018,33.642997 3.451881,33.609624 3.274994,33.554001 3.161745,33.515 2.972994,33.449997 2.85337,33.404621 2.653994,33.328997 2.527993,33.277248 2.317994,33.190997 2.186377,33.132496 1.967009,33.034996 1.829378,32.968997 1.600001,32.858992 1.457122,32.785489 1.218993,32.662992 1.071249,32.581248 0.825009,32.445 0.672386,32.355001 0.418001,32.204992 0.261249,32.106368 1e-06,31.941992 1e-06,31.346 0.261249,31.181625 0.418001,31.083001 0.672386,30.932992 0.825009,30.842993 1.071249,30.706745 1.218993,30.625 1.457122,30.502496 1.600001,30.429001 1.829378,30.319 1.967009,30.253001 2.186377,30.155505 2.317994,30.097 2.527994,30.010752 2.653994,29.959 2.85337,29.883376 2.972994,29.838 3.161746,29.772992 3.274993,29.733993 3.451881,29.678369 3.558018,29.645 3.723633,29.598753 3.823002,29.571 3.976753,29.532249 4.08983,29.503742 4.197753,28.549745 4.261761,27.983968 4.145505,27.927368 4.00301,27.857993 3.911505,27.809992 3.759001,27.729992 3.662257,27.675248 3.50101,27.584001 3.398257,27.522496 3.22701,27.420001 3.119377,27.350624 2.940002,27.235001 2.827505,27.158128 2.640002,27.030001 2.523377,26.945624 2.329009,26.805 2.208257,26.711624 2.007002,26.556001 1.882505,26.454376 1.675009,26.285 1.547505,26.174376 1.334993,25.99 1.204498,25.870377 0.986993,25.671 0.854241,25.542 0.632993,25.326993 0.710497,24.962617 0.757009,24.743992 1.046386,24.63712 1.220002,24.573 1.500002,24.479248 1.668001,24.423001 1.937377,24.341129 2.099002,24.292 2.357122,24.221376 2.511993,24.179001 2.759506,24.119 2.90801,24.083 3.143001,24.033625 3.284002,24.004 3.507121,23.963369 3.640994,23.938992 3.851625,23.906497 3.978002,23.886992 4.17613,23.862624 4.295002,23.848 4.479377,23.830497 4.590002,23.82 4.761881,23.808745 4.865009,23.801992 5.023754,23.796368 5.140252,23.792249 5.466188,22.815797 5.466187,22.815797 5.624516,22.34146 5.522002,22.261505 5.397001,22.164 5.317506,22.098001 5.185001,21.988 5.101753,21.914496 4.963002,21.792001 4.875633,21.710248 4.73001,21.574001 4.487002,21.334001 4.393249,21.235376 4.237001,21.071 4.14025,20.964121 3.979001,20.785992 3.880377,20.669744 3.716001,20.476 3.61513,20.350753 3.447009,20.142 3.345377,20.007 3.175994,19.782001 3.073249,19.638 2.90201,19.397993 2.798882,19.243873 2.627002,18.987 2.778249,18.646993 2.869002,18.442992 3.174625,18.399249 3.358002,18.373 3.651753,18.339249 3.828002,18.319 4.108001,18.294625 4.276001,18.280001 4.543506,18.265 4.704009,18.256001 4.958386,18.248496 5.11101,18.243992 5.351001,18.244616 5.494994,18.244993 5.721874,18.251249 5.858001,18.255 6.07113,18.266873 6.199009,18.273992 6.397754,18.291489 6.517002,18.301993 6.701377,18.323248 6.81201,18.336001 6.982002,18.361001 7.084001,18.376 7.240249,18.403504 7.354208,18.423556 7.841626,17.595872 8.130301,17.105673 8.046882,17.005865 7.94501,16.883993 7.880881,16.803368 7.774002,16.669001 7.708001,16.579376 7.598009,16.43 7.529009,16.332128 7.414002,16.169001 7.343881,16.061744 7.22701,15.882993 7.155754,15.767121 7.037002,15.574001 6.965001,15.449504 6.845002,15.242001 6.772249,15.107376 6.651002,14.882993 6.578633,14.739744 6.45801,14.501001 6.386377,14.348 6.267002,14.092993 6.196505,13.930624 6.07901,13.660001 6.010386,13.487873 5.896002,13.201 6.114754,12.899744 6.246001,12.718992 6.55413,12.739625 6.739001,12.752 7.032753,12.780128 7.209001,12.797 7.444579,12.825986 7.444579,12.825987 7.65601,12.852001 7.920378,12.893249 8.079001,12.918 8.329626,12.963625 8.480002,12.991001 8.714377,13.041 8.855001,13.071 9.075634,13.124753 9.20801,13.157001 9.414257,13.212624 9.538002,13.245992 9.728626,13.304745 9.843001,13.34 10.018633,13.398752 10.124009,13.434 10.285257,13.494 10.382001,13.53 10.529506,13.589377 10.636985,13.632642 11.285506,12.924496 11.669454,12.505234 11.608754,12.390001 11.535001,12.25 11.48925,12.157377 11.413002,12.003001 11.366498,11.901753 11.289001,11.733 11.242498,11.622745 11.165001,11.438992 11.118498,11.319745 11.041002,11.120993 10.995257,10.992744 10.91901,10.779001 10.874385,10.642128 10.800002,10.414001 10.756873,10.267744 10.685002,10.023993 10.644129,9.868368 10.57601,9.608993 10.537753,9.444744 10.474002,9.171001 10.438754,8.997377 10.380009,8.707992 10.348513,8.525368 10.296009,8.220992 10.572881,7.971625 10.739001,7.822001 11.035882,7.906377 11.21401,7.957001 11.495881,8.045752 11.665002,8.099001 11.930626,8.190873 12.090001,8.245992 12.340625,8.340992 12.491002,8.397993 12.72601,8.494865 12.86701,8.552992 13.086377,8.650496 13.218002,8.709001 13.422377,8.807128 13.545002,8.866001 13.849001,9.022992 14.023378,9.119249 14.12801,9.177001 14.288001,9.271368 14.384001,9.327992 14.529002,9.420497 14.616001,9.476 14.747873,9.564128 14.844772,9.628874 15.625258,9.07112 16.088377,8.740156 16.053129,8.615504 16.010002,8.463001 15.984129,8.362872 15.941002,8.196001 15.917001,8.087624 15.877002,7.907001 15.854129,7.789248 15.816001,7.592992 15.795378,7.466993 15.761001,7.257 15.743001,7.122 15.713001,6.896992 15.672001,6.515 15.660378,6.362745 15.641009,6.108992 15.633506,5.948497 15.621001,5.681 15.617625,5.512248 15.612001,5.230993 15.615129,4.935369 15.617009,4.757992 15.628257,4.449873 15.635001,4.265 15.958129,4.078745 16.152009,3.966993 16.424506,4.110745 16.588001,4.197 16.845506,4.342625 17.000001,4.429992 17.240625,4.574992 17.385002,4.661993 17.610625,4.807 17.746002,4.894001 17.956001,5.037744 18.082001,5.123992 18.275754,5.265249 18.392001,5.35 18.572009,5.488752 18.68001,5.572001 18.802149,5.67147 18.944002,5.786993 19.094625,5.91824 19.185001,5.996992 19.321882,6.122001 19.40401,6.197001 19.526513,6.317624 19.600009,6.39 19.710634,6.503753 19.791688,6.587093 20.671874,6.204376 21.193395,5.977612 21.184625,5.84712 21.174002,5.688993 21.169873,5.585872 21.163001,5.414 21.161874,5.303001 21.160001,5.118001 21.163129,4.918001 21.165002,4.798 21.175633,4.585497 21.182009,4.457993 21.198881,4.231121 21.209002,4.095 21.23401,3.856248 21.249009,3.713001 21.282753,3.461129 21.303001,3.310001 21.34613,3.045616 21.372001,2.886993 21.42513,2.610744 21.457001,2.445001 21.521378,2.156872 21.560002,1.983992 21.635625,1.684625 21.681001,1.505001 22.035377,1.390001 22.248001,1.321 22.484874,1.518497 22.627002,1.636993 22.84825,1.832625 22.981001,1.95 23.186626,2.141873 23.310001,2.257 23.500001,2.445752 23.614002,2.559001 23.789633,2.743376 23.89501,2.854001 24.055634,3.032129 24.15201,3.139001 24.298881,3.312128 24.387001,3.416 24.520754,3.582249 24.601002,3.682001 24.721002,3.841377 24.793001,3.937 24.900497,4.088248 24.965002,4.179001 25.060009,4.322128 25.117009,4.408 25.201378,4.542377 25.263145,4.640747 26.203874,4.448872 26.761102,4.335216 26.788506,4.14412 26.802001,4.049992 26.830753,3.880625 26.84801,3.779 26.884882,3.597128 26.907001,3.488001 26.952001,3.293625 26.979001,3.177001 27.033378,2.970752 27.066001,2.847001 27.129754,2.628872 27.168002,2.498 27.242377,2.269873 27.287002,2.132992 27.372009,1.892993 27.42301,1.748992 27.519882,1.499624 27.578001,1.350001 27.688001,1.090625 27.754002,0.935 27.876497,0.666249 27.950002,0.505 28.08625,0.228128 28.168001,0.062 28.538625,0.023249 28.761001,1e-06 28.951625,0.242496 29.066002,0.388001 29.241626,0.625505 29.347002,0.768001 29.508249,0.998624 29.605002,1.136993 29.751874,1.360745 29.840001,1.494992 29.973129,1.711864 30.053001,1.841992 30.173002,2.050121 30.245001,2.174992 30.35313,2.374369 30.418001,2.493992 30.47737,2.612342 30.571002,2.798993 30.655377,2.980248 30.706001,3.089 30.779754,3.258993 30.824009,3.360993 30.887753,3.521 30.926002,3.617001 30.980377,3.765744 31.020333,3.87505 32.030544,3.882887 32.030544,3.882886 32.549343,3.88691 32.615377,3.706249 32.648002,3.617 32.738994,3.388623 32.738993,3.388623 32.750002,3.360992 32.823753,3.191001 32.868002,3.089 32.952386,2.907744 33.003009,2.798993 33.156009,2.493993 33.264129,2.294617 33.329001,2.174993 33.449002,1.966864 33.521001,1.841993 33.654129,1.625121 33.734002,1.494992 33.880874,1.27124 33.969001,1.136993 34.130257,0.906369 34.227009,0.768001 34.402626,0.530496 34.508001,0.388001 34.698626,0.145504 34.813001,0 35.183633,0.038752 35.406009,0.062 35.542258,0.338873 35.624009,0.505 35.746514,0.773753 35.820009,0.935 35.930002,1.194377 35.996001,1.35 36.092874,1.599369 36.151001,1.748992 36.287002,2.132993 36.361378,2.361121 36.406009,2.498 36.469754,2.716129 36.508001,2.847 36.562378,3.053249 36.595002,3.177001 36.640001,3.371376 36.667002,3.488001 36.703874,3.669873 36.726001,3.779 36.754753,3.948368 36.772002,4.049993 36.794497,4.206864 36.81095,4.321542 37.747753,4.529376 38.303396,4.652648 38.406378,4.488624 38.457002,4.408 38.552001,4.264873 38.609001,4.179001 38.716505,4.027753 38.781009,3.937001 38.90101,3.777624 38.973009,3.682001 39.106762,3.515752 39.18701,3.416 39.333881,3.242873 39.42201,3.139 39.582625,2.960873 39.679002,2.854 39.854634,2.669624 39.96001,2.559 40.150001,2.370249 40.264002,2.257 40.469626,2.065128 40.593001,1.950001 "
         style="fill:none;stroke:#000000;stroke-width:0.0282222;stroke-miterlimit:4;stroke-opacity:1;stroke-dasharray:none"
         id="polygon4232" />
      <path
         sodipodi:type="arc"
         style="fill:none;stroke:#000000;stroke-width:0.13402323;stroke-miterlimit:4;stroke-opacity:1;stroke-dasharray:none"
         id="path4762"
         sodipodi:cx="23.867083"
         sodipodi:cy="22.258066"
         sodipodi:rx="13.676642"
         sodipodi:ry="13.676642"
         d="m 37.543725,22.258066 c 0,7.553401 -6.123241,13.676643 -13.676642,13.676643 -7.553401,0 -13.676643,-6.123242 -13.676643,-13.676643 0,-7.553401 6.123242,-13.6766422 13.676643,-13.6766422 7.553401,0 13.676642,6.1232412 13.676642,13.6766422 z"
         transform="matrix(0.75962549,0,0,0.75962549,94.563649,500.90519)" />
    </g>
  </g>
</svg>
