<?xml version="1.0" encoding="UTF-8" standalone="no"?>
<!-- Created with Inkscape (http://www.inkscape.org/) -->

<svg
   xmlns:dc="http://purl.org/dc/elements/1.1/"
   xmlns:cc="http://creativecommons.org/ns#"
   xmlns:rdf="http://www.w3.org/1999/02/22-rdf-syntax-ns#"
   xmlns:svg="http://www.w3.org/2000/svg"
   xmlns="http://www.w3.org/2000/svg"
   xmlns:sodipodi="http://sodipodi.sourceforge.net/DTD/sodipodi-0.dtd"
   xmlns:inkscape="http://www.inkscape.org/namespaces/inkscape"
   width="744.09448819"
   height="1052.3622047"
   id="svg3308"
   version="1.1"
   inkscape:version="0.48.4 r9939"
   sodipodi:docname="New document 3">
  <defs
     id="defs3310" />
  <sodipodi:namedview
     id="base"
     pagecolor="#ffffff"
     bordercolor="#666666"
     borderopacity="1.0"
     inkscape:pageopacity="0.0"
     inkscape:pageshadow="2"
     inkscape:zoom="1.4"
     inkscape:cx="368.42415"
     inkscape:cy="651.97413"
     inkscape:document-units="px"
     inkscape:current-layer="layer1"
     showgrid="false"
     inkscape:window-width="1855"
     inkscape:window-height="1056"
     inkscape:window-x="65"
     inkscape:window-y="24"
     inkscape:window-maximized="1" />
  <metadata
     id="metadata3313">
    <rdf:RDF>
      <cc:Work
         rdf:about="">
        <dc:format>image/svg+xml</dc:format>
        <dc:type
           rdf:resource="http://purl.org/dc/dcmitype/StillImage" />
        <dc:title></dc:title>
      </cc:Work>
    </rdf:RDF>
  </metadata>
  <g
     inkscape:label="Layer 1"
     inkscape:groupmode="layer"
     id="layer1">
    <path
       sodipodi:type="arc"
       style="fill:#ff0000;stroke:#000000;stroke-width:0.04847284;stroke-miterlimit:4;stroke-opacity:1;stroke-dasharray:none"
       id="path7569"
       sodipodi:cx="49.795376"
       sodipodi:cy="289.46429"
       sodipodi:rx="0.86680394"
       sodipodi:ry="0.53571427"
       d="m 50.66218,289.46429 a 0.86680394,0.53571427 0 1 1 -1.733608,0 0.86680394,0.53571427 0 1 1 1.733608,0 z"
       transform="matrix(0,-1.4906997,2.5772313,0,-497.73463,510.62674)" />
    <path
       sodipodi:type="arc"
       style="fill:none;stroke:#000000;stroke-width:0.08278015;stroke-miterlimit:4;stroke-opacity:1;stroke-dasharray:none"
       id="path7571"
       sodipodi:cx="152.86765"
       sodipodi:cy="222.68382"
       sodipodi:rx="3.9705882"
       sodipodi:ry="3.9705882"
       d="m 156.83823,222.68382 a 3.9705882,3.9705882 0 1 1 -7.94117,0 3.9705882,3.9705882 0 1 1 7.94117,0 z"
       transform="matrix(-0.85419843,-0.85419843,0.85419843,-0.85419843,246.27135,757.19234)" />
    <path
       transform="matrix(-0.85419843,-0.85419843,0.85419843,-0.85419843,188.64494,699.56594)"
       d="m 156.83823,222.68382 a 3.9705882,3.9705882 0 1 1 -7.94117,0 3.9705882,3.9705882 0 1 1 7.94117,0 z"
       sodipodi:ry="3.9705882"
       sodipodi:rx="3.9705882"
       sodipodi:cy="222.68382"
       sodipodi:cx="152.86765"
       id="path7573"
       style="fill:none;stroke:#000000;stroke-width:0.08278015;stroke-miterlimit:4;stroke-opacity:1;stroke-dasharray:none"
       sodipodi:type="arc" />
    <path
       transform="matrix(-0.85419843,-0.85419843,0.85419843,-0.85419843,188.64494,814.81874)"
       d="m 156.83823,222.68382 a 3.9705882,3.9705882 0 1 1 -7.94117,0 3.9705882,3.9705882 0 1 1 7.94117,0 z"
       sodipodi:ry="3.9705882"
       sodipodi:rx="3.9705882"
       sodipodi:cy="222.68382"
       sodipodi:cx="152.86765"
       id="path7575"
       style="fill:none;stroke:#000000;stroke-width:0.08278015;stroke-miterlimit:4;stroke-opacity:1;stroke-dasharray:none"
       sodipodi:type="arc" />
    <path
       sodipodi:type="arc"
       style="fill:none;stroke:#000000;stroke-width:0.08278015;stroke-miterlimit:4;stroke-opacity:1;stroke-dasharray:none"
       id="path7577"
       sodipodi:cx="152.86765"
       sodipodi:cy="222.68382"
       sodipodi:rx="3.9705882"
       sodipodi:ry="3.9705882"
       d="m 156.83823,222.68382 a 3.9705882,3.9705882 0 1 1 -7.94117,0 3.9705882,3.9705882 0 1 1 7.94117,0 z"
       transform="matrix(-0.85419843,-0.85419843,0.85419843,-0.85419843,131.01852,757.19234)" />
    <path
       sodipodi:type="arc"
       style="fill:none;stroke:#000000;stroke-width:0.33976623;stroke-miterlimit:4;stroke-opacity:1;stroke-dasharray:none"
       id="path7579"
       sodipodi:cx="225.71428"
       sodipodi:cy="215.21933"
       sodipodi:rx="65.714287"
       sodipodi:ry="65.714287"
       d="m 291.42857,215.21933 a 65.714287,65.714287 0 1 1 -131.42858,0 65.714287,65.714287 0 1 1 131.42858,0 z"
       transform="matrix(0,-0.5896407,0.5896407,0,121.37973,569.48713)" />
    <g
       id="g7605"
       transform="matrix(0,-1,1,0,-22.827546,1368.0317)">
      <path
         transform="matrix(1.56126,-1.56126,1.56126,1.56126,345.30136,104.48173)"
         d="m 156.83823,222.68382 c 0,2.1929 -1.77769,3.97059 -3.97058,3.97059 -2.1929,0 -3.97059,-1.77769 -3.97059,-3.97059 0,-2.19289 1.77769,-3.97059 3.97059,-3.97059 2.19289,0 3.97058,1.7777 3.97058,3.97059 z"
         sodipodi:ry="3.9705882"
         sodipodi:rx="3.9705882"
         sodipodi:cy="222.68382"
         sodipodi:cx="152.86765"
         id="path7607"
         style="fill:none;stroke:#000000;stroke-width:0.08278015;stroke-miterlimit:4;stroke-opacity:1;stroke-dasharray:none"
         sodipodi:type="arc" />
      <path
         sodipodi:type="arc"
         style="fill:none;stroke:#000000;stroke-width:0.08278015;stroke-miterlimit:4;stroke-opacity:1;stroke-dasharray:none"
         id="path7609"
         sodipodi:cx="152.86765"
         sodipodi:cy="222.68382"
         sodipodi:rx="3.9705882"
         sodipodi:ry="3.9705882"
         d="m 156.83823,222.68382 c 0,2.1929 -1.77769,3.97059 -3.97058,3.97059 -2.1929,0 -3.97059,-1.77769 -3.97059,-3.97059 0,-2.19289 1.77769,-3.97059 3.97059,-3.97059 2.19289,0 3.97058,1.7777 3.97058,3.97059 z"
         transform="matrix(1.56126,-1.56126,1.56126,1.56126,402.92778,162.10815)" />
      <path
         transform="matrix(1.56126,-1.56126,1.56126,1.56126,345.30136,219.73457)"
         d="m 156.83823,222.68382 c 0,2.1929 -1.77769,3.97059 -3.97058,3.97059 -2.1929,0 -3.97059,-1.77769 -3.97059,-3.97059 0,-2.19289 1.77769,-3.97059 3.97059,-3.97059 2.19289,0 3.97058,1.7777 3.97058,3.97059 z"
         sodipodi:ry="3.9705882"
         sodipodi:rx="3.9705882"
         sodipodi:cy="222.68382"
         sodipodi:cx="152.86765"
         id="path7611"
         style="fill:none;stroke:#000000;stroke-width:0.08278015;stroke-miterlimit:4;stroke-opacity:1;stroke-dasharray:none"
         sodipodi:type="arc" />
      <path
         sodipodi:type="arc"
         style="fill:none;stroke:#000000;stroke-width:0.08278015;stroke-miterlimit:4;stroke-opacity:1;stroke-dasharray:none"
         id="path7613"
         sodipodi:cx="152.86765"
         sodipodi:cy="222.68382"
         sodipodi:rx="3.9705882"
         sodipodi:ry="3.9705882"
         d="m 156.83823,222.68382 c 0,2.1929 -1.77769,3.97059 -3.97058,3.97059 -2.1929,0 -3.97059,-1.77769 -3.97059,-3.97059 0,-2.19289 1.77769,-3.97059 3.97059,-3.97059 2.19289,0 3.97058,1.7777 3.97058,3.97059 z"
         transform="matrix(1.56126,-1.56126,1.56126,1.56126,287.67494,162.10815)" />
    </g>
    <path
       transform="matrix(0,-1.1135115,1.1135115,0,-399.43799,1071.5896)"
       d="m 751.76469,581.69116 a 181.32353,181.32353 0 1 1 -362.64706,0 181.32353,181.32353 0 1 1 362.64706,0 z"
       sodipodi:ry="181.32353"
       sodipodi:rx="181.32353"
       sodipodi:cy="581.69116"
       sodipodi:cx="570.44116"
       id="path7651"
       style="fill:none;stroke:#000000;stroke-width:0.09003159;stroke-miterlimit:4;stroke-opacity:1;stroke-dasharray:none"
       sodipodi:type="arc" />
    <rect
       ry="3.9774756"
       rx="3.9774756"
       transform="matrix(-0.70710678,-0.70710678,0.70710678,-0.70710678,0,0)"
       y="-182.93637"
       x="-534.05981"
       height="99.837914"
       width="99.837914"
       id="rect7853"
       style="fill:none;stroke:#000000;stroke-width:0.1;stroke-miterlimit:4;stroke-opacity:1;stroke-dasharray:none" />
    <path
       style="fill:#000000;fill-opacity:1;stroke:#000000;stroke-width:0.05050763;stroke-miterlimit:4;stroke-opacity:1;stroke-dasharray:none"
       d="m 283.35055,471.41347 -26.41557,26.41132 0.23141,-2.79044 c 0.59081,-7.12443 -6.08932,-11.98867 -12.68156,-9.23426 -3.50615,1.46498 -5.74212,5.72798 -5.15527,9.82927 l 0.33783,2.36125 -26.52995,-26.4946 c -14.5915,-14.57198 -26.47585,-26.54868 -26.40967,-26.61486 0.0662,-0.0662 0.96574,0.0704 1.99905,0.30342 2.27738,0.51363 5.55593,-0.15039 7.46924,-1.51278 1.80812,-1.28751 3.5031,-4.81986 3.5031,-7.30052 0,-3.03787 -1.75556,-6.11572 -4.35835,-7.64106 -1.94289,-1.1386 -2.67873,-1.28546 -5.53098,-1.10384 l -3.28996,0.20949 26.41176,-26.416 c 14.52693,-14.52834 26.48367,-26.41565 26.5711,-26.41569 0.0875,0 0.008,1.00574 -0.17614,2.23498 -0.39938,2.66327 0.35589,5.26668 2.1446,7.39245 1.81551,2.15761 3.73679,3.00073 6.81616,2.99118 5.58095,-0.0173 9.25856,-4.04437 8.87147,-9.71441 -0.10907,-1.59731 -0.18298,-2.90419 -0.16426,-2.9042 0.0187,0 11.92358,11.8912 26.45526,26.42486 l 26.42093,26.42517 -3.06445,-0.22167 c -1.80979,-0.13091 -3.68528,0.0355 -4.58082,0.40645 -2.09356,0.86717 -4.39233,3.62722 -5.0475,6.06031 -1.71068,6.35298 4.11088,12.51895 10.46639,11.08554 1.03391,-0.23319 1.934,-0.36984 2.00015,-0.30366 0.0662,0.0662 -11.76654,12.00554 -26.29493,26.53195 l 0,0 z m 2.67954,-44.63829 c -4.66584,-19.4826 -24.32396,-32.32095 -44.19201,-28.86099 -14.60152,2.54282 -26.06328,12.50757 -30.87298,26.84068 -1.21428,3.61863 -1.35906,4.80547 -1.38628,11.36422 -0.0262,6.32087 0.13165,7.84227 1.15303,11.11169 2.18942,7.00831 4.84785,11.37739 10.15903,16.69621 4.12934,4.135 5.50768,5.16294 9.61822,7.17137 6.8057,3.32531 10.11569,4.09818 17.67767,4.12769 5.12483,0.02 7.06878,-0.19295 10.32548,-1.13112 18.21838,-5.2483 29.74202,-21.43164 28.6598,-40.24867 -0.0959,-1.66677 -0.60975,-4.84875 -1.14196,-7.07108 z"
       id="path3351"
       inkscape:connector-curvature="0" />
    <g
       id="g3361"
       transform="matrix(0.70710678,-0.70710678,0.70710678,0.70710678,-211.83272,311.65297)">
      <path
         inkscape:connector-curvature="0"
         id="path3357"
         d="m 290.92393,360.40769 223.74879,0"
         style="fill:none;stroke:#000000;stroke-width:1px;stroke-linecap:butt;stroke-linejoin:miter;stroke-opacity:1" />
      <path
         style="fill:none;stroke:#000000;stroke-width:1px;stroke-linecap:butt;stroke-linejoin:miter;stroke-opacity:1"
         d="m 290.92393,466.7069 223.74879,0"
         id="path3359"
         inkscape:connector-curvature="0" />
    </g>
    <rect
       style="fill:none;stroke:#000000;stroke-width:0.10633865;stroke-miterlimit:4;stroke-opacity:1;stroke-dasharray:none"
       id="rect3365"
       width="106.16629"
       height="106.16629"
       x="-537.224"
       y="-186.10054"
       transform="matrix(-0.70710678,-0.70710678,0.70710678,-0.70710678,0,0)"
       rx="4.2295938"
       ry="4.2295938" />
    <path
       style="fill:#ffe680;fill-opacity:1;stroke:#000000;stroke-width:0.03571429;stroke-miterlimit:4;stroke-opacity:1;stroke-dasharray:none"
       d="M 386.51313,583.21331 C 342.40035,624.62333 282.56315,643.98069 222.36686,636.31472 199.49655,633.4022 176.8743,626.38551 156.24625,615.80624 118.92618,596.66634 88.01647,565.75663 68.876566,528.43656 48.784544,489.25999 42.119014,444.43913 49.86779,400.61625 52.619927,385.05164 57.833906,368.20356 64.409907,353.62583 84.632892,308.79538 120.68148,272.7468 165.51193,252.5238 c 14.57773,-6.576 31.42581,-11.78998 46.99042,-14.54211 40.76937,-7.20885 82.75086,-1.90816 119.82217,15.1291 4.32298,1.98674 14.66881,7.23494 15.08728,7.65341 0.0661,0.0661 -22.26737,22.50765 -49.62987,49.87016 -49.58166,49.58165 -49.7486,49.75143 -49.24494,50.25509 0.50338,0.50338 0.67344,0.33672 50.36646,-49.3563 27.42375,-27.42375 49.99814,-49.82768 50.16526,-49.78646 0.7122,0.1756 11.54749,7.1272 15.61469,10.01793 18.51617,13.16014 35.07465,29.71862 48.23478,48.23479 2.89073,4.0672 9.84234,14.90249 10.01794,15.61469 0.0412,0.1671 -22.36271,22.74151 -49.78646,50.16526 -49.69301,49.69302 -49.85996,49.8628 -49.3563,50.36646 0.50336,0.50336 0.67344,0.33671 50.25509,-49.24494 27.3625,-27.3625 49.80411,-49.69592 49.87016,-49.62986 0.0661,0.0661 1.2784,2.31986 2.69403,5.00838 15.3521,29.15644 23.18994,60.96712 23.18993,94.11895 10e-6,38.70085 -10.56049,75.18196 -31.2744,108.03721 -8.32854,13.21024 -20.55682,28.02158 -32.01504,38.77775 z M 321.65077,437.52223 c 0.77561,-2.43679 3.12898,0.11505 -35.73813,-38.75206 -38.86711,-38.8671 -36.31527,-36.51374 -38.75207,-35.73813 -0.98889,0.31474 -5.3735,4.60733 -36.5043,35.73813 -38.8671,38.8671 -36.51374,36.31527 -35.73813,38.75206 0.31475,0.98889 4.60734,5.37351 35.73814,36.50431 31.08602,31.08602 35.51646,35.42369 36.50107,35.73711 2.40853,0.7666 -0.1645,3.14027 38.69458,-35.69663 31.19824,-31.18042 35.48393,-35.55549 35.79884,-36.54479 z"
       id="path3367"
       inkscape:connector-curvature="0" />
    <text
       xml:space="preserve"
       style="font-size:25.30876923px;font-style:normal;font-weight:normal;line-height:125%;letter-spacing:0px;word-spacing:0px;fill:#000000;fill-opacity:1;stroke:none;font-family:Sans"
       x="446.99481"
       y="-101.82571"
       id="text3369"
       sodipodi:linespacing="125%"
       transform="matrix(0.70710678,0.70710678,-0.70710678,0.70710678,0,0)"><tspan
         sodipodi:role="line"
         id="tspan3371"
         x="446.99481"
         y="-101.82571">30mm</tspan></text>
    <path
       style="fill:none;stroke:#000000;stroke-width:1px;stroke-linecap:butt;stroke-linejoin:miter;stroke-opacity:1"
       d="m 259.28571,233.79075 -244.999996,0"
       id="path3373"
       inkscape:connector-curvature="0" />
    <path
       inkscape:connector-curvature="0"
       id="path3375"
       d="m 259.28571,639.50504 -244.999996,0"
       style="fill:none;stroke:#000000;stroke-width:1px;stroke-linecap:butt;stroke-linejoin:miter;stroke-opacity:1" />
    <text
       xml:space="preserve"
       style="font-size:33.53943253px;font-style:normal;font-weight:normal;line-height:125%;letter-spacing:0px;word-spacing:0px;fill:#000000;fill-opacity:1;stroke:none;font-family:Sans"
       x="-617.66827"
       y="39.379971"
       id="text3377"
       sodipodi:linespacing="125%"
       transform="matrix(0,-1,1,0,0,0)"><tspan
         sodipodi:role="line"
         id="tspan3379"
         x="-617.66827"
         y="39.379971">no more than 114mm</tspan></text>
  </g>
</svg>
