  0
SECTION
  2
HEADER
  9
$ACADVER
  1
AC1014
  9
$HANDSEED
  5
FFFF
  9
$MEASUREMENT
 70
     1
  0
ENDSEC
  0
SECTION
  2
TABLES
  0
TABLE
  2
VPORT
  5
8
330
0
100
AcDbSymbolTable
 70
     4
  0
VPORT
  5
2E
330
8
100
AcDbSymbolTableRecord
100
AcDbViewportTableRecord
  2
*ACTIVE
 70
     0
 10
0.0
 20
0.0
 11
1.0
 21
1.0
 12
210.0
 22
148.5
 13
0.0
 23
0.0
 14
10.0
 24
10.0
 15
10.0
 25
10.0
 16
0.0
 26
0.0
 36
1.0
 17
0.0
 27
0.0
 37
0.0
 40
341.0
 41
1.24
 42
50.0
 43
0.0
 44
0.0
 50
0.0
 51
0.0
 71
     0
 72
   100
 73
     1
 74
     3
 75
     0
 76
     0
 77
     0
 78
     0
  0
ENDTAB
  0
TABLE
  2
LTYPE
  5
5
330
0
100
AcDbSymbolTable
 70
     1
  0
LTYPE
  5
14
330
5
100
AcDbSymbolTableRecord
100
AcDbLinetypeTableRecord
  2
BYBLOCK
 70
     0
  3

 72
    65
 73
     0
 40
0.0
  0
LTYPE
  5
15
330
5
100
AcDbSymbolTableRecord
100
AcDbLinetypeTableRecord
  2
BYLAYER
 70
     0
  3

 72
    65
 73
     0
 40
0.0
  0
LTYPE
  5
16
330
5
100
AcDbSymbolTableRecord
100
AcDbLinetypeTableRecord
  2
CONTINUOUS
 70
     0
  3
Solid line
 72
    65
 73
     0
 40
0.0
  0
ENDTAB
  0
TABLE
  2
LAYER
  5
2
100
AcDbSymbolTable
 70
2
  0
LAYER
  5
50
100
AcDbSymbolTableRecord
100
AcDbLayerTableRecord
  2
0
 70
0
  6
CONTINUOUS
  0
LAYER
  5
51
100
AcDbSymbolTableRecord
100
AcDbLayerTableRecord
  2
Layer_1
 70
0
  6
CONTINUOUS
  0
ENDTAB
  0
TABLE
  2
STYLE
  5
3
330
0
100
AcDbSymbolTable
 70
     1
  0
STYLE
  5
11
330
3
100
AcDbSymbolTableRecord
100
AcDbTextStyleTableRecord
  2
STANDARD
 70
     0
 40
0.0
 41
1.0
 50
0.0
 71
     0
 42
2.5
  3
txt
  4

  0
ENDTAB
  0
TABLE
  2
VIEW
  5
6
330
0
100
AcDbSymbolTable
 70
     0
  0
ENDTAB
  0
TABLE
  2
UCS
  5
7
330
0
100
AcDbSymbolTable
 70
     0
  0
ENDTAB
  0
TABLE
  2
APPID
  5
9
330
0
100
AcDbSymbolTable
 70
     2
  0
APPID
  5
12
330
9
100
AcDbSymbolTableRecord
100
AcDbRegAppTableRecord
  2
ACAD
 70
     0
  0
ENDTAB
  0
TABLE
  2
DIMSTYLE
  5
A
330
0
100
AcDbSymbolTable
 70
     1
  0
DIMSTYLE
105
27
330
A
100
AcDbSymbolTableRecord
100
AcDbDimStyleTableRecord
  2
ISO-25
 70
     0
  3

  4

  5

  6

  7

 40
1.0
 41
2.5
 42
0.625
 43
3.75
 44
1.25
 45
0.0
 46
0.0
 47
0.0
 48
0.0
140
2.5
141
2.5
142
0.0
143
0.03937007874016
144
1.0
145
0.0
146
1.0
147
0.625
 71
     0
 72
     0
 73
     0
 74
     0
 75
     0
 76
     0
 77
     1
 78
     8
170
     0
171
     3
172
     1
173
     0
174
     0
175
     0
176
     0
177
     0
178
     0
270
     2
271
     2
272
     2
273
     2
274
     3
340
11
275
     0
280
     0
281
     0
282
     0
283
     0
284
     8
285
     0
286
     0
287
     3
288
     0
  0
ENDTAB
  0
TABLE
  2
BLOCK_RECORD
  5
1
330
0
100
AcDbSymbolTable
 70
     1
  0
BLOCK_RECORD
  5
1F
330
1
100
AcDbSymbolTableRecord
100
AcDbBlockTableRecord
  2
*MODEL_SPACE
  0
BLOCK_RECORD
  5
1B
330
1
100
AcDbSymbolTableRecord
100
AcDbBlockTableRecord
  2
*PAPER_SPACE
  0
ENDTAB
  0
ENDSEC
  0
SECTION
  2
BLOCKS
  0
BLOCK
  5
20
330
1F
100
AcDbEntity
  8
0
100
AcDbBlockBegin
  2
*MODEL_SPACE
 70
     0
 10
0.0
 20
0.0
 30
0.0
  3
*MODEL_SPACE
  1

  0
ENDBLK
  5
21
330
1F
100
AcDbEntity
  8
0
100
AcDbBlockEnd
  0
BLOCK
  5
1C
330
1B
100
AcDbEntity
 67
     1
  8
0
100
AcDbBlockBegin
  2
*PAPER_SPACE
  1

  0
ENDBLK
  5
1D
330
1B
100
AcDbEntity
 67
     1
  8
0
100
AcDbBlockEnd
  0
ENDSEC
  0
SECTION
  2
ENTITIES
  0
LWPOLYLINE
  5
100
100
AcDbEntity
  8
Layer_1
 62
7
100
AcDbPolyline
 90
98
 70
0
 10
7.921028
 20
-44.863031
 30
0.0
 10
8.876614
 20
-43.999318
 30
0.0
 10
9.740323
 20
-43.043742
 30
0.0
 10
10.488885
 20
-42.025540
 30
0.0
 10
11.122294
 20
-40.953689
 30
0.0
 10
11.640508
 20
-39.837105
 30
0.0
 10
12.043582
 20
-38.684763
 30
0.0
 10
12.331494
 20
-37.505582
 30
0.0
 10
12.504232
 20
-36.308480
 30
0.0
 10
12.561814
 20
-35.102460
 30
0.0
 10
12.504221
 20
-33.896440
 30
0.0
 10
12.331493
 20
-32.699366
 30
0.0
 10
12.043588
 20
-31.520185
 30
0.0
 10
11.640515
 20
-30.367844
 30
0.0
 10
11.122284
 20
-29.251260
 30
0.0
 10
10.488897
 20
-28.179408
 30
0.0
 10
9.740340
 20
-27.161206
 30
0.0
 10
8.876612
 20
-26.205602
 30
0.0
 10
7.921040
 20
-25.341889
 30
0.0
 10
6.902841
 20
-24.593351
 30
0.0
 10
5.830978
 20
-23.959960
 30
0.0
 10
4.714402
 20
-23.441715
 30
0.0
 10
3.562056
 20
-23.038645
 30
0.0
 10
2.482812
 20
-22.736696
 30
0.0
 10
0.264503
 20
79.179712
 30
0.0
 10
-0.304981
 20
79.179712
 30
0.0
 10
-2.523281
 20
-22.736696
 30
0.0
 10
-3.602519
 20
-23.038674
 30
0.0
 10
-4.754885
 20
-23.441715
 30
0.0
 10
-5.871444
 20
-23.959960
 30
0.0
 10
-6.943308
 20
-24.593323
 30
0.0
 10
-7.961517
 20
-25.341889
 30
0.0
 10
-8.917104
 20
-26.205602
 30
0.0
 10
-9.780813
 20
-27.161206
 30
0.0
 10
-10.529362
 20
-28.179380
 30
0.0
 10
-11.162751
 20
-29.251260
 30
0.0
 10
-11.680997
 20
-30.367815
 30
0.0
 10
-12.084053
 20
-31.520185
 30
0.0
 10
-12.371951
 20
-32.699366
 30
0.0
 10
-12.544707
 20
-33.896440
 30
0.0
 10
-12.602292
 20
-35.102460
 30
0.0
 10
-12.544699
 20
-36.308480
 30
0.0
 10
-12.371951
 20
-37.505554
 30
0.0
 10
-12.084044
 20
-38.684763
 30
0.0
 10
-11.680972
 20
-39.837105
 30
0.0
 10
-11.162740
 20
-40.953689
 30
0.0
 10
-10.529353
 20
-42.025540
 30
0.0
 10
-9.780797
 20
-43.043742
 30
0.0
 10
-8.917088
 20
-43.999318
 30
0.0
 10
-7.961497
 20
-44.863031
 30
0.0
 10
-7.484402
 20
-45.408708
 30
0.0
 10
-8.056837
 20
-44.630056
 30
0.0
 10
-8.541206
 20
-43.810370
 30
0.0
 10
-8.937525
 20
-42.956479
 30
0.0
 10
-9.245763
 20
-42.075268
 30
0.0
 10
-9.465935
 20
-41.173483
 30
0.0
 10
-9.598037
 20
-40.258067
 30
0.0
 10
-9.642055
 20
-39.335793
 30
0.0
 10
-9.598035
 20
-38.413519
 30
0.0
 10
-9.465924
 20
-37.498075
 30
0.0
 10
-9.245757
 20
-36.596347
 30
0.0
 10
-8.937532
 20
-35.715080
 30
0.0
 10
-8.541214
 20
-34.861216
 30
0.0
 10
-8.056839
 20
-34.041530
 30
0.0
 10
-7.484413
 20
-33.262879
 30
0.0
 10
-6.823904
 20
-32.532149
 30
0.0
 10
-6.093149
 20
-31.871636
 30
0.0
 10
-5.314487
 20
-31.299205
 30
0.0
 10
-4.494809
 20
-30.814827
 30
0.0
 10
-3.640947
 20
-30.418502
 30
0.0
 10
-2.759702
 20
-30.110288
 30
0.0
 10
-1.857944
 20
-29.890098
 30
0.0
 10
-0.942515
 20
-29.757990
 30
0.0
 10
-0.020226
 20
-29.713963
 30
0.0
 10
0.902032
 20
-29.757990
 30
0.0
 10
1.817467
 20
-29.890098
 30
0.0
 10
2.719229
 20
-30.110259
 30
0.0
 10
3.600456
 20
-30.418502
 30
0.0
 10
4.454347
 20
-30.814827
 30
0.0
 10
5.274031
 20
-31.299205
 30
0.0
 10
6.052666
 20
-31.871636
 30
0.0
 10
6.783422
 20
-32.532121
 30
0.0
 10
7.443927
 20
-33.262879
 30
0.0
 10
8.016381
 20
-34.041530
 30
0.0
 10
8.500750
 20
-34.861216
 30
0.0
 10
8.897051
 20
-35.715108
 30
0.0
 10
9.205289
 20
-36.596319
 30
0.0
 10
9.425460
 20
-37.498075
 30
0.0
 10
9.557562
 20
-38.413519
 30
0.0
 10
9.601600
 20
-39.335793
 30
0.0
 10
9.557560
 20
-40.258067
 30
0.0
 10
9.425449
 20
-41.173512
 30
0.0
 10
9.205292
 20
-42.075268
 30
0.0
 10
8.897047
 20
-42.956507
 30
0.0
 10
8.500759
 20
-43.810370
 30
0.0
 10
8.016384
 20
-44.630056
 30
0.0
 10
7.443928
 20
-45.408708
 30
0.0
 10
7.921028
 20
-44.863031
 30
0.0
  0
ENDSEC
  0
SECTION
  2
OBJECTS
  0
DICTIONARY
  5
C
330
0
100
AcDbDictionary
  3
ACAD_GROUP
350
D
  3
ACAD_MLINESTYLE
350
17
  0
DICTIONARY
  5
D
330
C
100
AcDbDictionary
  0
DICTIONARY
  5
1A
330
C
100
AcDbDictionary
  0
DICTIONARY
  5
17
330
C
100
AcDbDictionary
  3
STANDARD
350
18
  0
DICTIONARY
  5
19
330
C
100
AcDbDictionary
  0
ENDSEC
  0
EOF
